  0
SECTION
  2
HEADER
  9
$ACADVER
  1
AC1027
  9
$ACADMAINTVER
 70
105
  9
$DWGCODEPAGE
  3
ANSI_1252
  9
$LASTSAVEDBY
  1
ezdxf
  9
$REQUIREDVERSIONS
160
0
  9
$INSBASE
 10
0.0
 20
0.0
 30
0.0
  9
$EXTMIN
 10
1e+20
 20
1e+20
 30
1e+20
  9
$EXTMAX
 10
-1e+20
 20
-1e+20
 30
-1e+20
  9
$LIMMIN
 10
0.0
 20
0.0
  9
$LIMMAX
 10
420.0
 20
297.0
  9
$ORTHOMODE
 70
0
  9
$REGENMODE
 70
1
  9
$FILLMODE
 70
1
  9
$QTEXTMODE
 70
0
  9
$MIRRTEXT
 70
1
  9
$LTSCALE
 40
1.0
  9
$ATTMODE
 70
1
  9
$TEXTSIZE
 40
2.5
  9
$TRACEWID
 40
1.0
  9
$TEXTSTYLE
  7
OpenSans
  9
$CLAYER
  8
0
  9
$CELTYPE
  6
ByLayer
  9
$CECOLOR
 62
256
  9
$CELTSCALE
 40
1.0
  9
$DISPSILH
 70
0
  9
$DIMSCALE
 40
1.0
  9
$DIMASZ
 40
0.175
  9
$DIMEXO
 40
0.125
  9
$DIMDLI
 40
3.75
  9
$DIMRND
 40
0.0
  9
$DIMDLE
 40
0.0
  9
$DIMEXE
 40
0.375
  9
$DIMTP
 40
0.0
  9
$DIMTM
 40
0.0
  9
$DIMTXT
 40
0.25
  9
$DIMCEN
 40
2.5
  9
$DIMTSZ
 40
0.0
  9
$DIMTOL
 70
0
  9
$DIMLIM
 70
0
  9
$DIMTIH
 70
0
  9
$DIMTOH
 70
0
  9
$DIMSE1
 70
0
  9
$DIMSE2
 70
0
  9
$DIMTAD
 70
1
  9
$DIMZIN
 70
12
  9
$DIMBLK
  1
ARCHTICK
  9
$DIMASO
 70
1
  9
$DIMSHO
 70
1
  9
$DIMPOST
  1

  9
$DIMAPOST
  1

  9
$DIMALT
 70
0
  9
$DIMALTD
 70
3
  9
$DIMALTF
 40
0.03937007874
  9
$DIMLFAC
 40
100.0
  9
$DIMTOFL
 70
1
  9
$DIMTVP
 40
0.0
  9
$DIMTIX
 70
0
  9
$DIMSOXD
 70
0
  9
$DIMSAH
 70
0
  9
$DIMBLK1
  1

  9
$DIMBLK2
  1

  9
$DIMSTYLE
  2
EZDXF
  9
$DIMCLRD
 70
0
  9
$DIMCLRE
 70
0
  9
$DIMCLRT
 70
0
  9
$DIMTFAC
 40
0.5
  9
$DIMGAP
 40
0.1
  9
$DIMJUST
 70
0
  9
$DIMSD1
 70
0
  9
$DIMSD2
 70
0
  9
$DIMTOLJ
 70
0
  9
$DIMTZIN
 70
8
  9
$DIMALTZ
 70
0
  9
$DIMALTTZ
 70
0
  9
$DIMUPT
 70
1
  9
$DIMDEC
 70
2
  9
$DIMTDEC
 70
2
  9
$DIMALTU
 70
2
  9
$DIMALTTD
 70
3
  9
$DIMTXSTY
  7
OpenSansCondensed-Light
  9
$DIMAUNIT
 70
0
  9
$DIMADEC
 70
2
  9
$DIMALTRND
 40
0.0
  9
$DIMAZIN
 70
3
  9
$DIMDSEP
 70
46
  9
$DIMATFIT
 70
3
  9
$DIMFRAC
 70
0
  9
$DIMLDRBLK
  1

  9
$DIMLUNIT
 70
2
  9
$DIMLWD
 70
-2
  9
$DIMLWE
 70
-2
  9
$DIMTMOVE
 70
2
  9
$DIMFXL
 40
1.0
  9
$DIMFXLON
 70
0
  9
$DIMJOGANG
 40
0.785398163397
  9
$DIMTFILL
 70
0
  9
$DIMTFILLCLR
 70
0
  9
$DIMARCSYM
 70
0
  9
$DIMLTYPE
  6

  9
$DIMLTEX1
  6

  9
$DIMLTEX2
  6

  9
$DIMTXTDIRECTION
 70
0
  9
$LUNITS
 70
2
  9
$LUPREC
 70
4
  9
$SKETCHINC
 40
1.0
  9
$FILLETRAD
 40
10.0
  9
$AUNITS
 70
0
  9
$AUPREC
 70
2
  9
$MENU
  1
.
  9
$ELEVATION
 40
0.0
  9
$PELEVATION
 40
0.0
  9
$THICKNESS
 40
0.0
  9
$LIMCHECK
 70
0
  9
$CHAMFERA
 40
0.0
  9
$CHAMFERB
 40
0.0
  9
$CHAMFERC
 40
0.0
  9
$CHAMFERD
 40
0.0
  9
$SKPOLY
 70
0
  9
$TDCREATE
 40
2459622.2129166666
  9
$TDUCREATE
 40
2458532.153996898
  9
$TDUPDATE
 40
2459622.2129166666
  9
$TDUUPDATE
 40
2458532.1544311
  9
$TDINDWG
 40
0.0
  9
$TDUSRTIMER
 40
0.0
  9
$USRTIMER
 70
1
  9
$ANGBASE
 50
0.0
  9
$ANGDIR
 70
0
  9
$PDMODE
 70
0
  9
$PDSIZE
 40
0.0
  9
$PLINEWID
 40
0.0
  9
$SPLFRAME
 70
0
  9
$SPLINETYPE
 70
6
  9
$SPLINESEGS
 70
8
  9
$HANDSEED
  5
8F
  9
$SURFTAB1
 70
6
  9
$SURFTAB2
 70
6
  9
$SURFTYPE
 70
6
  9
$SURFU
 70
6
  9
$SURFV
 70
6
  9
$UCSBASE
  2

  9
$UCSNAME
  2

  9
$UCSORG
 10
0.0
 20
0.0
 30
0.0
  9
$UCSXDIR
 10
1.0
 20
0.0
 30
0.0
  9
$UCSYDIR
 10
0.0
 20
1.0
 30
0.0
  9
$UCSORTHOREF
  2

  9
$UCSORTHOVIEW
 70
0
  9
$UCSORGTOP
 10
0.0
 20
0.0
 30
0.0
  9
$UCSORGBOTTOM
 10
0.0
 20
0.0
 30
0.0
  9
$UCSORGLEFT
 10
0.0
 20
0.0
 30
0.0
  9
$UCSORGRIGHT
 10
0.0
 20
0.0
 30
0.0
  9
$UCSORGFRONT
 10
0.0
 20
0.0
 30
0.0
  9
$UCSORGBACK
 10
0.0
 20
0.0
 30
0.0
  9
$PUCSBASE
  2

  9
$PUCSNAME
  2

  9
$PUCSORG
 10
0.0
 20
0.0
 30
0.0
  9
$PUCSXDIR
 10
1.0
 20
0.0
 30
0.0
  9
$PUCSYDIR
 10
0.0
 20
1.0
 30
0.0
  9
$PUCSORTHOREF
  2

  9
$PUCSORTHOVIEW
 70
0
  9
$PUCSORGTOP
 10
0.0
 20
0.0
 30
0.0
  9
$PUCSORGBOTTOM
 10
0.0
 20
0.0
 30
0.0
  9
$PUCSORGLEFT
 10
0.0
 20
0.0
 30
0.0
  9
$PUCSORGRIGHT
 10
0.0
 20
0.0
 30
0.0
  9
$PUCSORGFRONT
 10
0.0
 20
0.0
 30
0.0
  9
$PUCSORGBACK
 10
0.0
 20
0.0
 30
0.0
  9
$USERI1
 70
0
  9
$USERI2
 70
0
  9
$USERI3
 70
0
  9
$USERI4
 70
0
  9
$USERI5
 70
0
  9
$USERR1
 40
0.0
  9
$USERR2
 40
0.0
  9
$USERR3
 40
0.0
  9
$USERR4
 40
0.0
  9
$USERR5
 40
0.0
  9
$WORLDVIEW
 70
1
  9
$SHADEDGE
 70
3
  9
$SHADEDIF
 70
70
  9
$TILEMODE
 70
1
  9
$MAXACTVP
 70
64
  9
$PINSBASE
 10
0.0
 20
0.0
 30
0.0
  9
$PLIMCHECK
 70
0
  9
$PEXTMIN
 10
1e+20
 20
1e+20
 30
1e+20
  9
$PEXTMAX
 10
-1e+20
 20
-1e+20
 30
-1e+20
  9
$PLIMMIN
 10
0.0
 20
0.0
  9
$PLIMMAX
 10
420.0
 20
297.0
  9
$UNITMODE
 70
0
  9
$VISRETAIN
 70
1
  9
$PLINEGEN
 70
0
  9
$PSLTSCALE
 70
1
  9
$TREEDEPTH
 70
3020
  9
$CMLSTYLE
  2
Standard
  9
$CMLJUST
 70
0
  9
$CMLSCALE
 40
20.0
  9
$PROXYGRAPHICS
 70
1
  9
$MEASUREMENT
 70
1
  9
$CELWEIGHT
370
-1
  9
$ENDCAPS
280
0
  9
$JOINSTYLE
280
0
  9
$LWDISPLAY
290
0
  9
$INSUNITS
 70
5
  9
$HYPERLINKBASE
  1

  9
$STYLESHEET
  1

  9
$XEDIT
290
1
  9
$CEPSNTYPE
380
0
  9
$PSTYLEMODE
290
1
  9
$FINGERPRINTGUID
  2
{FCDB63F6-5DD2-4590-92EE-453283C498A1}
  9
$VERSIONGUID
  2
{6322A9E8-58FD-46D2-A745-1EFAF03F91B5}
  9
$EXTNAMES
290
1
  9
$PSVPSCALE
 40
0.0
  9
$OLESTARTUP
290
0
  9
$SORTENTS
280
127
  9
$INDEXCTL
280
0
  9
$HIDETEXT
280
1
  9
$XCLIPFRAME
280
0
  9
$HALOGAP
280
0
  9
$OBSCOLOR
 70
257
  9
$OBSLTYPE
280
0
  9
$INTERSECTIONDISPLAY
280
0
  9
$INTERSECTIONCOLOR
 70
257
  9
$DIMASSOC
280
2
  9
$PROJECTNAME
  1

  9
$CAMERADISPLAY
290
0
  9
$LENSLENGTH
 40
50.0
  9
$CAMERAHEIGHT
 40
0.0
  9
$STEPSPERSEC
 40
24.0
  9
$STEPSIZE
 40
100.0
  9
$3DDWFPREC
 40
2.0
  9
$PSOLWIDTH
 40
0.005
  9
$PSOLHEIGHT
 40
0.08
  9
$LOFTANG1
 40
1.570796326795
  9
$LOFTANG2
 40
1.570796326795
  9
$LOFTMAG1
 40
0.0
  9
$LOFTMAG2
 40
0.0
  9
$LOFTPARAM
 70
7
  9
$LOFTNORMALS
280
1
  9
$LATITUDE
 40
37.795
  9
$LONGITUDE
 40
-122.394
  9
$NORTHDIRECTION
 40
0.0
  9
$TIMEZONE
 70
-8000
  9
$LIGHTGLYPHDISPLAY
280
1
  9
$TILEMODELIGHTSYNCH
280
1
  9
$CMATERIAL
347
20
  9
$SOLIDHIST
280
0
  9
$SHOWHIST
280
1
  9
$DWFFRAME
280
2
  9
$DGNFRAME
280
2
  9
$REALWORLDSCALE
290
1
  9
$INTERFERECOLOR
 62
256
  9
$CSHADOW
280
0
  9
$SHADOWPLANELOCATION
 40
0.0
  0
ENDSEC
  0
SECTION
  2
CLASSES
  0
CLASS
  1
ACDBDICTIONARYWDFLT
  2
AcDbDictionaryWithDefault
  3
ObjectDBX Classes
 90
0
 91
0
280
0
281
0
  0
CLASS
  1
SUN
  2
AcDbSun
  3
SCENEOE
 90
1153
 91
0
280
0
281
0
  0
CLASS
  1
VISUALSTYLE
  2
AcDbVisualStyle
  3
ObjectDBX Classes
 90
4095
 91
0
280
0
281
0
  0
CLASS
  1
MATERIAL
  2
AcDbMaterial
  3
ObjectDBX Classes
 90
1153
 91
0
280
0
281
0
  0
CLASS
  1
SCALE
  2
AcDbScale
  3
ObjectDBX Classes
 90
1153
 91
0
280
0
281
0
  0
CLASS
  1
TABLESTYLE
  2
AcDbTableStyle
  3
ObjectDBX Classes
 90
4095
 91
0
280
0
281
0
  0
CLASS
  1
MLEADERSTYLE
  2
AcDbMLeaderStyle
  3
ACDB_MLEADERSTYLE_CLASS
 90
4095
 91
0
280
0
281
0
  0
CLASS
  1
DICTIONARYVAR
  2
AcDbDictionaryVar
  3
ObjectDBX Classes
 90
0
 91
0
280
0
281
0
  0
CLASS
  1
CELLSTYLEMAP
  2
AcDbCellStyleMap
  3
ObjectDBX Classes
 90
1152
 91
0
280
0
281
0
  0
CLASS
  1
MENTALRAYRENDERSETTINGS
  2
AcDbMentalRayRenderSettings
  3
SCENEOE
 90
1024
 91
0
280
0
281
0
  0
CLASS
  1
ACDBDETAILVIEWSTYLE
  2
AcDbDetailViewStyle
  3
ObjectDBX Classes
 90
1025
 91
0
280
0
281
0
  0
CLASS
  1
ACDBSECTIONVIEWSTYLE
  2
AcDbSectionViewStyle
  3
ObjectDBX Classes
 90
1025
 91
0
280
0
281
0
  0
CLASS
  1
RASTERVARIABLES
  2
AcDbRasterVariables
  3
ISM
 90
0
 91
0
280
0
281
0
  0
CLASS
  1
LAYOUT
  2
AcDbLayout
  3
ObjectDBX Classes
 90
0
 91
0
280
0
281
0
  0
CLASS
  1
ACDBPLACEHOLDER
  2
AcDbPlaceHolder
  3
ObjectDBX Classes
 90
0
 91
0
280
0
281
0
  0
ENDSEC
  0
SECTION
  2
TABLES
  0
TABLE
  2
VPORT
  5
8
330
0
100
AcDbSymbolTable
 70
1
  0
VPORT
  5
23
330
8
100
AcDbSymbolTableRecord
100
AcDbViewportTableRecord
  2
*Active
 70
0
 10
0.0
 20
0.0
 11
1.0
 21
1.0
 12
0.0
 22
0.0
 13
0.0
 23
0.0
 14
0.5
 24
0.5
 15
0.5
 25
0.5
 16
0.0
 26
0.0
 36
1.0
 17
0.0
 27
0.0
 37
0.0
 40
1000.0
 41
1.34
 42
50.0
 43
0.0
 44
0.0
 50
0.0
 51
0.0
 71
0
 72
1000
 73
1
 74
3
 75
0
 76
0
 77
0
 78
0
281
0
 65
0
146
0.0
  0
ENDTAB
  0
TABLE
  2
LTYPE
  5
2
330
0
100
AcDbSymbolTable
 70
21
  0
LTYPE
  5
24
330
2
100
AcDbSymbolTableRecord
100
AcDbLinetypeTableRecord
  2
ByBlock
 70
0
  3

 72
65
 73
0
 40
0.0
  0
LTYPE
  5
25
330
2
100
AcDbSymbolTableRecord
100
AcDbLinetypeTableRecord
  2
ByLayer
 70
0
  3

 72
65
 73
0
 40
0.0
  0
LTYPE
  5
26
330
2
100
AcDbSymbolTableRecord
100
AcDbLinetypeTableRecord
  2
Continuous
 70
0
  3

 72
65
 73
0
 40
0.0
  0
LTYPE
  5
2F
330
2
100
AcDbSymbolTableRecord
100
AcDbLinetypeTableRecord
  2
CENTER
 70
0
  3
Center ____ _ ____ _ ____ _ ____ _ ____ _ ____
 72
65
 73
4
 40
5.08
 49
3.175
 74
0
 49
-0.635
 74
0
 49
0.635
 74
0
 49
-0.635
 74
0
  0
LTYPE
  5
30
330
2
100
AcDbSymbolTableRecord
100
AcDbLinetypeTableRecord
  2
CENTERX2
 70
0
  3
Center (2x) ________  __  ________  __  ________
 72
65
 73
4
 40
8.89
 49
6.35
 74
0
 49
-0.635
 74
0
 49
1.27
 74
0
 49
-0.635
 74
0
  0
LTYPE
  5
31
330
2
100
AcDbSymbolTableRecord
100
AcDbLinetypeTableRecord
  2
CENTER2
 70
0
  3
Center (.5x) ____ _ ____ _ ____ _ ____ _ ____
 72
65
 73
4
 40
2.54
 49
1.587
 74
0
 49
-0.318
 74
0
 49
0.318
 74
0
 49
-0.318
 74
0
  0
LTYPE
  5
32
330
2
100
AcDbSymbolTableRecord
100
AcDbLinetypeTableRecord
  2
DASHED
 70
0
  3
Dashed __ __ __ __ __ __ __ __ __ __ __ __ __ _
 72
65
 73
2
 40
1.524
 49
1.27
 74
0
 49
-0.254
 74
0
  0
LTYPE
  5
33
330
2
100
AcDbSymbolTableRecord
100
AcDbLinetypeTableRecord
  2
DASHEDX2
 70
0
  3
Dashed (2x) ____  ____  ____  ____  ____  ____
 72
65
 73
2
 40
3.048
 49
2.54
 74
0
 49
-0.508
 74
0
  0
LTYPE
  5
34
330
2
100
AcDbSymbolTableRecord
100
AcDbLinetypeTableRecord
  2
DASHED2
 70
0
  3
Dashed (.5x) _ _ _ _ _ _ _ _ _ _ _ _ _ _
 72
65
 73
2
 40
0.762
 49
0.635
 74
0
 49
-0.127
 74
0
  0
LTYPE
  5
35
330
2
100
AcDbSymbolTableRecord
100
AcDbLinetypeTableRecord
  2
PHANTOM
 70
0
  3
Phantom ______  __  __  ______  __  __  ______
 72
65
 73
6
 40
6.35
 49
3.175
 74
0
 49
-0.635
 74
0
 49
0.635
 74
0
 49
-0.635
 74
0
 49
0.635
 74
0
 49
-0.635
 74
0
  0
LTYPE
  5
36
330
2
100
AcDbSymbolTableRecord
100
AcDbLinetypeTableRecord
  2
PHANTOMX2
 70
0
  3
Phantom (2x)____________    ____    ____    ____________
 72
65
 73
6
 40
10.795
 49
6.35
 74
0
 49
-0.635
 74
0
 49
1.27
 74
0
 49
-0.635
 74
0
 49
1.27
 74
0
 49
-0.635
 74
0
  0
LTYPE
  5
37
330
2
100
AcDbSymbolTableRecord
100
AcDbLinetypeTableRecord
  2
PHANTOM2
 70
0
  3
Phantom (.5x) ___ _ _ ___ _ _ ___ _ _ ___ _ _ ___
 72
65
 73
6
 40
3.175
 49
1.587
 74
0
 49
-0.318
 74
0
 49
0.318
 74
0
 49
-0.318
 74
0
 49
0.318
 74
0
 49
-0.318
 74
0
  0
LTYPE
  5
38
330
2
100
AcDbSymbolTableRecord
100
AcDbLinetypeTableRecord
  2
DASHDOT
 70
0
  3
Dash dot __ . __ . __ . __ . __ . __ . __ . __
 72
65
 73
4
 40
3.556
 49
2.54
 74
0
 49
-0.508
 74
0
 49
0.0
 74
0
 49
-0.508
 74
0
  0
LTYPE
  5
39
330
2
100
AcDbSymbolTableRecord
100
AcDbLinetypeTableRecord
  2
DASHDOTX2
 70
0
  3
Dash dot (2x) ____  .  ____  .  ____  .  ____
 72
65
 73
4
 40
6.096
 49
5.08
 74
0
 49
-0.508
 74
0
 49
0.0
 74
0
 49
-0.508
 74
0
  0
LTYPE
  5
3A
330
2
100
AcDbSymbolTableRecord
100
AcDbLinetypeTableRecord
  2
DASHDOT2
 70
0
  3
Dash dot (.5x) _ . _ . _ . _ . _ . _ . _ . _
 72
65
 73
4
 40
1.778
 49
1.27
 74
0
 49
-0.254
 74
0
 49
0.0
 74
0
 49
-0.254
 74
0
  0
LTYPE
  5
3B
330
2
100
AcDbSymbolTableRecord
100
AcDbLinetypeTableRecord
  2
DOT
 70
0
  3
Dot .  .  .  .  .  .  .  .  .  .  .  .  .  .  .  .
 72
65
 73
2
 40
0.508
 49
0.0
 74
0
 49
-0.508
 74
0
  0
LTYPE
  5
3C
330
2
100
AcDbSymbolTableRecord
100
AcDbLinetypeTableRecord
  2
DOTX2
 70
0
  3
Dot (2x) .    .    .    .    .    .    .    . 
 72
65
 73
2
 40
1.016
 49
0.0
 74
0
 49
-1.016
 74
0
  0
LTYPE
  5
3D
330
2
100
AcDbSymbolTableRecord
100
AcDbLinetypeTableRecord
  2
DOT2
 70
0
  3
Dot (.5) . . . . . . . . . . . . . . . . . . . 
 72
65
 73
2
 40
0.254
 49
0.0
 74
0
 49
-0.254
 74
0
  0
LTYPE
  5
3E
330
2
100
AcDbSymbolTableRecord
100
AcDbLinetypeTableRecord
  2
DIVIDE
 70
0
  3
Divide __ . . __ . . __ . . __ . . __ . . __
 72
65
 73
6
 40
4.064
 49
2.54
 74
0
 49
-0.508
 74
0
 49
0.0
 74
0
 49
-0.508
 74
0
 49
0.0
 74
0
 49
-0.508
 74
0
  0
LTYPE
  5
3F
330
2
100
AcDbSymbolTableRecord
100
AcDbLinetypeTableRecord
  2
DIVIDEX2
 70
0
  3
Divide (2x) ____  . .  ____  . .  ____  . .  ____
 72
65
 73
6
 40
6.604
 49
5.08
 74
0
 49
-0.508
 74
0
 49
0.0
 74
0
 49
-0.508
 74
0
 49
0.0
 74
0
 49
-0.508
 74
0
  0
LTYPE
  5
40
330
2
100
AcDbSymbolTableRecord
100
AcDbLinetypeTableRecord
  2
DIVIDE2
 70
0
  3
Divide(.5x) _ . _ . _ . _ . _ . _ . _ . _
 72
65
 73
6
 40
2.032
 49
1.27
 74
0
 49
-0.254
 74
0
 49
0.0
 74
0
 49
-0.254
 74
0
 49
0.0
 74
0
 49
-0.254
 74
0
  0
ENDTAB
  0
TABLE
  2
LAYER
  5
1
330
0
100
AcDbSymbolTable
 70
3
  0
LAYER
  5
27
330
1
100
AcDbSymbolTableRecord
100
AcDbLayerTableRecord
  2
0
 70
0
 62
7
  6
Continuous
370
-3
390
13
347
21
  0
LAYER
  5
28
330
1
100
AcDbSymbolTableRecord
100
AcDbLayerTableRecord
  2
Defpoints
 70
0
 62
7
  6
Continuous
290
0
370
-3
390
13
347
21
  0
LAYER
  5
8A
330
1
100
AcDbSymbolTableRecord
100
AcDbLayerTableRecord
  2
flower
 70
0
 62
1
  6
CONTINUOUS
370
158
390
13
347
21
  0
ENDTAB
  0
TABLE
  2
STYLE
  5
5
330
0
100
AcDbSymbolTable
 70
26
  0
STYLE
  5
29
330
5
100
AcDbSymbolTableRecord
100
AcDbTextStyleTableRecord
  2
Standard
 70
0
 40
0.0
 41
1.0
 50
0.0
 71
0
 42
2.5
  3
txt
  4

  0
STYLE
  5
41
330
5
100
AcDbSymbolTableRecord
100
AcDbTextStyleTableRecord
  2
OpenSans-Light
 70
0
 40
0.0
 41
1.0
 50
0.0
 71
0
 42
2.5
  3
OpenSans-Light.ttf
  4

  0
STYLE
  5
42
330
5
100
AcDbSymbolTableRecord
100
AcDbTextStyleTableRecord
  2
OpenSans-Light-Italic
 70
0
 40
0.0
 41
1.0
 50
0.0
 71
0
 42
2.5
  3
OpenSans-LightItalic.ttf
  4

  0
STYLE
  5
43
330
5
100
AcDbSymbolTableRecord
100
AcDbTextStyleTableRecord
  2
OpenSans
 70
0
 40
0.0
 41
1.0
 50
0.0
 71
0
 42
2.5
  3
OpenSans-Regular.ttf
  4

  0
STYLE
  5
44
330
5
100
AcDbSymbolTableRecord
100
AcDbTextStyleTableRecord
  2
OpenSans-Italic
 70
0
 40
0.0
 41
1.0
 50
0.0
 71
0
 42
2.5
  3
OpenSans-Italic.ttf
  4

  0
STYLE
  5
45
330
5
100
AcDbSymbolTableRecord
100
AcDbTextStyleTableRecord
  2
OpenSans-SemiBold
 70
0
 40
0.0
 41
1.0
 50
0.0
 71
0
 42
2.5
  3
OpenSans-SemiBold.ttf
  4

  0
STYLE
  5
46
330
5
100
AcDbSymbolTableRecord
100
AcDbTextStyleTableRecord
  2
OpenSans-SemiBoldItalic
 70
0
 40
0.0
 41
1.0
 50
0.0
 71
0
 42
2.5
  3
OpenSans-SemiBoldItalic.ttf
  4

  0
STYLE
  5
47
330
5
100
AcDbSymbolTableRecord
100
AcDbTextStyleTableRecord
  2
OpenSans-Bold
 70
0
 40
0.0
 41
1.0
 50
0.0
 71
0
 42
2.5
  3
OpenSans-Bold.ttf
  4

  0
STYLE
  5
48
330
5
100
AcDbSymbolTableRecord
100
AcDbTextStyleTableRecord
  2
OpenSans-BoldItalic
 70
0
 40
0.0
 41
1.0
 50
0.0
 71
0
 42
2.5
  3
OpenSans-BoldItalic.ttf
  4

  0
STYLE
  5
49
330
5
100
AcDbSymbolTableRecord
100
AcDbTextStyleTableRecord
  2
OpenSans-ExtraBold
 70
0
 40
0.0
 41
1.0
 50
0.0
 71
0
 42
2.5
  3
OpenSans-ExtraBold.ttf
  4

  0
STYLE
  5
4A
330
5
100
AcDbSymbolTableRecord
100
AcDbTextStyleTableRecord
  2
OpenSans-ExtraBoldItalic
 70
0
 40
0.0
 41
1.0
 50
0.0
 71
0
 42
2.5
  3
OpenSans-ExtraBoldItalic.ttf
  4

  0
STYLE
  5
4B
330
5
100
AcDbSymbolTableRecord
100
AcDbTextStyleTableRecord
  2
OpenSansCondensed-Bold
 70
0
 40
0.0
 41
1.0
 50
0.0
 71
0
 42
2.5
  3
OpenSansCondensed-Bold.ttf
  4

  0
STYLE
  5
4C
330
5
100
AcDbSymbolTableRecord
100
AcDbTextStyleTableRecord
  2
OpenSansCondensed-Light
 70
0
 40
0.0
 41
1.0
 50
0.0
 71
0
 42
2.5
  3
OpenSansCondensed-Light.ttf
  4

  0
STYLE
  5
4D
330
5
100
AcDbSymbolTableRecord
100
AcDbTextStyleTableRecord
  2
OpenSansCondensed-Italic
 70
0
 40
0.0
 41
1.0
 50
0.0
 71
0
 42
2.5
  3
OpenSansCondensed-LightItalic.ttf
  4

  0
STYLE
  5
4E
330
5
100
AcDbSymbolTableRecord
100
AcDbTextStyleTableRecord
  2
LiberationSans
 70
0
 40
0.0
 41
1.0
 50
0.0
 71
0
 42
2.5
  3
LiberationSans-Regular.ttf
  4

  0
STYLE
  5
4F
330
5
100
AcDbSymbolTableRecord
100
AcDbTextStyleTableRecord
  2
LiberationSans-Bold
 70
0
 40
0.0
 41
1.0
 50
0.0
 71
0
 42
2.5
  3
LiberationSans-Bold.ttf
  4

  0
STYLE
  5
50
330
5
100
AcDbSymbolTableRecord
100
AcDbTextStyleTableRecord
  2
LiberationSans-BoldItalic
 70
0
 40
0.0
 41
1.0
 50
0.0
 71
0
 42
2.5
  3
LiberationSans-BoldItalic.ttf
  4

  0
STYLE
  5
51
330
5
100
AcDbSymbolTableRecord
100
AcDbTextStyleTableRecord
  2
LiberationSans-Italic
 70
0
 40
0.0
 41
1.0
 50
0.0
 71
0
 42
2.5
  3
LiberationSans-Italic.ttf
  4

  0
STYLE
  5
52
330
5
100
AcDbSymbolTableRecord
100
AcDbTextStyleTableRecord
  2
LiberationSerif
 70
0
 40
0.0
 41
1.0
 50
0.0
 71
0
 42
2.5
  3
LiberationSerif-Regular.ttf
  4

  0
STYLE
  5
53
330
5
100
AcDbSymbolTableRecord
100
AcDbTextStyleTableRecord
  2
LiberationSerif-Bold
 70
0
 40
0.0
 41
1.0
 50
0.0
 71
0
 42
2.5
  3
LiberationSerif-Bold.ttf
  4

  0
STYLE
  5
54
330
5
100
AcDbSymbolTableRecord
100
AcDbTextStyleTableRecord
  2
LiberationSerif-BoldItalic
 70
0
 40
0.0
 41
1.0
 50
0.0
 71
0
 42
2.5
  3
LiberationSerif-BoldItalic.ttf
  4

  0
STYLE
  5
55
330
5
100
AcDbSymbolTableRecord
100
AcDbTextStyleTableRecord
  2
LiberationSerif-Italic
 70
0
 40
0.0
 41
1.0
 50
0.0
 71
0
 42
2.5
  3
LiberationSerif-Italic.ttf
  4

  0
STYLE
  5
56
330
5
100
AcDbSymbolTableRecord
100
AcDbTextStyleTableRecord
  2
LiberationMono
 70
0
 40
0.0
 41
1.0
 50
0.0
 71
0
 42
2.5
  3
LiberationMono-Regular.ttf
  4

  0
STYLE
  5
57
330
5
100
AcDbSymbolTableRecord
100
AcDbTextStyleTableRecord
  2
LiberationMono-Bold
 70
0
 40
0.0
 41
1.0
 50
0.0
 71
0
 42
2.5
  3
LiberationMono-Bold.ttf
  4

  0
STYLE
  5
58
330
5
100
AcDbSymbolTableRecord
100
AcDbTextStyleTableRecord
  2
LiberationMono-BoldItalic
 70
0
 40
0.0
 41
1.0
 50
0.0
 71
0
 42
2.5
  3
LiberationMono-BoldItalic.ttf
  4

  0
STYLE
  5
59
330
5
100
AcDbSymbolTableRecord
100
AcDbTextStyleTableRecord
  2
LiberationMono-Italic
 70
0
 40
0.0
 41
1.0
 50
0.0
 71
0
 42
2.5
  3
LiberationMono-Italic.ttf
  4

  0
ENDTAB
  0
TABLE
  2
VIEW
  5
7
330
0
100
AcDbSymbolTable
 70
0
  0
ENDTAB
  0
TABLE
  2
UCS
  5
6
330
0
100
AcDbSymbolTable
 70
0
  0
ENDTAB
  0
TABLE
  2
APPID
  5
3
330
0
100
AcDbSymbolTable
 70
3
  0
APPID
  5
2A
330
3
100
AcDbSymbolTableRecord
100
AcDbRegAppTableRecord
  2
ACAD
 70
0
  0
APPID
  5
8C
330
3
100
AcDbSymbolTableRecord
100
AcDbRegAppTableRecord
  2
HATCHBACKGROUNDCOLOR
 70
0
  0
APPID
  5
8D
330
3
100
AcDbSymbolTableRecord
100
AcDbRegAppTableRecord
  2
EZDXF
 70
0
  0
ENDTAB
  0
TABLE
  2
DIMSTYLE
  5
4
330
0
100
AcDbSymbolTable
 70
12
100
AcDbDimStyleTable
  0
DIMSTYLE
105
2B
330
4
100
AcDbSymbolTableRecord
100
AcDbDimStyleTableRecord
  2
Standard
 70
0
 40
1.0
 41
2.5
 42
0.625
 43
3.75
 44
1.25
 45
0.0
 46
0.0
 47
0.0
 48
0.0
 49
2.5
140
2.5
141
2.5
142
0.0
143
0.03937007874
144
1.0
145
0.0
146
1.0
147
0.625
148
0.0
 69
0
 70
0
 71
0
 72
0
 73
0
 74
0
 75
0
 76
0
 77
1
 78
8
 79
3
170
0
171
3
172
1
173
0
174
0
175
0
176
0
177
0
178
0
179
2
271
2
272
2
273
2
274
3
275
0
276
0
277
2
278
44
279
0
280
0
281
0
282
0
283
0
284
8
285
0
286
0
288
0
289
3
290
0
371
-2
372
-2
  0
DIMSTYLE
105
73
330
4
100
AcDbSymbolTableRecord
100
AcDbDimStyleTableRecord
  2
EZDXF
 70
0
 40
1.0
 41
0.175
 42
0.125
 43
3.75
 44
0.375
 45
0.0
 46
0.0
 47
0.0
 48
0.0
 49
2.5
140
0.25
141
2.5
142
0.0
143
0.03937007874
144
100.0
145
0.0
146
0.5
147
0.1
148
0.0
 69
0
 70
0
 71
0
 72
0
 73
0
 74
0
 75
0
 76
0
 77
1
 78
12
 79
3
170
0
171
3
172
1
173
0
174
0
175
0
176
0
177
0
178
0
179
2
271
2
272
2
273
2
274
3
275
0
276
0
277
2
278
46
279
2
280
0
281
0
282
0
283
0
284
8
285
0
286
0
288
1
289
3
290
0
340
4C
342
74
371
-2
372
-2
  0
DIMSTYLE
105
7C
330
4
100
AcDbSymbolTableRecord
100
AcDbDimStyleTableRecord
  2
EZ_M_100_H25_CM
 70
0
 40
1.0
 41
0.25
 42
0.125
 43
3.75
 44
0.375
 45
0.0
 46
0.0
 47
0.0
 48
0.0
 49
2.5
140
0.25
141
2.5
142
0.125
143
0.03937007874
144
100.0
145
0.0
146
0.5
147
0.1
148
0.0
 69
0
 70
0
 71
0
 72
0
 73
0
 74
0
 75
0
 76
0
 77
1
 78
12
 79
3
170
0
171
3
172
1
173
0
174
0
175
0
176
0
177
0
178
0
179
2
271
2
272
2
273
2
274
3
275
0
276
0
277
2
278
46
279
2
280
0
281
0
282
0
283
0
284
8
285
0
286
0
288
1
289
3
290
0
340
4C
371
-2
372
-2
  0
DIMSTYLE
105
7D
330
4
100
AcDbSymbolTableRecord
100
AcDbDimStyleTableRecord
  2
EZ_M_50_H25_CM
 70
0
 40
1.0
 41
0.125
 42
0.0625
 43
3.75
 44
0.1875
 45
0.0
 46
0.0
 47
0.0
 48
0.0
 49
2.5
140
0.125
141
2.5
142
0.0625
143
0.03937007874
144
100.0
145
0.0
146
0.5
147
0.05
148
0.0
 69
0
 70
0
 71
0
 72
0
 73
0
 74
0
 75
0
 76
0
 77
1
 78
12
 79
3
170
0
171
3
172
1
173
0
174
0
175
0
176
0
177
0
178
0
179
2
271
2
272
2
273
2
274
3
275
0
276
0
277
2
278
46
279
2
280
0
281
0
282
0
283
0
284
8
285
0
286
0
288
1
289
3
290
0
340
4C
371
-2
372
-2
  0
DIMSTYLE
105
7E
330
4
100
AcDbSymbolTableRecord
100
AcDbDimStyleTableRecord
  2
EZ_M_25_H25_CM
 70
0
 40
1.0
 41
0.0625
 42
0.03125
 43
3.75
 44
0.09375
 45
0.0
 46
0.0
 47
0.0
 48
0.0
 49
2.5
140
0.0625
141
2.5
142
0.03125
143
0.03937007874
144
100.0
145
0.0
146
0.5
147
0.025
148
0.0
 69
0
 70
0
 71
0
 72
0
 73
0
 74
0
 75
0
 76
0
 77
1
 78
12
 79
3
170
0
171
3
172
1
173
0
174
0
175
0
176
0
177
0
178
0
179
2
271
2
272
2
273
2
274
3
275
0
276
0
277
2
278
46
279
2
280
0
281
0
282
0
283
0
284
8
285
0
286
0
288
1
289
3
290
0
340
4C
371
-2
372
-2
  0
DIMSTYLE
105
7F
330
4
100
AcDbSymbolTableRecord
100
AcDbDimStyleTableRecord
  2
EZ_M_20_H25_CM
 70
0
 40
1.0
 41
0.05
 42
0.025
 43
3.75
 44
0.07500000000000001
 45
0.0
 46
0.0
 47
0.0
 48
0.0
 49
2.5
140
0.05
141
2.5
142
0.025
143
0.03937007874
144
100.0
145
0.0
146
0.5
147
0.020000000000000004
148
0.0
 69
0
 70
0
 71
0
 72
0
 73
0
 74
0
 75
0
 76
0
 77
1
 78
12
 79
3
170
0
171
3
172
1
173
0
174
0
175
0
176
0
177
0
178
0
179
2
271
2
272
2
273
2
274
3
275
0
276
0
277
2
278
46
279
2
280
0
281
0
282
0
283
0
284
8
285
0
286
0
288
1
289
3
290
0
340
4C
371
-2
372
-2
  0
DIMSTYLE
105
80
330
4
100
AcDbSymbolTableRecord
100
AcDbDimStyleTableRecord
  2
EZ_M_10_H25_CM
 70
0
 40
1.0
 41
0.025
 42
0.0125
 43
3.75
 44
0.037500000000000006
 45
0.0
 46
0.0
 47
0.0
 48
0.0
 49
2.5
140
0.025
141
2.5
142
0.0125
143
0.03937007874
144
100.0
145
0.0
146
0.5
147
0.010000000000000002
148
0.0
 69
0
 70
0
 71
0
 72
0
 73
0
 74
0
 75
0
 76
0
 77
1
 78
12
 79
3
170
0
171
3
172
1
173
0
174
0
175
0
176
0
177
0
178
0
179
2
271
2
272
2
273
2
274
3
275
0
276
0
277
2
278
46
279
2
280
0
281
0
282
0
283
0
284
8
285
0
286
0
288
1
289
3
290
0
340
4C
371
-2
372
-2
  0
DIMSTYLE
105
81
330
4
100
AcDbSymbolTableRecord
100
AcDbDimStyleTableRecord
  2
EZ_M_5_H25_CM
 70
0
 40
1.0
 41
0.0125
 42
0.00625
 43
3.75
 44
0.018750000000000003
 45
0.0
 46
0.0
 47
0.0
 48
0.0
 49
2.5
140
0.0125
141
2.5
142
0.00625
143
0.03937007874
144
100.0
145
0.0
146
0.5
147
0.005000000000000001
148
0.0
 69
0
 70
0
 71
0
 72
0
 73
0
 74
0
 75
0
 76
0
 77
1
 78
12
 79
3
170
0
171
3
172
1
173
0
174
0
175
0
176
0
177
0
178
0
179
2
271
2
272
2
273
2
274
3
275
0
276
0
277
2
278
46
279
2
280
0
281
0
282
0
283
0
284
8
285
0
286
0
288
1
289
3
290
0
340
4C
371
-2
372
-2
  0
DIMSTYLE
105
82
330
4
100
AcDbSymbolTableRecord
100
AcDbDimStyleTableRecord
  2
EZ_M_1_H25_CM
 70
0
 40
1.0
 41
0.0025
 42
0.00125
 43
3.75
 44
0.00375
 45
0.0
 46
0.0
 47
0.0
 48
0.0
 49
2.5
140
0.0025
141
2.5
142
0.00125
143
0.03937007874
144
100.0
145
0.0
146
0.5
147
0.001
148
0.0
 69
0
 70
0
 71
0
 72
0
 73
0
 74
0
 75
0
 76
0
 77
1
 78
12
 79
3
170
0
171
3
172
1
173
0
174
0
175
0
176
0
177
0
178
0
179
2
271
2
272
2
273
2
274
3
275
0
276
0
277
2
278
46
279
2
280
0
281
0
282
0
283
0
284
8
285
0
286
0
288
1
289
3
290
0
340
4C
371
-2
372
-2
  0
DIMSTYLE
105
83
330
4
100
AcDbSymbolTableRecord
100
AcDbDimStyleTableRecord
  2
EZ_RADIUS
 70
0
 40
1.0
 41
0.25
 42
0.125
 43
3.75
 44
0.375
 45
0.0
 46
0.0
 47
0.0
 48
0.0
 49
2.5
140
0.25
141
0.0
142
0.0
143
0.03937007874
144
100.0
145
0.0
146
0.5
147
0.1
148
0.0
 69
0
 70
0
 71
0
 72
0
 73
0
 74
0
 75
0
 76
0
 77
1
 78
12
 79
3
170
0
171
3
172
0
173
0
174
0
175
0
176
0
177
0
178
0
179
2
271
2
272
2
273
2
274
3
275
0
276
0
277
2
278
46
279
1
280
0
281
0
282
0
283
0
284
8
285
0
286
0
288
1
289
3
290
0
340
4C
342
84
371
-2
372
-2
  0
DIMSTYLE
105
88
330
4
100
AcDbSymbolTableRecord
100
AcDbDimStyleTableRecord
  2
EZ_RADIUS_INSIDE
 70
0
 40
1.0
 41
0.25
 42
0.125
 43
3.75
 44
0.375
 45
0.0
 46
0.0
 47
0.0
 48
0.0
 49
2.5
140
0.25
141
0.0
142
0.0
143
0.03937007874
144
100.0
145
0.0
146
0.5
147
0.1
148
0.0
 69
0
 70
0
 71
0
 72
0
 73
0
 74
0
 75
0
 76
0
 77
0
 78
12
 79
3
170
0
171
3
172
0
173
0
174
1
175
0
176
0
177
0
178
0
179
2
271
2
272
2
273
2
274
3
275
0
276
0
277
2
278
46
279
0
280
0
281
0
282
0
283
0
284
8
285
0
286
0
288
1
289
0
290
0
340
4C
342
84
371
-2
372
-2
  0
DIMSTYLE
105
89
330
4
100
AcDbSymbolTableRecord
100
AcDbDimStyleTableRecord
  2
EZ_CURVED
 70
0
 40
1.0
 41
0.25
 42
0.125
 43
3.75
 44
0.375
 45
0.0
 46
0.0
 47
0.0
 48
0.0
 49
2.5
140
0.25
141
2.5
142
0.0
143
0.03937007874
144
100.0
145
0.0
146
0.5
147
0.1
148
0.0
 69
0
 70
0
 71
0
 72
0
 73
0
 74
0
 75
0
 76
0
 77
1
 78
12
 79
2
 90
2
170
0
171
3
172
1
173
0
174
0
175
0
176
0
177
0
178
0
179
2
271
2
272
2
273
2
274
3
275
0
276
0
277
2
278
46
279
2
280
0
281
0
282
0
283
0
284
8
285
0
286
0
288
1
289
3
290
0
340
4C
371
-2
372
-2
  0
ENDTAB
  0
TABLE
  2
BLOCK_RECORD
  5
9
330
0
100
AcDbSymbolTable
 70
5
  0
BLOCK_RECORD
  5
17
330
9
100
AcDbSymbolTableRecord
100
AcDbBlockTableRecord
  2
*Model_Space
340
1A
 70
0
280
1
281
0
  0
BLOCK_RECORD
  5
1B
330
9
100
AcDbSymbolTableRecord
100
AcDbBlockTableRecord
  2
*Paper_Space
340
1E
 70
0
280
1
281
0
  0
BLOCK_RECORD
  5
74
330
9
100
AcDbSymbolTableRecord
100
AcDbBlockTableRecord
  2
_ARCHTICK
340
0
 70
0
280
1
281
0
  0
BLOCK_RECORD
  5
78
330
9
100
AcDbSymbolTableRecord
100
AcDbBlockTableRecord
  2
_CLOSEDFILLED
340
0
 70
0
280
1
281
0
  0
BLOCK_RECORD
  5
84
330
9
100
AcDbSymbolTableRecord
100
AcDbBlockTableRecord
  2
_CLOSEDBLANK
340
0
 70
0
280
1
281
0
  0
ENDTAB
  0
ENDSEC
  0
SECTION
  2
BLOCKS
  0
BLOCK
  5
18
330
17
100
AcDbEntity
  8
0
100
AcDbBlockBegin
  2
*Model_Space
 70
0
 10
0.0
 20
0.0
 30
0.0
  3
*Model_Space
  1

  0
ENDBLK
  5
19
330
17
100
AcDbEntity
  8
0
100
AcDbBlockEnd
  0
BLOCK
  5
1C
330
1B
100
AcDbEntity
  8
0
100
AcDbBlockBegin
  2
*Paper_Space
 70
0
 10
0.0
 20
0.0
 30
0.0
  3
*Paper_Space
  1

  0
ENDBLK
  5
1D
330
1B
100
AcDbEntity
  8
0
100
AcDbBlockEnd
  0
BLOCK
  5
75
330
74
100
AcDbEntity
  8
0
100
AcDbBlockBegin
  2
_ARCHTICK
 70
0
 10
0.0
 20
0.0
 30
0.0
  3
_ARCHTICK
  1

  0
LWPOLYLINE
  5
77
330
74
100
AcDbEntity
  8
0
  6
BYBLOCK
 62
0
100
AcDbPolyline
 90
2
 70
0
 43
0.15
 10
-0.5
 20
-0.5000000000000001
 10
0.5000000000000001
 20
0.5
  0
ENDBLK
  5
76
330
74
100
AcDbEntity
  8
0
100
AcDbBlockEnd
  0
BLOCK
  5
79
330
78
100
AcDbEntity
  8
0
100
AcDbBlockBegin
  2
_CLOSEDFILLED
 70
0
 10
0.0
 20
0.0
 30
0.0
  3
_CLOSEDFILLED
  1

  0
SOLID
  5
7B
330
78
100
AcDbEntity
  8
0
  6
BYBLOCK
 62
0
100
AcDbTrace
 10
-1.0
 20
0.1643989837240255
 30
0.0
 11
0.0
 21
0.0
 31
0.0
 12
-1.0
 22
-0.1643989837240255
 32
0.0
 13
-1.0
 23
-0.1643989837240255
 33
0.0
  0
ENDBLK
  5
7A
330
78
100
AcDbEntity
  8
0
100
AcDbBlockEnd
  0
BLOCK
  5
85
330
84
100
AcDbEntity
  8
0
100
AcDbBlockBegin
  2
_CLOSEDBLANK
 70
0
 10
0.0
 20
0.0
 30
0.0
  3
_CLOSEDBLANK
  1

  0
LWPOLYLINE
  5
87
330
84
100
AcDbEntity
  8
0
  6
BYBLOCK
 62
0
100
AcDbPolyline
 90
3
 70
1
 10
-1.0
 20
0.1643989837240255
 10
0.0
 20
0.0
 10
-1.0
 20
-0.1643989837240255
  0
ENDBLK
  5
86
330
84
100
AcDbEntity
  8
0
100
AcDbBlockEnd
  0
ENDSEC
  0
SECTION
  2
ENTITIES
  0
LWPOLYLINE
  5
8B
330
17
100
AcDbEntity
  8
flower
100
AcDbPolyline
 90
1891
 70
0
 10
5.2594963063149185e-06
 20
-1.4163838203078447
 40
2.0
 41
0.0
 10
-0.0045896542794963135
 20
-1.4303806554824208
 40
2.0
 41
0.0
 10
-0.009519520154133987
 20
-1.4450622677122507
 40
2.0
 41
0.0
 10
-0.014548486369243385
 20
-1.459710230506315
 40
2.0
 41
0.0
 10
-0.019676323271624163
 20
-1.4743238749494916
 40
2.0
 41
0.0
 10
-0.024902796693036022
 20
-1.4889025336938417
 40
2.0
 41
0.0
 10
-0.030227667960898097
 20
-1.5034455409890919
 40
2.0
 41
0.0
 10
-0.03565069390918357
 20
-1.5179522327130248
 40
2.0
 41
0.0
 10
-0.04117162688952486
 20
-1.5324219464018158
 40
2.0
 41
0.0
 10
-0.04679021478252482
 20
-1.5468540212802813
 40
2.0
 41
0.0
 10
-0.05250620100926795
 20
-1.561247798292056
 40
2.0
 41
0.0
 10
-0.05831932454303823
 20
-1.5756026201296867
 40
2.0
 41
0.0
 10
-0.06422931992123804
 20
-1.589917831264651
 40
2.0
 41
0.0
 10
-0.07023591725751482
 20
-1.604192777977295
 40
2.0
 41
0.0
 10
-0.07633884225407928
 20
-1.6184268083866786
 40
2.0
 41
0.0
 10
-0.08253781621423806
 20
-1.6326192724803543
 40
2.0
 41
0.0
 10
-0.08883255605511509
 20
-1.6467695221440417
 40
2.0
 41
0.0
 10
-0.09522277432058213
 20
-1.6608769111912287
 40
2.0
 41
0.0
 10
-0.1017081791943859
 20
-1.6749407953926807
 40
2.0
 41
0.0
 10
-0.10828847451347245
 20
-1.6889605325058583
 40
2.0
 41
0.0
 10
-0.11496335978151229
 20
-1.7029354823042475
 40
2.0
 41
0.0
 10
-0.12173253018262475
 20
-1.7168650066065956
 40
2.0
 41
0.0
 10
-0.12859567659529453
 20
-1.7307484693060546
 40
2.0
 41
0.0
 10
-0.13555248560649052
 20
-1.7445852363992285
 40
2.0
 41
0.0
 10
-0.14260263952597813
 20
-1.758374676015128
 40
2.0
 41
0.0
 10
-0.14974581640082363
 20
-1.7721161584440224
 40
2.0
 41
0.0
 10
-0.1569816900301031
 20
-1.785809056166203
 40
2.0
 41
0.0
 10
-0.16430992997979105
 20
-1.7994527438806298
 40
2.0
 41
0.0
 10
-0.171730201597856
 20
-1.8130465985334923
 40
2.0
 41
0.0
 10
-0.17924216602953863
 20
-1.8265899993466608
 40
2.0
 41
0.0
 10
-0.18684548023282904
 20
-1.8400823278460359
 40
2.0
 41
0.0
 10
-0.19453979699413032
 20
-1.8535229678897898
 40
2.0
 41
0.0
 10
-0.20232476494411417
 20
-1.866911305696503
 40
2.0
 41
0.0
 10
-0.2102000285737703
 20
-1.8802467298731995
 40
2.0
 41
0.0
 10
-0.21816522825063522
 20
-1.893528631443256
 40
2.0
 41
0.0
 10
-0.2262200002352186
 20
-1.90675640387422
 40
2.0
 41
0.0
 10
-0.234363976697615
 20
-1.9199294431055038
 40
2.0
 41
0.0
 10
-0.24259678573429783
 20
-1.9330471475759712
 40
2.0
 41
0.0
 10
-0.2509180513851057
 20
-1.9461089182514073
 40
2.0
 41
0.0
 10
-0.25932739365040947
 20
-1.9591141586518759
 40
2.0
 41
0.0
 10
-0.2678244285084666
 20
-1.9720622748789558
 40
2.0
 41
0.0
 10
-0.2764087679329554
 20
-1.984952675642864
 40
2.0
 41
0.0
 10
-0.2850800199106965
 20
-1.997784772289455
 40
2.0
 41
0.0
 10
-0.2938377884595586
 20
-2.0105579788271095
 40
2.0
 41
0.0
 10
-0.30268167364653165
 20
-2.0232717119534827
 40
2.0
 41
0.0
 10
-0.3116112716059977
 20
-2.0359253910821486
 40
2.0
 41
0.0
 10
-0.3206261745581751
 20
-2.0485184383691175
 40
2.0
 41
0.0
 10
-0.3297259708277324
 20
-2.061050278739213
 40
2.0
 41
0.0
 10
-0.3389102448625954
 20
-2.0735203399123403
 40
2.0
 41
0.0
 10
-0.3481785772529206
 20
-2.0859280524296198
 40
2.0
 41
0.0
 10
-0.35753054475024837
 20
-2.09827284967939
 40
2.0
 41
0.0
 10
-0.36696572028682994
 20
-2.110554167923084
 40
2.0
 41
0.0
 10
-0.3764836729951337
 20
-2.1227714463209724
 40
2.0
 41
0.0
 10
-0.38608396822751556
 20
-2.134924126957774
 40
2.0
 41
0.0
 10
-0.39576616757607214
 20
-2.1470116548681353
 40
2.0
 41
0.0
 10
-0.40552982889266204
 20
-2.159033478061974
 40
2.0
 41
0.0
 10
-0.41537450630909095
 20
-2.170989047549684
 40
2.0
 41
0.0
 10
-0.42529975025747796
 20
-2.1828778173672054
 40
2.0
 41
0.0
 10
-0.43530510749078377
 20
-2.194699244600959
 40
2.0
 41
0.0
 10
-0.4453901211035095
 20
-2.206452789412638
 40
2.0
 41
0.0
 10
-0.4555543305525604
 20
-2.218137915063859
 40
2.0
 41
0.0
 10
-0.46579727167827906
 20
-2.229754087940675
 40
2.0
 41
0.0
 10
-0.47611847672563784
 20
-2.2413007775779397
 40
2.0
 41
0.0
 10
-0.48651747436560666
 20
-2.2527774566835395
 40
2.0
 41
0.0
 10
-0.49699378971666974
 20
-2.2641836011624643
 40
2.0
 41
0.0
 10
-0.5075469443665123
 20
-2.275518690140743
 40
2.0
 41
0.0
 10
-0.5181764563938713
 20
-2.2867822059892324
 40
2.0
 41
0.0
 10
-0.528881840390544
 20
-2.2979736343472568
 40
2.0
 41
0.0
 10
-0.5396626074835467
 20
-2.30909246414609
 40
2.0
 41
0.0
 10
-0.5505182653574487
 20
-2.3201381876322995
 40
2.0
 41
0.0
 10
-0.5614483182768477
 20
-2.3311103003909324
 40
2.0
 41
0.0
 10
-0.5724522671090122
 20
-2.3420083013685478
 40
2.0
 41
0.0
 10
-0.5835296093466746
 20
-2.3528316928961
 40
2.0
 41
0.0
 10
-0.5946798391309753
 20
-2.363579980711668
 40
2.0
 41
0.0
 10
-0.6059024472745691
 20
-2.3742526739830208
 40
2.0
 41
0.0
 10
-0.6171969212848687
 20
-2.384849285330031
 40
2.0
 41
0.0
 10
-0.6285627453874627
 20
-2.3953693308469433
 40
2.0
 41
0.0
 10
-0.6399994005496529
 20
-2.4058123301244567
 40
2.0
 41
0.0
 10
-0.6515063645041672
 20
-2.4161778062716737
 40
2.0
 41
0.0
 10
-0.6630831117730045
 20
-2.426465285937873
 40
2.0
 41
0.0
 10
-0.6747291136914344
 20
-2.4366742993341286
 40
2.0
 41
0.0
 10
-0.6864438384321352
 20
-2.4468043802547608
 40
2.0
 41
0.0
 10
-0.6982267510294881
 20
-2.4568550660986297
 40
2.0
 41
0.0
 10
-0.7100773134039968
 20
-2.4668258978902546
 40
2.0
 41
0.0
 10
-0.7219949843868666
 20
-2.4767164203007774
 40
2.0
 41
0.0
 10
-0.7339792197447145
 20
-2.4865261816687574
 40
2.0
 41
0.0
 10
-0.7460294722044242
 20
-2.4962547340207917
 40
2.0
 41
0.0
 10
-0.7581451914781355
 20
-2.5059016330919768
 40
2.0
 41
0.0
 10
-0.7703258242883759
 20
-2.5154664383461935
 40
2.0
 41
0.0
 10
-0.7825708143933257
 20
-2.524948712996229
 40
2.0
 41
0.0
 10
-0.7948796026122189
 20
-2.534348024023715
 40
2.0
 41
0.0
 10
-0.8072516268508787
 20
-2.543663942198912
 40
2.0
 41
0.0
 10
-0.8196863221273908
 20
-2.5528960421003037
 40
2.0
 41
0.0
 10
-0.8321831205978958
 20
-2.5620439021340276
 40
2.0
 41
0.0
 10
-0.8447414515825258
 20
-2.571107104553122
 40
2.0
 41
0.0
 10
-0.8573607415914616
 20
-2.5800852354766115
 40
2.0
 41
0.0
 10
-0.87004041435113
 20
-2.588977884908401
 40
2.0
 41
0.0
 10
-0.8827798908305086
 20
-2.597784646756003
 40
2.0
 41
0.0
 10
-0.8955785892675746
 20
-2.6065051188490753
 40
2.0
 41
0.0
 10
-0.9084359251958704
 20
-2.6151389029577934
 40
2.0
 41
0.0
 10
-0.9213513114711934
 20
-2.6236856048110346
 40
2.0
 41
0.0
 10
-0.9343241582984095
 20
-2.6321448341143805
 40
2.0
 41
0.0
 10
-0.9473538732583863
 20
-2.640516204567943
 40
2.0
 41
0.0
 10
-0.960439861335045
 20
-2.648799333884001
 40
2.0
 41
0.0
 10
-0.9735815249425351
 20
-2.6569938438044645
 40
2.0
 41
0.0
 10
-0.9867782639525208
 20
-2.6650993601181403
 40
2.0
 41
0.0
 10
-1.0000294757215926
 20
-2.67311551267783
 40
2.0
 41
0.0
 10
-1.0133345551187785
 20
-2.6810419354172232
 40
2.0
 41
0.0
 10
-1.0266928945531855
 20
-2.6888782663676225
 40
2.0
 41
0.0
 10
-1.0401038840017416
 20
-2.696624147674467
 40
2.0
 41
0.0
 10
-1.0535669110370556
 20
-2.7042792256136785
 40
2.0
 41
0.0
 10
-1.0670813608553813
 20
-2.7118431506078124
 40
2.0
 41
0.0
 10
-1.080646616304702
 20
-2.719315577242025
 40
2.0
 41
0.0
 10
-1.0942620579128988
 20
-2.7266961642798417
 40
2.0
 41
0.0
 10
-1.1079270639160512
 20
-2.733984574678743
 40
2.0
 41
0.0
 10
-1.121641010286825
 20
-2.7411804756055553
 40
2.0
 41
0.0
 10
-1.1354032707629744
 20
-2.748283538451654
 40
2.0
 41
0.0
 10
-1.1492132168759344
 20
-2.7552934388479615
 40
2.0
 41
0.0
 10
-1.163070217979524
 20
-2.7622098566797666
 40
2.0
 41
0.0
 10
-1.176973641278746
 20
-2.7690324761013416
 40
2.0
 41
0.0
 10
-1.1909228518586825
 20
-2.7757609855503653
 40
2.0
 41
0.0
 10
-1.204917212713489
 20
-2.782395077762147
 40
2.0
 41
0.0
 10
-1.2189560847754877
 20
-2.788934449783667
 40
2.0
 41
0.0
 10
-1.233038826944345
 20
-2.795378802987402
 40
2.0
 41
0.0
 10
-1.247164796116352
 20
-2.8017278430849677
 40
2.0
 41
0.0
 10
-1.261333347213792
 20
-2.8079812801405546
 40
2.0
 41
0.0
 10
-1.2755438332144007
 20
-2.814138828584174
 40
2.0
 41
0.0
 10
-1.2897956051809072
 20
-2.8202002072246892
 40
2.0
 41
0.0
 10
-1.304088012290674
 20
-2.8261651392626663
 40
2.0
 41
0.0
 10
-1.3184204018654158
 20
-2.832033352303008
 40
2.0
 41
0.0
 10
-1.3327921194010042
 20
-2.8378045783673964
 40
2.0
 41
0.0
 10
-1.3472025085973554
 20
-2.843478553906527
 40
2.0
 41
0.0
 10
-1.3616509113884059
 20
-2.8490550198121487
 40
2.0
 41
0.0
 10
-1.3761366679721576
 20
-2.854533721428892
 40
2.0
 41
0.0
 10
-1.3906591168408107
 20
-2.8599144085659
 40
2.0
 41
0.0
 10
-1.4052175948109715
 20
-2.8651968355082533
 40
2.0
 41
0.0
 10
-1.4198114370539419
 20
-2.870380761028193
 40
2.0
 41
0.0
 10
-1.4344399771260734
 20
-2.875465948396131
 40
2.0
 41
0.0
 10
-1.4491025469992036
 20
-2.880452165391467
 40
2.0
 41
0.0
 10
-1.463798477091162
 20
-2.8853391843131893
 40
2.0
 41
0.0
 10
-1.4785270962963484
 20
-2.890126781990273
 40
2.0
 41
0.0
 10
-1.4932877320163773
 20
-2.8948147397918733
 40
2.0
 41
0.0
 10
-1.5080797101907966
 20
-2.899402843637309
 40
2.0
 41
0.0
 10
-1.5229023553278656
 20
-2.903890884005836
 40
2.0
 41
0.0
 10
-1.537754990535403
 20
-2.908278655946221
 40
2.0
 41
0.0
 10
-1.5526369375516982
 20
-2.9125659590860935
 40
2.0
 41
0.0
 10
-1.5675475167764872
 20
-2.9167525976411017
 40
2.0
 41
0.0
 10
-1.582486047301984
 20
-2.920838380423852
 40
2.0
 41
0.0
 10
-1.597451846943974
 20
-2.924823120852637
 40
2.0
 41
0.0
 10
-1.6124442322729722
 20
-2.928706636959962
 40
2.0
 41
0.0
 10
-1.6274625186454261
 20
-2.9324887514008453
 40
2.0
 41
0.0
 10
-1.6425060202349866
 20
-2.9361692914609274
 40
2.0
 41
0.0
 10
-1.657574050063824
 20
-2.939748089064351
 40
2.0
 41
0.0
 10
-1.6726659200339986
 20
-2.9432249807814364
 40
2.0
 41
0.0
 10
-1.6877809409588855
 20
-2.9465998078361517
 40
2.0
 41
0.0
 10
-1.702918422594645
 20
-2.9498724161133545
 40
2.0
 41
0.0
 10
-1.7180776736717478
 20
-2.9530426561658354
 40
2.0
 41
0.0
 10
-1.733258001926537
 20
-2.956110383221142
 40
2.0
 41
0.0
 10
-1.7484587141328434
 20
-2.959075457188187
 40
2.0
 41
0.0
 10
-1.7636791161336434
 20
-2.96193774266365
 40
2.0
 41
0.0
 10
-1.7789185128727576
 20
-2.964697108938157
 40
2.0
 41
0.0
 10
-1.794176208426589
 20
-2.9673534300022504
 40
2.0
 41
0.0
 10
-1.8094515060359098
 20
-2.969906584552148
 40
2.0
 41
0.0
 10
-1.8247437081376727
 20
-2.972356455995274
 40
2.0
 41
0.0
 10
-1.8400521163968677
 20
-2.9747029324555894
 40
2.0
 41
0.0
 10
-1.8553760317384125
 20
-2.9769459067787
 40
2.0
 41
0.0
 10
-1.870714754379081
 20
-2.979085276536749
 40
2.0
 41
0.0
 10
-1.8860675838594514
 20
-2.9811209440330932
 40
2.0
 41
0.0
 10
-1.9014338190758997
 20
-2.983052816306767
 40
2.0
 41
0.0
 10
-1.9168127583126142
 20
-2.9848808051367257
 40
2.0
 41
0.0
 10
-1.9322036992736398
 20
-2.986604827045874
 40
2.0
 41
0.0
 10
-1.9476059391149492
 20
-2.988224803304882
 40
2.0
 41
0.0
 10
-1.9630187744765424
 20
-2.9897406599357734
 40
2.0
 41
0.0
 10
-1.9784415015145607
 20
-2.991152327715311
 40
2.0
 41
0.0
 10
-1.993873415933432
 20
-2.992459742178153
 40
2.0
 41
0.0
 10
-2.0093138130180295
 20
-2.9936628436197985
 40
2.0
 41
0.0
 10
-2.024761987665864
 20
-2.9947615770993137
 40
2.0
 41
0.0
 10
-2.040217234419268
 20
-2.9957558924418417
 40
2.0
 41
0.0
 10
-2.0556788474976218
 20
-2.996645744240894
 40
2.0
 41
0.0
 10
-2.0711461208295803
 20
-2.997431091860421
 40
2.0
 41
0.0
 10
-2.086618348085315
 20
-2.9981118994366716
 40
2.0
 41
0.0
 10
-2.102094822708774
 20
-2.9986881358798287
 40
2.0
 41
0.0
 10
-2.1175748379499435
 20
-2.99915977487543
 40
2.0
 41
0.0
 10
-2.1330576868971223
 20
-2.9995267948855684
 40
2.0
 41
0.0
 10
-2.148542662509207
 20
-2.9997891791498765
 40
2.0
 41
0.0
 10
-2.1640290576479746
 20
-2.9999469156862926
 40
2.0
 41
0.0
 10
-2.1795161651103827
 20
-2.9999999972916065
 40
2.0
 41
0.0
 10
-2.1796150845377618
 20
-2.9999996678665037
 40
2.0
 41
0.0
 10
-2.1824335441426896
 20
-2.9913052099799398
 40
2.0
 41
0.0
 10
-2.1870108437473426
 20
-2.976860140666707
 40
2.0
 41
0.0
 10
-2.1914925356215393
 20
-2.9623851229783025
 40
2.0
 41
0.0
 10
-2.19587842384289
 20
-2.9478807897070105
 40
2.0
 41
0.0
 10
-2.200168316677175
 20
-2.9333477749266836
 40
2.0
 41
0.0
 10
-2.204362026586724
 20
-2.9187867139650163
 40
2.0
 41
0.0
 10
-2.208459370238617
 20
-2.9041982433757747
 40
2.0
 41
0.0
 10
-2.2124601685126946
 20
-2.889583000910971
 40
2.0
 41
0.0
 10
-2.216364246509394
 20
-2.874941625492979
 40
2.0
 41
0.0
 10
-2.220171433557389
 20
-2.8602747571866085
 40
2.0
 41
0.0
 10
-2.2238815632210587
 20
-2.845583037171116
 40
2.0
 41
0.0
 10
-2.2274944733077553
 20
-2.8308671077121828
 40
2.0
 41
0.0
 10
-2.231010005874899
 20
-2.8161276121338323
 40
2.0
 41
0.0
 10
-2.2344280072368843
 20
-2.8013651947903093
 40
2.0
 41
0.0
 10
-2.237748327971792
 20
-2.7865805010379123
 40
2.0
 41
0.0
 10
-2.2409708229279284
 20
-2.771774177206773
 40
2.0
 41
0.0
 10
-2.2440953512301673
 20
-2.7569468705726137
 40
2.0
 41
0.0
 10
-2.247121776286108
 20
-2.742099229328441
 40
2.0
 41
0.0
 10
-2.2500499657920496
 20
-2.727231902556216
 40
2.0
 41
0.0
 10
-2.2528797917387715
 20
-2.7123455401984695
 40
2.0
 41
0.0
 10
-2.2556111304171296
 20
-2.697440793029901
 40
2.0
 41
0.0
 10
-2.258243862423469
 20
-2.6825183126289196
 40
2.0
 41
0.0
 10
-2.2607778726648378
 20
-2.667578751349166
 40
2.0
 41
0.0
 10
-2.263213050364022
 20
-2.652622762290991
 40
2.0
 41
0.0
 10
-2.2655492890643885
 20
-2.637650999272904
 40
2.0
 41
0.0
 10
-2.2677864866345354
 20
-2.6226641168029907
 40
2.0
 41
0.0
 10
-2.2699245452727617
 20
-2.6076627700503026
 40
2.0
 41
0.0
 10
-2.2719633715113403
 20
-2.592647614816215
 40
2.0
 41
0.0
 10
-2.2739028762206033
 20
-2.577619307505756
 40
2.0
 41
0.0
 10
-2.2757429746128386
 20
-2.5625785050989105
 40
2.0
 41
0.0
 10
-2.277483586246
 20
-2.5475258651219046
 40
2.0
 41
0.0
 10
-2.279124635027218
 20
-2.5324620456184546
 40
2.0
 41
0.0
 10
-2.2806660492161313
 20
-2.5173877051210045
 40
2.0
 41
0.0
 10
-2.28210776142802
 20
-2.502303502621934
 40
2.0
 41
0.0
 10
-2.2834497086367533
 20
-2.4872100975447538
 40
2.0
 41
0.0
 10
-2.284691832177543
 20
-2.4721081497152757
 40
2.0
 41
0.0
 10
-2.2858340777495094
 20
-2.456998319332767
 40
2.0
 41
0.0
 10
-2.286876395418055
 20
-2.44188126694109
 40
2.0
 41
0.0
 10
-2.287818739617047
 20
-2.4267576533998265
 40
2.0
 41
0.0
 10
-2.288661069150809
 20
-2.411628139855386
 40
2.0
 41
0.0
 10
-2.2894033471959228
 20
-2.396493387712103
 40
2.0
 41
0.0
 10
-2.2900455413028378
 20
-2.3813540586033253
 40
2.0
 41
0.0
 10
-2.2905876233972897
 20
-2.3662108143624847
 40
2.0
 41
0.0
 10
-2.291029569781527
 20
-2.3510643169941714
 40
2.0
 41
0.0
 10
-2.2913713611353486
 20
-2.3359152286451876
 40
2.0
 41
0.0
 10
-2.291612982516945
 20
-2.320764211575604
 40
2.0
 41
0.0
 10
-2.291754423363558
 20
-2.3056119281298066
 40
2.0
 41
0.0
 10
-2.291795677491934
 20
-2.2904590407075447
 40
2.0
 41
0.0
 10
-2.2917367430986015
 20
-2.2753062117349683
 40
2.0
 41
0.0
 10
-2.291577622759946
 20
-2.2601541036356743
 40
2.0
 41
0.0
 10
-2.2913183234320993
 20
-2.245003378801745
 40
2.0
 41
0.0
 10
-2.2909588564506334
 20
-2.2298546995647923
 40
2.0
 41
0.0
 10
-2.2904992375300672
 20
-2.2147087281670004
 40
2.0
 41
0.0
 10
-2.2899394867631777
 20
-2.19956612673218
 40
2.0
 41
0.0
 10
-2.2892796286201227
 20
-2.184427557236818
 40
2.0
 41
0.0
 10
-2.2885196919473714
 20
-2.1692936814811405
 40
2.0
 41
0.0
 10
-2.287659709966441
 20
-2.154165161060183
 40
2.0
 41
0.0
 10
-2.2866997202724475
 20
-2.1390426573348638
 40
2.0
 41
0.0
 10
-2.28563976483246
 20
-2.1239268314030766
 40
2.0
 41
0.0
 10
-2.2844798899836674
 20
-2.108818344070785
 40
2.0
 41
0.0
 10
-2.2832201464313524
 20
-2.09371785582314
 40
2.0
 41
0.0
 10
-2.281860589246673
 20
-2.078626026795602
 40
2.0
 41
0.0
 10
-2.280401277864258
 20
-2.0635435167450824
 40
2.0
 41
0.0
 10
-2.278842276079608
 20
-2.0484709850211047
 40
2.0
 41
0.0
 10
-2.277183652046304
 20
-2.033409090536977
 40
2.0
 41
0.0
 10
-2.27542547827303
 20
-2.018358491740987
 40
2.0
 41
0.0
 10
-2.2735678316204044
 20
-2.0033198465876216
 40
2.0
 41
0.0
 10
-2.2716107932976173
 20
-1.9882938125087963
 40
2.0
 41
0.0
 10
-2.2695544488588824
 20
-1.9732810463851223
 40
2.0
 41
0.0
 10
-2.2673988881996956
 20
-1.9582822045171835
 40
2.0
 41
0.0
 10
-2.2651442055529065
 20
-1.9432979425968504
 40
2.0
 41
0.0
 10
-2.2627904994845967
 20
-1.9283289156786156
 40
2.0
 41
0.0
 10
-2.2603378728897727
 20
-1.9133757781509515
 40
2.0
 41
0.0
 10
-2.2577864329878685
 20
-1.8984391837077117
 40
2.0
 41
0.0
 10
-2.2551362913180544
 20
-1.8835197853195462
 40
2.0
 41
0.0
 10
-2.252387563734367
 20
-1.8686182352053626
 40
2.0
 41
0.0
 10
-2.2495403704006374
 20
-1.8537351848038073
 40
2.0
 41
0.0
 10
-2.2465948357852454
 20
-1.8388712847447921
 40
2.0
 41
0.0
 10
-2.2435510886556727
 20
-1.8240271848210488
 40
2.0
 41
0.0
 10
-2.240409262072875
 20
-1.8092035339597226
 40
2.0
 41
0.0
 10
-2.2371694933854678
 20
-1.794400980194005
 40
2.0
 41
0.0
 10
-2.2338319242237192
 20
-1.7796201706348032
 40
2.0
 41
0.0
 10
-2.2303967004933574
 20
-1.7648617514424498
 40
2.0
 41
0.0
 10
-2.2268639723691956
 20
-1.7501263677984578
 40
2.0
 41
0.0
 10
-2.2232338942885663
 20
-1.735414663877314
 40
2.0
 41
0.0
 10
-2.2195066249445676
 20
-1.7207272828183184
 40
2.0
 41
0.0
 10
-2.2156823272791257
 20
-1.7060648666974685
 40
2.0
 41
0.0
 10
-2.211761168475876
 20
-1.6914280564993907
 40
2.0
 41
0.0
 10
-2.20774331995285
 20
-1.6768174920893182
 40
2.0
 41
0.0
 10
-2.203628957354982
 20
-1.6622338121851192
 40
2.0
 41
0.0
 10
-2.199418260546434
 20
-1.6476776543293754
 40
2.0
 41
0.0
 10
-2.1951114136027288
 20
-1.6331496548615072
 40
2.0
 41
0.0
 10
-2.1907086048027056
 20
-1.6186504488899625
 40
2.0
 41
0.0
 10
-2.1862100266202873
 20
-1.604180670264443
 40
2.0
 41
0.0
 10
-2.1816158757160666
 20
-1.5897409515482037
 40
2.0
 41
0.0
 10
-2.176926352928711
 20
-1.575331923990393
 40
2.0
 41
0.0
 10
-2.1721416632661796
 20
-1.5609542174984623
 40
2.0
 41
0.0
 10
-2.167262015896763
 20
-1.5466084606106216
 40
2.0
 41
0.0
 10
-2.1622876241399376
 20
-1.5322952804683718
 40
2.0
 41
0.0
 10
-2.157218705457044
 20
-1.5180153027890797
 40
2.0
 41
0.0
 10
-2.152055481441775
 20
-1.5037691518386298
 40
2.0
 41
0.0
 10
-2.1467981778104925
 20
-1.4895574504041296
 40
2.0
 41
0.0
 10
-2.141447024392358
 20
-1.4753808197666891
 40
2.0
 41
0.0
 10
-2.136002255119285
 20
-1.461239879674253
 40
2.0
 41
0.0
 10
-2.1304641080157154
 20
-1.4471352483145155
 40
2.0
 41
0.0
 10
-2.1248328251882103
 20
-1.4330675422878913
 40
2.0
 41
0.0
 10
-2.1191086528148677
 20
-1.4190373765805617
 40
2.0
 41
0.0
 10
-2.1132918411345623
 20
-1.4050453645375882
 40
2.0
 41
0.0
 10
-2.107382644436001
 20
-1.3910921178361002
 40
2.0
 41
0.0
 10
-2.1013813210466123
 20
-1.3771782464585565
 40
2.0
 41
0.0
 10
-2.095288133321249
 20
-1.3633043586660754
 40
2.0
 41
0.0
 10
-2.0891033476307217
 20
-1.3494710609718485
 40
2.0
 41
0.0
 10
-2.0828272343501513
 20
-1.3356789581146224
 40
2.0
 41
0.0
 10
-2.0764600678471528
 20
-1.3219286530322631
 40
2.0
 41
0.0
 10
-2.070002126469837
 20
-1.3082207468354
 40
2.0
 41
0.0
 10
-2.0634536925346447
 20
-1.2945558387811429
 40
2.0
 41
0.0
 10
-2.0568150523140067
 20
-1.2809345262468903
 40
2.0
 41
0.0
 10
-2.050086496023823
 20
-1.2673574047042102
 40
2.0
 41
0.0
 10
-2.043268317810784
 20
-1.2538250676928107
 40
2.0
 41
0.0
 10
-2.036360815739503
 20
-1.2403381067945907
 40
2.0
 41
0.0
 10
-2.029364291779491
 20
-1.226897111607781
 40
2.0
 41
0.0
 10
-2.0222790517919567
 20
-1.2135026697211657
 40
2.0
 41
0.0
 10
-2.015105405516431
 20
-1.2001553666883995
 40
2.0
 41
0.0
 10
-2.0078436665572292
 20
-1.1868557860024054
 40
2.0
 41
0.0
 10
-2.0004941523697437
 20
-1.1736045090698677
 40
2.0
 41
0.0
 10
-1.9930571842465592
 20
-1.1604021151858173
 40
2.0
 41
0.0
 10
-1.9855330873034145
 20
-1.1472491815083057
 40
2.0
 41
0.0
 10
-1.977922190464985
 20
-1.1341462830331719
 40
2.0
 41
0.0
 10
-1.9702248264505051
 20
-1.1210939925689107
 40
2.0
 41
0.0
 10
-1.9624413317592222
 20
-1.1080928807116255
 40
2.0
 41
0.0
 10
-1.9545720466556884
 20
-1.0951435158200893
 40
2.0
 41
0.0
 10
-1.9466173151548811
 20
-1.0822464639908949
 40
2.0
 41
0.0
 10
-1.9385774850071686
 20
-1.069402289033709
 40
2.0
 41
0.0
 10
-1.9304529076831058
 20
-1.0566115524466249
 40
2.0
 41
0.0
 10
-1.9222439383580676
 20
-1.0438748133916138
 40
2.0
 41
0.0
 10
-1.9139509358967257
 20
-1.0311926286700825
 40
2.0
 41
0.0
 10
-1.9055742628373569
 20
-1.0185655526985313
 40
2.0
 41
0.0
 10
-1.8971142853759977
 20
-1.0059941374843184
 40
2.0
 41
0.0
 10
-1.8885713733504308
 20
-0.9934789326015252
 40
2.0
 41
0.0
 10
-1.8799459002240233
 20
-0.9810204851669335
 40
2.0
 41
0.0
 10
-1.8712382430693941
 20
-0.9686193398161078
 40
2.0
 41
0.0
 10
-1.8624487825519356
 20
-0.9562760386795843
 40
2.0
 41
0.0
 10
-1.8535779029131678
 20
-0.9439911213591722
 40
2.0
 41
0.0
 10
-1.8446259919539434
 20
-0.931765124904365
 40
2.0
 41
0.0
 10
-1.8355934410174926
 20
-0.9195985837888596
 40
2.0
 41
0.0
 10
-1.8264806449723183
 20
-0.9074920298871947
 40
2.0
 41
0.0
 10
-1.8172880021949298
 20
-0.8954459924514986
 40
2.0
 41
0.0
 10
-1.8080159145524313
 20
-0.8834609980883503
 40
2.0
 41
0.0
 10
-1.798664787384951
 20
-0.8715375707357612
 40
2.0
 41
0.0
 10
-1.7892350294879213
 20
-0.859676231640268
 40
2.0
 41
0.0
 10
-1.7797270530942115
 20
-0.8478774993341465
 40
2.0
 41
0.0
 10
-1.7701412738561002
 20
-0.8361418896127442
 40
2.0
 41
0.0
 10
-1.760478110827111
 20
-0.8244699155119319
 40
2.0
 41
0.0
 10
-1.750737986443689
 20
-0.8128620872856738
 40
2.0
 41
0.0
 10
-1.7409213265067334
 20
-0.8013189123837225
 40
2.0
 41
0.0
 10
-1.7310285601629865
 20
-0.7898408954294356
 40
2.0
 41
0.0
 10
-1.7210601198862707
 20
-0.7784285381977147
 40
2.0
 41
0.0
 10
-1.7110164414585811
 20
-0.7670823395930704
 40
2.0
 41
0.0
 10
-1.7008979639510384
 20
-0.7558027956278115
 40
2.0
 41
0.0
 10
-1.6907051297046907
 20
-0.7445903994003614
 40
2.0
 41
0.0
 10
-1.6804383843111785
 20
-0.7334456410737009
 40
2.0
 41
0.0
 10
-1.6700981765932539
 20
-0.722369007853944
 40
2.0
 41
0.0
 10
-1.65968495858516
 20
-0.7113609839690322
 40
2.0
 41
0.0
 10
-1.649199185512872
 20
-0.7004220506475729
 40
2.0
 41
0.0
 10
-1.6386413157741913
 20
-0.6895526860977979
 40
2.0
 41
0.0
 10
-1.6280118109187103
 20
-0.6787533654866583
 40
2.0
 41
0.0
 10
-1.6173111356276362
 20
-0.6680245609190543
 40
2.0
 41
0.0
 10
-1.6065397576934708
 20
-0.6573667414171932
 40
2.0
 41
0.0
 10
-1.5956981479995684
 20
-0.6467803729000885
 40
2.0
 41
0.0
 10
-1.5847867804995444
 20
-0.6362659181631909
 40
2.0
 41
0.0
 10
-1.5738061321965575
 20
-0.6258238368581545
 40
2.0
 41
0.0
 10
-1.56275668312246
 20
-0.6154545854727468
 40
2.0
 41
0.0
 10
-1.551638916316808
 20
-0.6051586173108882
 40
2.0
 41
0.0
 10
-1.5404533178057482
 20
-0.5949363824728386
 40
2.0
 41
0.0
 10
-1.5292003765807682
 20
-0.5847883278355196
 40
2.0
 41
0.0
 10
-1.517880584577322
 20
-0.5747148970329785
 40
2.0
 41
0.0
 10
-1.5064944366533237
 20
-0.5647165304369952
 40
2.0
 41
0.0
 10
-1.4950424305675112
 20
-0.5547936651378294
 40
2.0
 41
0.0
 10
-1.483525066957693
 20
-0.5449467349251139
 40
2.0
 41
0.0
 10
-1.471942849318854
 20
-0.5351761702688906
 40
2.0
 41
0.0
 10
-1.4602962839811517
 20
-0.5254823983007924
 40
2.0
 41
0.0
 10
-1.448585880087776
 20
-0.5158658427953697
 40
2.0
 41
0.0
 10
-1.4368121495726953
 20
-0.5063269241515653
 40
2.0
 41
0.0
 10
-1.4249756071382746
 20
-0.4968660593743358
 40
2.0
 41
0.0
 10
-1.4130767702327751
 20
-0.4874836620564225
 40
2.0
 41
0.0
 10
-1.4011161590277335
 20
-0.47818014236026996
 40
2.0
 41
0.0
 10
-1.3890942963952226
 20
-0.46895590700009515
 40
2.0
 41
0.0
 10
-1.3770117078849917
 20
-0.4598113592241088
 40
2.0
 41
0.0
 10
-1.3648689217014938
 20
-0.4507468987968842
 40
2.0
 41
0.0
 10
-1.3526664686807932
 20
-0.44176292198188427
 40
2.0
 41
0.0
 10
-1.3470594366050588
 20
-0.43769167311107043
 40
2.0
 41
0.0
 10
-1.3617911243497596
 20
-0.437646910359188
 40
2.0
 41
0.0
 10
-1.37727757966591
 20
-0.43749519697849326
 40
2.0
 41
0.0
 10
-1.39276265615626
 20
-0.43723883532572305
 40
2.0
 41
0.0
 10
-1.4082456466779822
 20
-0.4368778371079096
 40
2.0
 41
0.0
 10
-1.423725844183505
 20
-0.4364122188104296
 40
2.0
 41
0.0
 10
-1.439202541752809
 20
-0.43584200169624765
 40
2.0
 41
0.0
 10
-1.4546750326256968
 20
-0.4351672118049468
 40
2.0
 41
0.0
 10
-1.4701426102340773
 20
-0.4343878799515406
 40
2.0
 41
0.0
 10
-1.4856045682342278
 20
-0.4335040417250635
 40
2.0
 41
0.0
 10
-1.501060200539052
 20
-0.43251573748694794
 40
2.0
 41
0.0
 10
-1.516508801350323
 20
-0.43142301236917957
 40
2.0
 41
0.0
 10
-1.5319496651909126
 20
-0.4302259162722377
 40
2.0
 41
0.0
 10
-1.5473820869370158
 20
-0.42892450386281444
 40
2.0
 41
0.0
 10
-1.5628053618503375
 20
-0.42751883457132056
 40
2.0
 41
0.0
 10
-1.5782187856102896
 20
-0.4260089725891696
 40
2.0
 41
0.0
 10
-1.5936216543461428
 20
-0.42439498686584853
 40
2.0
 41
0.0
 10
-1.6090132646691753
 20
-0.42267695110576753
 40
2.0
 41
0.0
 10
-1.624392913704794
 20
-0.4208549437648941
 40
2.0
 41
0.0
 10
-1.6397598991246305
 20
-0.41892904804717146
 40
2.0
 41
0.0
 10
-1.6551135191786135
 20
-0.4168993519007187
 40
2.0
 41
0.0
 10
-1.670453072727017
 20
-0.41476594801381284
 40
2.0
 41
0.0
 10
-1.6857778592724766
 20
-0.412528933810659
 40
2.0
 41
0.0
 10
-1.7010871789919784
 20
-0.41018841144693896
 40
2.0
 41
0.0
 10
-1.716380332768819
 20
-0.4077444878051466
 40
2.0
 41
0.0
 10
-1.7316566222245275
 20
-0.405197274489709
 40
2.0
 41
0.0
 10
-1.7469153497507675
 20
-0.4025468878218863
 40
2.0
 41
0.0
 10
-1.7621558185411803
 20
-0.39979344883446366
 40
2.0
 41
0.0
 10
-1.7773773326232143
 20
-0.39693708326622046
 40
2.0
 41
0.0
 10
-1.7925791968899054
 20
-0.3939779215561918
 40
2.0
 41
0.0
 10
-1.8077607171316201
 20
-0.3909160988377094
 40
2.0
 41
0.0
 10
-1.822921200067756
 20
-0.38775175493223113
 40
2.0
 41
0.0
 10
-1.8380599533784006
 20
-0.3844850343429571
 40
2.0
 41
0.0
 10
-1.8531762857359544
 20
-0.3811160862482281
 40
2.0
 41
0.0
 10
-1.8682695068366886
 20
-0.37764506449471646
 40
2.0
 41
0.0
 10
-1.8833389274322778
 20
-0.3740721275903991
 40
2.0
 41
0.0
 10
-1.8983838593612719
 20
-0.3703974386973172
 40
2.0
 41
0.0
 10
-1.9134036155805225
 20
-0.36662116562412894
 40
2.0
 41
0.0
 10
-1.9283975101965574
 20
-0.3627434808184433
 40
2.0
 41
0.0
 10
-1.9433648584969023
 20
-0.3587645613589463
 40
2.0
 41
0.0
 10
-1.9583049769813496
 20
-0.3546845889473138
 40
2.0
 41
0.0
 10
-1.9732171833931704
 20
-0.35050374989991573
 40
2.0
 41
0.0
 10
-1.9881007967502695
 20
-0.3462222351393063
 40
2.0
 41
0.0
 10
-2.0029551373762904
 20
-0.3418402401855025
 40
2.0
 41
0.0
 10
-2.0177795269316405
 20
-0.3373579651470626
 40
2.0
 41
0.0
 10
-2.0325732884444774
 20
-0.33277561471194206
 40
2.0
 41
0.0
 10
-2.0473357463416257
 20
-0.328093398138146
 40
2.0
 41
0.0
 10
-2.0620662264794185
 20
-0.3233115292441786
 40
2.0
 41
0.0
 10
-2.07676405617449
 20
-0.3184302263992733
 40
2.0
 41
0.0
 10
-2.0914285642344916
 20
-0.31344971251342324
 40
2.0
 41
0.0
 10
-2.1060590809887447
 20
-0.3083702150272014
 40
2.0
 41
0.0
 10
-2.1206549383188187
 20
-0.3031919659013753
 40
2.0
 41
0.0
 10
-2.135215469689045
 20
-0.29791520160631135
 40
2.0
 41
0.0
 10
-2.149740010176952
 20
-0.29254016311118036
 40
2.0
 41
0.0
 10
-2.164227896503631
 20
-0.28706709587295
 40
2.0
 41
0.0
 10
-2.178678467064027
 20
-0.2814962498251754
 40
2.0
 41
0.0
 10
-2.1930910619571486
 20
-0.2758278793665898
 40
2.0
 41
0.0
 10
-2.2074650230162045
 20
-0.2700622433494835
 40
2.0
 41
0.0
 10
-2.221799693838659
 20
-0.26419960506788387
 40
2.0
 41
0.0
 10
-2.236094419816208
 20
-0.25824023224553194
 40
2.0
 41
0.0
 10
-2.2503485481646726
 20
-0.25218439702365725
 40
2.0
 41
0.0
 10
-2.2645614279538084
 20
-0.24603237594854832
 40
2.0
 41
0.0
 10
-2.278732410137029
 20
-0.23978444995892723
 40
2.0
 41
0.0
 10
-2.292860847581054
 20
-0.23344090437311538
 40
2.0
 41
0.0
 10
-2.306946095095449
 20
-0.2270020288760075
 40
2.0
 41
0.0
 10
-2.3209875094620944
 20
-0.2204681175058445
 40
2.0
 41
0.0
 10
-2.334984449464561
 20
-0.21383946864078185
 40
2.0
 41
0.0
 10
-2.3489362759173917
 20
-0.20711638498526375
 40
2.0
 41
0.0
 10
-2.362842351695285
 20
-0.2002991735562052
 40
2.0
 41
0.0
 10
-2.376702041762195
 20
-0.193388145668965
 40
2.0
 41
0.0
 10
-2.3905147132003295
 20
-0.18638361692313543
 40
2.0
 41
0.0
 10
-2.4042797352390526
 20
-0.17928590718812476
 40
2.0
 41
0.0
 10
-2.4179964792836905
 20
-0.17209534058855214
 40
2.0
 41
0.0
 10
-2.431664318944237
 20
-0.16481224548944828
 40
2.0
 41
0.0
 10
-2.445282630063957
 20
-0.1574369544812555
 40
2.0
 41
0.0
 10
-2.4588507907478876
 20
-0.14996980436464646
 40
2.0
 41
0.0
 10
-2.472368181391246
 20
-0.14241113613513368
 40
2.0
 41
0.0
 10
-2.4858341847077137
 20
-0.134761294967509
 40
2.0
 41
0.0
 10
-2.499248185757631
 20
-0.12702063020007293
 40
2.0
 41
0.0
 10
-2.5126095719760784
 20
-0.11918949531868539
 40
2.0
 41
0.0
 10
-2.52591773320085
 20
-0.11126824794062129
 40
2.0
 41
0.0
 10
-2.5391720617003157
 20
-0.10325724979824247
 40
2.0
 41
0.0
 10
-2.552371952201179
 20
-0.09515686672247292
 40
2.0
 41
0.0
 10
-2.5655168019161105
 20
-0.08696746862610039
 40
2.0
 41
0.0
 10
-2.578606010571278
 20
-0.07868942948687829
 40
2.0
 41
0.0
 10
-2.5916389804337596
 20
-0.07032312733045099
 40
2.0
 41
0.0
 10
-2.604615116338839
 20
-0.06186894421308731
 40
2.0
 41
0.0
 10
-2.6175338257171843
 20
-0.053327266204237445
 40
2.0
 41
0.0
 10
-2.6303945186219067
 20
-0.04469848336889948
 40
2.0
 41
0.0
 10
-2.643196607755505
 20
-0.03598298974980896
 40
2.0
 41
0.0
 10
-2.6559395084966813
 20
-0.02718118334944264
 40
2.0
 41
0.0
 10
-2.6686226389270393
 20
-0.018293466111845902
 40
2.0
 41
0.0
 10
-2.681245419857662
 20
-0.009320243904271885
 40
2.0
 41
0.0
 10
-2.6938072748555557
 20
-0.00026192649865475204
 40
2.0
 41
0.0
 10
-2.706307630269974
 20
0.008881072447108451
 40
2.0
 41
0.0
 10
-2.7187459152586166
 20
0.018108335408043796
 40
2.0
 41
0.0
 10
-2.7311215618136995
 20
0.027419441011174772
 40
2.0
 41
0.0
 10
-2.743434004787888
 20
0.0368139640547549
 40
2.0
 41
0.0
 10
-2.755682681920108
 20
0.046291475527691306
 40
2.0
 41
0.0
 10
-2.7678670338612212
 20
0.05585154262913439
 40
2.0
 41
0.0
 10
-2.77998650419957
 20
0.065493728788242
 40
2.0
 41
0.0
 10
-2.792040539486385
 20
0.0752175936841164
 40
2.0
 41
0.0
 10
-2.80402858926106
 20
0.08502269326591172
 40
2.0
 41
0.0
 10
-2.815950106076288
 20
0.09490857977311129
 40
2.0
 41
0.0
 10
-2.8278045455230636
 20
0.10487480175597641
 40
2.0
 41
0.0
 10
-2.839591366255538
 20
0.11492090409616051
 40
2.0
 41
0.0
 10
-2.8513100300157515
 20
0.125046428027497
 40
2.0
 41
0.0
 10
-2.8629600016582
 20
0.13525091115694243
 40
2.0
 41
0.0
 10
-2.874540749174283
 20
0.14553388748569795
 40
2.0
 41
0.0
 10
-2.8860517437165933
 20
0.15589488743048663
 40
2.0
 41
0.0
 10
-2.897492459623069
 20
0.16633343784499877
 40
2.0
 41
0.0
 10
-2.9088623744409983
 20
0.17684906204149642
 40
2.0
 41
0.0
 10
-2.9201609689508814
 20
0.1874412798125893
 40
2.0
 41
0.0
 10
-2.931387727190133
 20
0.19810960745315231
 40
2.0
 41
0.0
 10
-2.942542136476651
 20
0.20885355778242332
 40
2.0
 41
0.0
 10
-2.953623687432226
 20
0.21967264016624655
 40
2.0
 41
0.0
 10
-2.964631874005807
 20
0.23056636053948187
 40
2.0
 41
0.0
 10
-2.975566193496602
 20
0.24153422142856273
 40
2.0
 41
0.0
 10
-2.986426146577042
 20
0.2525757219742151
 40
2.0
 41
0.0
 10
-2.997211237315581
 20
0.2636903579543308
 40
2.0
 41
0.0
 10
-3.0079209731993433
 20
0.27487762180699216
 40
2.0
 41
0.0
 10
-3.018554865156612
 20
0.2861370026536505
 40
2.0
 41
0.0
 10
-3.0291124275791703
 20
0.2974679863224585
 40
2.0
 41
0.0
 10
-3.0395931783444676
 20
0.30887005537174606
 40
2.0
 41
0.0
 10
-3.0499966388376434
 20
0.3203426891136518
 40
2.0
 41
0.0
 10
-3.06032233397338
 20
0.33188536363790266
 40
2.0
 41
0.0
 10
-3.0705697922176025
 20
0.34349755183573727
 40
2.0
 41
0.0
 10
-3.0807385456090035
 20
0.3551787234239754
 40
2.0
 41
0.0
 10
-3.090828129780423
 20
0.36692834496923576
 40
2.0
 41
0.0
 10
-3.1008380839800456
 20
0.37874587991229647
 40
2.0
 41
0.0
 10
-3.1107679510924475
 20
0.3906307885925955
 40
2.0
 41
0.0
 10
-3.1206172776594667
 20
0.40258252827287544
 40
2.0
 41
0.0
 10
-3.130385613900915
 20
0.4146005531639716
 40
2.0
 41
0.0
 10
-3.1400725137351135
 20
0.426684314449731
 40
2.0
 41
0.0
 10
-3.1496775347992654
 20
0.43883326031207637
 40
2.0
 41
0.0
 10
-3.159200238469657
 20
0.4510468359562061
 40
2.0
 41
0.0
 10
-3.168640189881689
 20
0.46332448363593115
 40
2.0
 41
0.0
 10
-3.177996957949732
 20
0.475665642679143
 40
2.0
 41
0.0
 10
-3.1872701153868155
 20
0.4880697495134163
 40
2.0
 41
0.0
 10
-3.196459238724138
 20
0.5005362376917475
 40
2.0
 41
0.0
 10
-3.205563908330408
 20
0.5130645379184211
 40
2.0
 41
0.0
 10
-3.214583708431004
 20
0.5256540780750063
 40
2.0
 41
0.0
 10
-3.223518227126963
 20
0.5383042832464868
 40
2.0
 41
0.0
 10
-3.23236705641379
 20
0.5510145757475111
 40
2.0
 41
0.0
 10
-3.2411297922000903
 20
0.5637843751487741
 40
2.0
 41
0.0
 10
-3.2498060343260216
 20
0.5766130983035231
 40
2.0
 41
0.0
 10
-3.2583953865815687
 20
0.5895001593741911
 40
2.0
 41
0.0
 10
-3.266897456724637
 20
0.6024449698591443
 40
2.0
 41
0.0
 10
-3.2753118564989636
 20
0.6154469386195591
 40
2.0
 41
0.0
 10
-3.28363820165185
 20
0.6285054719064185
 40
2.0
 41
0.0
 10
-3.291876111951704
 20
0.6416199733876238
 40
2.0
 41
0.0
 10
-3.300025211205411
 20
0.6547898441752285
 40
2.0
 41
0.0
 10
-3.3080851272755076
 20
0.6680144828527881
 40
2.0
 41
0.0
 10
-3.316055492097176
 20
0.6812932855028206
 40
2.0
 41
0.0
 10
-3.323935941695055
 20
0.6946256457343885
 40
2.0
 41
0.0
 10
-3.3317261161998584
 20
0.708010954710788
 40
2.0
 41
0.0
 10
-3.339425659864812
 20
0.7214486011773562
 40
2.0
 41
0.0
 10
-3.347034221081896
 20
0.7349379714893793
 40
2.0
 41
0.0
 10
-3.354551452397903
 20
0.7484784496401187
 40
2.0
 41
0.0
 10
-3.361977010530304
 20
0.7620694172889408
 40
2.0
 41
0.0
 10
-3.3693105563829278
 20
0.7757102537895548
 40
2.0
 41
0.0
 10
-3.3765517550614392
 20
0.7894003362183528
 40
2.0
 41
0.0
 10
-3.3837002758886428
 20
0.803139039402861
 40
2.0
 41
0.0
 10
-3.390755792419574
 20
0.8169257359502853
 40
2.0
 41
0.0
 10
-3.3977179824564114
 20
0.8307597962761608
 40
2.0
 41
0.0
 10
-3.404586528063189
 20
0.8446405886331045
 40
2.0
 41
0.0
 10
-3.4113611155803163
 20
0.8585674791396674
 40
2.0
 41
0.0
 10
-3.4180414356388997
 20
0.8725398318092749
 40
2.0
 41
0.0
 10
-3.4246271831748727
 20
0.8865570085792752
 40
2.0
 41
0.0
 10
-3.431118057442924
 20
0.9006183693400749
 40
2.0
 41
0.0
 10
-3.4375137620302336
 20
0.9147232719643705
 40
2.0
 41
0.0
 10
-3.44381400487001
 20
0.9288710723364715
 40
2.0
 41
0.0
 10
-3.450018498254824
 20
0.9430611243817176
 40
2.0
 41
0.0
 10
-3.456126958849751
 20
0.9572927800959777
 40
2.0
 41
0.0
 10
-3.4621391077053065
 20
0.9715653895752443
 40
2.0
 41
0.0
 10
-3.4680546702701855
 20
0.9858783010453103
 40
2.0
 41
0.0
 10
-3.4738733764038034
 20
1.0002308608915398
 40
2.0
 41
0.0
 10
-3.479594960388627
 20
1.0146224136887056
 40
2.0
 41
0.0
 10
-3.4852191609423135
 20
1.0290523022309261
 40
2.0
 41
0.0
 10
-3.490745721229639
 20
1.0435198675616777
 40
2.0
 41
0.0
 10
-3.4961743888742287
 20
1.0580244490038828
 40
2.0
 41
0.0
 10
-3.5015049159700817
 20
1.0725653841900866
 40
2.0
 41
0.0
 10
-3.5067370590928917
 20
1.0871420090926982
 40
2.0
 41
0.0
 10
-3.5118705793111626
 20
1.101753658054318
 40
2.0
 41
0.0
 10
-3.5169052421971223
 20
1.1163996638181346
 40
2.0
 41
0.0
 10
-3.5218408178374236
 20
1.1310793575583948
 40
2.0
 41
0.0
 10
-3.5266770808436476
 20
1.1457920689109509
 40
2.0
 41
0.0
 10
-3.526707335325891
 20
1.1458862486749026
 40
2.0
 41
0.0
 10
-3.5193093664131023
 20
1.1512534982919096
 40
2.0
 41
0.0
 10
-3.5069857524806007
 20
1.160070540810663
 40
2.0
 41
0.0
 10
-3.494604111537235
 20
1.1688059095312395
 40
2.0
 41
0.0
 10
-3.4821649848608827
 20
1.1774592225768048
 40
2.0
 41
0.0
 10
-3.46966891624248
 20
1.1860301016576829
 40
2.0
 41
0.0
 10
-3.4571164519622446
 20
1.194518172087896
 40
2.0
 41
0.0
 10
-3.4445081407657954
 20
1.2029230628015437
 40
2.0
 41
0.0
 10
-3.4318445338401657
 20
1.2112444063690222
 40
2.0
 41
0.0
 10
-3.4191261847897065
 20
1.2194818390130906
 40
2.0
 41
0.0
 10
-3.406353649611885
 20
1.2276350006247694
 40
2.0
 41
0.0
 10
-3.3935274866729754
 20
1.2357035347790877
 40
2.0
 41
0.0
 10
-3.380648256683655
 20
1.2436870887506624
 40
2.0
 41
0.0
 10
-3.3677165226744874
 20
1.2515853135291173
 40
2.0
 41
0.0
 10
-3.3547328499713114
 20
1.2593978638343426
 40
2.0
 41
0.0
 10
-3.3416978061705276
 20
1.2671243981315863
 40
2.0
 41
0.0
 10
-3.32861196111428
 20
1.2747645786463893
 40
2.0
 41
0.0
 10
-3.315475886865554
 20
1.2823180713793456
 40
2.0
 41
0.0
 10
-3.302290157683159
 20
1.2897845461207087
 40
2.0
 41
0.0
 10
-3.289055349996631
 20
1.2971636764648249
 40
2.0
 41
0.0
 10
-3.2757720423810253
 20
1.3044551398244026
 40
2.0
 41
0.0
 10
-3.262440815531633
 20
1.311658617444614
 40
2.0
 41
0.0
 10
-3.249062252238587
 20
1.318773794417032
 40
2.0
 41
0.0
 10
-3.23563693736139
 20
1.3258003596933943
 40
2.0
 41
0.0
 10
-3.2221654578033436
 20
1.3327380060992025
 40
2.0
 41
0.0
 10
-3.208648402485895
 20
1.3395864303471496
 40
2.0
 41
0.0
 10
-3.195086362322884
 20
1.346345333050381
 40
2.0
 41
0.0
 10
-3.181479930194719
 20
1.3530144187355795
 40
2.0
 41
0.0
 10
-3.167829700922455
 20
1.359593395855884
 40
2.0
 41
0.0
 10
-3.1541362712417893
 20
1.3660819768036343
 40
2.0
 41
0.0
 10
-3.1404002397769744
 20
1.3724798779229452
 40
2.0
 41
0.0
 10
-3.1266222070146514
 20
1.3787868195221047
 40
2.0
 41
0.0
 10
-3.1128027752775957
 20
1.3850025258858034
 40
2.0
 41
0.0
 10
-3.0989425486983886
 20
1.3911267252871857
 40
2.0
 41
0.0
 10
-3.0850421331930034
 20
1.3971591499997307
 40
2.0
 41
0.0
 10
-3.071102136434322
 20
1.4030995363089542
 40
2.0
 41
0.0
 10
-3.0571231678255644
 20
1.4089476245239383
 40
2.0
 41
0.0
 10
-3.043105838473652
 20
1.4147031589886847
 40
2.0
 41
0.0
 10
-3.02905076116249
 20
1.420365888093289
 40
2.0
 41
0.0
 10
-3.014958550326181
 20
1.4259355642849427
 40
2.0
 41
0.0
 10
-3.0008298220221614
 20
1.4314119440787532
 40
2.0
 41
0.0
 10
-2.9866651939042717
 20
1.4367947880683887
 40
2.0
 41
0.0
 10
-2.972465285195756
 20
1.442083860936544
 40
2.0
 41
0.0
 10
-2.9582307166621877
 20
1.4472789314652297
 40
2.0
 41
0.0
 10
-2.943962110584338
 20
1.4523797725458758
 40
2.0
 41
0.0
 10
-2.929660090730967
 20
1.4573861611892647
 40
2.0
 41
0.0
 10
-2.9153252823315583
 20
1.4622978785352747
 40
2.0
 41
0.0
 10
-2.9009583120489837
 20
1.4671147098624537
 40
2.0
 41
0.0
 10
-2.8865598079521106
 20
1.471836444597399
 40
2.0
 41
0.0
 10
-2.872130399488343
 20
1.4764628763239696
 40
2.0
 41
0.0
 10
-2.857670717456106
 20
1.4809938027923044
 40
2.0
 41
0.0
 10
-2.8431813939772677
 20
1.4854290259276675
 40
2.0
 41
0.0
 10
-2.8286630624695093
 20
1.4897683518391047
 40
2.0
 41
0.0
 10
-2.814116357618628
 20
1.4940115908279221
 40
2.0
 41
0.0
 10
-2.7995419153507983
 20
1.4981585573959766
 40
2.0
 41
0.0
 10
-2.7849403728047664
 20
1.502209070253787
 40
2.0
 41
0.0
 10
-2.7703123683039994
 20
1.506162952328458
 40
2.0
 41
0.0
 10
-2.7556585413287795
 20
1.5100200307714222
 40
2.0
 41
0.0
 10
-2.7409795324882484
 20
1.5137801369659956
 40
2.0
 41
0.0
 10
-2.7262759834924024
 20
1.5174431065347487
 40
2.0
 41
0.0
 10
-2.711548537124039
 20
1.5210087793466944
 40
2.0
 41
0.0
 10
-2.6967978372106582
 20
1.524476999524286
 40
2.0
 41
0.0
 10
-2.6820245285963153
 20
1.5278476154502312
 40
2.0
 41
0.0
 10
-2.667229257113431
 20
1.5311204797741236
 40
2.0
 41
0.0
 10
-2.6524126695545585
 20
1.534295449418881
 40
2.0
 41
0.0
 10
-2.6375754136441087
 20
1.537372385587001
 40
2.0
 41
0.0
 10
-2.6227181380100326
 20
1.5403511537666295
 40
2.0
 41
0.0
 10
-2.607841492155469
 20
1.5432316237374404
 40
2.0
 41
0.0
 10
-2.592946126430345
 20
1.5460136695763285
 40
2.0
 41
0.0
 10
-2.5780326920029517
 20
1.5486971696629142
 40
2.0
 41
0.0
 10
-2.5631018408314734
 20
1.5512820066848607
 40
2.0
 41
0.0
 10
-2.5481542256354874
 20
1.5537680676430026
 40
2.0
 41
0.0
 10
-2.5331904998674313
 20
1.5561552438562836
 40
2.0
 41
0.0
 10
-2.5182113176840324
 20
1.5584434309665114
 40
2.0
 41
0.0
 10
-2.5032173339177164
 20
1.5606325289429175
 40
2.0
 41
0.0
 10
-2.4882092040479744
 20
1.562722442086529
 40
2.0
 41
0.0
 10
-2.4731875841727144
 20
1.5647130790343553
 40
2.0
 41
0.0
 10
-2.4581531309795728
 20
1.5666043527633793
 40
2.0
 41
0.0
 10
-2.4431065017172107
 20
1.5683961805943643
 40
2.0
 41
0.0
 10
-2.42804835416658
 20
1.570088484195466
 40
2.0
 41
0.0
 10
-2.4129793466121683
 20
1.5716811895856577
 40
2.0
 41
0.0
 10
-2.3979001378132203
 20
1.5731742271379656
 40
2.0
 41
0.0
 10
-2.3828113869749417
 20
1.5745675315825118
 40
2.0
 41
0.0
 10
-2.3677137537196766
 20
1.575861042009366
 40
2.0
 41
0.0
 10
-2.352607898058077
 20
1.5770547018712113
 40
2.0
 41
0.0
 10
-2.3374944803602458
 20
1.5781484589858144
 40
2.0
 41
0.0
 10
-2.3223741613268696
 20
1.5791422655383074
 40
2.0
 41
0.0
 10
-2.3072476019603343
 20
1.5800360780832765
 40
2.0
 41
0.0
 10
-2.2921154635358296
 20
1.5808298575466644
 40
2.0
 41
0.0
 10
-2.276978407572441
 20
1.5815235692274756
 40
2.0
 41
0.0
 10
-2.261837095804228
 20
1.5821171827992941
 40
2.0
 41
0.0
 10
-2.2466921901513
 20
1.5826106723116107
 40
2.0
 41
0.0
 10
-2.2315443526908747
 20
1.5830040161909555
 40
2.0
 41
0.0
 10
-2.216394245628341
 20
1.583297197241842
 40
2.0
 41
0.0
 10
-2.2012425312683006
 20
1.5834902026475186
 40
2.0
 41
0.0
 10
-2.186089871985625
 20
1.5835830239705282
 40
2.0
 41
0.0
 10
-2.170936930196491
 20
1.5835756571530792
 40
2.0
 41
0.0
 10
-2.155784368329429
 20
1.5834681025172204
 40
2.0
 41
0.0
 10
-2.1406328487963555
 20
1.5832603647648282
 40
2.0
 41
0.0
 10
-2.125483033963625
 20
1.5829524529774002
 40
2.0
 41
0.0
 10
-2.1103355861230657
 20
1.5825443806156603
 40
2.0
 41
0.0
 10
-2.095191167463033
 20
1.582036165518967
 40
2.0
 41
0.0
 10
-2.080050440039455
 20
1.5814278299045368
 40
2.0
 41
0.0
 10
-2.0649140657468963
 20
1.5807194003664704
 40
2.0
 41
0.0
 10
-2.0497827062896157
 20
1.5799109078745919
 40
2.0
 41
0.0
 10
-2.034657023152645
 20
1.5790023877730932
 40
2.0
 41
0.0
 10
-2.0195376775728686
 20
1.5779938797789912
 40
2.0
 41
0.0
 10
-2.0044253305101174
 20
1.5768854279803888
 40
2.0
 41
0.0
 10
-1.9893206426182741
 20
1.57567708083455
 40
2.0
 41
0.0
 10
-1.9742242742163905
 20
1.5743688911657792
 40
2.0
 41
0.0
 10
-1.9591368852598237
 20
1.5729609161631148
 40
2.0
 41
0.0
 10
-1.9440591353113827
 20
1.5714532173778264
 40
2.0
 41
0.0
 10
-1.9289916835124976
 20
1.5698458607207253
 40
2.0
 41
0.0
 10
-1.9139351885544011
 20
1.5681389164592825
 40
2.0
 41
0.0
 10
-1.8988903086493356
 20
1.5663324592145584
 40
2.0
 41
0.0
 10
-1.8838577015017783
 20
1.5644265679579386
 40
2.0
 41
0.0
 10
-1.868838024279687
 20
1.5624213260076822
 40
2.0
 41
0.0
 10
-1.8538319335857751
 20
1.5603168210252818
 40
2.0
 41
0.0
 10
-1.8388400854288027
 20
1.5581131450116268
 40
2.0
 41
0.0
 10
-1.823863135194903
 20
1.5558103943029855
 40
2.0
 41
0.0
 10
-1.808901737618927
 20
1.5534086695667915
 40
2.0
 41
0.0
 10
-1.7939565467558247
 20
1.5509080757972433
 40
2.0
 41
0.0
 10
-1.7790282159520494
 20
1.5483087223107153
 40
2.0
 41
0.0
 10
-1.764117397816999
 20
1.5456107227409772
 40
2.0
 41
0.0
 10
-1.749224744194483
 20
1.5428141950342273
 40
2.0
 41
0.0
 10
-1.7343509061342286
 20
1.5399192614439383
 40
2.0
 41
0.0
 10
-1.7194965338634185
 20
1.5369260485255078
 40
2.0
 41
0.0
 10
-1.7046622767582669
 20
1.5338346871307311
 40
2.0
 41
0.0
 10
-1.689848783315628
 20
1.5306453124020787
 40
2.0
 41
0.0
 10
-1.6750567011246507
 20
1.5273580637667865
 40
2.0
 41
0.0
 10
-1.6602866768384636
 20
1.523973084930764
 40
2.0
 41
0.0
 10
-1.6455393561459108
 20
1.5204905238723105
 40
2.0
 41
0.0
 10
-1.6308153837433201
 20
1.5169105328356451
 40
2.0
 41
0.0
 10
-1.616115403306322
 20
1.5132332683242526
 40
2.0
 41
0.0
 10
-1.6014400574617125
 20
1.5094588910940412
 40
2.0
 41
0.0
 10
-1.5867899877593534
 20
1.505587566146314
 40
2.0
 41
0.0
 10
-1.5721658346441345
 20
1.5016194627205586
 40
2.0
 41
0.0
 10
-1.5575682374279691
 20
1.4975547542870449
 40
2.0
 41
0.0
 10
-1.5429978342618509
 20
1.4933936185392445
 40
2.0
 41
0.0
 10
-1.528455262107951
 20
1.4891362373860604
 40
2.0
 41
0.0
 10
-1.5139411567117778
 20
1.4847827969438776
 40
2.0
 41
0.0
 10
-1.4994561525743806
 20
1.4803334875284224
 40
2.0
 41
0.0
 10
-1.4850008829246144
 20
1.4757885036464478
 40
2.0
 41
0.0
 10
-1.4705759796914553
 20
1.4711480439872262
 40
2.0
 41
0.0
 10
-1.4561820734763777
 20
1.466412311413865
 40
2.0
 41
0.0
 10
-1.4418197935257826
 20
1.4615815129544383
 40
2.0
 41
0.0
 10
-1.4274897677034941
 20
1.4566558597929373
 40
2.0
 41
0.0
 10
-1.413192622463309
 20
1.4516355672600354
 40
2.0
 41
0.0
 10
-1.39892898282161
 20
1.446520854823678
 40
2.0
 41
0.0
 10
-1.3846994723300456
 20
1.4413119460794865
 40
2.0
 41
0.0
 10
-1.3705047130482666
 20
1.436009068740982
 40
2.0
 41
0.0
 10
-1.3563453255167355
 20
1.4306124546296362
 40
2.0
 41
0.0
 10
-1.3422219287295962
 20
1.4251223396647288
 40
2.0
 41
0.0
 10
-1.3281351401076171
 20
1.4195389638530416
 40
2.0
 41
0.0
 10
-1.3140855754711962
 20
1.4138625712783615
 40
2.0
 41
0.0
 10
-1.300073849013442
 20
1.4080934100908116
 40
2.0
 41
0.0
 10
-1.2861005732733226
 20
1.4022317324960043
 40
2.0
 41
0.0
 10
-1.2721663591088896
 20
1.3962777947440141
 40
2.0
 41
0.0
 10
-1.2582718156705706
 20
1.3902318571181755
 40
2.0
 41
0.0
 10
-1.244417550374542
 20
1.3840941839237053
 40
2.0
 41
0.0
 10
-1.230604168876174
 20
1.3778650434761475
 40
2.0
 41
0.0
 10
-1.216832275043553
 20
1.3715447080896443
 40
2.0
 41
0.0
 10
-1.203102470931086
 20
1.3651334540650297
 40
2.0
 41
0.0
 10
-1.1894153567531758
 20
1.3586315616777531
 40
2.0
 41
0.0
 10
-1.1757715308579875
 20
1.3520393151656265
 40
2.0
 41
0.0
 10
-1.162171589701287
 20
1.345357002716396
 40
2.0
 41
0.0
 10
-1.1486161278203675
 20
1.3385849164551455
 40
2.0
 41
0.0
 10
-1.1351057378080605
 20
1.3317233524315282
 40
2.0
 41
0.0
 10
-1.1216410102868257
 20
1.3247726106068183
 40
2.0
 41
0.0
 10
-1.1082225338829352
 20
1.3177329948408047
 40
2.0
 41
0.0
 10
-1.0948508952007403
 20
1.3106048128785033
 40
2.0
 41
0.0
 10
-1.0815266787970244
 20
1.3033883763367036
 40
2.0
 41
0.0
 10
-1.0682504671554531
 20
1.2960840006903487
 40
2.0
 41
0.0
 10
-1.055022840661106
 20
1.2886920052587412
 40
2.0
 41
0.0
 10
-1.0418443775751072
 20
1.2812127131915854
 40
2.0
 41
0.0
 10
-1.0287156540093443
 20
1.2736464514548587
 40
2.0
 41
0.0
 10
-1.0156372439012848
 20
1.2659935508165208
 40
2.0
 41
0.0
 10
-1.0026097189888845
 20
1.258254345832051
 40
2.0
 41
0.0
 10
-0.9896336487855923
 20
1.250429174829823
 40
2.0
 41
0.0
 10
-0.9767096005554563
 20
1.242518379896318
 40
2.0
 41
0.0
 10
-0.9638381392883215
 20
1.2345223068611637
 40
2.0
 41
0.0
 10
-0.9510198276751343
 20
1.2264413052820227
 40
2.0
 41
0.0
 10
-0.9382552260833403
 20
1.218275728429305
 40
2.0
 41
0.0
 10
-0.9255448925323899
 20
1.21002593327073
 40
2.0
 41
0.0
 10
-0.9128893826693423
 20
1.2016922804557173
 40
2.0
 41
0.0
 10
-0.9002892497445756
 20
1.193275134299622
 40
2.0
 41
0.0
 10
-0.8877450445876001
 20
1.1847748627678074
 40
2.0
 41
0.0
 10
-0.8752573155829786
 20
1.176191837459561
 40
2.0
 41
0.0
 10
-0.8628266086463536
 20
1.1675264335918465
 40
2.0
 41
0.0
 10
-0.8504534672005799
 20
1.1587790299829037
 40
2.0
 41
0.0
 10
-0.8381384321519714
 20
1.1499500090356864
 40
2.0
 41
0.0
 10
-0.8325337761845167
 20
1.1458754897323942
 40
2.0
 41
0.0
 10
-0.8370435461465895
 20
1.1598999898090645
 40
2.0
 41
0.0
 10
-0.8416848360225893
 20
1.1746753660647118
 40
2.0
 41
0.0
 10
-0.8462261733969081
 20
1.1894817690736001
 40
2.0
 41
0.0
 10
-0.8506673508844441
 20
1.2043185226852637
 40
2.0
 41
0.0
 10
-0.8550081656740067
 20
1.21918494936324
 40
2.0
 41
0.0
 10
-0.8592484195375772
 20
1.234080370216022
 40
2.0
 41
0.0
 10
-0.8633879188393591
 20
1.2490041050280436
 40
2.0
 41
0.0
 10
-0.8674264745446237
 20
1.263955472290755
 40
2.0
 41
0.0
 10
-0.8713639022283401
 20
1.2789337892337398
 40
2.0
 41
0.0
 10
-0.8752000220835994
 20
1.2939383718558952
 40
2.0
 41
0.0
 10
-0.8789346589298236
 20
1.3089685349566678
 40
2.0
 41
0.0
 10
-0.8825676422207673
 20
1.3240235921673416
 40
2.0
 41
0.0
 10
-0.8860988060523054
 20
1.3391028559823905
 40
2.0
 41
0.0
 10
-0.8895279891700074
 20
1.3542056377908591
 40
2.0
 41
0.0
 10
-0.8928550349765041
 20
1.3693312479078255
 40
2.0
 41
0.0
 10
-0.8960797915386375
 20
1.3844789956058823
 40
2.0
 41
0.0
 10
-0.8992021115943982
 20
1.3996481891466872
 40
2.0
 41
0.0
 10
-0.9022218525596515
 20
1.4148381358125506
 40
2.0
 41
0.0
 10
-0.905138876534648
 20
1.4300481419380688
 40
2.0
 41
0.0
 10
-0.9079530503103217
 20
1.4452775129418005
 40
2.0
 41
0.0
 10
-0.9106642453743716
 20
1.4605255533579877
 40
2.0
 41
0.0
 10
-0.9132723379171329
 20
1.475791566868312
 40
2.0
 41
0.0
 10
-0.9157772088372279
 20
1.4910748563336942
 40
2.0
 41
0.0
 10
-0.9181787437470067
 20
1.5063747238261307
 40
2.0
 41
0.0
 10
-0.9204768329777706
 20
1.5216904706605616
 40
2.0
 41
0.0
 10
-0.9226713715847812
 20
1.5370213974267863
 40
2.0
 41
0.0
 10
-0.9247622593520501
 20
1.5523668040213896
 40
2.0
 41
0.0
 10
-0.9267494007969175
 20
1.567725989679721
 40
2.0
 41
0.0
 10
-0.9286327051744123
 20
1.5830982530078948
 40
2.0
 41
0.0
 10
-0.9304120864813963
 20
1.5984828920148184
 40
2.0
 41
0.0
 10
-0.9320874634604897
 20
1.6138792041442516
 40
2.0
 41
0.0
 10
-0.9336587596037843
 20
1.6292864863068852
 40
2.0
 41
0.0
 10
-0.9351259031563361
 20
1.6447040349124584
 40
2.0
 41
0.0
 10
-0.936488827119442
 20
1.6601311459018753
 40
2.0
 41
0.0
 10
-0.9377474692537004
 20
1.6755671147793663
 40
2.0
 41
0.0
 10
-0.9389017720818511
 20
1.6910112366446564
 40
2.0
 41
0.0
 10
-0.9399516828914025
 20
1.7064628062251552
 40
2.0
 41
0.0
 10
-0.9408971537370383
 20
1.7219211179081642
 40
2.0
 41
0.0
 10
-0.9417381414428057
 20
1.7373854657731003
 40
2.0
 41
0.0
 10
-0.9424746076040877
 20
1.7528551436237307
 40
2.0
 41
0.0
 10
-0.9431065185893582
 20
1.7683294450204237
 40
2.0
 41
0.0
 10
-0.9436338455417164
 20
1.7838076633124058
 40
2.0
 41
0.0
 10
-0.9440565643802034
 20
1.7992890916700415
 40
2.0
 41
0.0
 10
-0.9443746558009056
 20
1.8147730231170955
 40
2.0
 41
0.0
 10
-0.944588105277833
 20
1.8302587505630294
 40
2.0
 41
0.0
 10
-0.9446969030635824
 20
1.8457455668352922
 40
2.0
 41
0.0
 10
-0.9447010441897863
 20
1.8612327647116051
 40
2.0
 41
0.0
 10
-0.9446005284673349
 20
1.8767196369522656
 40
2.0
 41
0.0
 10
-0.9443953604863876
 20
1.8922054763324412
 40
2.0
 41
0.0
 10
-0.9440855496161631
 20
1.9076895756744663
 40
2.0
 41
0.0
 10
-0.9436711100045114
 20
1.9231712278801352
 40
2.0
 41
0.0
 10
-0.9431520605772667
 20
1.9386497259629947
 40
2.0
 41
0.0
 10
-0.9425284250373855
 20
1.9541243630806262
 40
2.0
 41
0.0
 10
-0.941800231863861
 20
1.9695944325669275
 40
2.0
 41
0.0
 10
-0.9409675143104247
 20
1.9850592279643844
 40
2.0
 41
0.0
 10
-0.9400303104040281
 20
2.0005180430563256
 40
2.0
 41
0.0
 10
-0.938988662943105
 20
2.0159701718991796
 40
2.0
 41
0.0
 10
-0.9378426194956173
 20
2.031414908854708
 40
2.0
 41
0.0
 10
-0.936592232396883
 20
2.046851548622233
 40
2.0
 41
0.0
 10
-0.9352375587471867
 20
2.0622793862708413
 40
2.0
 41
0.0
 10
-0.9337786604091705
 20
2.0776977172715805
 40
2.0
 41
0.0
 10
-0.9322156040050111
 20
2.0931058375296248
 40
2.0
 41
0.0
 10
-0.9305484609133765
 20
2.108503043416441
 40
2.0
 41
0.0
 10
-0.9287773072661643
 20
2.123888631801907
 40
2.0
 41
0.0
 10
-0.9269022239450299
 20
2.1392619000864257
 40
2.0
 41
0.0
 10
-0.9249232965776882
 20
2.1546221462330126
 40
2.0
 41
0.0
 10
-0.922840615534005
 20
2.169968668799356
 40
2.0
 41
0.0
 10
-0.9206542759218718
 20
2.1853007669698417
 40
2.0
 41
0.0
 10
-0.9183643775828593
 20
2.200617740587564
 40
2.0
 41
0.0
 10
-0.9159710250876624
 20
2.2159188901862947
 40
2.0
 41
0.0
 10
-0.9134743277313202
 20
2.2312035170224274
 40
2.0
 41
0.0
 10
-0.9108743995282268
 20
2.2464709231068865
 40
2.0
 41
0.0
 10
-0.9081713592069275
 20
2.261720411236998
 40
2.0
 41
0.0
 10
-0.9053653302046916
 20
2.276951285028335
 40
2.0
 41
0.0
 10
-0.9024564406618809
 20
2.292162848946508
 40
2.0
 41
0.0
 10
-0.8994448234160923
 20
2.3073544083389423
 40
2.0
 41
0.0
 10
-0.8963306159960978
 20
2.322525269466586
 40
2.0
 41
0.0
 10
-0.8931139606155593
 20
2.3376747395355975
 40
2.0
 41
0.0
 10
-0.8897950041665369
 20
2.3528021267289794
 40
2.0
 41
0.0
 10
-0.8863738982127792
 20
2.3679067402381744
 40
2.0
 41
0.0
 10
-0.8828507989828045
 20
2.3829878902946096
 40
2.0
 41
0.0
 10
-0.8792258673627622
 20
2.398044888201198
 40
2.0
 41
0.0
 10
-0.8754992688890905
 20
2.4130770463637847
 40
2.0
 41
0.0
 10
-0.8716711737409533
 20
2.4280836783225492
 40
2.0
 41
0.0
 10
-0.8677417567324722
 20
2.4430640987833527
 40
2.0
 41
0.0
 10
-0.8637111973047394
 20
2.4580176236490328
 40
2.0
 41
0.0
 10
-0.8595796795176276
 20
2.4729435700506452
 40
2.0
 41
0.0
 10
-0.8553473920413802
 20
2.4878412563786423
 40
2.0
 41
0.0
 10
-0.8510145281480002
 20
2.5027100023140076
 40
2.0
 41
0.0
 10
-0.8465812857024199
 20
2.5175491288593173
 40
2.0
 41
0.0
 10
-0.8420478671534694
 20
2.5323579583697473
 40
2.0
 41
0.0
 10
-0.8374144795246261
 20
2.547135814584025
 40
2.0
 41
0.0
 10
-0.8326813344045672
 20
2.5618820226553045
 40
2.0
 41
0.0
 10
-0.8278486479375013
 20
2.5765959091819854
 40
2.0
 41
0.0
 10
-0.8229166408133044
 20
2.591276802238466
 40
2.0
 41
0.0
 10
-0.8178855382574327
 20
2.6059240314058307
 40
2.0
 41
0.0
 10
-0.8127555700206476
 20
2.6205369278024584
 40
2.0
 41
0.0
 10
-0.8075269703685171
 20
2.6351148241145723
 40
2.0
 41
0.0
 10
-0.80219997807072
 20
2.6496570546267124
 40
2.0
 41
0.0
 10
-0.7967748363901428
 20
2.664162955252136
 40
2.0
 41
0.0
 10
-0.7912517930717687
 20
2.6786318635631443
 40
2.0
 41
0.0
 10
-0.7856311003313668
 20
2.693063118821333
 40
2.0
 41
0.0
 10
-0.7799130148439725
 20
2.7074560620077643
 40
2.0
 41
0.0
 10
-0.774097797732167
 20
2.7218100358530655
 40
2.0
 41
0.0
 10
-0.7681857145541524
 20
2.7361243848674346
 40
2.0
 41
0.0
 10
-0.7621770352916242
 20
2.7503984553705907
 40
2.0
 41
0.0
 10
-0.756072034337444
 20
2.7646315955216063
 40
2.0
 41
0.0
 10
-0.7498709904831073
 20
2.778823155348687
 40
2.0
 41
0.0
 10
-0.7435741869060135
 20
2.7929724867788464
 40
2.0
 41
0.0
 10
-0.737181911156533
 20
2.8070789436675057
 40
2.0
 41
0.0
 10
-0.7306944551448785
 20
2.8211418818279963
 40
2.0
 41
0.0
 10
-0.7241121151277687
 20
2.8351606590609855
 40
2.0
 41
0.0
 10
-0.7174351916949073
 20
2.84913463518379
 40
2.0
 41
0.0
 10
-0.7106639897552502
 20
2.863063172059621
 40
2.0
 41
0.0
 10
-0.7037988185230859
 20
2.876945633626722
 40
2.0
 41
0.0
 10
-0.6968399915039096
 20
2.8907813859274167
 40
2.0
 41
0.0
 10
-0.6897878264801115
 20
2.9045697971370568
 40
2.0
 41
0.0
 10
-0.6826426454964627
 20
2.9183102375928756
 40
2.0
 41
0.0
 10
-0.6754047748454095
 20
2.9320020798227446
 40
2.0
 41
0.0
 10
-0.6680745450521726
 20
2.9456446985738256
 40
2.0
 41
0.0
 10
-0.6606522908596524
 20
2.959237470841122
 40
2.0
 41
0.0
 10
-0.6531383512131435
 20
2.9727797758959356
 40
2.0
 41
0.0
 10
-0.6455330692448563
 20
2.9862709953142037
 40
2.0
 41
0.0
 10
-0.6378367922582489
 20
2.999710513004746
 40
2.0
 41
0.0
 10
-0.6300498717121633
 20
3.0130977152373974
 40
2.0
 41
0.0
 10
-0.6221726632047795
 20
3.026431990671039
 40
2.0
 41
0.0
 10
-0.6142055264573746
 20
3.0397127303815044
 40
2.0
 41
0.0
 10
-0.6061488252978979
 20
3.0529393278894013
 40
2.0
 41
0.0
 10
-0.5980029276443526
 20
3.0661111791877937
 40
2.0
 41
0.0
 10
-0.5897682054879985
 20
3.0792276827697953
 40
2.0
 41
0.0
 10
-0.5814450348763625
 20
3.0922882396560296
 40
2.0
 41
0.0
 10
-0.5730337958960643
 20
3.1052922534219913
 40
2.0
 41
0.0
 10
-0.564534872655463
 20
3.1182391302252737
 40
2.0
 41
0.0
 10
-0.5559486532671146
 20
3.1311282788326933
 40
2.0
 41
0.0
 10
-0.5472755298300489
 20
3.1439591106472875
 40
2.0
 41
0.0
 10
-0.5385158984118621
 20
3.156731039735193
 40
2.0
 41
0.0
 10
-0.5296701590306305
 20
3.169443482852404
 40
2.0
 41
0.0
 10
-0.520738715636647
 20
3.1820958594714064
 40
2.0
 41
0.0
 10
-0.5117219760939689
 20
3.1946875918076856
 40
2.0
 41
0.0
 10
-0.5026203521617951
 20
3.2072181048461164
 40
2.0
 41
0.0
 10
-0.4934342594756643
 20
3.2196868263672185
 40
2.0
 41
0.0
 10
-0.4841641175284691
 20
3.232093186973289
 40
2.0
 41
0.0
 10
-0.474810349651305
 20
3.244436620114402
 40
2.0
 41
0.0
 10
-0.465373382994136
 20
3.256716562114285
 40
2.0
 41
0.0
 10
-0.45585364850629007
 20
3.268932452196055
 40
2.0
 41
0.0
 10
-0.4462515809167745
 20
3.2810837325078324
 40
2.0
 41
0.0
 10
-0.43656761871442995
 20
3.2931698481482092
 40
2.0
 41
0.0
 10
-0.42680220412790304
 20
3.3051902471915953
 40
2.0
 41
0.0
 10
-0.4169557831054518
 20
3.317144380713421
 40
2.0
 41
0.0
 10
-0.4070288052945803
 20
3.3290317028152003
 40
2.0
 41
0.0
 10
-0.39702172402150726
 20
3.3408516706494664
 40
2.0
 41
0.0
 10
-0.3869349962704608
 20
3.3526037444445573
 40
2.0
 41
0.0
 10
-0.3767690826628137
 20
3.364287387529266
 40
2.0
 41
0.0
 10
-0.36652444743604673
 20
3.3759020663573476
 40
2.0
 41
0.0
 10
-0.3562015584225485
 20
3.3874472505318844
 40
2.0
 41
0.0
 10
-0.34580088702825107
 20
3.3989224128295095
 40
2.0
 41
0.0
 10
-0.335322908211104
 20
3.4103270292244803
 40
2.0
 41
0.0
 10
-0.32476810045938487
 20
3.4216605789126073
 40
2.0
 41
0.0
 10
-0.3141369457698471
 20
3.432922544335042
 40
2.0
 41
0.0
 10
-0.3034299296257099
 20
3.4441124112019086
 40
2.0
 41
0.0
 10
-0.2926475409744893
 20
3.4552296685157873
 40
2.0
 41
0.0
 10
-0.281790272205667
 20
3.4662738085950573
 40
2.0
 41
0.0
 10
-0.2708586191282063
 20
3.477244327097072
 40
2.0
 41
0.0
 10
-0.2598530809479128
 20
3.4881407230411954
 40
2.0
 41
0.0
 10
-0.24877416024463517
 20
3.498962498831677
 40
2.0
 41
0.0
 10
-0.23762236294931216
 20
3.50970916028038
 40
2.0
 41
0.0
 10
-0.22639819832087416
 20
3.520380216629342
 40
2.0
 41
0.0
 10
-0.2151021789229829
 20
3.5309751805731913
 40
2.0
 41
0.0
 10
-0.2037348206006262
 20
3.541493568281398
 40
2.0
 41
0.0
 10
-0.19229664245656186
 20
3.551934899420369
 40
2.0
 41
0.0
 10
-0.18078816682761212
 20
3.5622986971753834
 40
2.0
 41
0.0
 10
-0.16920991926080797
 20
3.5725844882723674
 40
2.0
 41
0.0
 10
-0.15756242848939384
 20
3.5827918029995045
 40
2.0
 41
0.0
 10
-0.14584622640867984
 20
3.592920175228687
 40
2.0
 41
0.0
 10
-0.1340618480517538
 20
3.6029691424368018
 40
2.0
 41
0.0
 10
-0.12220983156504273
 20
3.6129382457268537
 40
2.0
 41
0.0
 10
-0.11029071818374636
 20
3.622827029848919
 40
2.0
 41
0.0
 10
-0.09830505220711705
 20
3.6326350432209358
 40
2.0
 41
0.0
 10
-0.08625338097360125
 20
3.6423618379493266
 40
2.0
 41
0.0
 10
-0.07413625483584996
 20
3.652006969849451
 40
2.0
 41
0.0
 10
-0.061954227135579965
 20
3.6615699984658914
 40
2.0
 41
0.0
 10
-0.04970785417831136
 20
3.671050487092565
 40
2.0
 41
0.0
 10
-0.03739769520795866
 20
3.6804480027926663
 40
2.0
 41
0.0
 10
-0.02502431238129499
 20
3.68976211641844
 40
2.0
 41
0.0
 10
-0.012588270742279306
 20
3.6989924026307763
 40
2.0
 41
0.0
 10
-9.013819625125485e-05
 20
3.708138439918636
 40
2.0
 41
0.0
 10
-9.917067210984953e-06
 20
3.708196316788708
 40
2.0
 41
0.0
 10
0.0073807387735354
 20
3.702819001591559
 40
2.0
 41
0.0
 10
0.019574450652706243
 20
3.693823164235169
 40
2.0
 41
0.0
 10
0.03170841746639996
 20
3.684746901320343
 40
2.0
 41
0.0
 10
0.04378210876410216
 20
3.6755906096265036
 40
2.0
 41
0.0
 10
0.055794996730311075
 20
3.666354689431625
 40
2.0
 41
0.0
 10
0.06774655620761472
 20
3.657039544494732
 40
2.0
 41
0.0
 10
0.07963626471964869
 20
3.647645582038253
 40
2.0
 41
0.0
 10
0.0914636024939337
 20
3.638173212730216
 40
2.0
 41
0.0
 10
0.10322805248460165
 20
3.6286228506662965
 40
2.0
 41
0.0
 10
0.11492910039499504
 20
3.618994913351714
 40
2.0
 41
0.0
 10
0.1265662347001546
 20
3.6092898216829803
 40
2.0
 41
0.0
 10
0.13813894666917825
 20
3.599507999929499
 40
2.0
 41
0.0
 10
0.1496467303874609
 20
3.5896498757150206
 40
2.0
 41
0.0
 10
0.16108908277881273
 20
3.5797158799989455
 40
2.0
 41
0.0
 10
0.17246550362744828
 20
3.5697064470574866
 40
2.0
 41
0.0
 10
0.18377549559986095
 20
3.55962201446468
 40
2.0
 41
0.0
 10
0.1950185642665545
 20
3.549463023073263
 40
2.0
 41
0.0
 10
0.2061942181236669
 20
3.539229916995396
 40
2.0
 41
0.0
 10
0.21730196861445128
 20
3.52892314358325
 40
2.0
 41
0.0
 10
0.2283413301506374
 20
3.5185431534094467
 40
2.0
 41
0.0
 10
0.23931182013365548
 20
3.5080904002473687
 40
2.0
 41
0.0
 10
0.2502129589757387
 20
3.497565341051312
 40
2.0
 41
0.0
 10
0.26104427012088527
 20
3.4869684359365203
 40
2.0
 41
0.0
 10
0.2718052800656916
 20
3.476300148159062
 40
2.0
 41
0.0
 10
0.28249551838005327
 20
3.465560944095586
 40
2.0
 41
0.0
 10
0.29311451772773245
 20
3.454751293222923
 40
2.0
 41
0.0
 10
0.3036618138867835
 20
3.4438716680975734
 40
2.0
 41
0.0
 10
0.31413694576984963
 20
3.4329225443350415
 40
2.0
 41
0.0
 10
0.3245394554443203
 20
3.4219044005890473
 40
2.0
 41
0.0
 10
0.33486888815234983
 20
3.4108177185305975
 40
2.0
 41
0.0
 10
0.345124792330736
 20
3.3996629828269325
 40
2.0
 41
0.0
 10
0.3553067196306636
 20
3.388440681120337
 40
2.0
 41
0.0
 10
0.36541422493730136
 20
3.3771513040068233
 40
2.0
 41
0.0
 10
0.3754468663892643
 20
3.36579534501468
 40
2.0
 41
0.0
 10
0.3854042053979262
 20
3.354373300582905
 40
2.0
 41
0.0
 10
0.3952858066665955
 20
3.3428856700394944
 40
2.0
 41
0.0
 10
0.4050912382095456
 20
3.3313329555796205
 40
2.0
 41
0.0
 10
0.4148200713708967
 20
3.3197156622436723
 40
2.0
 41
0.0
 10
0.4244718808433571
 20
3.3080342978951816
 40
2.0
 41
0.0
 10
0.4340462446868161
 20
3.2962893731986194
 40
2.0
 41
0.0
 10
0.4435427443467884
 20
3.284481401597069
 40
2.0
 41
0.0
 10
0.4529609646727115
 20
3.272610899289786
 40
2.0
 41
0.0
 10
0.4623004939360984
 20
3.2606783852096264
 40
2.0
 41
0.0
 10
0.4715609238485302
 20
3.2486843810003645
 40
2.0
 41
0.0
 10
0.4807418495795107
 20
3.236629410993886
 40
2.0
 41
0.0
 10
0.4898428697741595
 20
3.224514002187269
 40
2.0
 41
0.0
 10
0.49886358657076313
 20
3.212338684219744
 40
2.0
 41
0.0
 10
0.5078036056181612
 20
3.2001039893495387
 40
2.0
 41
0.0
 10
0.5166625360929925
 20
3.187810452430614
 40
2.0
 41
0.0
 10
0.525439990716776
 20
3.1754586108892777
 40
2.0
 41
0.0
 10
0.5341355857728428
 20
3.1630490047006923
 40
2.0
 41
0.0
 10
0.5427489411231103
 20
3.150582176365271
 40
2.0
 41
0.0
 10
0.5512796802247016
 20
3.138058670884957
 40
2.0
 41
0.0
 10
0.5597274301464037
 20
3.1254790357394038
 40
2.0
 41
0.0
 10
0.5680918215849743
 20
3.1128438208620364
 40
2.0
 41
0.0
 10
0.5763724888812833
 20
3.1001535786160153
 40
2.0
 41
0.0
 10
0.5845690700362988
 20
3.087408863770084
 40
2.0
 41
0.0
 10
0.5926812067269138
 20
3.0746102334743206
 40
2.0
 41
0.0
 10
0.6007085443216084
 20
3.0617582472357787
 40
2.0
 41
0.0
 10
0.6086507318959558
 20
3.0488534668940317
 40
2.0
 41
0.0
 10
0.6165074222479602
 20
3.035896456596606
 40
2.0
 41
0.0
 10
0.6242782719132365
 20
3.022887782774324
 40
2.0
 41
0.0
 10
0.6319629411800266
 20
3.009828014116537
 40
2.0
 41
0.0
 10
0.6395610941040484
 20
2.9967177215462684
 40
2.0
 41
0.0
 10
0.6470723985231822
 20
2.9835574781952525
 40
2.0
 41
0.0
 10
0.6544965260719929
 20
2.9703478593788795
 40
2.0
 41
0.0
 10
0.661833152196083
 20
2.9570894425710486
 40
2.0
 41
0.0
 10
0.6690819561662825
 20
2.9437828073789167
 40
2.0
 41
0.0
 10
0.6762426210926695
 20
2.9304285355175654
 40
2.0
 41
0.0
 10
0.6833148339384225
 20
2.917027210784569
 40
2.0
 41
0.0
 10
0.6902982855335072
 20
2.903579419034472
 40
2.0
 41
0.0
 10
0.6971926705881885
 20
2.89008574815318
 40
2.0
 41
0.0
 10
0.7039976877063819
 20
2.876546788032256
 40
2.0
 41
0.0
 10
0.7107130393988252
 20
2.862963130543139
 40
2.0
 41
0.0
 10
0.7173384320960846
 20
2.8493353695112607
 40
2.0
 41
0.0
 10
0.7238735761613883
 20
2.8356641006900944
 40
2.0
 41
0.0
 10
0.73031818590329
 20
2.821949921735106
 40
2.0
 41
0.0
 10
0.7366719795881566
 20
2.8081934321776276
 40
2.0
 41
0.0
 10
0.7429346794524844
 20
2.7943952333986486
 40
2.0
 41
0.0
 10
0.7491060117150423
 20
2.7805559286025265
 40
2.0
 41
0.0
 10
0.7551857065888412
 20
2.7666761227906145
 40
2.0
 41
0.0
 10
0.7611734982929272
 20
2.7527564227348185
 40
2.0
 41
0.0
 10
0.7670691250639998
 20
2.7387974369510637
 40
2.0
 41
0.0
 10
0.7728723291678571
 20
2.724799775672699
 40
2.0
 41
0.0
 10
0.7785828569106615
 20
2.710764050823817
 40
2.0
 41
0.0
 10
0.7842004586500311
 20
2.6966908759925046
 40
2.0
 41
0.0
 10
0.7897248888059512
 20
2.6825808664040163
 40
2.0
 41
0.0
 10
0.7951559058715135
 20
2.668434638893884
 40
2.0
 41
0.0
 10
0.800493272423471
 20
2.6542528118809456
 40
2.0
 41
0.0
 10
0.8057367551326174
 20
2.640036005340314
 40
2.0
 41
0.0
 10
0.8108861247739892
 20
2.6257848407762725
 40
2.0
 41
0.0
 10
0.8159411562368859
 20
2.611499941195106
 40
2.0
 41
0.0
 10
0.8209016285347085
 20
2.597181931077867
 40
2.0
 41
0.0
 10
0.8257673248146248
 20
2.582831436353068
 40
2.0
 41
0.0
 10
0.8305380323670443
 20
2.5684490843693295
 40
2.0
 41
0.0
 10
0.835213542634922
 20
2.5540355038679463
 40
2.0
 41
0.0
 10
0.8397936512228705
 20
2.539591324955407
 40
2.0
 41
0.0
 10
0.8442781579061011
 20
2.525117179075842
 40
2.0
 41
0.0
 10
0.848666866639171
 20
2.510613698983425
 40
2.0
 41
0.0
 10
0.8529595855645592
 20
2.496081518714708
 40
2.0
 41
0.0
 10
0.8571561270210487
 20
2.481521273560906
 40
2.0
 41
0.0
 10
0.8612563075519348
 20
2.4669336000401207
 40
2.0
 41
0.0
 10
0.8652599479130415
 20
2.4523191358695207
 40
2.0
 41
0.0
 10
0.8691668730805604
 20
2.4376785199374544
 40
2.0
 41
0.0
 10
0.8729769122586996
 20
2.4230123922755284
 40
2.0
 41
0.0
 10
0.8766898988871519
 20
2.408321394030623
 40
2.0
 41
0.0
 10
0.8803056706483742
 20
2.3936061674368663
 40
2.0
 41
0.0
 10
0.8838240694746866
 20
2.3788673557875555
 40
2.0
 41
0.0
 10
0.8872449415551792
 20
2.364105603407036
 40
2.0
 41
0.0
 10
0.8905681373424388
 20
2.3493215556225353
 40
2.0
 41
0.0
 10
0.893793511559084
 20
2.334515858735949
 40
2.0
 41
0.0
 10
0.8969209232041185
 20
2.31968915999559
 40
2.0
 41
0.0
 10
0.8999502355590933
 20
2.3048421075678904
 40
2.0
 41
0.0
 10
0.9028813161940853
 20
2.289975350509069
 40
2.0
 41
0.0
 10
0.9057140369734844
 20
2.275089538736753
 40
2.0
 41
0.0
 10
0.9084482740615973
 20
2.2601853230015703
 40
2.0
 41
0.0
 10
0.9110839079280603
 20
2.245263354858701
 40
2.0
 41
0.0
 10
0.9136208233530635
 20
2.230324286639389
 40
2.0
 41
0.0
 10
0.9160589094323899
 20
2.2153687714224315
 40
2.0
 41
0.0
 10
0.918398059582262
 20
2.200397463005622
 40
2.0
 41
0.0
 10
0.9206381715440017
 20
2.1854110158771753
 40
2.0
 41
0.0
 10
0.9227791473885025
 20
2.17041008518711
 40
2.0
 41
0.0
 10
0.9248208935205062
 20
2.1553953267186134
 40
2.0
 41
0.0
 10
0.926763320682699
 20
2.1403673968593666
 40
2.0
 41
0.0
 10
0.9286063439596124
 20
2.125326952572857
 40
2.0
 41
0.0
 10
0.9303498827813325
 20
2.110274651369651
 40
2.0
 41
0.0
 10
0.931993860927026
 20
2.0952111512786584
 40
2.0
 41
0.0
 10
0.9335382065282711
 20
2.0801371108183577
 40
2.0
 41
0.0
 10
0.9349828520721973
 20
2.065053188968014
 40
2.0
 41
0.0
 10
0.9363277344044393
 20
2.0499600451388678
 40
2.0
 41
0.0
 10
0.9375727947318975
 20
2.0348583391453103
 40
2.0
 41
0.0
 10
0.9387179786253069
 20
2.019748731176037
 40
2.0
 41
0.0
 10
0.9397632360216179
 20
2.0046318817651865
 40
2.0
 41
0.0
 10
0.9407085212261834
 20
1.9895084517634682
 40
2.0
 41
0.0
 10
0.9415537929147579
 20
1.9743791023092663
 40
2.0
 41
0.0
 10
0.942299014135304
 20
1.9592444947997434
 40
2.0
 41
0.0
 10
0.9429441523096065
 20
1.9441052908619223
 40
2.0
 41
0.0
 10
0.9434891792346973
 20
1.9289621523237666
 40
2.0
 41
0.0
 10
0.9439340710840884
 20
1.9138157411852421
 40
2.0
 41
0.0
 10
0.9442788084088142
 20
1.8986667195893834
 40
2.0
 41
0.0
 10
0.9445233761382793
 20
1.8835157497933415
 40
2.0
 41
0.0
 10
0.944667763580921
 20
1.8683634941394371
 40
2.0
 41
0.0
 10
0.9447119644246739
 20
1.8532106150262033
 40
2.0
 41
0.0
 10
0.9446559767372457
 20
1.838057774879429
 40
2.0
 41
0.0
 10
0.9444998029662037
 20
1.822905636123197
 40
2.0
 41
0.0
 10
0.9442434499388674
 20
1.8077548611509313
 40
2.0
 41
0.0
 10
0.9438869288620072
 20
1.7926061122964345
 40
2.0
 41
0.0
 10
0.9434302553213587
 20
1.7774600518049357
 40
2.0
 41
0.0
 10
0.9428734492809387
 20
1.7623173418041396
 40
2.0
 41
0.0
 10
0.9422165350821713
 20
1.747178644275279
 40
2.0
 41
0.0
 10
0.9414595414428294
 20
1.7320446210241784
 40
2.0
 41
0.0
 10
0.9406025014557711
 20
1.716915933652319
 40
2.0
 41
0.0
 10
0.9396454525875004
 20
1.70179324352792
 40
2.0
 41
0.0
 10
0.9385884366765248
 20
1.6866772117570221
 40
2.0
 41
0.0
 10
0.9374314999315276
 20
1.6715684991545883
 40
2.0
 41
0.0
 10
0.9361746929293489
 20
1.6564677662156164
 40
2.0
 41
0.0
 10
0.9348180706127727
 20
1.6413756730862648
 40
2.0
 41
0.0
 10
0.9333616922881265
 20
1.6262928795349905
 40
2.0
 41
0.0
 10
0.9318056216226874
 20
1.6112200449237097
 40
2.0
 41
0.0
 10
0.9301499266419
 20
1.5961578281789721
 40
2.0
 41
0.0
 10
0.9283946797264028
 20
1.581106887763154
 40
2.0
 41
0.0
 10
0.9265399576088609
 20
1.5660678816456757
 40
2.0
 41
0.0
 10
0.9245858413706161
 20
1.5510414672742328
 40
2.0
 41
0.0
 10
0.9225324164381401
 20
1.5360283015460614
 40
2.0
 41
0.0
 10
0.920379772579299
 20
1.521029040779215
 40
2.0
 41
0.0
 10
0.91812800389943
 20
1.5060443406838764
 40
2.0
 41
0.0
 10
0.9157772088372285
 20
1.4910748563336935
 40
2.0
 41
0.0
 10
0.9133274901604426
 20
1.4761212421371364
 40
2.0
 41
0.0
 10
0.9107789549613826
 20
1.4611841518088957
 40
2.0
 41
0.0
 10
0.9081317146522381
 20
1.4462642383413016
 40
2.0
 41
0.0
 10
0.9053858849602066
 20
1.4313621539757764
 40
2.0
 41
0.0
 10
0.9025415859224373
 20
1.4164785501743242
 40
2.0
 41
0.0
 10
0.8995989418807804
 20
1.4016140775910482
 40
2.0
 41
0.0
 10
0.8965580814763537
 20
1.3867693860437091
 40
2.0
 41
0.0
 10
0.8934191376439167
 20
1.3719451244853151
 40
2.0
 41
0.0
 10
0.8901822476060616
 20
1.3571419409757555
 40
2.0
 41
0.0
 10
0.8868475528672123
 20
1.3423604826534672
 40
2.0
 41
0.0
 10
0.8834151992074393
 20
1.3276013957071444
 40
2.0
 41
0.0
 10
0.8798853366760881
 20
1.3128653253474925
 40
2.0
 41
0.0
 10
0.8762581195852162
 20
1.2981529157790173
 40
2.0
 41
0.0
 10
0.8725337065028513
 20
1.2834648101718682
 40
2.0
 41
0.0
 10
0.8687122602460553
 20
1.2688016506337167
 40
2.0
 41
0.0
 10
0.8647939478738098
 20
1.2541640781816885
 40
2.0
 41
0.0
 10
0.860778940679712
 20
1.23955273271434
 40
2.0
 41
0.0
 10
0.8566674141844852
 20
1.2249682529836843
 40
2.0
 41
0.0
 10
0.8524595481283059
 20
1.2104112765672672
 40
2.0
 41
0.0
 10
0.8481555264629489
 20
1.1958824398402956
 40
2.0
 41
0.0
 10
0.8437555373437415
 20
1.1813823779478168
 40
2.0
 41
0.0
 10
0.8392597731213418
 20
1.166911724776952
 40
2.0
 41
0.0
 10
0.8346684303333276
 20
1.1524711129291871
 40
2.0
 41
0.0
 10
0.8325252661407297
 20
1.1458816726411214
 40
2.0
 41
0.0
 10
0.8444697627674262
 20
1.1545045276118464
 40
2.0
 41
0.0
 10
0.8570877431885682
 20
1.1634844989537099
 40
2.0
 41
0.0
 10
0.8697661188272088
 20
1.1723789976115613
 40
2.0
 41
0.0
 10
0.8825043107115629
 20
1.1811876174084635
 40
2.0
 41
0.0
 10
0.8953017371382678
 20
1.1899099560892312
 40
2.0
 41
0.0
 10
0.908157813698957
 20
1.1985456153388023
 40
2.0
 41
0.0
 10
0.9210719533069371
 20
1.2070942008004208
 40
2.0
 41
0.0
 10
0.9340435662240045
 20
1.215555322093653
 40
2.0
 41
0.0
 10
0.9470720600873734
 20
1.2239285928322088
 40
2.0
 41
0.0
 10
0.9601568399367291
 20
1.2322136306415914
 40
2.0
 41
0.0
 10
0.9732973082413958
 20
1.2404100571765548
 40
2.0
 41
0.0
 10
0.9864928649276217
 20
1.2485174981383838
 40
2.0
 41
0.0
 10
0.99974290740599
 20
1.2565355832919871
 40
2.0
 41
0.0
 10
1.0130468305989246
 20
1.2644639464828005
 40
2.0
 41
0.0
 10
1.0264040269683339
 20
1.272302225653514
 40
2.0
 41
0.0
 10
1.0398138865433446
 20
1.2800500628606
 40
2.0
 41
0.0
 10
1.0532757969481614
 20
1.2877071042906616
 40
2.0
 41
0.0
 10
1.0667891434300334
 20
1.29527300027659
 40
2.0
 41
0.0
 10
1.0803533088873234
 20
1.3027474053135317
 40
2.0
 41
0.0
 10
1.0939676738976916
 20
1.3101299780746671
 40
2.0
 41
0.0
 10
1.1076316167463813
 20
1.317420381426797
 40
2.0
 41
0.0
 10
1.1213445134546092
 20
1.3246182824457389
 40
2.0
 41
0.0
 10
1.1351057378080611
 20
1.3317233524315282
 40
2.0
 41
0.0
 10
1.148914661385489
 20
1.3387352669234311
 40
2.0
 41
0.0
 10
1.1627706535874052
 20
1.3456537057147604
 40
2.0
 41
0.0
 10
1.1766730816648887
 20
1.3524783528675002
 40
2.0
 41
0.0
 10
1.1906213107484682
 20
1.359208896726729
 40
2.0
 41
0.0
 10
1.2046147038771204
 20
1.3658450299348546
 40
2.0
 41
0.0
 10
1.2186526220273581
 20
1.3723864494456508
 40
2.0
 41
0.0
 10
1.2327344241424107
 20
1.3788328565380947
 40
2.0
 41
0.0
 10
1.2468594671614976
 20
1.3851839568300086
 40
2.0
 41
0.0
 10
1.2610271060491947
 20
1.3914394602915021
 40
2.0
 41
0.0
 10
1.2752366938248962
 20
1.3975990812582209
 40
2.0
 41
0.0
 10
1.289487581592349
 20
1.403662538444386
 40
2.0
 41
0.0
 10
1.3037791185692942
 20
1.4096295549556435
 40
2.0
 41
0.0
 10
1.3181106521171808
 20
1.4154998583017062
 40
2.0
 41
0.0
 10
1.3324815277709727
 20
1.4212731804088001
 40
2.0
 41
0.0
 10
1.3468910892690327
 20
1.4269492576319038
 40
2.0
 41
0.0
 10
1.3613386785830925
 20
1.432527830766789
 40
2.0
 41
0.0
 10
1.3758236359483034
 20
1.4380086450618577
 40
2.0
 41
0.0
 10
1.3903452998933625
 20
1.4433914502297758
 40
2.0
 41
0.0
 10
1.4049030072707205
 20
1.4486760004589017
 40
2.0
 41
0.0
 10
1.4194960932868714
 20
1.453862054424513
 40
2.0
 41
0.0
 10
1.434123891532698
 20
1.4589493752998262
 40
2.0
 41
0.0
 10
1.4487857340139128
 20
1.4639377307668096
 40
2.0
 41
0.0
 10
1.4634809511815672
 20
1.468826893026797
 40
2.0
 41
0.0
 10
1.478208871962614
 20
1.473616638810886
 40
2.0
 41
0.0
 10
1.4929688237905645
 20
1.4783067493901363
 40
2.0
 41
0.0
 10
1.507760132636195
 20
1.4828970105855563
 40
2.0
 41
0.0
 10
1.5225821230383307
 20
1.487387212777886
 40
2.0
 41
0.0
 10
1.5374341181346898
 20
1.491777150917168
 40
2.0
 41
0.0
 10
1.5523154396927945
 20
1.4960666245321113
 40
2.0
 41
0.0
 10
1.5672254081409405
 20
1.5002554377392474
 40
2.0
 41
0.0
 10
1.582163342599233
 20
1.5043433992518738
 40
2.0
 41
0.0
 10
1.5971285609106816
 20
1.5083303223887903
 40
2.0
 41
0.0
 10
1.6121203796723456
 20
1.5122160250828243
 40
2.0
 41
0.0
 10
1.6271381142665469
 20
1.5160003298891445
 40
2.0
 41
0.0
 10
1.6421810788921327
 20
1.519683063993363
 40
2.0
 41
0.0
 10
1.657248586595794
 20
1.5232640592194295
 40
2.0
 41
0.0
 10
1.6723399493034348
 20
1.52674315203731
 40
2.0
 41
0.0
 10
1.6874544778515954
 20
1.5301201835704539
 40
2.0
 41
0.0
 10
1.7025914820189196
 20
1.53339499960305
 40
2.0
 41
0.0
 10
1.7177502705576844
 20
1.5365674505870708
 40
2.0
 41
0.0
 10
1.7329301512253548
 20
1.5396373916490966
 40
2.0
 41
0.0
 10
1.7481304308161993
 20
1.542604682596937
 40
2.0
 41
0.0
 10
1.7633504151929507
 20
1.5454691879260296
 40
2.0
 41
0.0
 10
1.7785894093185026
 20
1.5482307768256287
 40
2.0
 41
0.0
 10
1.7938467172876444
 20
1.5508893231847805
 40
2.0
 41
0.0
 10
1.8091216423588459
 20
1.553444705598078
 40
2.0
 41
0.0
 10
1.8244134869860715
 20
1.555896807371211
 40
2.0
 41
0.0
 10
1.8397215528506363
 20
1.5582455165262894
 40
2.0
 41
0.0
 10
1.8550451408930952
 20
1.560490725806959
 40
2.0
 41
0.0
 10
1.870383551345166
 20
1.5626323326833023
 40
2.0
 41
0.0
 10
1.885736083761686
 20
1.564670239356516
 40
2.0
 41
0.0
 10
1.9011020370525926
 20
1.566604352763379
 40
2.0
 41
0.0
 10
1.9164807095149539
 20
1.5684345845805037
 40
2.0
 41
0.0
 10
1.9318713988649951
 20
1.5701608512283673
 40
2.0
 41
0.0
 10
1.9472734022701808
 20
1.5717830738751295
 40
2.0
 41
0.0
 10
1.9626860163813042
 20
1.5733011784402315
 40
2.0
 41
0.0
 10
1.9781085373646128
 20
1.5747150955977811
 40
2.0
 41
0.0
 10
1.9935402609339412
 20
1.5760247607797164
 40
2.0
 41
0.0
 10
2.0089804823828854
 20
1.5772301141787544
 40
2.0
 41
0.0
 10
2.024428496616969
 20
1.578331100751125
 40
2.0
 41
0.0
 10
2.039883598185854
 20
1.5793276702190795
 40
2.0
 41
0.0
 10
2.055345081315549
 20
1.5802197770731932
 40
2.0
 41
0.0
 10
2.0708122399406435
 20
1.5810073805744365
 40
2.0
 41
0.0
 10
2.086284367736549
 20
1.581690444756042
 40
2.0
 41
0.0
 10
2.1017607581517526
 20
1.5822689384251412
 40
2.0
 41
0.0
 10
2.117240704440087
 20
1.5827428351641935
 40
2.0
 41
0.0
 10
2.1327234996930007
 20
1.5831121133321893
 40
2.0
 41
0.0
 10
2.148208436871839
 20
1.5833767560656407
 40
2.0
 41
0.0
 10
2.16369480884014
 20
1.583536751279349
 40
2.0
 41
0.0
 10
2.179181908395916
 20
1.583592091666961
 40
2.0
 41
0.0
 10
2.1946690283039523
 20
1.5835427747012956
 40
2.0
 41
0.0
 10
2.2101554613281054
 20
1.5833888026344676
 40
2.0
 41
0.0
 10
2.2256405002636037
 20
1.5831301824977766
 40
2.0
 41
0.0
 10
2.2411234379693328
 20
1.5827669261013932
 40
2.0
 41
0.0
 10
2.2566035674001355
 20
1.5822990500338152
 40
2.0
 41
0.0
 10
2.2720801816390956
 20
1.5817265756611103
 40
2.0
 41
0.0
 10
2.2875525739298253
 20
1.581049529125943
 40
2.0
 41
0.0
 10
2.3030200377087335
 20
1.5802679413463774
 40
2.0
 41
0.0
 10
2.318481866637297
 20
1.5793818480144683
 40
2.0
 41
0.0
 10
2.333937354634312
 20
1.5783912895946297
 40
2.0
 41
0.0
 10
2.3493857959081432
 20
1.5772963113217875
 40
2.0
 41
0.0
 10
2.364826484988947
 20
1.5760969631993123
 40
2.0
 41
0.0
 10
2.3802587167609
 20
1.5747932999967384
 40
2.0
 41
0.0
 10
2.395681786494382
 20
1.5733853812472616
 40
2.0
 41
0.0
 10
2.411094989878174
 20
1.5718732712450194
 40
2.0
 41
0.0
 10
2.42649762305161
 20
1.5702570390421564
 40
2.0
 41
0.0
 10
2.4418889826367263
 20
1.5685367584456706
 40
2.0
 41
0.0
 10
2.4572683657703775
 20
1.5667125080140443
 40
2.0
 41
0.0
 10
2.4726350701363433
 20
1.5647843710536518
 40
2.0
 41
0.0
 10
2.4879883939973837
 20
1.5627524356149614
 40
2.0
 41
0.0
 10
2.503327636227299
 20
1.5606167944885103
 40
2.0
 41
0.0
 10
2.51865209634294
 20
1.5583775452006694
 40
2.0
 41
0.0
 10
2.533961074536203
 20
1.5560347900091882
 40
2.0
 41
0.0
 10
2.5492538717059783
 20
1.553588635898525
 40
2.0
 41
0.0
 10
2.5645297894900825
 20
1.5510391945749626
 40
2.0
 41
0.0
 10
2.579788130297148
 20
1.5483865824615073
 40
2.0
 41
0.0
 10
2.5950281973384777
 20
1.5456309206925707
 40
2.0
 41
0.0
 10
2.6102492946598654
 20
1.5427723351084384
 40
2.0
 41
0.0
 10
2.625450727173382
 20
1.5398109562495248
 40
2.0
 41
0.0
 10
2.640631800689107
 20
1.536746919350409
 40
2.0
 41
0.0
 10
2.65579182194684
 20
1.533580364333664
 40
2.0
 41
0.0
 10
2.670930098647752
 20
1.5303114358034604
 40
2.0
 41
0.0
 10
2.6860459394860077
 20
1.5269402830389691
 40
2.0
 41
0.0
 10
2.7011386541803235
 20
1.523467059987539
 40
2.0
 41
0.0
 10
2.7162075535055
 20
1.5198919252576735
 40
2.0
 41
0.0
 10
2.7312519493238914
 20
1.5162150421117788
 40
2.0
 41
0.0
 10
2.7462711546168324
 20
1.5124365784587164
 40
2.0
 41
0.0
 10
2.761264483516007
 20
1.508556706846131
 40
2.0
 41
0.0
 10
2.776231251334777
 20
1.5045756044525704
 40
2.0
 41
0.0
 10
2.791170774599444
 20
1.5004934530793972
 40
2.0
 41
0.0
 10
2.8060823710804583
 20
1.4963104391424857
 40
2.0
 41
0.0
 10
2.82096535982358
 20
1.4920267536637086
 40
2.0
 41
0.0
 10
2.8358190611809726
 20
1.4876425922622125
 40
2.0
 41
0.0
 10
2.8506427968422403
 20
1.4831581551454869
 40
2.0
 41
0.0
 10
2.8654358898654015
 20
1.4785736471002213
 40
2.0
 41
0.0
 10
2.8801976647078043
 20
1.473889277482952
 40
2.0
 41
0.0
 10
2.894927447256977
 20
1.4691052602105024
 40
2.0
 41
0.0
 10
2.9096245648614083
 20
1.4642218137502154
 40
2.0
 41
0.0
 10
2.92428834636127
 20
1.459239161109974
 40
2.0
 41
0.0
 10
2.9389181221190617
 20
1.4541575298280196
 40
2.0
 41
0.0
 10
2.9535132240501922
 20
1.4489771519625616
 40
2.0
 41
0.0
 10
2.9680729856534867
 20
1.4436982640811795
 40
2.0
 41
0.0
 10
2.982596742041628
 20
1.438321107250017
 40
2.0
 41
0.0
 10
2.9970838299715146
 20
1.4328459270227782
 40
2.0
 41
0.0
 10
3.0115335878745486
 20
1.427272973429513
 40
2.0
 41
0.0
 10
3.0259453558868517
 20
1.4216025009651965
 40
2.0
 41
0.0
 10
3.0403184758793906
 20
1.4158347685781085
 40
2.0
 41
0.0
 10
3.054652291488039
 20
1.4099700396580106
 40
2.0
 41
0.0
 10
3.068946148143549
 20
1.4040085820241144
 40
2.0
 41
0.0
 10
3.083199393101438
 20
1.3979506679128544
 40
2.0
 41
0.0
 10
3.0974113754718036
 20
1.3917965739654545
 40
2.0
 41
0.0
 10
3.1115814462490423
 20
1.385546581215296
 40
2.0
 41
0.0
 10
3.12570895834149
 20
1.379200975075082
 40
2.0
 41
0.0
 10
3.139793266600973
 20
1.3727600453238047
 40
2.0
 41
0.0
 10
3.1538337278522626
 20
1.366224086093514
 40
2.0
 41
0.0
 10
3.1678297009224563
 20
1.3595933958558826
 40
2.0
 41
0.0
 10
3.1817805466702502
 20
1.3528682774085783
 40
2.0
 41
0.0
 10
3.195685628015127
 20
1.3460490378614358
 40
2.0
 41
0.0
 10
3.209544309966456
 20
1.3391359886224312
 40
2.0
 41
0.0
 10
3.22335595965248
 20
1.3321294453834618
 40
2.0
 41
0.0
 10
3.2371199463492233
 20
1.325029728105931
 40
2.0
 41
0.0
 10
3.2508356415092914
 20
1.3178371610061355
 40
2.0
 41
0.0
 10
3.2645024187905776
 20
1.3105520725404591
 40
2.0
 41
0.0
 10
3.27811965408486
 20
1.3031747953903756
 40
2.0
 41
0.0
 10
3.291686725546308
 20
1.2957056664472537
 40
2.0
 41
0.0
 10
3.3052030136198747
 20
1.288145026796975
 40
2.0
 41
0.0
 10
3.318667901069592
 20
1.280493221704356
 40
2.0
 41
0.0
 10
3.3320807730067594
 20
1.272750600597384
 40
2.0
 41
0.0
 10
3.3454410169180195
 20
1.264917517051255
 40
2.0
 41
0.0
 10
3.3587480226933306
 20
1.2569943287722327
 40
2.0
 41
0.0
 10
3.37200118265383
 20
1.248981397581312
 40
2.0
 41
0.0
 10
3.385199891579578
 20
1.2408790893976938
 40
2.0
 41
0.0
 10
3.398343546737207
 20
1.2326877742220748
 40
2.0
 41
0.0
 10
3.4114315479074353
 20
1.2244078261197555
 40
2.0
 41
0.0
 10
3.4244632974124825
 20
1.216039623203555
 40
2.0
 41
0.0
 10
3.4374382001433603
 20
1.2075835476165422
 40
2.0
 41
0.0
 10
3.4503556635870494
 20
1.19903998551459
 40
2.0
 41
0.0
 10
3.463215097853562
 20
1.1904093270487341
 40
2.0
 41
0.0
 10
3.4760159157028716
 20
1.1816919663473635
 40
2.0
 41
0.0
 10
3.4887575325717353
 20
1.1728883014982172
 40
2.0
 41
0.0
 10
3.5014393666003873
 20
1.1639987345302072
 40
2.0
 41
0.0
 10
3.514060838659109
 20
1.1550236713950606
 40
2.0
 41
0.0
 10
3.5266213723746795
 20
1.1459635219487756
 40
2.0
 41
0.0
 10
3.5267012062412855
 20
1.1459051120576906
 40
2.0
 41
0.0
 10
3.5238709138372313
 20
1.1372144988806243
 40
2.0
 41
0.0
 10
3.5190834282950805
 20
1.1228377231183557
 40
2.0
 41
0.0
 10
3.5142009912609407
 20
1.108492915425587
 40
2.0
 41
0.0
 10
3.509223816176242
 20
1.0941807029023205
 40
2.0
 41
0.0
 10
3.5041521206240014
 20
1.0799017112236253
 40
2.0
 41
0.0
 10
3.4989861263193056
 20
1.065656564612281
 40
2.0
 41
0.0
 10
3.4937260590996226
 20
1.051445885811489
 40
2.0
 41
0.0
 10
3.4883721489149266
 20
1.0372702960576525
 40
2.0
 41
0.0
 10
3.4829246298176484
 20
1.0231304150532141
 40
2.0
 41
0.0
 10
3.4773837399524403
 20
1.0090268609395703
 40
2.0
 41
0.0
 10
3.471749721545767
 20
0.9949602502700408
 40
2.0
 41
0.0
 10
3.4660228208953163
 20
0.9809311979829218
 40
2.0
 41
0.0
 10
3.46020328835923
 20
0.9669403173746007
 40
2.0
 41
0.0
 10
3.4542913783451628
 20
0.9529882200727449
 40
2.0
 41
0.0
 10
3.4482873492991586
 20
0.939075516009567
 40
2.0
 41
0.0
 10
3.4421914636943507
 20
0.9252028133951524
 40
2.0
 41
0.0
 10
3.43600398801949
 20
0.9113707186908826
 40
2.0
 41
0.0
 10
3.429725192767295
 20
0.8975798365829146
 40
2.0
 41
0.0
 10
3.423355352422625
 20
0.8838307699557484
 40
2.0
 41
0.0
 10
3.41689474545048
 20
0.8701241198658705
 40
2.0
 41
0.0
 10
3.4103436542838335
 20
0.8564604855154816
 40
2.0
 41
0.0
 10
3.4037023653112763
 20
0.8428404642262963
 40
2.0
 41
0.0
 10
3.3969711688645052
 20
0.829264651413435
 40
2.0
 41
0.0
 10
3.390150359205625
 20
0.8157336405593929
 40
2.0
 41
0.0
 10
3.3832402345142882
 20
0.8022480231880964
 40
2.0
 41
0.0
 10
3.376241096874656
 20
0.7888083888390394
 40
2.0
 41
0.0
 10
3.369153252262196
 20
0.7754153250415172
 40
2.0
 41
0.0
 10
3.361977010530304
 20
0.7620694172889391
 40
2.0
 41
0.0
 10
3.3547126853967613
 20
0.7487712490132321
 40
2.0
 41
0.0
 10
3.3473605944300138
 20
0.7355214015593357
 40
2.0
 41
0.0
 10
3.3399210590352952
 20
0.7223204541597892
 40
2.0
 41
0.0
 10
3.332394404440575
 20
0.7091689839094086
 40
2.0
 41
0.0
 10
3.3247809596823403
 20
0.6960675657400595
 40
2.0
 41
0.0
 10
3.317081057591209
 20
0.68301677239552
 40
2.0
 41
0.0
 10
3.309295034777386
 20
0.670017174406448
 40
2.0
 41
0.0
 10
3.30142323161594
 20
0.657069340065435
 40
2.0
 41
0.0
 10
3.293465992231931
 20
0.6441738354021638
 40
2.0
 41
0.0
 10
3.285423664485361
 20
0.6313312241586659
 40
2.0
 41
0.0
 10
3.277296599955971
 20
0.618542067764674
 40
2.0
 41
0.0
 10
3.269085153927867
 20
0.6058069253130798
 40
2.0
 41
0.0
 10
3.260789685373992
 20
0.5931263535354927
 40
2.0
 41
0.0
 10
3.2524105569404322
 20
0.5805009067779023
 40
2.0
 41
0.0
 10
3.243948134930561
 20
0.5679311369764415
 40
2.0
 41
0.0
 10
3.2354027892890302
 20
0.5554175936332622
 40
2.0
 41
0.0
 10
3.2267748935855938
 20
0.542960823792509
 40
2.0
 41
0.0
 10
3.218064824998777
 20
0.5305613720164102
 40
2.0
 41
0.0
 10
3.209272964299391
 20
0.518219780361463
 40
2.0
 41
0.0
 10
3.200399695833881
 20
0.5059365883547471
 40
2.0
 41
0.0
 10
3.1914454075075316
 20
0.49371233297032946
 40
2.0
 41
0.0
 10
3.182410490767502
 20
0.48154754860579563
 40
2.0
 41
0.0
 10
3.173295340585719
 20
0.4694427670588859
 40
2.0
 41
0.0
 10
3.164100355441607
 20
0.4573985175042481
 40
2.0
 41
0.0
 10
3.1548259373046665
 20
0.4454153264703009
 40
2.0
 41
0.0
 10
3.1454724916169083
 20
0.4334937178162219
 40
2.0
 41
0.0
 10
3.1360404272751214
 20
0.42163421270904045
 40
2.0
 41
0.0
 10
3.1265301566130033
 20
0.40983732960085817
 40
2.0
 41
0.0
 10
3.1169420953831297
 20
0.3981035842061831
 40
2.0
 41
0.0
 10
3.1072766627387836
 20
0.3864334894793837
 40
2.0
 41
0.0
 10
3.097534281215629
 20
0.3748275555922662
 40
2.0
 41
0.0
 10
3.0877153767132395
 20
0.36328628991176903
 40
2.0
 41
0.0
 10
3.0778203784764804
 20
0.35181019697778626
 40
2.0
 41
0.0
 10
3.067849719076744
 20
0.34039977848110947
 40
2.0
 41
0.0
 10
3.0578038343930376
 20
0.32905553324149417
 40
2.0
 41
0.0
 10
3.04768316359293
 20
0.31777795718585544
 40
2.0
 41
0.0
 10
3.0374881491133525
 20
0.30656754332658775
 40
2.0
 41
0.0
 10
3.0272192366412556
 20
0.29542478174001086
 40
2.0
 41
0.0
 10
3.01687687509413
 20
0.2843501595449476
 40
2.0
 41
0.0
 10
3.0064615166003748
 20
0.2733441608814262
 40
2.0
 41
0.0
 10
2.995973616479538
 20
0.26240726688951943
 40
2.0
 41
0.0
 10
2.9854136332224086
 20
0.2515399556883062
 40
2.0
 41
0.0
 10
2.9747820284709747
 20
0.2407427023549742
 40
2.0
 41
0.0
 10
2.964079266998241
 20
0.2300159789040499
 40
2.0
 41
0.0
 10
2.9533058166879105
 20
0.21936025426676187
 40
2.0
 41
0.0
 10
2.9424621485139335
 20
0.20877599427054405
 40
2.0
 41
0.0
 10
2.931548736519913
 20
0.19826366161867015
 40
2.0
 41
0.0
 10
2.920566057798388
 20
0.18782371587002689
 40
2.0
 41
0.0
 10
2.90951459246997
 20
0.17745661341902141
 40
2.0
 41
0.0
 10
2.89839482366236
 20
0.16716280747563195
 40
2.0
 41
0.0
 10
2.8872072374892235
 20
0.15694274804559383
 40
2.0
 41
0.0
 10
2.875952323028941
 20
0.14679688191072904
 40
2.0
 41
0.0
 10
2.8646305723032297
 20
0.1367256526094116
 40
2.0
 41
0.0
 10
2.8532424802556307
 20
0.12672950041717956
 40
2.0
 41
0.0
 10
2.841788544729872
 20
0.11680886232748833
 40
2.0
 41
0.0
 10
2.8302692664481093
 20
0.10696417203260511
 40
2.0
 41
0.0
 10
2.8186851489890303
 20
0.0971958599046514
 40
2.0
 41
0.0
 10
2.807036698765845
 20
0.0875043529767876
 40
2.0
 41
0.0
 10
2.7953244250041434
 20
0.07789007492454614
 40
2.0
 41
0.0
 10
2.783548839719637
 20
0.06835344604730742
 40
2.0
 41
0.0
 10
2.7717104576957743
 20
0.058894883249928975
 40
2.0
 41
0.0
 10
2.7598097964612367
 20
0.049514800024518246
 40
2.0
 41
0.0
 10
2.7478473762673135
 20
0.040213606432356386
 40
2.0
 41
0.0
 10
2.735823720065158
 20
0.030991709085971486
 40
2.0
 41
0.0
 10
2.723739353482931
 20
0.02184951113136635
 40
2.0
 41
0.0
 10
2.711594804802813
 20
0.012787412230387929
 40
2.0
 41
0.0
 10
2.6993906049379186
 20
0.0038058085432635114
 40
2.0
 41
0.0
 10
2.687127287409082
 20
-0.005094907288725192
 40
2.0
 41
0.0
 10
2.6748053883215372
 20
-0.013914346160400104
 40
2.0
 41
0.0
 10
2.6624254463414765
 20
-0.022652122519703388
 40
2.0
 41
0.0
 10
2.6499880026725062
 20
-0.03130785438454664
 40
2.0
 41
0.0
 10
2.6374936010319874
 20
-0.039881163359514415
 40
2.0
 41
0.0
 10
2.624942787627263
 20
-0.048371674652401664
 40
2.0
 41
0.0
 10
2.6123361111317833
 20
-0.05677901709060351
 40
2.0
 41
0.0
 10
2.5996741226611193
 20
-0.06510282313733562
 40
2.0
 41
0.0
 10
2.586957375748868
 20
-0.0733427289077071
 40
2.0
 41
0.0
 10
2.5741864263224556
 20
-0.0814983741846238
 40
2.0
 41
0.0
 10
2.5613618326788368
 20
-0.08956940243453815
 40
2.0
 41
0.0
 10
2.5484841554600832
 20
-0.09755546082303379
 40
2.0
 41
0.0
 10
2.5355539576288786
 20
-0.10545620023025215
 40
2.0
 41
0.0
 10
2.522571804443905
 20
-0.113271275266152
 40
2.0
 41
0.0
 10
2.509538263435135
 20
-0.1210003442856118
 40
2.0
 41
0.0
 10
2.4964539043790186
 20
-0.12864306940336223
 40
2.0
 41
0.0
 10
2.483319299273577
 20
-0.13619911650875793
 40
2.0
 41
0.0
 10
2.4701350223133947
 20
-0.14366815528038512
 40
2.0
 41
0.0
 10
2.4569016498645206
 20
-0.1510498592005005
 40
2.0
 41
0.0
 10
2.4436197604392706
 20
-0.158343905569305
 40
2.0
 41
0.0
 10
2.4302899346709332
 20
-0.1655499755190526
 40
2.0
 41
0.0
 10
2.416912755288396
 20
-0.17266775402798862
 40
2.0
 41
0.0
 10
2.4034888070906595
 20
-0.17969692993412156
 40
2.0
 41
0.0
 10
2.3900186769212812
 20
-0.18663719594882644
 40
2.0
 41
0.0
 10
2.376502953642716
 20
-0.19348824867027803
 40
2.0
 41
0.0
 10
2.362942228110574
 20
-0.20024978859671294
 40
2.0
 41
0.0
 10
2.3493370931477924
 20
-0.20692152013952647
 40
2.0
 41
0.0
 10
2.335688143518719
 20
-0.21350315163618983
 40
2.0
 41
0.0
 10
2.3219959759031092
 20
-0.21999439536300391
 40
2.0
 41
0.0
 10
2.3082611888700444
 20
-0.2263949675476773
 40
2.0
 41
0.0
 10
2.2944843828517625
 20
-0.2327045883817287
 40
2.0
 41
0.0
 10
2.2806661601174114
 20
-0.23892298203272277
 40
2.0
 41
0.0
 10
2.2668071247467183
 20
-0.24504987665632727
 40
2.0
 41
0.0
 10
2.2529078826035835
 20
-0.2510850044081947
 40
2.0
 41
0.0
 10
2.2389690413095913
 20
-0.25702810145567534
 40
2.0
 41
0.0
 10
2.2249912102174516
 20
-0.2628789079893483
 40
2.0
 41
0.0
 10
2.210975000384357
 20
-0.26863716823438033
 40
2.0
 41
0.0
 10
2.1969210245452713
 20
-0.2743026304617071
 40
2.0
 41
0.0
 10
2.1828298970861457
 20
-0.2798750469990372
 40
2.0
 41
0.0
 10
2.1687022340170534
 20
-0.28535417424168175
 40
2.0
 41
0.0
 10
2.15453865294527
 20
-0.29073977266320095
 40
2.0
 41
0.0
 10
2.140339773048263
 20
-0.2960316068258768
 40
2.0
 41
0.0
 10
2.126106215046635
 20
-0.30122944539100516
 40
2.0
 41
0.0
 10
2.1118386011769767
 20
-0.30633306112900904
 40
2.0
 41
0.0
 10
2.0975375551646747
 20
-0.3113422309293732
 40
2.0
 41
0.0
 10
2.0832037021966383
 20
-0.31625673581039504
 40
2.0
 41
0.0
 10
2.0688376688939734
 20
-0.3210763609287607
 40
2.0
 41
0.0
 10
2.054440083284585
 20
-0.3258008955889361
 40
2.0
 41
0.0
 10
2.0400115747757255
 20
-0.3304301332523756
 40
2.0
 41
0.0
 10
2.025552774126475
 20
-0.3349638715465547
 40
2.0
 41
0.0
 10
2.0110643134201736
 20
-0.3394019122738152
 40
2.0
 41
0.0
 10
1.9965468260367834
 20
-0.3437440614200282
 40
2.0
 41
0.0
 10
1.982000946625201
 20
-0.34799012916307925
 40
2.0
 41
0.0
 10
1.9674273110755158
 20
-0.3521399298811625
 40
2.0
 41
0.0
 10
1.9528265564912062
 20
-0.3561932821608981
 40
2.0
 41
0.0
 10
1.938199321161294
 20
-0.3601500088052635
 40
2.0
 41
0.0
 10
1.9235462445324352
 20
-0.36400993684133653
 40
2.0
 41
0.0
 10
1.90886796718097
 20
-0.36777289752786035
 40
2.0
 41
0.0
 10
1.8941651307849168
 20
-0.37143872636261843
 40
2.0
 41
0.0
 10
1.8794383780959207
 20
-0.3750072630896263
 40
2.0
 41
0.0
 10
1.864688352911156
 20
-0.37847835170613875
 40
2.0
 41
0.0
 10
1.8499157000451825
 20
-0.38185184046946663
 40
2.0
 41
0.0
 10
1.835121065301753
 20
-0.3851275819036134
 40
2.0
 41
0.0
 10
1.8203050954455866
 20
-0.3883054328057205
 40
2.0
 41
0.0
 10
1.8054684381740893
 20
-0.3913852542523283
 40
2.0
 41
0.0
 10
1.7906117420890426
 20
-0.3943669116054501
 40
2.0
 41
0.0
 10
1.7757356566682487
 20
-0.39725027451845485
 40
2.0
 41
0.0
 10
1.760840832237135
 20
-0.4000352169417697
 40
2.0
 41
0.0
 10
1.7459279199403301
 20
-0.40272161712838805
 40
2.0
 41
0.0
 10
1.730997571713192
 20
-0.4053093576391913
 40
2.0
 41
0.0
 10
1.7160504402533108
 20
-0.4077983253480839
 40
2.0
 41
0.0
 10
1.701087178991978
 20
-0.4101884114469394
 40
2.0
 41
0.0
 10
1.6861084420656143
 20
-0.41247951145035466
 40
2.0
 41
0.0
 10
1.6711148842871792
 20
-0.41467152520022144
 40
2.0
 41
0.0
 10
1.6561071611175442
 20
-0.41676435687010027
 40
2.0
 41
0.0
 10
1.641085928636834
 20
-0.4187579149694135
 40
2.0
 41
0.0
 10
1.6260518435157527
 20
-0.42065211234744315
 40
2.0
 41
0.0
 10
1.6110055629868691
 20
-0.4224468661971411
 40
2.0
 41
0.0
 10
1.595947744815891
 20
-0.42414209805874914
 40
2.0
 41
0.0
 10
1.5808790472729053
 20
-0.42573773382322844
 40
2.0
 41
0.0
 10
1.5658001291036054
 20
-0.4272337037355003
 40
2.0
 41
0.0
 10
1.550711649500491
 20
-0.42862994239749486
 40
2.0
 41
0.0
 10
1.5356142680740488
 20
-0.4299263887710093
 40
2.0
 41
0.0
 10
1.5205086448239231
 20
-0.43112298618037903
 40
2.0
 41
0.0
 10
1.5053954401100547
 20
-0.43221968231495156
 40
2.0
 41
0.0
 10
1.4902753146238212
 20
-0.4332164292313765
 40
2.0
 41
0.0
 10
1.4751489293591464
 20
-0.4341131833556987
 40
2.0
 41
0.0
 10
1.4600169455836092
 20
-0.4349099054852661
 40
2.0
 41
0.0
 10
1.4448800248095335
 20
-0.4356065607904417
 40
2.0
 41
0.0
 10
1.429738828765071
 20
-0.4362031188161254
 40
2.0
 41
0.0
 10
1.41459401936527
 20
-0.4366995534830873
 40
2.0
 41
0.0
 10
1.3994462586831418
 20
-0.4370958430891072
 40
2.0
 41
0.0
 10
1.384296208920717
 20
-0.4373919703099215
 40
2.0
 41
0.0
 10
1.3691445323800944
 20
-0.43758792219998477
 40
2.0
 41
0.0
 10
1.3539918914344913
 20
-0.43768369019303055
 40
2.0
 41
0.0
 10
1.34706268715254
 20
-0.4376816689546012
 40
2.0
 41
0.0
 10
1.3589545620084196
 20
-0.44637695157930196
 40
2.0
 41
0.0
 10
1.3713941926540656
 20
-0.4556024003276776
 40
2.0
 41
0.0
 10
1.3837711970952031
 20
-0.46491170085312344
 40
2.0
 41
0.0
 10
1.396085010122488
 20
-0.47430442803632605
 40
2.0
 41
0.0
 10
1.4083350694122803
 20
-0.48378015294820037
 40
2.0
 41
0.0
 10
1.4205208155523277
 20
-0.49333844286948453
 40
2.0
 41
0.0
 10
1.4326416920673024
 20
-0.5029788613104929
 40
2.0
 41
0.0
 10
1.4446971454442217
 20
-0.5127009680310515
 40
2.0
 41
0.0
 10
1.4566866251577195
 20
-0.5225043190606038
 40
2.0
 41
0.0
 10
1.4686095836951905
 20
-0.5323884667184828
 40
2.0
 41
0.0
 10
1.4804654765817895
 20
-0.5423529596343564
 40
2.0
 41
0.0
 10
1.4922537624052967
 20
-0.5523973427688369
 40
2.0
 41
0.0
 10
1.5039739028408463
 20
-0.562521157434268
 40
2.0
 41
0.0
 10
1.5156253626754996
 20
-0.5727239413156604
 40
2.0
 41
0.0
 10
1.5272076098326983
 20
-0.5830052284918155
 40
2.0
 41
0.0
 10
1.5387201153965513
 20
-0.593364549456592
 40
2.0
 41
0.0
 10
1.5501623536359947
 20
-0.6038014311403526
 40
2.0
 41
0.0
 10
1.5615338020287988
 20
-0.614315396931566
 40
2.0
 41
0.0
 10
1.5728339412854278
 20
-0.6249059666985708
 40
2.0
 41
0.0
 10
1.5840622553727561
 20
-0.6355726568115017
 40
2.0
 41
0.0
 10
1.5952182315376324
 20
-0.6463149801643764
 40
2.0
 41
0.0
 10
1.6063013603302951
 20
-0.6571324461973371
 40
2.0
 41
0.0
 10
1.6173111356276362
 20
-0.6680245609190547
 40
2.0
 41
0.0
 10
1.6282470546563153
 20
-0.6789908269292875
 40
2.0
 41
0.0
 10
1.639108618015717
 20
-0.6900307434415911
 40
2.0
 41
0.0
 10
1.6498953297007632
 20
-0.7011438063061974
 40
2.0
 41
0.0
 10
1.660606697124554
 20
-0.7123295080330254
 40
2.0
 41
0.0
 10
1.6712422311408677
 20
-0.7235873378148632
 40
2.0
 41
0.0
 10
1.6818014460664987
 20
-0.734916781550693
 40
2.0
 41
0.0
 10
1.692283859703435
 20
-0.7463173218691681
 40
2.0
 41
0.0
 10
1.7026889933608786
 20
-0.7577884381522393
 40
2.0
 41
0.0
 10
1.7130163718771048
 20
-0.7693296065589271
 40
2.0
 41
0.0
 10
1.7232655236411651
 20
-0.7809403000492517
 40
2.0
 41
0.0
 10
1.7334359806144173
 20
-0.792619988408289
 40
2.0
 41
0.0
 10
1.7435272783519036
 20
-0.8043681382703909
 40
2.0
 41
0.0
 10
1.7535389560235572
 20
-0.8161842131435417
 40
2.0
 41
0.0
 10
1.7634705564352506
 20
-0.8280676734338553
 40
2.0
 41
0.0
 10
1.7733216260496694
 20
-0.8400179764702174
 40
2.0
 41
0.0
 10
1.7830917150070256
 20
-0.8520345765290673
 40
2.0
 41
0.0
 10
1.792780377145601
 20
-0.864116924859319
 40
2.0
 41
0.0
 10
1.8023871700221221
 20
-0.87626446970742
 40
2.0
 41
0.0
 10
1.8119116549319623
 20
-0.8884766563425464
 40
2.0
 41
0.0
 10
1.8213533969291815
 20
-0.9007529270819428
 40
2.0
 41
0.0
 10
1.8307119648463805
 20
-0.9130927213163769
 40
2.0
 41
0.0
 10
1.8399869313143957
 20
-0.9254954755357482
 40
2.0
 41
0.0
 10
1.8491778727818167
 20
-0.9379606233548257
 40
2.0
 41
0.0
 10
1.8582843695343234
 20
-0.9504875955391001
 40
2.0
 41
0.0
 10
1.8673060057138564
 20
-0.9630758200307884
 40
2.0
 41
0.0
 10
1.8762423693376058
 20
-0.9757247219749547
 40
2.0
 41
0.0
 10
1.885093052316826
 20
-0.9884337237457609
 40
2.0
 41
0.0
 10
1.893857650475471
 20
-1.001202244972844
 40
2.0
 41
0.0
 10
1.9025357635686515
 20
-1.0140297025678227
 40
2.0
 41
0.0
 10
1.911126995300913
 20
-1.0269155107509198
 40
2.0
 41
0.0
 10
1.9196309533443316
 20
-1.0398590810777164
 40
2.0
 41
0.0
 10
1.9280472493564327
 20
-1.0528598224660253
 40
2.0
 41
0.0
 10
1.9363754989979227
 20
-1.0659171412228767
 40
2.0
 41
0.0
 10
1.9446153219502411
 20
-1.0790304410716354
 40
2.0
 41
0.0
 10
1.952766341932928
 20
-1.0921991231792283
 40
2.0
 41
0.0
 10
1.9608281867208073
 20
-1.1054225861834928
 40
2.0
 41
0.0
 10
1.9688004881609855
 20
-1.1187002262206354
 40
2.0
 41
0.0
 10
1.976682882189663
 20
-1.132031436952811
 40
2.0
 41
0.0
 10
1.9844750088487588
 20
-1.145415609595808
 40
2.0
 41
0.0
 10
1.9921765123023534
 20
-1.1588521329468566
 40
2.0
 41
0.0
 10
1.9997870408529288
 20
-1.1723403934125318
 40
2.0
 41
0.0
 10
2.007306246957438
 20
-1.1858797750367753
 40
2.0
 41
0.0
 10
2.0147337872431708
 20
-1.1994696595290277
 40
2.0
 41
0.0
 10
2.0220693225234387
 20
-1.213109426292464
 40
2.0
 41
0.0
 10
2.0293125178130595
 20
-1.2267984524523268
 40
2.0
 41
0.0
 10
2.0364630423436574
 20
-1.2405361128843775
 40
2.0
 41
0.0
 10
2.0435205695787686
 20
-1.2543217802434385
 40
2.0
 41
0.0
 10
2.0504847772287493
 20
-1.268154824992045
 40
2.0
 41
0.0
 10
2.057355347265497
 20
-1.2820346154291928
 40
2.0
 41
0.0
 10
2.064131965936974
 20
-1.295960517719184
 40
2.0
 41
0.0
 10
2.070814323781532
 20
-1.3099318959205748
 40
2.0
 41
0.0
 10
2.077402115642045
 20
-1.3239481120152092
 40
2.0
 41
0.0
 10
2.0838950406798475
 20
-1.3380085259373695
 40
2.0
 41
0.0
 10
2.09029280238847
 20
-1.3521124956029882
 40
2.0
 41
0.0
 10
2.0965951086071777
 20
-1.3662593769389808
 40
2.0
 41
0.0
 10
2.102801671534316
 20
-1.3804485239126527
 40
2.0
 41
0.0
 10
2.1089122077404516
 20
-1.394679288561206
 40
2.0
 41
0.0
 10
2.1149264381813144
 20
-1.4089510210213223
 40
2.0
 41
0.0
 10
2.1208440882105446
 20
-1.4232630695588502
 40
2.0
 41
0.0
 10
2.1266648875922294
 20
-1.4376147805985549
 40
2.0
 41
0.0
 10
2.1323885705132444
 20
-1.4520054987539728
 40
2.0
 41
0.0
 10
2.138014875595398
 20
-1.4664345668573373
 40
2.0
 41
0.0
 10
2.1435435459073595
 20
-1.480901325989591
 40
2.0
 41
0.0
 10
2.1489743289763994
 20
-1.495405115510473
 40
2.0
 41
0.0
 10
2.154306976799911
 20
-1.5099452730886906
 40
2.0
 41
0.0
 10
2.1595412458567447
 20
-1.524521134732164
 40
2.0
 41
0.0
 10
2.16467689711832
 20
-1.5391320348183486
 40
2.0
 41
0.0
 10
2.169713696059549
 20
-1.5537773061246298
 40
2.0
 41
0.0
 10
2.1746514126695393
 20
-1.5684562798587989
 40
2.0
 41
0.0
 10
2.179489821462103
 20
-1.5831682856895837
 40
2.0
 41
0.0
 10
2.1842287014860493
 20
-1.5979126517772677
 40
2.0
 41
0.0
 10
2.1888678363352776
 20
-1.612688704804366
 40
2.0
 41
0.0
 10
2.1934070141586592
 20
-1.6274957700063806
 40
2.0
 41
0.0
 10
2.1978460276697116
 20
-1.6423331712026041
 40
2.0
 41
0.0
 10
2.202184674156065
 20
-1.6572002308270044
 40
2.0
 41
0.0
 10
2.2064227554887164
 20
-1.6720962699591642
 40
2.0
 41
0.0
 10
2.2105600781310817
 20
-1.6870206083552866
 40
2.0
 41
0.0
 10
2.2145964531478306
 20
-1.7019725644792578
 40
2.0
 41
0.0
 10
2.218531696213517
 20
-1.716951455533771
 40
2.0
 41
0.0
 10
2.222365627620994
 20
-1.7319565974915054
 40
2.0
 41
0.0
 10
2.226098072289623
 20
-1.7469873051263651
 40
2.0
 41
0.0
 10
2.2297288597732647
 20
-1.7620428920447675
 40
2.0
 41
0.0
 10
2.233257824268069
 20
-1.777122670716997
 40
2.0
 41
0.0
 10
2.236684804620041
 20
-1.7922259525085873
 40
2.0
 41
0.0
 10
2.2400096443324027
 20
-1.8073520477117822
 40
2.0
 41
0.0
 10
2.243232191572739
 20
-1.822500265577023
 40
2.0
 41
0.0
 10
2.246352299179932
 20
-1.8376699143444974
 40
2.0
 41
0.0
 10
2.2493698246708806
 20
-1.852860301275725
 40
2.0
 41
0.0
 10
2.252284630247009
 20
-1.8680707326852015
 40
2.0
 41
0.0
 10
2.2550965828005554
 20
-1.883300513972062
 40
2.0
 41
0.0
 10
2.257805553920654
 20
-1.8985489496518118
 40
2.0
 41
0.0
 10
2.2604114198991976
 20
-1.9138153433880825
 40
2.0
 41
0.0
 10
2.2629140617364887
 20
-1.929098998024433
 40
2.0
 41
0.0
 10
2.26531336514667
 20
-1.9443992156161833
 40
2.0
 41
0.0
 10
2.267609220562947
 20
-1.9597152974622871
 40
2.0
 41
0.0
 10
2.2698015231425894
 20
-1.9750465441372416
 40
2.0
 41
0.0
 10
2.2718901727717213
 20
-1.9903922555230238
 40
2.0
 41
0.0
 10
2.2738750740698888
 20
-2.0057517308410646
 40
2.0
 41
0.0
 10
2.2757561363944205
 20
-2.021124268684252
 40
2.0
 41
0.0
 10
2.2775332738445626
 20
-2.036509167048957
 40
2.0
 41
0.0
 10
2.2792064052654046
 20
-2.0519057233670943
 40
2.0
 41
0.0
 10
2.2807754542515837
 20
-2.067313234538206
 40
2.0
 41
0.0
 10
2.2822403491507757
 20
-2.0827309969615717
 40
2.0
 41
0.0
 10
2.2836010230669626
 20
-2.0981583065683305
 40
2.0
 41
0.0
 10
2.2848574138634956
 20
-2.113594458853644
 40
2.0
 41
0.0
 10
2.2860094641659234
 20
-2.129038748908861
 40
2.0
 41
0.0
 10
2.2870571213646187
 20
-2.1444904714537114
 40
2.0
 41
0.0
 10
2.2880003376171785
 20
-2.1599489208685094
 40
2.0
 41
0.0
 10
2.2888390698506087
 20
-2.175413391226385
 40
2.0
 41
0.0
 10
2.289573279763291
 20
-2.1908831763255106
 40
2.0
 41
0.0
 10
2.290202933826733
 20
-2.206357569721356
 40
2.0
 41
0.0
 10
2.2907280032870987
 20
-2.221835864758949
 40
2.0
 41
0.0
 10
2.291148464166521
 20
-2.2373173546051444
 40
2.0
 41
0.0
 10
2.2914642972641963
 20
-2.2528013322809035
 40
2.0
 41
0.0
 10
2.2916754881572654
 20
-2.268287090693577
 40
2.0
 41
0.0
 10
2.2917820272014655
 20
-2.283773922669196
 40
2.0
 41
0.0
 10
2.2917839095315755
 20
-2.2992611209847675
 40
2.0
 41
0.0
 10
2.2916811350616375
 20
-2.3147479784005673
 40
2.0
 41
0.0
 10
2.291473708484959
 20
-2.3302337876924413
 40
2.0
 41
0.0
 10
2.2911616392738994
 20
-2.345717841684097
 40
2.0
 41
0.0
 10
2.290744941679438
 20
-2.3611994332794004
 40
2.0
 41
0.0
 10
2.290223634730524
 20
-2.376677855494665
 40
2.0
 41
0.0
 10
2.2895977422332034
 20
-2.3921524014909386
 40
2.0
 41
0.0
 10
2.288867292769537
 20
-2.4076223646062807
 40
2.0
 41
0.0
 10
2.288032319696293
 20
-2.4230870383880307
 40
2.0
 41
0.0
 10
2.287092861143423
 20
-2.4385457166250744
 40
2.0
 41
0.0
 10
2.286048960012321
 20
-2.4539976933800873
 40
2.0
 41
0.0
 10
2.284900663973867
 20
-2.4694422630217785
 40
2.0
 41
0.0
 10
2.2836480254662446
 20
-2.48487872025711
 40
2.0
 41
0.0
 10
2.2822911016925507
 20
-2.500306360163505
 40
2.0
 41
0.0
 10
2.2808299546181843
 20
-2.5157244782210393
 40
2.0
 41
0.0
 10
2.2792646509680106
 20
-2.5311323703446145
 40
2.0
 41
0.0
 10
2.2775952622233215
 20
-2.546529332916112
 40
2.0
 41
0.0
 10
2.2758218646185653
 20
-2.5619146628165224
 40
2.0
 41
0.0
 10
2.273944539137869
 20
-2.577287657458053
 40
2.0
 41
0.0
 10
2.2719633715113394
 20
-2.592647614816216
 40
2.0
 41
0.0
 10
2.2698784522111457
 20
-2.6079938334618857
 40
2.0
 41
0.0
 10
2.2676898764473914
 20
-2.6233256125933258
 40
2.0
 41
0.0
 10
2.2653977441637645
 20
-2.6386422520682022
 40
2.0
 41
0.0
 10
2.2630021600329737
 20
-2.653943052435546
 40
2.0
 41
0.0
 10
2.260503233451969
 20
-2.6692273149676984
 40
2.0
 41
0.0
 10
2.2579010785369458
 20
-2.6844943416922176
 40
2.0
 41
0.0
 10
2.255195814118133
 20
-2.699743435423758
 40
2.0
 41
0.0
 10
2.2523875637343655
 20
-2.7149738997958996
 40
2.0
 41
0.0
 10
2.249476455627448
 20
-2.7301850392929543
 40
2.0
 41
0.0
 10
2.2464626227362903
 20
-2.745376159281723
 40
2.0
 41
0.0
 10
2.2433462026908435
 20
-2.7605465660432227
 40
2.0
 41
0.0
 10
2.240127337805813
 20
-2.775695566804358
 40
2.0
 41
0.0
 10
2.236806175074156
 20
-2.790822469769567
 40
2.0
 41
0.0
 10
2.233382866160375
 20
-2.805926584152404
 40
2.0
 41
0.0
 10
2.229857567393589
 20
-2.821007220207091
 40
2.0
 41
0.0
 10
2.226230439760392
 20
-2.8360636892600075
 40
2.0
 41
0.0
 10
2.2225016488975036
 20
-2.851095303741155
 40
2.0
 41
0.0
 10
2.218671365084207
 20
-2.866101377215539
 40
2.0
 41
0.0
 10
2.2147397632345713
 20
-2.8810812244145234
 40
2.0
 41
0.0
 10
2.2107070228894616
 20
-2.8960341612671265
 40
2.0
 41
0.0
 10
2.2065733282083446
 20
-2.9109595049312533
 40
2.0
 41
0.0
 10
2.202338867960875
 20
-2.925856573824884
 40
2.0
 41
0.0
 10
2.198003835518276
 20
-2.9407246876571973
 40
2.0
 41
0.0
 10
2.193568428844509
 20
-2.955563167459634
 40
2.0
 41
0.0
 10
2.1890328504872376
 20
-2.970371335616906
 40
2.0
 41
0.0
 10
2.184397307568569
 20
-2.985148515897939
 40
2.0
 41
0.0
 10
2.179662011775603
 20
-2.9998940334867563
 40
2.0
 41
0.0
 10
2.179631130689579
 20
-2.999988009654798
 40
2.0
 41
0.0
 10
2.170491257945026
 20
-2.999981788784154
 40
2.0
 41
0.0
 10
2.155338717280157
 20
-2.9998712874974816
 40
2.0
 41
0.0
 10
2.1401872384314333
 20
-2.999660603298868
 40
2.0
 41
0.0
 10
2.1250374837634287
 20
-2.999349745398619
 40
2.0
 41
0.0
 10
2.109890115565343
 20
-2.9989387273862502
 40
2.0
 41
0.0
 10
2.0947457960220492
 20
-2.9984275672298937
 40
2.0
 41
0.0
 10
2.079605187185142
 20
-2.997816287275512
 40
2.0
 41
0.0
 10
2.0644689509440006
 20
-2.997104914245921
 40
2.0
 41
0.0
 10
2.0493377489968503
 20
-2.996293479239623
 40
2.0
 41
0.0
 10
2.034212242821839
 20
-2.995382017729446
 40
2.0
 41
0.0
 10
2.0190930936481126
 20
-2.994370569560993
 40
2.0
 41
0.0
 10
2.0039809624269163
 20
-2.9932591789509013
 40
2.0
 41
0.0
 10
1.9888765098026966
 20
-2.992047894484907
 40
2.0
 41
0.0
 10
1.9737803960842206
 20
-2.990736769115724
 40
2.0
 41
0.0
 10
1.958693281215713
 20
-2.989325860160728
 40
2.0
 41
0.0
 10
1.9436158247479978
 20
-2.987815229299449
 40
2.0
 41
0.0
 10
1.9285486858096772
 20
-2.9862049425708785
 40
2.0
 41
0.0
 10
1.9134925230783066
 20
-2.9844950703705786
 40
2.0
 41
0.0
 10
1.8984479947516057
 20
-2.982685687447608
 40
2.0
 41
0.0
 10
1.8834157585186797
 20
-2.9807768729012514
 40
2.0
 41
0.0
 10
1.8683964715312746
 20
-2.9787687101775635
 40
2.0
 41
0.0
 10
1.8533907903750415
 20
-2.976661287065721
 40
2.0
 41
0.0
 10
1.8383993710408375
 20
-2.9744546956941837
 40
2.0
 41
0.0
 10
1.8234228688960499
 20
-2.972149032526668
 40
2.0
 41
0.0
 10
1.8084619386559422
 20
-2.969744398357929
 40
2.0
 41
0.0
 10
1.7935172343550314
 20
-2.9672408983093534
 40
2.0
 41
0.0
 10
1.7785894093185024
 20
-2.9646386418243678
 40
2.0
 41
0.0
 10
1.7636791161336416
 20
-2.9619377426636504
 40
2.0
 41
0.0
 10
1.7487870066213116
 20
-2.9591383189001585
 40
2.0
 41
0.0
 10
1.7339137318074505
 20
-2.9562404929139685
 40
2.0
 41
0.0
 10
1.7190599418946204
 20
-2.9532443913869226
 40
2.0
 41
0.0
 10
1.7042262862335753
 20
-2.950150145297095
 40
2.0
 41
0.0
 10
1.6894134132948788
 20
-2.9469578899130644
 40
2.0
 41
0.0
 10
1.6746219706405505
 20
-2.943667764787998
 40
2.0
 41
0.0
 10
1.6598526048957636
 20
-2.940279913753554
 40
2.0
 41
0.0
 10
1.6451059617205717
 20
-2.9367944849135927
 40
2.0
 41
0.0
 10
1.6303826857816848
 20
-2.933211630637703
 40
2.0
 41
0.0
 10
1.6156834207242876
 20
-2.929531507554538
 40
2.0
 41
0.0
 10
1.6010088091439
 20
-2.9257542765449727
 40
2.0
 41
0.0
 10
1.5863594925582878
 20
-2.921880102735067
 40
2.0
 41
0.0
 10
1.5717361113794146
 20
-2.9179091554888483
 40
2.0
 41
0.0
 10
1.5571393048854507
 20
-2.913841608400908
 40
2.0
 41
0.0
 10
1.5425697111928185
 20
-2.9096776392888133
 40
2.0
 41
0.0
 10
1.5280279672283053
 20
-2.9054174301853313
 40
2.0
 41
0.0
 10
1.5135147087012115
 20
-2.901061167330473
 40
2.0
 41
0.0
 10
1.4990305700755675
 20
-2.8966090411633507
 40
2.0
 41
0.0
 10
1.4845761845423886
 20
-2.8920612463138546
 40
2.0
 41
0.0
 10
1.4701521839920029
 20
-2.887417981594141
 40
2.0
 41
0.0
 10
1.455759198986421
 20
-2.8826794499899453
 40
2.0
 41
0.0
 10
1.441397858731774
 20
-2.877845858651704
 40
2.0
 41
0.0
 10
1.427068791050805
 20
-2.8729174188855016
 40
2.0
 41
0.0
 10
1.412772622355426
 20
-2.8678943461438324
 40
2.0
 41
0.0
 10
1.398509977619327
 20
-2.8627768600161803
 40
2.0
 41
0.0
 10
1.3842814803506645
 20
-2.857565184219423
 40
2.0
 41
0.0
 10
1.3700877525647936
 20
-2.852259546588047
 40
2.0
 41
0.0
 10
1.3559294147570848
 20
-2.8468601790641914
 40
2.0
 41
0.0
 10
1.3418070858757922
 20
-2.8413673176875074
 40
2.0
 41
0.0
 10
1.3277213832949988
 20
-2.8357812025848363
 40
2.0
 41
0.0
 10
1.3136729227876252
 20
-2.830102077959718
 40
2.0
 41
0.0
 10
1.299662318498512
 20
-2.8243301920817103
 40
2.0
 41
0.0
 10
1.28569018291757
 20
-2.8184657972755387
 40
2.0
 41
0.0
 10
1.2717571268530081
 20
-2.8125091499100634
 40
2.0
 41
0.0
 10
1.2578637594046256
 20
-2.8064605103870726
 40
2.0
 41
0.0
 10
1.2440106879371888
 20
-2.800320143129901
 40
2.0
 41
0.0
 10
1.2301985180538781
 20
-2.794088316571865
 40
2.0
 41
0.0
 10
1.2164278535698143
 20
-2.7877653031445337
 40
2.0
 41
0.0
 10
1.2026992964856607
 20
-2.781351379265816
 40
2.0
 41
0.0
 10
1.189013446961305
 20
-2.7748468253278755
 40
2.0
 41
0.0
 10
1.1753709032896271
 20
-2.7682519256848774
 40
2.0
 41
0.0
 10
1.1617722618703383
 20
-2.7615669686405533
 40
2.0
 41
0.0
 10
1.1482181171839123
 20
-2.7547922464355983
 40
2.0
 41
0.0
 10
1.1347090617655988
 20
-2.7479280552348984
 40
2.0
 41
0.0
 10
1.1212456861795128
 20
-2.7409746951145784
 40
2.0
 41
0.0
 10
1.1078285789928266
 20
-2.7339324700488894
 40
2.0
 41
0.0
 10
1.0944583267500319
 20
-2.726801687896914
 40
2.0
 41
0.0
 10
1.0811355139473053
 20
-2.719582660389115
 40
2.0
 41
0.0
 10
1.0678607230069506
 20
-2.7122757031136997
 40
2.0
 41
0.0
 10
1.05463453425194
 20
-2.7048811355028324
 40
2.0
 41
0.0
 10
1.0414575258805454
 20
-2.6973992808186606
 40
2.0
 41
0.0
 10
1.0283302739410605
 20
-2.689830466139191
 40
2.0
 41
0.0
 10
1.0152533523066176
 20
-2.682175022343988
 40
2.0
 41
0.0
 10
1.0022273326501032
 20
-2.674433284099708
 40
2.0
 41
0.0
 10
0.9892527844191621
 20
-2.666605589845469
 40
2.0
 41
0.0
 10
0.976330274811307
 20
-2.658692281778058
 40
2.0
 41
0.0
 10
0.9634603687491207
 20
-2.650693705836969
 40
2.0
 41
0.0
 10
0.9506436288555613
 20
-2.6426102116892816
 40
2.0
 41
0.0
 10
0.9378806154293657
 20
-2.634442152714371
 40
2.0
 41
0.0
 10
0.9251718864205554
 20
-2.626189885988466
 40
2.0
 41
0.0
 10
0.9125179974060453
 20
-2.617853772269032
 40
2.0
 41
0.0
 10
0.8999195015653563
 20
-2.609434175979007
 40
2.0
 41
0.0
 10
0.8873769496564317
 20
-2.600931465190865
 40
2.0
 41
0.0
 10
0.8748908899915597
 20
-2.592346011610527
 40
2.0
 41
0.0
 10
0.8624618684134072
 20
-2.5836781905611135
 40
2.0
 41
0.0
 10
0.8500904282711502
 20
-2.574928380966532
 40
2.0
 41
0.0
 10
0.837777110396729
 20
-2.566096965334918
 40
2.0
 41
0.0
 10
0.8255224530811983
 20
-2.5571843297419083
 40
2.0
 41
0.0
 10
0.8133269920512007
 20
-2.5481908638137662
 40
2.0
 41
0.0
 10
0.8011912604455409
 20
-2.539116960710346
 40
2.0
 41
0.0
 10
0.7891157887918853
 20
-2.529963017107907
 40
2.0
 41
0.0
 10
0.7771011049835639
 20
-2.520729433181775
 40
2.0
 41
0.0
 10
0.7651477342564971
 20
-2.5114166125888415
 40
2.0
 41
0.0
 10
0.7532561991662299
 20
-2.5020249624499247
 40
2.0
 41
0.0
 10
0.7414270195650935
 20
-2.492554893331967
 40
2.0
 41
0.0
 10
0.729660712579473
 20
-2.483006819230087
 40
2.0
 41
0.0
 10
0.717957792587205
 20
-2.4733811575494826
 40
2.0
 41
0.0
 10
0.7063187711950906
 20
-2.4636783290871858
 40
2.0
 41
0.0
 10
0.694744157216528
 20
-2.4538987580136604
 40
2.0
 41
0.0
 10
0.6832344566492713
 20
-2.4440428718542657
 40
2.0
 41
0.0
 10
0.6717901726533073
 20
-2.434111101470563
 40
2.0
 41
0.0
 10
0.6604118055288623
 20
-2.424103881041482
 40
2.0
 41
0.0
 10
0.6490998526945294
 20
-2.414021648044338
 40
2.0
 41
0.0
 10
0.6378548086655242
 20
-2.4038648432357097
 40
2.0
 41
0.0
 10
0.6266771650320647
 20
-2.3936339106321665
 40
2.0
 41
0.0
 10
0.6155674104378822
 20
-2.3833292974908638
 40
2.0
 41
0.0
 10
0.6045260305588604
 20
-2.3729514542899874
 40
2.0
 41
0.0
 10
0.5935535080818011
 20
-2.362500834709058
 40
2.0
 41
0.0
 10
0.5826503226833257
 20
-2.3519778956091044
 40
2.0
 41
0.0
 10
0.5718169510089034
 20
-2.3413830970126845
 40
2.0
 41
0.0
 10
0.5610538666520161
 20
-2.3307169020837804
 40
2.0
 41
0.0
 10
0.5503615401334521
 20
-2.3199797771075454
 40
2.0
 41
0.0
 10
0.5397404388807402
 20
-2.3091721914699255
 40
2.0
 41
0.0
 10
0.529191027207711
 20
-2.2982946176371337
 40
2.0
 41
0.0
 10
0.5187137662942047
 20
-2.2873475311350013
 40
2.0
 41
0.0
 10
0.5083091141659045
 20
-2.2763314105281856
 40
2.0
 41
0.0
 10
0.49797752567431575
 20
-2.265246737399251
 40
2.0
 41
0.0
 10
0.4877194524768831
 20
-2.2540939963276134
 40
2.0
 41
0.0
 10
0.4775353430172441
 20
-2.2428736748683615
 40
2.0
 41
0.0
 10
0.4674256425056237
 20
-2.2315862635309376
 40
2.0
 41
0.0
 10
0.45739079289937534
 20
-2.2202322557576957
 40
2.0
 41
0.0
 10
0.4474312328836555
 20
-2.2088121479023313
 40
2.0
 41
0.0
 10
0.43754739785225005
 20
-2.197326439208184
 40
2.0
 41
0.0
 10
0.42773971988853754
 20
-2.1857756317864077
 40
2.0
 41
0.0
 10
0.41800862774660175
 20
-2.1741602305940235
 40
2.0
 41
0.0
 10
0.40835454683248973
 20
-2.1624807434118476
 40
2.0
 41
0.0
 10
0.3987778991856097
 20
-2.150737680822285
 40
2.0
 41
0.0
 10
0.3892791034602865
 20
-2.138931556187019
 40
2.0
 41
0.0
 10
0.37985857490745656
 20
-2.1270628856245595
 40
2.0
 41
0.0
 10
0.3705167253565165
 20
-2.115132187987688
 40
2.0
 41
0.0
 10
0.36125396319731706
 20
-2.103139984840769
 40
2.0
 41
0.0
 10
0.35207069336231234
 20
-2.0910868004369547
 40
2.0
 41
0.0
 10
0.3429673173088572
 20
-2.078973161695261
 40
2.0
 41
0.0
 10
0.33394423300165577
 20
-2.06679959817754
 40
2.0
 41
0.0
 10
0.3250018348953644
 20
-2.0545666420653217
 40
2.0
 41
0.0
 10
0.31614051391735043
 20
-2.042274828136554
 40
2.0
 41
0.0
 10
0.3073606574505965
 20
-2.0299246937422213
 40
2.0
 41
0.0
 10
0.29866264931677144
 20
-2.017516778782859
 40
2.0
 41
0.0
 10
0.2900468697594484
 20
-2.0050516256849433
 40
2.0
 41
0.0
 10
0.2815136954274815
 20
-1.9925297793771846
 40
2.0
 41
0.0
 10
0.27306349935854235
 20
-1.9799517872667027
 40
2.0
 41
0.0
 10
0.2646966509628106
 20
-1.9673181992150957
 40
2.0
 41
0.0
 10
0.2564135160068237
 20
-1.9546295675144052
 40
2.0
 41
0.0
 10
0.24821445659749042
 20
-1.9418864468629673
 40
2.0
 41
0.0
 10
0.240099831166258
 20
-1.9290893943411698
 40
2.0
 41
0.0
 10
0.23206999445344356
 20
-1.9162389693870916
 40
2.0
 41
0.0
 10
0.22412529749272736
 20
-1.9033357337720513
 40
2.0
 41
0.0
 10
0.21626608759580446
 20
-1.890380251576047
 40
2.0
 41
0.0
 10
0.20849270833720523
 20
-1.8773730891630978
 40
2.0
 41
0.0
 10
0.2008054995392723
 20
-1.8643148151564823
 40
2.0
 41
0.0
 10
0.19320479725730666
 20
-1.8512060004138833
 40
2.0
 41
0.0
 10
0.18569093376487544
 20
-1.8380472180024303
 40
2.0
 41
0.0
 10
0.17826423753928622
 20
-1.8248390431736476
 40
2.0
 41
0.0
 10
0.17092503324723074
 20
-1.8115820533383067
 40
2.0
 41
0.0
 10
0.16367364173058496
 20
-1.798276828041184
 40
2.0
 41
0.0
 10
0.15651037999238915
 20
-1.784923948935727
 40
2.0
 41
0.0
 10
0.1494355611829873
 20
-1.7715239997586223
 40
2.0
 41
0.0
 10
0.14244949458633704
 20
-1.7580775663042802
 40
2.0
 41
0.0
 10
0.13555248560649003
 20
-1.7445852363992285
 40
2.0
 41
0.0
 10
0.12874483575424
 20
-1.731047599876407
 40
2.0
 41
0.0
 10
0.1220268426339417
 20
-1.7174652485493909
 40
2.0
 41
0.0
 10
0.11539879993050262
 20
-1.7038387761865144
 40
2.0
 41
0.0
 10
0.10886099739654143
 20
-1.6901687784849124
 40
2.0
 41
0.0
 10
0.10241372083972344
 20
-1.6764558530444835
 40
2.0
 41
0.0
 10
0.0960572521102645
 20
-1.6627005993417607
 40
2.0
 41
0.0
 10
0.08979186908861081
 20
-1.648903618703707
 40
2.0
 41
0.0
 10
0.08361784567329056
 20
-1.635065514281426
 40
2.0
 41
0.0
 10
0.07753545176894006
 20
-1.6211868910237976
 40
2.0
 41
0.0
 10
0.07154495327450494
 20
-1.6072683556510285
 40
2.0
 41
0.0
 10
0.06564661207161548
 20
-1.5933105166281294
 40
2.0
 41
0.0
 10
0.0598406860131383
 20
-1.579313984138318
 40
2.0
 41
0.0
 10
0.054127428911904474
 20
-1.5652793700563392
 40
2.0
 41
0.0
 10
0.04850709052961355
 20
-1.5512072879217225
 40
2.0
 41
0.0
 10
0.042979916565915044
 20
-1.5370983529119537
 40
2.0
 41
0.0
 10
0.037546148647666366
 20
-1.5229531818155873
 40
2.0
 41
0.0
 10
0.03220602431837105
 20
-1.5087723930052803
 40
2.0
 41
0.0
 10
0.026959777027794618
 20
-1.4945566064107587
 40
2.0
 41
0.0
 10
0.021807636121757734
 20
-1.4803064434917177
 40
2.0
 41
0.0
 10
0.01674982683211035
 20
-1.4660225272106546
 40
2.0
 41
0.0
 10
0.011786570266887009
 20
-1.4517054820056332
 40
2.0
 41
0.0
 10
0.006918083400637598
 20
-1.437355933762987
 40
2.0
 41
0.0
 10
0.0021445790649456953
 20
-1.422974509789959
 40
2.0
 41
0.0
 10
5.2594963063149185e-06
 20
-1.4163838203078447
 40
2.0
 41
0.0
  0
ENDSEC
  0
SECTION
  2
OBJECTS
  0
DICTIONARY
  5
A
330
0
100
AcDbDictionary
281
1
  3
ACAD_COLOR
350
B
  3
ACAD_GROUP
350
C
  3
ACAD_LAYOUT
350
D
  3
ACAD_MATERIAL
350
E
  3
ACAD_MLEADERSTYLE
350
F
  3
ACAD_MLINESTYLE
350
10
  3
ACAD_PLOTSETTINGS
350
11
  3
ACAD_PLOTSTYLENAME
350
12
  3
ACAD_SCALELIST
350
14
  3
ACAD_TABLESTYLE
350
15
  3
ACAD_VISUALSTYLE
350
16
  3
EZDXF_META
350
2D
  0
DICTIONARY
  5
B
330
A
100
AcDbDictionary
281
1
  0
DICTIONARY
  5
C
330
A
100
AcDbDictionary
281
1
  0
DICTIONARY
  5
D
330
A
100
AcDbDictionary
281
1
  3
Model
350
1A
  3
Layout1
350
1E
  0
DICTIONARY
  5
E
330
A
100
AcDbDictionary
281
1
  3
ByBlock
350
1F
  3
ByLayer
350
20
  3
Global
350
21
  0
DICTIONARY
  5
F
330
A
100
AcDbDictionary
281
1
  3
Standard
350
2C
  0
DICTIONARY
  5
10
330
A
100
AcDbDictionary
281
1
  3
Standard
350
22
  0
DICTIONARY
  5
11
330
A
100
AcDbDictionary
281
1
  0
ACDBDICTIONARYWDFLT
  5
12
330
A
100
AcDbDictionary
281
1
  3
Normal
350
13
100
AcDbDictionaryWithDefault
340
13
  0
ACDBPLACEHOLDER
  5
13
330
12
  0
DICTIONARY
  5
14
330
A
100
AcDbDictionary
281
1
  0
DICTIONARY
  5
15
330
A
100
AcDbDictionary
281
1
  0
DICTIONARY
  5
16
330
A
100
AcDbDictionary
281
1
  3
2dWireframe
350
5A
  3
Basic
350
5B
  3
Brighten
350
5C
  3
ColorChange
350
5D
  3
Conceptual
350
5E
  3
Dim
350
5F
  3
EdgeColorOff
350
60
  3
Facepattern
350
61
  3
Flat
350
62
  3
FlatWithEdges
350
63
  3
Gouraud
350
64
  3
GouraudWithEdges
350
65
  3
Hidden
350
66
  3
JitterOff
350
67
  3
Linepattern
350
68
  3
Modeling
350
69
  3
OverhangOff
350
6A
  3
Realistic
350
6B
  3
Shaded
350
6C
  3
Shaded with edges
350
6D
  3
Shades of Gray
350
6E
  3
Sketchy
350
6F
  3
Thicken
350
70
  3
Wireframe
350
71
  3
X-Ray
350
72
  0
LAYOUT
  5
1A
330
D
100
AcDbPlotSettings
  1

  2
Adobe PDF
  4
A3
  6

 40
7.5
 41
20.0
 42
7.5
 43
20.0
 44
420.0
 45
297.0
 46
0.0
 47
0.0
 48
0.0
 49
0.0
140
0.0
141
0.0
142
1.0
143
1.0
 70
1024
 72
1
 73
1
 74
5
  7

 75
16
 76
0
 77
2
 78
300
147
1.0
148
0.0
149
0.0
100
AcDbLayout
  1
Model
 70
1
 71
0
 10
0.0
 20
0.0
 11
420.0
 21
297.0
 12
0.0
 22
0.0
 32
0.0
 14
1e+20
 24
1e+20
 34
1e+20
 15
-1e+20
 25
-1e+20
 35
-1e+20
146
0.0
 13
0.0
 23
0.0
 33
0.0
 16
1.0
 26
0.0
 36
0.0
 17
0.0
 27
1.0
 37
0.0
 76
1
330
17
  0
LAYOUT
  5
1E
330
D
100
AcDbPlotSettings
  1

  2
Adobe PDF
  4
A3
  6

 40
7.5
 41
20.0
 42
7.5
 43
20.0
 44
420.0
 45
297.0
 46
0.0
 47
0.0
 48
0.0
 49
0.0
140
0.0
141
0.0
142
1.0
143
1.0
 70
0
 72
1
 73
1
 74
5
  7

 75
16
 76
0
 77
2
 78
300
147
1.0
148
0.0
149
0.0
100
AcDbLayout
  1
Layout1
 70
1
 71
1
 10
0.0
 20
0.0
 11
420.0
 21
297.0
 12
0.0
 22
0.0
 32
0.0
 14
1e+20
 24
1e+20
 34
1e+20
 15
-1e+20
 25
-1e+20
 35
-1e+20
146
0.0
 13
0.0
 23
0.0
 33
0.0
 16
1.0
 26
0.0
 36
0.0
 17
0.0
 27
1.0
 37
0.0
 76
1
330
1B
  0
MATERIAL
  5
1F
102
{ACAD_REACTORS
330
E
102
}
330
E
100
AcDbMaterial
  1
ByBlock
  2

 70
0
 40
1.0
 71
1
 41
1.0
 91
-1023410177
 42
1.0
 72
1
  3

 73
1
 74
1
 75
1
 44
0.5
 73
0
 45
1.0
 46
1.0
 77
1
  4

 78
1
 79
1
170
1
 48
1.0
171
1
  6

172
1
173
1
174
1
140
1.0
141
1.0
175
1
  7

176
1
177
1
178
1
143
1.0
179
1
  8

270
1
271
1
272
1
145
1.0
146
1.0
273
1
  9

274
1
275
1
276
1
 42
1.0
 72
1
  3

 73
1
 74
1
 75
1
 94
63
  0
MATERIAL
  5
20
102
{ACAD_REACTORS
330
E
102
}
330
E
100
AcDbMaterial
  1
ByLayer
  2

 70
0
 40
1.0
 71
1
 41
1.0
 91
-1023410177
 42
1.0
 72
1
  3

 73
1
 74
1
 75
1
 44
0.5
 73
0
 45
1.0
 46
1.0
 77
1
  4

 78
1
 79
1
170
1
 48
1.0
171
1
  6

172
1
173
1
174
1
140
1.0
141
1.0
175
1
  7

176
1
177
1
178
1
143
1.0
179
1
  8

270
1
271
1
272
1
145
1.0
146
1.0
273
1
  9

274
1
275
1
276
1
 42
1.0
 72
1
  3

 73
1
 74
1
 75
1
 94
63
  0
MATERIAL
  5
21
102
{ACAD_REACTORS
330
E
102
}
330
E
100
AcDbMaterial
  1
Global
  2

 70
0
 40
1.0
 71
1
 41
1.0
 91
-1023410177
 42
1.0
 72
1
  3

 73
1
 74
1
 75
1
 44
0.5
 73
0
 45
1.0
 46
1.0
 77
1
  4

 78
1
 79
1
170
1
 48
1.0
171
1
  6

172
1
173
1
174
1
140
1.0
141
1.0
175
1
  7

176
1
177
1
178
1
143
1.0
179
1
  8

270
1
271
1
272
1
145
1.0
146
1.0
273
1
  9

274
1
275
1
276
1
 42
1.0
 72
1
  3

 73
1
 74
1
 75
1
 94
63
  0
MLINESTYLE
  5
22
102
{ACAD_REACTORS
330
10
102
}
330
10
100
AcDbMlineStyle
  2
Standard
 70
0
  3

 62
256
 51
90.0
 52
90.0
 71
2
 49
0.5
 62
256
  6
BYLAYER
 49
-0.5
 62
256
  6
BYLAYER
  0
MLEADERSTYLE
  5
2C
102
{ACAD_REACTORS
330
F
102
}
330
F
100
AcDbMLeaderStyle
179
2
170
2
171
1
172
0
 90
2
 40
0.0
 41
0.0
173
1
 91
-1056964608
 92
-2
290
1
 42
2.0
291
1
 43
8.0
  3
Standard
 44
4.0
300

342
29
174
1
175
1
176
0
178
1
 93
-1056964608
 45
4.0
292
0
297
0
 46
4.0
 94
-1056964608
 47
1.0
 49
1.0
140
1.0
294
1
141
0.0
177
0
142
1.0
295
0
296
0
143
3.75
271
0
272
9
273
9
  0
DICTIONARY
  5
2D
330
A
100
AcDbDictionary
280
1
281
1
  3
CREATED_BY_EZDXF
350
2E
  3
WRITTEN_BY_EZDXF
350
8E
  0
DICTIONARYVAR
  5
2E
330
2D
100
DictionaryVariables
280
0
  1
0.17.2 @ 2022-02-11T05:06:36.050305+00:00
  0
VISUALSTYLE
  5
5A
102
{ACAD_REACTORS
330
16
102
}
330
16
100
AcDbVisualStyle
  2
2dWireframe
 70
4
 90
0
 40
0.6
 62
7
290
0
291
0
  0
VISUALSTYLE
  5
5B
102
{ACAD_REACTORS
330
16
102
}
330
16
100
AcDbVisualStyle
  2
Basic
 70
7
 90
1
 40
0.6
 62
7
290
0
291
1
  0
VISUALSTYLE
  5
5C
102
{ACAD_REACTORS
330
16
102
}
330
16
100
AcDbVisualStyle
  2
Brighten
 70
12
 90
2
 40
0.6
 62
7
290
0
291
1
  0
VISUALSTYLE
  5
5D
102
{ACAD_REACTORS
330
16
102
}
330
16
100
AcDbVisualStyle
  2
ColorChange
 70
16
 90
2
 40
0.6
 62
8
290
0
291
1
  0
VISUALSTYLE
  5
5E
102
{ACAD_REACTORS
330
16
102
}
330
16
100
AcDbVisualStyle
  2
Conceptual
 70
9
 90
3
 40
0.6
 62
7
290
0
291
0
  0
VISUALSTYLE
  5
5F
102
{ACAD_REACTORS
330
16
102
}
330
16
100
AcDbVisualStyle
  2
Dim
 70
11
 90
2
 40
0.6
 62
7
290
0
291
1
  0
VISUALSTYLE
  5
60
102
{ACAD_REACTORS
330
16
102
}
330
16
100
AcDbVisualStyle
  2
EdgeColorOff
 70
22
 90
2
 40
0.6
 62
7
290
0
291
1
  0
VISUALSTYLE
  5
61
102
{ACAD_REACTORS
330
16
102
}
330
16
100
AcDbVisualStyle
  2
Facepattern
 70
15
 90
2
 40
0.6
 62
7
290
0
291
1
  0
VISUALSTYLE
  5
62
102
{ACAD_REACTORS
330
16
102
}
330
16
100
AcDbVisualStyle
  2
Flat
 70
0
 90
2
 40
0.6
 62
7
290
0
291
1
  0
VISUALSTYLE
  5
63
102
{ACAD_REACTORS
330
16
102
}
330
16
100
AcDbVisualStyle
  2
FlatWithEdges
 70
1
 90
2
 40
0.6
 62
7
290
0
291
1
  0
VISUALSTYLE
  5
64
102
{ACAD_REACTORS
330
16
102
}
330
16
100
AcDbVisualStyle
  2
Gouraud
 70
2
 90
2
 40
0.6
 62
7
290
0
291
1
  0
VISUALSTYLE
  5
65
102
{ACAD_REACTORS
330
16
102
}
330
16
100
AcDbVisualStyle
  2
GouraudWithEdges
 70
3
 90
2
 40
0.6
 62
7
290
0
291
1
  0
VISUALSTYLE
  5
66
102
{ACAD_REACTORS
330
16
102
}
330
16
100
AcDbVisualStyle
  2
Hidden
 70
6
 90
1
 40
0.6
 62
7
290
0
291
0
  0
VISUALSTYLE
  5
67
102
{ACAD_REACTORS
330
16
102
}
330
16
100
AcDbVisualStyle
  2
JitterOff
 70
20
 90
2
 40
0.6
 62
7
290
0
291
1
  0
VISUALSTYLE
  5
68
102
{ACAD_REACTORS
330
16
102
}
330
16
100
AcDbVisualStyle
  2
Linepattern
 70
14
 90
2
 40
0.6
 62
7
290
0
291
1
  0
VISUALSTYLE
  5
69
102
{ACAD_REACTORS
330
16
102
}
330
16
100
AcDbVisualStyle
  2
Modeling
 70
10
 90
2
 40
0.6
 62
7
290
0
291
0
  0
VISUALSTYLE
  5
6A
102
{ACAD_REACTORS
330
16
102
}
330
16
100
AcDbVisualStyle
  2
OverhangOff
 70
21
 90
2
 40
0.6
 62
7
290
0
291
1
  0
VISUALSTYLE
  5
6B
102
{ACAD_REACTORS
330
16
102
}
330
16
100
AcDbVisualStyle
  2
Realistic
 70
8
 90
2
 40
0.6
 62
7
290
0
291
0
  0
VISUALSTYLE
  5
6C
102
{ACAD_REACTORS
330
16
102
}
330
16
100
AcDbVisualStyle
  2
Shaded
 70
27
 90
2
 40
0.6
 62
7
290
0
291
0
  0
VISUALSTYLE
  5
6D
102
{ACAD_REACTORS
330
16
102
}
330
16
100
AcDbVisualStyle
  2
Shaded with edges
 70
26
 90
2
 40
0.6
 62
7
290
0
291
0
  0
VISUALSTYLE
  5
6E
102
{ACAD_REACTORS
330
16
102
}
330
16
100
AcDbVisualStyle
  2
Shades of Gray
 70
23
 90
2
 40
0.6
 62
7
290
0
291
0
  0
VISUALSTYLE
  5
6F
102
{ACAD_REACTORS
330
16
102
}
330
16
100
AcDbVisualStyle
  2
Sketchy
 70
24
 90
1
 40
0.6
 62
7
290
0
291
0
  0
VISUALSTYLE
  5
70
102
{ACAD_REACTORS
330
16
102
}
330
16
100
AcDbVisualStyle
  2
Thicken
 70
13
 90
2
 40
0.6
 62
7
290
0
291
1
  0
VISUALSTYLE
  5
71
102
{ACAD_REACTORS
330
16
102
}
330
16
100
AcDbVisualStyle
  2
Wireframe
 70
5
 90
0
 40
0.6
 62
7
290
0
291
0
  0
VISUALSTYLE
  5
72
102
{ACAD_REACTORS
330
16
102
}
330
16
100
AcDbVisualStyle
  2
X-Ray
 70
25
 90
2
 40
0.5
 62
7
290
0
291
0
  0
DICTIONARYVAR
  5
8E
330
2D
100
DictionaryVariables
280
0
  1
0.17.2 @ 2022-02-11T05:06:36.064575+00:00
  0
ENDSEC
  0
EOF
