  0
SECTION
  2
HEADER
  9
$ACADVER
  1
AC1027
  9
$ACADMAINTVER
 70
105
  9
$DWGCODEPAGE
  3
ANSI_1252
  9
$LASTSAVEDBY
  1
ezdxf
  9
$REQUIREDVERSIONS
160
0
  9
$INSBASE
 10
0.0
 20
0.0
 30
0.0
  9
$EXTMIN
 10
1e+20
 20
1e+20
 30
1e+20
  9
$EXTMAX
 10
-1e+20
 20
-1e+20
 30
-1e+20
  9
$LIMMIN
 10
0.0
 20
0.0
  9
$LIMMAX
 10
420.0
 20
297.0
  9
$ORTHOMODE
 70
0
  9
$REGENMODE
 70
1
  9
$FILLMODE
 70
1
  9
$QTEXTMODE
 70
0
  9
$MIRRTEXT
 70
1
  9
$LTSCALE
 40
1.0
  9
$ATTMODE
 70
1
  9
$TEXTSIZE
 40
2.5
  9
$TRACEWID
 40
1.0
  9
$TEXTSTYLE
  7
Standard
  9
$CLAYER
  8
0
  9
$CELTYPE
  6
ByLayer
  9
$CECOLOR
 62
256
  9
$CELTSCALE
 40
1.0
  9
$DISPSILH
 70
0
  9
$DIMSCALE
 40
1.0
  9
$DIMASZ
 40
2.5
  9
$DIMEXO
 40
0.625
  9
$DIMDLI
 40
3.75
  9
$DIMRND
 40
0.0
  9
$DIMDLE
 40
0.0
  9
$DIMEXE
 40
1.25
  9
$DIMTP
 40
0.0
  9
$DIMTM
 40
0.0
  9
$DIMTXT
 40
2.5
  9
$DIMCEN
 40
2.5
  9
$DIMTSZ
 40
0.0
  9
$DIMTOL
 70
0
  9
$DIMLIM
 70
0
  9
$DIMTIH
 70
0
  9
$DIMTOH
 70
0
  9
$DIMSE1
 70
0
  9
$DIMSE2
 70
0
  9
$DIMTAD
 70
1
  9
$DIMZIN
 70
8
  9
$DIMBLK
  1

  9
$DIMASO
 70
1
  9
$DIMSHO
 70
1
  9
$DIMPOST
  1

  9
$DIMAPOST
  1

  9
$DIMALT
 70
0
  9
$DIMALTD
 70
3
  9
$DIMALTF
 40
0.03937007874
  9
$DIMLFAC
 40
1.0
  9
$DIMTOFL
 70
1
  9
$DIMTVP
 40
0.0
  9
$DIMTIX
 70
0
  9
$DIMSOXD
 70
0
  9
$DIMSAH
 70
0
  9
$DIMBLK1
  1

  9
$DIMBLK2
  1

  9
$DIMSTYLE
  2
ISO-25
  9
$DIMCLRD
 70
0
  9
$DIMCLRE
 70
0
  9
$DIMCLRT
 70
0
  9
$DIMTFAC
 40
1.0
  9
$DIMGAP
 40
0.625
  9
$DIMJUST
 70
0
  9
$DIMSD1
 70
0
  9
$DIMSD2
 70
0
  9
$DIMTOLJ
 70
0
  9
$DIMTZIN
 70
8
  9
$DIMALTZ
 70
0
  9
$DIMALTTZ
 70
0
  9
$DIMUPT
 70
0
  9
$DIMDEC
 70
2
  9
$DIMTDEC
 70
2
  9
$DIMALTU
 70
2
  9
$DIMALTTD
 70
3
  9
$DIMTXSTY
  7
Standard
  9
$DIMAUNIT
 70
0
  9
$DIMADEC
 70
0
  9
$DIMALTRND
 40
0.0
  9
$DIMAZIN
 70
0
  9
$DIMDSEP
 70
44
  9
$DIMATFIT
 70
3
  9
$DIMFRAC
 70
0
  9
$DIMLDRBLK
  1

  9
$DIMLUNIT
 70
2
  9
$DIMLWD
 70
-2
  9
$DIMLWE
 70
-2
  9
$DIMTMOVE
 70
0
  9
$DIMFXL
 40
1.0
  9
$DIMFXLON
 70
0
  9
$DIMJOGANG
 40
0.785398163397
  9
$DIMTFILL
 70
0
  9
$DIMTFILLCLR
 70
0
  9
$DIMARCSYM
 70
0
  9
$DIMLTYPE
  6

  9
$DIMLTEX1
  6

  9
$DIMLTEX2
  6

  9
$DIMTXTDIRECTION
 70
0
  9
$LUNITS
 70
2
  9
$LUPREC
 70
4
  9
$SKETCHINC
 40
1.0
  9
$FILLETRAD
 40
10.0
  9
$AUNITS
 70
0
  9
$AUPREC
 70
2
  9
$MENU
  1
.
  9
$ELEVATION
 40
0.0
  9
$PELEVATION
 40
0.0
  9
$THICKNESS
 40
0.0
  9
$LIMCHECK
 70
0
  9
$CHAMFERA
 40
0.0
  9
$CHAMFERB
 40
0.0
  9
$CHAMFERC
 40
0.0
  9
$CHAMFERD
 40
0.0
  9
$SKPOLY
 70
0
  9
$TDCREATE
 40
2459570.835578704
  9
$TDUCREATE
 40
2458532.153996898
  9
$TDUPDATE
 40
2459570.835590278
  9
$TDUUPDATE
 40
2458532.1544311
  9
$TDINDWG
 40
0.0
  9
$TDUSRTIMER
 40
0.0
  9
$USRTIMER
 70
1
  9
$ANGBASE
 50
0.0
  9
$ANGDIR
 70
0
  9
$PDMODE
 70
0
  9
$PDSIZE
 40
0.0
  9
$PLINEWID
 40
0.0
  9
$SPLFRAME
 70
0
  9
$SPLINETYPE
 70
6
  9
$SPLINESEGS
 70
8
  9
$HANDSEED
  5
32F
  9
$SURFTAB1
 70
6
  9
$SURFTAB2
 70
6
  9
$SURFTYPE
 70
6
  9
$SURFU
 70
6
  9
$SURFV
 70
6
  9
$UCSBASE
  2

  9
$UCSNAME
  2

  9
$UCSORG
 10
0.0
 20
0.0
 30
0.0
  9
$UCSXDIR
 10
1.0
 20
0.0
 30
0.0
  9
$UCSYDIR
 10
0.0
 20
1.0
 30
0.0
  9
$UCSORTHOREF
  2

  9
$UCSORTHOVIEW
 70
0
  9
$UCSORGTOP
 10
0.0
 20
0.0
 30
0.0
  9
$UCSORGBOTTOM
 10
0.0
 20
0.0
 30
0.0
  9
$UCSORGLEFT
 10
0.0
 20
0.0
 30
0.0
  9
$UCSORGRIGHT
 10
0.0
 20
0.0
 30
0.0
  9
$UCSORGFRONT
 10
0.0
 20
0.0
 30
0.0
  9
$UCSORGBACK
 10
0.0
 20
0.0
 30
0.0
  9
$PUCSBASE
  2

  9
$PUCSNAME
  2

  9
$PUCSORG
 10
0.0
 20
0.0
 30
0.0
  9
$PUCSXDIR
 10
1.0
 20
0.0
 30
0.0
  9
$PUCSYDIR
 10
0.0
 20
1.0
 30
0.0
  9
$PUCSORTHOREF
  2

  9
$PUCSORTHOVIEW
 70
0
  9
$PUCSORGTOP
 10
0.0
 20
0.0
 30
0.0
  9
$PUCSORGBOTTOM
 10
0.0
 20
0.0
 30
0.0
  9
$PUCSORGLEFT
 10
0.0
 20
0.0
 30
0.0
  9
$PUCSORGRIGHT
 10
0.0
 20
0.0
 30
0.0
  9
$PUCSORGFRONT
 10
0.0
 20
0.0
 30
0.0
  9
$PUCSORGBACK
 10
0.0
 20
0.0
 30
0.0
  9
$USERI1
 70
0
  9
$USERI2
 70
0
  9
$USERI3
 70
0
  9
$USERI4
 70
0
  9
$USERI5
 70
0
  9
$USERR1
 40
0.0
  9
$USERR2
 40
0.0
  9
$USERR3
 40
0.0
  9
$USERR4
 40
0.0
  9
$USERR5
 40
0.0
  9
$WORLDVIEW
 70
1
  9
$SHADEDGE
 70
3
  9
$SHADEDIF
 70
70
  9
$TILEMODE
 70
1
  9
$MAXACTVP
 70
64
  9
$PINSBASE
 10
0.0
 20
0.0
 30
0.0
  9
$PLIMCHECK
 70
0
  9
$PEXTMIN
 10
1e+20
 20
1e+20
 30
1e+20
  9
$PEXTMAX
 10
-1e+20
 20
-1e+20
 30
-1e+20
  9
$PLIMMIN
 10
0.0
 20
0.0
  9
$PLIMMAX
 10
420.0
 20
297.0
  9
$UNITMODE
 70
0
  9
$VISRETAIN
 70
1
  9
$PLINEGEN
 70
0
  9
$PSLTSCALE
 70
1
  9
$TREEDEPTH
 70
3020
  9
$CMLSTYLE
  2
Standard
  9
$CMLJUST
 70
0
  9
$CMLSCALE
 40
20.0
  9
$PROXYGRAPHICS
 70
1
  9
$MEASUREMENT
 70
1
  9
$CELWEIGHT
370
-1
  9
$ENDCAPS
280
0
  9
$JOINSTYLE
280
0
  9
$LWDISPLAY
290
0
  9
$INSUNITS
 70
6
  9
$HYPERLINKBASE
  1

  9
$STYLESHEET
  1

  9
$XEDIT
290
1
  9
$CEPSNTYPE
380
0
  9
$PSTYLEMODE
290
1
  9
$FINGERPRINTGUID
  2
{0CA97F96-E1D1-49B3-92CC-5F628B72B075}
  9
$VERSIONGUID
  2
{1CDCCCA4-211C-4D80-941E-53F61F41C57C}
  9
$EXTNAMES
290
1
  9
$PSVPSCALE
 40
0.0
  9
$OLESTARTUP
290
0
  9
$SORTENTS
280
127
  9
$INDEXCTL
280
0
  9
$HIDETEXT
280
1
  9
$XCLIPFRAME
280
0
  9
$HALOGAP
280
0
  9
$OBSCOLOR
 70
257
  9
$OBSLTYPE
280
0
  9
$INTERSECTIONDISPLAY
280
0
  9
$INTERSECTIONCOLOR
 70
257
  9
$DIMASSOC
280
2
  9
$PROJECTNAME
  1

  9
$CAMERADISPLAY
290
0
  9
$LENSLENGTH
 40
50.0
  9
$CAMERAHEIGHT
 40
0.0
  9
$STEPSPERSEC
 40
24.0
  9
$STEPSIZE
 40
100.0
  9
$3DDWFPREC
 40
2.0
  9
$PSOLWIDTH
 40
0.005
  9
$PSOLHEIGHT
 40
0.08
  9
$LOFTANG1
 40
1.570796326795
  9
$LOFTANG2
 40
1.570796326795
  9
$LOFTMAG1
 40
0.0
  9
$LOFTMAG2
 40
0.0
  9
$LOFTPARAM
 70
7
  9
$LOFTNORMALS
280
1
  9
$LATITUDE
 40
37.795
  9
$LONGITUDE
 40
-122.394
  9
$NORTHDIRECTION
 40
0.0
  9
$TIMEZONE
 70
-8000
  9
$LIGHTGLYPHDISPLAY
280
1
  9
$TILEMODELIGHTSYNCH
280
1
  9
$CMATERIAL
347
20
  9
$SOLIDHIST
280
0
  9
$SHOWHIST
280
1
  9
$DWFFRAME
280
2
  9
$DGNFRAME
280
2
  9
$REALWORLDSCALE
290
1
  9
$INTERFERECOLOR
 62
256
  9
$CSHADOW
280
0
  9
$SHADOWPLANELOCATION
 40
0.0
  0
ENDSEC
  0
SECTION
  2
CLASSES
  0
CLASS
  1
ACDBDICTIONARYWDFLT
  2
AcDbDictionaryWithDefault
  3
ObjectDBX Classes
 90
0
 91
0
280
0
281
0
  0
CLASS
  1
SUN
  2
AcDbSun
  3
SCENEOE
 90
1153
 91
0
280
0
281
0
  0
CLASS
  1
VISUALSTYLE
  2
AcDbVisualStyle
  3
ObjectDBX Classes
 90
4095
 91
0
280
0
281
0
  0
CLASS
  1
MATERIAL
  2
AcDbMaterial
  3
ObjectDBX Classes
 90
1153
 91
0
280
0
281
0
  0
CLASS
  1
SCALE
  2
AcDbScale
  3
ObjectDBX Classes
 90
1153
 91
0
280
0
281
0
  0
CLASS
  1
TABLESTYLE
  2
AcDbTableStyle
  3
ObjectDBX Classes
 90
4095
 91
0
280
0
281
0
  0
CLASS
  1
MLEADERSTYLE
  2
AcDbMLeaderStyle
  3
ACDB_MLEADERSTYLE_CLASS
 90
4095
 91
0
280
0
281
0
  0
CLASS
  1
DICTIONARYVAR
  2
AcDbDictionaryVar
  3
ObjectDBX Classes
 90
0
 91
0
280
0
281
0
  0
CLASS
  1
CELLSTYLEMAP
  2
AcDbCellStyleMap
  3
ObjectDBX Classes
 90
1152
 91
0
280
0
281
0
  0
CLASS
  1
MENTALRAYRENDERSETTINGS
  2
AcDbMentalRayRenderSettings
  3
SCENEOE
 90
1024
 91
0
280
0
281
0
  0
CLASS
  1
ACDBDETAILVIEWSTYLE
  2
AcDbDetailViewStyle
  3
ObjectDBX Classes
 90
1025
 91
0
280
0
281
0
  0
CLASS
  1
ACDBSECTIONVIEWSTYLE
  2
AcDbSectionViewStyle
  3
ObjectDBX Classes
 90
1025
 91
0
280
0
281
0
  0
CLASS
  1
RASTERVARIABLES
  2
AcDbRasterVariables
  3
ISM
 90
0
 91
0
280
0
281
0
  0
CLASS
  1
LAYOUT
  2
AcDbLayout
  3
ObjectDBX Classes
 90
0
 91
0
280
0
281
0
  0
CLASS
  1
ACDBPLACEHOLDER
  2
AcDbPlaceHolder
  3
ObjectDBX Classes
 90
0
 91
0
280
0
281
0
  0
ENDSEC
  0
SECTION
  2
TABLES
  0
TABLE
  2
VPORT
  5
8
330
0
100
AcDbSymbolTable
 70
1
  0
VPORT
  5
23
330
8
100
AcDbSymbolTableRecord
100
AcDbViewportTableRecord
  2
*Active
 70
0
 10
0.0
 20
0.0
 11
1.0
 21
1.0
 12
344.2
 22
148.5
 13
0.0
 23
0.0
 14
0.5
 24
0.5
 15
0.5
 25
0.5
 16
0.0
 26
0.0
 36
1.0
 17
0.0
 27
0.0
 37
0.0
 40
297.0
 41
1.34
 42
50.0
 43
0.0
 44
0.0
 50
0.0
 51
0.0
 71
0
 72
1000
 73
1
 74
3
 75
0
 76
0
 77
0
 78
0
281
0
 65
0
146
0.0
  0
ENDTAB
  0
TABLE
  2
LTYPE
  5
2
330
0
100
AcDbSymbolTable
 70
3
  0
LTYPE
  5
24
330
2
100
AcDbSymbolTableRecord
100
AcDbLinetypeTableRecord
  2
ByBlock
 70
0
  3

 72
65
 73
0
 40
0.0
  0
LTYPE
  5
25
330
2
100
AcDbSymbolTableRecord
100
AcDbLinetypeTableRecord
  2
ByLayer
 70
0
  3

 72
65
 73
0
 40
0.0
  0
LTYPE
  5
26
330
2
100
AcDbSymbolTableRecord
100
AcDbLinetypeTableRecord
  2
Continuous
 70
0
  3

 72
65
 73
0
 40
0.0
  0
ENDTAB
  0
TABLE
  2
LAYER
  5
1
330
0
100
AcDbSymbolTable
 70
2
  0
LAYER
  5
27
330
1
100
AcDbSymbolTableRecord
100
AcDbLayerTableRecord
  2
0
 70
0
 62
7
  6
Continuous
370
-3
390
13
347
21
  0
LAYER
  5
28
330
1
100
AcDbSymbolTableRecord
100
AcDbLayerTableRecord
  2
Defpoints
 70
0
 62
7
  6
Continuous
290
0
370
-3
390
13
347
21
  0
ENDTAB
  0
TABLE
  2
STYLE
  5
5
330
0
100
AcDbSymbolTable
 70
1
  0
STYLE
  5
29
330
5
100
AcDbSymbolTableRecord
100
AcDbTextStyleTableRecord
  2
Standard
 70
0
 40
0.0
 41
1.0
 50
0.0
 71
0
 42
2.5
  3
txt
  4

  0
ENDTAB
  0
TABLE
  2
VIEW
  5
7
330
0
100
AcDbSymbolTable
 70
0
  0
ENDTAB
  0
TABLE
  2
UCS
  5
6
330
0
100
AcDbSymbolTable
 70
0
  0
ENDTAB
  0
TABLE
  2
APPID
  5
3
330
0
100
AcDbSymbolTable
 70
3
  0
APPID
  5
2A
330
3
100
AcDbSymbolTableRecord
100
AcDbRegAppTableRecord
  2
ACAD
 70
0
  0
APPID
  5
32C
330
3
100
AcDbSymbolTableRecord
100
AcDbRegAppTableRecord
  2
HATCHBACKGROUNDCOLOR
 70
0
  0
APPID
  5
32D
330
3
100
AcDbSymbolTableRecord
100
AcDbRegAppTableRecord
  2
EZDXF
 70
0
  0
ENDTAB
  0
TABLE
  2
DIMSTYLE
  5
4
330
0
100
AcDbSymbolTable
 70
1
100
AcDbDimStyleTable
  0
DIMSTYLE
105
2B
330
4
100
AcDbSymbolTableRecord
100
AcDbDimStyleTableRecord
  2
Standard
 70
0
 40
1.0
 41
2.5
 42
0.625
 43
3.75
 44
1.25
 45
0.0
 46
0.0
 47
0.0
 48
0.0
 49
2.5
140
2.5
141
2.5
142
0.0
143
0.03937007874
144
1.0
145
0.0
146
1.0
147
0.625
148
0.0
 69
0
 70
0
 71
0
 72
0
 73
0
 74
0
 75
0
 76
0
 77
1
 78
8
 79
0
170
0
171
3
172
1
173
0
174
0
175
0
176
0
177
0
178
0
179
0
271
0
272
2
273
2
274
3
275
0
276
0
277
2
278
44
279
0
280
0
281
0
282
0
283
0
284
8
285
0
286
0
288
0
289
3
290
0
371
-2
372
-2
  0
ENDTAB
  0
TABLE
  2
BLOCK_RECORD
  5
9
330
0
100
AcDbSymbolTable
 70
2
  0
BLOCK_RECORD
  5
17
330
9
100
AcDbSymbolTableRecord
100
AcDbBlockTableRecord
  2
*Model_Space
340
1A
 70
0
280
1
281
0
  0
BLOCK_RECORD
  5
1B
330
9
100
AcDbSymbolTableRecord
100
AcDbBlockTableRecord
  2
*Paper_Space
340
1E
 70
0
280
1
281
0
  0
ENDTAB
  0
ENDSEC
  0
SECTION
  2
BLOCKS
  0
BLOCK
  5
18
330
17
100
AcDbEntity
  8
0
100
AcDbBlockBegin
  2
*Model_Space
 70
0
 10
0.0
 20
0.0
 30
0.0
  3
*Model_Space
  1

  0
ENDBLK
  5
19
330
17
100
AcDbEntity
  8
0
100
AcDbBlockEnd
  0
BLOCK
  5
1C
330
1B
100
AcDbEntity
  8
0
100
AcDbBlockBegin
  2
*Paper_Space
 70
0
 10
0.0
 20
0.0
 30
0.0
  3
*Paper_Space
  1

  0
ENDBLK
  5
1D
330
1B
100
AcDbEntity
  8
0
100
AcDbBlockEnd
  0
ENDSEC
  0
SECTION
  2
ENTITIES
  0
LINE
  5
2F
330
17
100
AcDbEntity
  8
0
100
AcDbLine
 10
5.977168188550474
 20
-0.5229344564859499
 30
0.0
 11
6.0
 21
0.0
 31
0.0
  0
LINE
  5
30
330
17
100
AcDbEntity
  8
0
100
AcDbLine
 10
6.0
 20
0.0
 30
0.0
 11
5.977168188550474
 21
0.522934456485949
 31
0.0
  0
LINE
  5
31
330
17
100
AcDbEntity
  8
0
100
AcDbLine
 10
5.977168188550474
 20
0.522934456485949
 30
0.0
 11
5.908846518073248
 21
1.041889066001582
 31
0.0
  0
LINE
  5
32
330
17
100
AcDbEntity
  8
0
100
AcDbLine
 10
5.908846518073248
 20
1.041889066001582
 30
0.0
 11
5.79555495773441
 21
1.5529142706151244
 31
0.0
  0
LINE
  5
33
330
17
100
AcDbEntity
  8
0
100
AcDbLine
 10
5.79555495773441
 20
1.5529142706151244
 30
0.0
 11
5.703421778858968
 21
1.8451233818616768
 31
0.0
  0
LINE
  5
34
330
17
100
AcDbEntity
  8
0
100
AcDbLine
 10
5.703421778858968
 20
1.8451233818616775
 30
0.0
 11
5.706339097770921
 21
1.8541019662496838
 31
0.0
  0
LINE
  5
35
330
17
100
AcDbEntity
  8
0
100
AcDbLine
 10
5.706339097770921
 20
1.8541019662496843
 30
0.0
 11
5.698882759075348
 21
1.8595193134152301
 31
0.0
  0
LINE
  5
36
330
17
100
AcDbEntity
  8
0
100
AcDbLine
 10
5.698882759075348
 20
1.8595193134152301
 30
0.0
 11
5.638155724715451
 21
2.0521208599540124
 31
0.0
  0
LINE
  5
37
330
17
100
AcDbEntity
  8
0
100
AcDbLine
 10
5.638155724715451
 20
2.0521208599540124
 30
0.0
 11
5.437846722219899
 21
2.5357095704441965
 31
0.0
  0
LINE
  5
38
330
17
100
AcDbEntity
  8
0
100
AcDbLine
 10
5.437846722219899
 20
2.5357095704441965
 30
0.0
 11
5.196152422706632
 21
2.9999999999999996
 31
0.0
  0
LINE
  5
39
330
17
100
AcDbEntity
  8
0
100
AcDbLine
 10
5.196152422706632
 20
2.9999999999999996
 30
0.0
 11
4.914912265733951
 21
3.4414586181062763
 31
0.0
  0
LINE
  5
3A
330
17
100
AcDbEntity
  8
0
100
AcDbLine
 10
4.914912265733951
 20
3.4414586181062763
 30
0.0
 11
4.596266658713868
 21
3.8567256581192355
 31
0.0
  0
LINE
  5
3B
330
17
100
AcDbEntity
  8
0
100
AcDbLine
 10
4.596266658713868
 20
3.8567256581192355
 30
0.0
 11
4.242640687119286
 21
4.242640687119285
 31
0.0
  0
LINE
  5
3C
330
17
100
AcDbEntity
  8
0
100
AcDbLine
 10
4.242640687119286
 20
4.242640687119285
 30
0.0
 11
3.8567256581192364
 21
4.596266658713868
 31
0.0
  0
LINE
  5
3D
330
17
100
AcDbEntity
  8
0
100
AcDbLine
 10
3.8567256581192364
 20
4.596266658713868
 30
0.0
 11
3.441458618106277
 21
4.914912265733951
 31
0.0
  0
LINE
  5
3E
330
17
100
AcDbEntity
  8
0
100
AcDbLine
 10
3.441458618106277
 20
4.914912265733951
 30
0.0
 11
3.000000000000001
 21
5.196152422706632
 31
0.0
  0
LINE
  5
3F
330
17
100
AcDbEntity
  8
0
100
AcDbLine
 10
3.000000000000001
 20
5.196152422706632
 30
0.0
 11
2.5357095704441965
 21
5.437846722219899
 31
0.0
  0
LINE
  5
40
330
17
100
AcDbEntity
  8
0
100
AcDbLine
 10
2.5357095704441965
 20
5.437846722219899
 30
0.0
 11
2.052120859954013
 21
5.63815572471545
 31
0.0
  0
LINE
  5
41
330
17
100
AcDbEntity
  8
0
100
AcDbLine
 10
2.052120859954013
 20
5.63815572471545
 30
0.0
 11
1.5529142706151244
 21
5.79555495773441
 31
0.0
  0
LINE
  5
42
330
17
100
AcDbEntity
  8
0
100
AcDbLine
 10
1.5529142706151244
 20
5.79555495773441
 30
0.0
 11
1.0418890660015825
 21
5.908846518073248
 31
0.0
  0
LINE
  5
43
330
17
100
AcDbEntity
  8
0
100
AcDbLine
 10
1.0418890660015825
 20
5.908846518073248
 30
0.0
 11
0.5229344564859502
 21
5.977168188550474
 31
0.0
  0
LINE
  5
44
330
17
100
AcDbEntity
  8
0
100
AcDbLine
 10
0.5229344564859502
 20
5.977168188550474
 30
0.0
 11
3.3306690738754696e-16
 21
6.0
 31
0.0
  0
LINE
  5
45
330
17
100
AcDbEntity
  8
0
100
AcDbLine
 10
3.6739403974420594e-16
 20
6.0
 30
0.0
 11
-0.522934456485948
 21
5.977168188550474
 31
0.0
  0
LINE
  5
46
330
17
100
AcDbEntity
  8
0
100
AcDbLine
 10
-0.522934456485948
 20
5.977168188550474
 30
0.0
 11
-1.0418890660015818
 21
5.908846518073248
 31
0.0
  0
LINE
  5
47
330
17
100
AcDbEntity
  8
0
100
AcDbLine
 10
-1.0418890660015818
 20
5.908846518073248
 30
0.0
 11
-1.5529142706151238
 21
5.79555495773441
 31
0.0
  0
LINE
  5
48
330
17
100
AcDbEntity
  8
0
100
AcDbLine
 10
-1.5529142706151238
 20
5.79555495773441
 30
0.0
 11
-2.0521208599540124
 21
5.638155724715451
 31
0.0
  0
LINE
  5
49
330
17
100
AcDbEntity
  8
0
100
AcDbLine
 10
-2.0521208599540124
 20
5.638155724715451
 30
0.0
 11
-2.535709570444196
 21
5.4378467222199
 31
0.0
  0
LINE
  5
4A
330
17
100
AcDbEntity
  8
0
100
AcDbLine
 10
-2.535709570444196
 20
5.4378467222199
 30
0.0
 11
-2.9999999999999987
 21
5.196152422706632
 31
0.0
  0
LINE
  5
4B
330
17
100
AcDbEntity
  8
0
100
AcDbLine
 10
-2.9999999999999987
 20
5.196152422706632
 30
0.0
 11
-3.441458618106275
 21
4.914912265733952
 31
0.0
  0
LINE
  5
4C
330
17
100
AcDbEntity
  8
0
100
AcDbLine
 10
-3.441458618106275
 20
4.914912265733952
 30
0.0
 11
-3.8567256581192364
 21
4.596266658713868
 31
0.0
  0
LINE
  5
4D
330
17
100
AcDbEntity
  8
0
100
AcDbLine
 10
-3.8567256581192364
 20
4.596266658713868
 30
0.0
 11
-4.242640687119285
 21
4.242640687119286
 31
0.0
  0
LINE
  5
4E
330
17
100
AcDbEntity
  8
0
100
AcDbLine
 10
-4.242640687119285
 20
4.242640687119286
 30
0.0
 11
-4.596266658713867
 21
3.856725658119237
 31
0.0
  0
LINE
  5
4F
330
17
100
AcDbEntity
  8
0
100
AcDbLine
 10
-4.596266658713867
 20
3.856725658119237
 30
0.0
 11
-4.91491226573395
 21
3.441458618106278
 31
0.0
  0
LINE
  5
50
330
17
100
AcDbEntity
  8
0
100
AcDbLine
 10
-4.91491226573395
 20
3.441458618106278
 30
0.0
 11
-5.196152422706632
 21
2.9999999999999996
 31
0.0
  0
LINE
  5
51
330
17
100
AcDbEntity
  8
0
100
AcDbLine
 10
-5.196152422706632
 20
2.9999999999999996
 30
0.0
 11
-5.437846722219899
 21
2.535709570444197
 31
0.0
  0
LINE
  5
52
330
17
100
AcDbEntity
  8
0
100
AcDbLine
 10
-5.437846722219899
 20
2.535709570444197
 30
0.0
 11
-5.63815572471545
 21
2.0521208599540133
 31
0.0
  0
LINE
  5
53
330
17
100
AcDbEntity
  8
0
100
AcDbLine
 10
-5.63815572471545
 20
2.0521208599540133
 30
0.0
 11
-5.698882759075347
 21
1.859519313415231
 31
0.0
  0
LINE
  5
54
330
17
100
AcDbEntity
  8
0
100
AcDbLine
 10
-5.698882759075348
 20
1.8595193134152304
 30
0.0
 11
-5.706339097770921
 21
1.8541019662496847
 31
0.0
  0
LINE
  5
55
330
17
100
AcDbEntity
  8
0
100
AcDbLine
 10
-5.706339097770921
 20
1.8541019662496852
 30
0.0
 11
-5.703421778858967
 21
1.845123381861676
 31
0.0
  0
LINE
  5
56
330
17
100
AcDbEntity
  8
0
100
AcDbLine
 10
-5.703421778858967
 20
1.8451233818616763
 30
0.0
 11
-5.795554957734409
 21
1.5529142706151262
 31
0.0
  0
LINE
  5
57
330
17
100
AcDbEntity
  8
0
100
AcDbLine
 10
-5.795554957734409
 20
1.5529142706151262
 30
0.0
 11
-5.908846518073248
 21
1.041889066001584
 31
0.0
  0
LINE
  5
58
330
17
100
AcDbEntity
  8
0
100
AcDbLine
 10
-5.908846518073248
 20
1.041889066001584
 30
0.0
 11
-5.977168188550474
 21
0.5229344564859492
 31
0.0
  0
LINE
  5
59
330
17
100
AcDbEntity
  8
0
100
AcDbLine
 10
-5.977168188550474
 20
0.5229344564859492
 30
0.0
 11
-6.0
 21
7.771561172376096e-16
 31
0.0
  0
LINE
  5
5A
330
17
100
AcDbEntity
  8
0
100
AcDbLine
 10
-6.0
 20
7.347880794884119e-16
 30
0.0
 11
-5.977168188550474
 21
-0.5229344564859477
 31
0.0
  0
LINE
  5
5B
330
17
100
AcDbEntity
  8
0
100
AcDbLine
 10
-5.977168188550474
 20
-0.5229344564859477
 30
0.0
 11
-5.908846518073249
 21
-1.04188906600158
 31
0.0
  0
LINE
  5
5C
330
17
100
AcDbEntity
  8
0
100
AcDbLine
 10
-5.908846518073249
 20
-1.04188906600158
 30
0.0
 11
-5.79555495773441
 21
-1.5529142706151249
 31
0.0
  0
LINE
  5
5D
330
17
100
AcDbEntity
  8
0
100
AcDbLine
 10
-5.79555495773441
 20
-1.5529142706151249
 30
0.0
 11
-5.638155724715451
 21
-2.052120859954012
 31
0.0
  0
LINE
  5
5E
330
17
100
AcDbEntity
  8
0
100
AcDbLine
 10
-5.638155724715451
 20
-2.052120859954012
 30
0.0
 11
-5.4378467222199
 21
-2.5357095704441956
 31
0.0
  0
LINE
  5
5F
330
17
100
AcDbEntity
  8
0
100
AcDbLine
 10
-5.4378467222199
 20
-2.5357095704441956
 30
0.0
 11
-5.196152422706633
 21
-2.9999999999999982
 31
0.0
  0
LINE
  5
60
330
17
100
AcDbEntity
  8
0
100
AcDbLine
 10
-5.196152422706633
 20
-2.9999999999999982
 30
0.0
 11
-4.914912265733952
 21
-3.441458618106275
 31
0.0
  0
LINE
  5
61
330
17
100
AcDbEntity
  8
0
100
AcDbLine
 10
-4.914912265733952
 20
-3.441458618106275
 30
0.0
 11
-4.596266658713868
 21
-3.8567256581192355
 31
0.0
  0
LINE
  5
62
330
17
100
AcDbEntity
  8
0
100
AcDbLine
 10
-4.596266658713868
 20
-3.8567256581192355
 30
0.0
 11
-4.242640687119286
 21
-4.242640687119285
 31
0.0
  0
LINE
  5
63
330
17
100
AcDbEntity
  8
0
100
AcDbLine
 10
-4.242640687119286
 20
-4.242640687119285
 30
0.0
 11
-3.856725658119237
 21
-4.596266658713867
 31
0.0
  0
LINE
  5
64
330
17
100
AcDbEntity
  8
0
100
AcDbLine
 10
-3.856725658119237
 20
-4.596266658713867
 30
0.0
 11
-3.5287053826889783
 21
-4.847965468655797
 31
0.0
  0
LINE
  5
65
330
17
100
AcDbEntity
  8
0
100
AcDbLine
 10
-3.528705382688979
 20
-4.847965468655797
 30
0.0
 11
-3.5267115137548393
 21
-4.854101966249685
 31
0.0
  0
LINE
  5
66
330
17
100
AcDbEntity
  8
0
100
AcDbLine
 10
-3.5267115137548393
 20
-4.854101966249684
 30
0.0
 11
-3.5207081433242458
 21
-4.854101966249684
 31
0.0
  0
LINE
  5
67
330
17
100
AcDbEntity
  8
0
100
AcDbLine
 10
-3.5207081433242458
 20
-4.854101966249684
 30
0.0
 11
-3.441458618106278
 21
-4.91491226573395
 31
0.0
  0
LINE
  5
68
330
17
100
AcDbEntity
  8
0
100
AcDbLine
 10
-3.441458618106278
 20
-4.91491226573395
 30
0.0
 11
-3.0000000000000027
 21
-5.19615242270663
 31
0.0
  0
LINE
  5
69
330
17
100
AcDbEntity
  8
0
100
AcDbLine
 10
-3.0000000000000027
 20
-5.19615242270663
 30
0.0
 11
-2.5357095704441996
 21
-5.4378467222198985
 31
0.0
  0
LINE
  5
6A
330
17
100
AcDbEntity
  8
0
100
AcDbLine
 10
-2.5357095704441996
 20
-5.4378467222198985
 30
0.0
 11
-2.0521208599540164
 21
-5.63815572471545
 31
0.0
  0
LINE
  5
6B
330
17
100
AcDbEntity
  8
0
100
AcDbLine
 10
-2.0521208599540164
 20
-5.63815572471545
 30
0.0
 11
-1.5529142706151238
 21
-5.79555495773441
 31
0.0
  0
LINE
  5
6C
330
17
100
AcDbEntity
  8
0
100
AcDbLine
 10
-1.5529142706151238
 20
-5.79555495773441
 30
0.0
 11
-1.041889066001582
 21
-5.908846518073248
 31
0.0
  0
LINE
  5
6D
330
17
100
AcDbEntity
  8
0
100
AcDbLine
 10
-1.041889066001582
 20
-5.908846518073248
 30
0.0
 11
-0.5229344564859495
 21
-5.977168188550474
 31
0.0
  0
LINE
  5
6E
330
17
100
AcDbEntity
  8
0
100
AcDbLine
 10
-0.5229344564859495
 20
-5.977168188550474
 30
0.0
 11
-1.1102230246251565e-15
 21
-6.0
 31
0.0
  0
LINE
  5
6F
330
17
100
AcDbEntity
  8
0
100
AcDbLine
 10
-1.102182119232618e-15
 20
-6.0
 30
0.0
 11
0.5229344564859473
 21
-5.977168188550474
 31
0.0
  0
LINE
  5
70
330
17
100
AcDbEntity
  8
0
100
AcDbLine
 10
0.5229344564859473
 20
-5.977168188550474
 30
0.0
 11
1.0418890660015798
 21
-5.908846518073249
 31
0.0
  0
LINE
  5
71
330
17
100
AcDbEntity
  8
0
100
AcDbLine
 10
1.0418890660015798
 20
-5.908846518073249
 30
0.0
 11
1.5529142706151218
 21
-5.79555495773441
 31
0.0
  0
LINE
  5
72
330
17
100
AcDbEntity
  8
0
100
AcDbLine
 10
1.5529142706151218
 20
-5.79555495773441
 30
0.0
 11
2.052120859954009
 21
-5.6381557247154515
 31
0.0
  0
LINE
  5
73
330
17
100
AcDbEntity
  8
0
100
AcDbLine
 10
2.052120859954009
 20
-5.6381557247154515
 30
0.0
 11
2.535709570444193
 21
-5.437846722219902
 31
0.0
  0
LINE
  5
74
330
17
100
AcDbEntity
  8
0
100
AcDbLine
 10
2.535709570444193
 20
-5.437846722219902
 30
0.0
 11
3.000000000000001
 21
-5.196152422706632
 31
0.0
  0
LINE
  5
75
330
17
100
AcDbEntity
  8
0
100
AcDbLine
 10
3.000000000000001
 20
-5.196152422706632
 30
0.0
 11
3.4414586181062763
 21
-4.914912265733951
 31
0.0
  0
LINE
  5
76
330
17
100
AcDbEntity
  8
0
100
AcDbLine
 10
3.4414586181062763
 20
-4.914912265733951
 30
0.0
 11
3.520708143324243
 21
-4.854101966249686
 31
0.0
  0
LINE
  5
77
330
17
100
AcDbEntity
  8
0
100
AcDbLine
 10
3.520708143324243
 20
-4.854101966249686
 30
0.0
 11
3.5267115137548375
 21
-4.854101966249686
 31
0.0
  0
LINE
  5
78
330
17
100
AcDbEntity
  8
0
100
AcDbLine
 10
3.5267115137548375
 20
-4.854101966249686
 30
0.0
 11
3.528705382688978
 21
-4.847965468655797
 31
0.0
  0
LINE
  5
79
330
17
100
AcDbEntity
  8
0
100
AcDbLine
 10
3.528705382688978
 20
-4.847965468655797
 30
0.0
 11
3.8567256581192355
 21
-4.596266658713869
 31
0.0
  0
LINE
  5
7A
330
17
100
AcDbEntity
  8
0
100
AcDbLine
 10
3.8567256581192355
 20
-4.596266658713869
 30
0.0
 11
4.242640687119284
 21
-4.242640687119286
 31
0.0
  0
LINE
  5
7B
330
17
100
AcDbEntity
  8
0
100
AcDbLine
 10
4.242640687119284
 20
-4.242640687119286
 30
0.0
 11
4.5962666587138665
 21
-3.8567256581192373
 31
0.0
  0
LINE
  5
7C
330
17
100
AcDbEntity
  8
0
100
AcDbLine
 10
4.5962666587138665
 20
-3.8567256581192373
 30
0.0
 11
4.91491226573395
 21
-3.441458618106279
 31
0.0
  0
LINE
  5
7D
330
17
100
AcDbEntity
  8
0
100
AcDbLine
 10
4.91491226573395
 20
-3.441458618106279
 30
0.0
 11
5.19615242270663
 21
-3.0000000000000027
 31
0.0
  0
LINE
  5
7E
330
17
100
AcDbEntity
  8
0
100
AcDbLine
 10
5.19615242270663
 20
-3.0000000000000027
 30
0.0
 11
5.4378467222198985
 21
-2.5357095704442
 31
0.0
  0
LINE
  5
7F
330
17
100
AcDbEntity
  8
0
100
AcDbLine
 10
5.4378467222198985
 20
-2.5357095704442
 30
0.0
 11
5.638155724715449
 21
-2.052120859954017
 31
0.0
  0
LINE
  5
80
330
17
100
AcDbEntity
  8
0
100
AcDbLine
 10
5.638155724715449
 20
-2.052120859954017
 30
0.0
 11
5.79555495773441
 21
-1.552914270615124
 31
0.0
  0
LINE
  5
81
330
17
100
AcDbEntity
  8
0
100
AcDbLine
 10
5.79555495773441
 20
-1.552914270615124
 30
0.0
 11
5.908846518073248
 21
-1.0418890660015823
 31
0.0
  0
LINE
  5
82
330
17
100
AcDbEntity
  8
0
100
AcDbLine
 10
5.908846518073248
 20
-1.0418890660015823
 30
0.0
 11
5.977168188550474
 21
-0.5229344564859499
 31
0.0
  0
LINE
  5
83
330
17
100
AcDbEntity
  8
0
100
AcDbLine
 10
5.977168188550474
 20
-0.5229344564859499
 30
0.0
 11
5.977168188550474
 21
-0.5229344564859499
 31
1.0
  0
LINE
  5
84
330
17
100
AcDbEntity
  8
0
100
AcDbLine
 10
6.0
 20
0.0
 30
0.0
 11
6.0
 21
0.0
 31
1.0
  0
LINE
  5
85
330
17
100
AcDbEntity
  8
0
100
AcDbLine
 10
5.977168188550474
 20
-0.5229344564859499
 30
1.0
 11
6.0
 21
0.0
 31
1.0
  0
LINE
  5
86
330
17
100
AcDbEntity
  8
0
100
AcDbLine
 10
5.908846518073248
 20
-1.0418890660015823
 30
0.0
 11
5.908846518073248
 21
-1.0418890660015823
 31
1.0
  0
LINE
  5
87
330
17
100
AcDbEntity
  8
0
100
AcDbLine
 10
5.908846518073248
 20
-1.0418890660015823
 30
1.0
 11
5.977168188550474
 21
-0.5229344564859499
 31
1.0
  0
LINE
  5
88
330
17
100
AcDbEntity
  8
0
100
AcDbLine
 10
5.977168188550474
 20
0.522934456485949
 30
0.0
 11
5.977168188550474
 21
0.522934456485949
 31
1.0
  0
LINE
  5
89
330
17
100
AcDbEntity
  8
0
100
AcDbLine
 10
6.0
 20
0.0
 30
1.0
 11
5.977168188550474
 21
0.522934456485949
 31
1.0
  0
LINE
  5
8A
330
17
100
AcDbEntity
  8
0
100
AcDbLine
 10
5.79555495773441
 20
-1.552914270615124
 30
0.0
 11
5.79555495773441
 21
-1.552914270615124
 31
1.0
  0
LINE
  5
8B
330
17
100
AcDbEntity
  8
0
100
AcDbLine
 10
5.79555495773441
 20
-1.552914270615124
 30
1.0
 11
5.908846518073248
 21
-1.0418890660015823
 31
1.0
  0
LINE
  5
8C
330
17
100
AcDbEntity
  8
0
100
AcDbLine
 10
5.908846518073248
 20
1.041889066001582
 30
0.0
 11
5.908846518073248
 21
1.041889066001582
 31
1.0
  0
LINE
  5
8D
330
17
100
AcDbEntity
  8
0
100
AcDbLine
 10
5.977168188550474
 20
0.522934456485949
 30
1.0
 11
5.908846518073248
 21
1.041889066001582
 31
1.0
  0
LINE
  5
8E
330
17
100
AcDbEntity
  8
0
100
AcDbLine
 10
5.638155724715449
 20
-2.052120859954017
 30
0.0
 11
5.638155724715449
 21
-2.052120859954017
 31
1.0
  0
LINE
  5
8F
330
17
100
AcDbEntity
  8
0
100
AcDbLine
 10
5.638155724715449
 20
-2.052120859954017
 30
1.0
 11
5.79555495773441
 21
-1.552914270615124
 31
1.0
  0
LINE
  5
90
330
17
100
AcDbEntity
  8
0
100
AcDbLine
 10
5.79555495773441
 20
1.5529142706151244
 30
0.0
 11
5.79555495773441
 21
1.5529142706151244
 31
1.0
  0
LINE
  5
91
330
17
100
AcDbEntity
  8
0
100
AcDbLine
 10
5.908846518073248
 20
1.041889066001582
 30
1.0
 11
5.79555495773441
 21
1.5529142706151244
 31
1.0
  0
LINE
  5
92
330
17
100
AcDbEntity
  8
0
100
AcDbLine
 10
5.4378467222198985
 20
-2.5357095704442
 30
0.0
 11
5.4378467222198985
 21
-2.5357095704442
 31
1.0
  0
LINE
  5
93
330
17
100
AcDbEntity
  8
0
100
AcDbLine
 10
5.4378467222198985
 20
-2.5357095704442
 30
1.0
 11
5.638155724715449
 21
-2.052120859954017
 31
1.0
  0
LINE
  5
94
330
17
100
AcDbEntity
  8
0
100
AcDbLine
 10
5.703421778858969
 20
1.845123381861677
 30
0.0
 11
5.703421778858969
 21
1.845123381861677
 31
1.0
  0
LINE
  5
95
330
17
100
AcDbEntity
  8
0
100
AcDbLine
 10
5.79555495773441
 20
1.5529142706151244
 30
1.0
 11
5.703421778858968
 21
1.8451233818616768
 31
1.0
  0
LINE
  5
96
330
17
100
AcDbEntity
  8
0
100
AcDbLine
 10
5.19615242270663
 20
-3.0000000000000027
 30
0.0
 11
5.19615242270663
 21
-3.0000000000000027
 31
1.0
  0
LINE
  5
97
330
17
100
AcDbEntity
  8
0
100
AcDbLine
 10
5.19615242270663
 20
-3.0000000000000027
 30
1.0
 11
5.4378467222198985
 21
-2.5357095704442
 31
1.0
  0
LINE
  5
98
330
17
100
AcDbEntity
  8
0
100
AcDbLine
 10
3.528705382688978
 20
-4.847965468655798
 30
1.0
 11
3.528705382688978
 21
-4.847965468655798
 31
0.0
  0
LINE
  5
99
330
17
100
AcDbEntity
  8
0
100
AcDbLine
 10
3.528705382688978
 20
-4.847965468655797
 30
1.0
 11
5.703421778858969
 21
1.845123381861677
 31
1.0
  0
LINE
  5
9A
330
17
100
AcDbEntity
  8
0
100
AcDbLine
 10
5.706339097770921
 20
1.8541019662496843
 30
0.0
 11
5.706339097770921
 21
1.8541019662496843
 31
2.0
  0
LINE
  5
9B
330
17
100
AcDbEntity
  8
0
100
AcDbLine
 10
3.5267115137548375
 20
-4.854101966249686
 30
2.0
 11
5.706339097770921
 21
1.8541019662496838
 31
2.0
  0
LINE
  5
9C
330
17
100
AcDbEntity
  8
0
100
AcDbLine
 10
3.5267115137548375
 20
-4.854101966249686
 30
0.0
 11
3.5267115137548375
 21
-4.854101966249686
 31
2.0
  0
LINE
  5
9D
330
17
100
AcDbEntity
  8
0
100
AcDbLine
 10
4.91491226573395
 20
-3.441458618106279
 30
0.0
 11
4.91491226573395
 21
-3.441458618106279
 31
1.0
  0
LINE
  5
9E
330
17
100
AcDbEntity
  8
0
100
AcDbLine
 10
4.91491226573395
 20
-3.441458618106279
 30
1.0
 11
5.19615242270663
 21
-3.0000000000000027
 31
1.0
  0
LINE
  5
9F
330
17
100
AcDbEntity
  8
0
100
AcDbLine
 10
5.698882759075348
 20
1.8595193134152297
 30
1.0
 11
5.698882759075348
 21
1.8595193134152297
 31
0.0
  0
LINE
  5
A0
330
17
100
AcDbEntity
  8
0
100
AcDbLine
 10
5.698882759075348
 20
1.85951931341523
 30
1.0
 11
-8.881784197001252e-16
 21
6.0
 31
1.0
  0
LINE
  5
A1
330
17
100
AcDbEntity
  8
0
100
AcDbLine
 10
3.6739403974420594e-16
 20
6.0
 30
1.0
 11
3.6739403974420594e-16
 21
6.0
 31
2.0
  0
LINE
  5
A2
330
17
100
AcDbEntity
  8
0
100
AcDbLine
 10
5.706339097770921
 20
1.8541019662496843
 30
2.0
 11
0.0
 21
6.0
 31
2.0
  0
LINE
  5
A3
330
17
100
AcDbEntity
  8
0
100
AcDbLine
 10
4.5962666587138665
 20
-3.8567256581192373
 30
0.0
 11
4.5962666587138665
 21
-3.8567256581192373
 31
1.0
  0
LINE
  5
A4
330
17
100
AcDbEntity
  8
0
100
AcDbLine
 10
4.5962666587138665
 20
-3.8567256581192373
 30
1.0
 11
4.91491226573395
 21
-3.441458618106279
 31
1.0
  0
LINE
  5
A5
330
17
100
AcDbEntity
  8
0
100
AcDbLine
 10
5.638155724715451
 20
2.0521208599540124
 30
0.0
 11
5.638155724715451
 21
2.0521208599540124
 31
1.0
  0
LINE
  5
A6
330
17
100
AcDbEntity
  8
0
100
AcDbLine
 10
5.698882759075348
 20
1.85951931341523
 30
1.0
 11
5.638155724715451
 21
2.0521208599540124
 31
1.0
  0
LINE
  5
A7
330
17
100
AcDbEntity
  8
0
100
AcDbLine
 10
4.242640687119284
 20
-4.242640687119286
 30
0.0
 11
4.242640687119284
 21
-4.242640687119286
 31
1.0
  0
LINE
  5
A8
330
17
100
AcDbEntity
  8
0
100
AcDbLine
 10
4.242640687119284
 20
-4.242640687119286
 30
1.0
 11
4.5962666587138665
 21
-3.8567256581192373
 31
1.0
  0
LINE
  5
A9
330
17
100
AcDbEntity
  8
0
100
AcDbLine
 10
5.437846722219899
 20
2.5357095704441965
 30
0.0
 11
5.437846722219899
 21
2.5357095704441965
 31
1.0
  0
LINE
  5
AA
330
17
100
AcDbEntity
  8
0
100
AcDbLine
 10
5.638155724715451
 20
2.0521208599540124
 30
1.0
 11
5.437846722219899
 21
2.5357095704441965
 31
1.0
  0
LINE
  5
AB
330
17
100
AcDbEntity
  8
0
100
AcDbLine
 10
3.8567256581192355
 20
-4.596266658713869
 30
0.0
 11
3.8567256581192355
 21
-4.596266658713869
 31
1.0
  0
LINE
  5
AC
330
17
100
AcDbEntity
  8
0
100
AcDbLine
 10
3.8567256581192355
 20
-4.596266658713869
 30
1.0
 11
4.242640687119284
 21
-4.242640687119286
 31
1.0
  0
LINE
  5
AD
330
17
100
AcDbEntity
  8
0
100
AcDbLine
 10
5.196152422706632
 20
2.9999999999999996
 30
0.0
 11
5.196152422706632
 21
2.9999999999999996
 31
1.0
  0
LINE
  5
AE
330
17
100
AcDbEntity
  8
0
100
AcDbLine
 10
5.437846722219899
 20
2.5357095704441965
 30
1.0
 11
5.196152422706632
 21
2.9999999999999996
 31
1.0
  0
LINE
  5
AF
330
17
100
AcDbEntity
  8
0
100
AcDbLine
 10
3.528705382688978
 20
-4.847965468655797
 30
1.0
 11
3.8567256581192355
 21
-4.596266658713869
 31
1.0
  0
LINE
  5
B0
330
17
100
AcDbEntity
  8
0
100
AcDbLine
 10
4.914912265733951
 20
3.4414586181062763
 30
0.0
 11
4.914912265733951
 21
3.4414586181062763
 31
1.0
  0
LINE
  5
B1
330
17
100
AcDbEntity
  8
0
100
AcDbLine
 10
5.196152422706632
 20
2.9999999999999996
 30
1.0
 11
4.914912265733951
 21
3.4414586181062763
 31
1.0
  0
LINE
  5
B2
330
17
100
AcDbEntity
  8
0
100
AcDbLine
 10
4.596266658713868
 20
3.8567256581192355
 30
0.0
 11
4.596266658713868
 21
3.8567256581192355
 31
1.0
  0
LINE
  5
B3
330
17
100
AcDbEntity
  8
0
100
AcDbLine
 10
4.914912265733951
 20
3.4414586181062763
 30
1.0
 11
4.596266658713868
 21
3.8567256581192355
 31
1.0
  0
LINE
  5
B4
330
17
100
AcDbEntity
  8
0
100
AcDbLine
 10
-3.520708143324246
 20
-4.854101966249684
 30
1.0
 11
-3.520708143324246
 21
-4.854101966249684
 31
0.0
  0
LINE
  5
B5
330
17
100
AcDbEntity
  8
0
100
AcDbLine
 10
-3.5207081433242458
 20
-4.854101966249685
 30
1.0
 11
3.520708143324243
 21
-4.854101966249686
 31
1.0
  0
LINE
  5
B6
330
17
100
AcDbEntity
  8
0
100
AcDbLine
 10
3.520708143324246
 20
-4.854101966249686
 30
0.0
 11
3.520708143324246
 21
-4.854101966249686
 31
1.0
  0
LINE
  5
B7
330
17
100
AcDbEntity
  8
0
100
AcDbLine
 10
-3.5267115137548393
 20
-4.854101966249684
 30
2.0
 11
3.5267115137548375
 21
-4.854101966249686
 31
2.0
  0
LINE
  5
B8
330
17
100
AcDbEntity
  8
0
100
AcDbLine
 10
-3.5267115137548393
 20
-4.854101966249684
 30
0.0
 11
-3.5267115137548393
 21
-4.854101966249684
 31
2.0
  0
LINE
  5
B9
330
17
100
AcDbEntity
  8
0
100
AcDbLine
 10
4.242640687119286
 20
4.242640687119285
 30
0.0
 11
4.242640687119286
 21
4.242640687119285
 31
1.0
  0
LINE
  5
BA
330
17
100
AcDbEntity
  8
0
100
AcDbLine
 10
4.596266658713868
 20
3.8567256581192355
 30
1.0
 11
4.242640687119286
 21
4.242640687119285
 31
1.0
  0
LINE
  5
BB
330
17
100
AcDbEntity
  8
0
100
AcDbLine
 10
3.4414586181062763
 20
-4.914912265733951
 30
1.0
 11
3.520708143324243
 21
-4.854101966249686
 31
1.0
  0
LINE
  5
BC
330
17
100
AcDbEntity
  8
0
100
AcDbLine
 10
3.4414586181062763
 20
-4.914912265733951
 30
0.0
 11
3.4414586181062763
 21
-4.914912265733951
 31
1.0
  0
LINE
  5
BD
330
17
100
AcDbEntity
  8
0
100
AcDbLine
 10
3.8567256581192364
 20
4.596266658713868
 30
0.0
 11
3.8567256581192364
 21
4.596266658713868
 31
1.0
  0
LINE
  5
BE
330
17
100
AcDbEntity
  8
0
100
AcDbLine
 10
4.242640687119286
 20
4.242640687119285
 30
1.0
 11
3.8567256581192364
 21
4.596266658713868
 31
1.0
  0
LINE
  5
BF
330
17
100
AcDbEntity
  8
0
100
AcDbLine
 10
3.000000000000001
 20
-5.196152422706632
 30
0.0
 11
3.000000000000001
 21
-5.196152422706632
 31
1.0
  0
LINE
  5
C0
330
17
100
AcDbEntity
  8
0
100
AcDbLine
 10
3.000000000000001
 20
-5.196152422706632
 30
1.0
 11
3.4414586181062763
 21
-4.914912265733951
 31
1.0
  0
LINE
  5
C1
330
17
100
AcDbEntity
  8
0
100
AcDbLine
 10
3.441458618106277
 20
4.914912265733951
 30
0.0
 11
3.441458618106277
 21
4.914912265733951
 31
1.0
  0
LINE
  5
C2
330
17
100
AcDbEntity
  8
0
100
AcDbLine
 10
3.8567256581192364
 20
4.596266658713868
 30
1.0
 11
3.441458618106277
 21
4.914912265733951
 31
1.0
  0
LINE
  5
C3
330
17
100
AcDbEntity
  8
0
100
AcDbLine
 10
2.535709570444193
 20
-5.437846722219902
 30
0.0
 11
2.535709570444193
 21
-5.437846722219902
 31
1.0
  0
LINE
  5
C4
330
17
100
AcDbEntity
  8
0
100
AcDbLine
 10
2.535709570444193
 20
-5.437846722219902
 30
1.0
 11
3.000000000000001
 21
-5.196152422706632
 31
1.0
  0
LINE
  5
C5
330
17
100
AcDbEntity
  8
0
100
AcDbLine
 10
3.000000000000001
 20
5.196152422706632
 30
0.0
 11
3.000000000000001
 21
5.196152422706632
 31
1.0
  0
LINE
  5
C6
330
17
100
AcDbEntity
  8
0
100
AcDbLine
 10
3.441458618106277
 20
4.914912265733951
 30
1.0
 11
3.000000000000001
 21
5.196152422706632
 31
1.0
  0
LINE
  5
C7
330
17
100
AcDbEntity
  8
0
100
AcDbLine
 10
2.052120859954009
 20
-5.6381557247154515
 30
0.0
 11
2.052120859954009
 21
-5.6381557247154515
 31
1.0
  0
LINE
  5
C8
330
17
100
AcDbEntity
  8
0
100
AcDbLine
 10
2.052120859954009
 20
-5.6381557247154515
 30
1.0
 11
2.535709570444193
 21
-5.437846722219902
 31
1.0
  0
LINE
  5
C9
330
17
100
AcDbEntity
  8
0
100
AcDbLine
 10
2.5357095704441965
 20
5.437846722219899
 30
0.0
 11
2.5357095704441965
 21
5.437846722219899
 31
1.0
  0
LINE
  5
CA
330
17
100
AcDbEntity
  8
0
100
AcDbLine
 10
3.000000000000001
 20
5.196152422706632
 30
1.0
 11
2.5357095704441965
 21
5.437846722219899
 31
1.0
  0
LINE
  5
CB
330
17
100
AcDbEntity
  8
0
100
AcDbLine
 10
1.5529142706151218
 20
-5.79555495773441
 30
0.0
 11
1.5529142706151218
 21
-5.79555495773441
 31
1.0
  0
LINE
  5
CC
330
17
100
AcDbEntity
  8
0
100
AcDbLine
 10
1.5529142706151218
 20
-5.79555495773441
 30
1.0
 11
2.052120859954009
 21
-5.6381557247154515
 31
1.0
  0
LINE
  5
CD
330
17
100
AcDbEntity
  8
0
100
AcDbLine
 10
2.052120859954013
 20
5.63815572471545
 30
0.0
 11
2.052120859954013
 21
5.63815572471545
 31
1.0
  0
LINE
  5
CE
330
17
100
AcDbEntity
  8
0
100
AcDbLine
 10
2.5357095704441965
 20
5.437846722219899
 30
1.0
 11
2.052120859954013
 21
5.63815572471545
 31
1.0
  0
LINE
  5
CF
330
17
100
AcDbEntity
  8
0
100
AcDbLine
 10
1.0418890660015798
 20
-5.908846518073249
 30
0.0
 11
1.0418890660015798
 21
-5.908846518073249
 31
1.0
  0
LINE
  5
D0
330
17
100
AcDbEntity
  8
0
100
AcDbLine
 10
1.0418890660015798
 20
-5.908846518073249
 30
1.0
 11
1.5529142706151218
 21
-5.79555495773441
 31
1.0
  0
LINE
  5
D1
330
17
100
AcDbEntity
  8
0
100
AcDbLine
 10
1.5529142706151244
 20
5.79555495773441
 30
0.0
 11
1.5529142706151244
 21
5.79555495773441
 31
1.0
  0
LINE
  5
D2
330
17
100
AcDbEntity
  8
0
100
AcDbLine
 10
2.052120859954013
 20
5.63815572471545
 30
1.0
 11
1.5529142706151244
 21
5.79555495773441
 31
1.0
  0
LINE
  5
D3
330
17
100
AcDbEntity
  8
0
100
AcDbLine
 10
0.5229344564859473
 20
-5.977168188550474
 30
0.0
 11
0.5229344564859473
 21
-5.977168188550474
 31
1.0
  0
LINE
  5
D4
330
17
100
AcDbEntity
  8
0
100
AcDbLine
 10
0.5229344564859473
 20
-5.977168188550474
 30
1.0
 11
1.0418890660015798
 21
-5.908846518073249
 31
1.0
  0
LINE
  5
D5
330
17
100
AcDbEntity
  8
0
100
AcDbLine
 10
1.0418890660015825
 20
5.908846518073248
 30
0.0
 11
1.0418890660015825
 21
5.908846518073248
 31
1.0
  0
LINE
  5
D6
330
17
100
AcDbEntity
  8
0
100
AcDbLine
 10
1.5529142706151244
 20
5.79555495773441
 30
1.0
 11
1.0418890660015825
 21
5.908846518073248
 31
1.0
  0
LINE
  5
D7
330
17
100
AcDbEntity
  8
0
100
AcDbLine
 10
-1.102182119232618e-15
 20
-6.0
 30
0.0
 11
-1.102182119232618e-15
 21
-6.0
 31
1.0
  0
LINE
  5
D8
330
17
100
AcDbEntity
  8
0
100
AcDbLine
 10
-1.102182119232618e-15
 20
-6.0
 30
1.0
 11
0.5229344564859473
 21
-5.977168188550474
 31
1.0
  0
LINE
  5
D9
330
17
100
AcDbEntity
  8
0
100
AcDbLine
 10
0.5229344564859502
 20
5.977168188550474
 30
0.0
 11
0.5229344564859502
 21
5.977168188550474
 31
1.0
  0
LINE
  5
DA
330
17
100
AcDbEntity
  8
0
100
AcDbLine
 10
1.0418890660015825
 20
5.908846518073248
 30
1.0
 11
0.5229344564859502
 21
5.977168188550474
 31
1.0
  0
LINE
  5
DB
330
17
100
AcDbEntity
  8
0
100
AcDbLine
 10
-0.5229344564859495
 20
-5.977168188550474
 30
0.0
 11
-0.5229344564859495
 21
-5.977168188550474
 31
1.0
  0
LINE
  5
DC
330
17
100
AcDbEntity
  8
0
100
AcDbLine
 10
-0.5229344564859495
 20
-5.977168188550474
 30
1.0
 11
-1.1102230246251565e-15
 21
-6.0
 31
1.0
  0
LINE
  5
DD
330
17
100
AcDbEntity
  8
0
100
AcDbLine
 10
3.6739403974420594e-16
 20
6.0
 30
0.0
 11
3.6739403974420594e-16
 21
6.0
 31
1.0
  0
LINE
  5
DE
330
17
100
AcDbEntity
  8
0
100
AcDbLine
 10
0.5229344564859502
 20
5.977168188550474
 30
1.0
 11
3.3306690738754696e-16
 21
6.0
 31
1.0
  0
LINE
  5
DF
330
17
100
AcDbEntity
  8
0
100
AcDbLine
 10
-1.041889066001582
 20
-5.908846518073248
 30
0.0
 11
-1.041889066001582
 21
-5.908846518073248
 31
1.0
  0
LINE
  5
E0
330
17
100
AcDbEntity
  8
0
100
AcDbLine
 10
-1.041889066001582
 20
-5.908846518073248
 30
1.0
 11
-0.5229344564859495
 21
-5.977168188550474
 31
1.0
  0
LINE
  5
E1
330
17
100
AcDbEntity
  8
0
100
AcDbLine
 10
-0.522934456485948
 20
5.977168188550474
 30
0.0
 11
-0.522934456485948
 21
5.977168188550474
 31
1.0
  0
LINE
  5
E2
330
17
100
AcDbEntity
  8
0
100
AcDbLine
 10
3.6739403974420594e-16
 20
6.0
 30
1.0
 11
-0.522934456485948
 21
5.977168188550474
 31
1.0
  0
LINE
  5
E3
330
17
100
AcDbEntity
  8
0
100
AcDbLine
 10
-1.5529142706151238
 20
-5.79555495773441
 30
0.0
 11
-1.5529142706151238
 21
-5.79555495773441
 31
1.0
  0
LINE
  5
E4
330
17
100
AcDbEntity
  8
0
100
AcDbLine
 10
-1.5529142706151238
 20
-5.79555495773441
 30
1.0
 11
-1.041889066001582
 21
-5.908846518073248
 31
1.0
  0
LINE
  5
E5
330
17
100
AcDbEntity
  8
0
100
AcDbLine
 10
-1.0418890660015818
 20
5.908846518073248
 30
0.0
 11
-1.0418890660015818
 21
5.908846518073248
 31
1.0
  0
LINE
  5
E6
330
17
100
AcDbEntity
  8
0
100
AcDbLine
 10
-0.522934456485948
 20
5.977168188550474
 30
1.0
 11
-1.0418890660015818
 21
5.908846518073248
 31
1.0
  0
LINE
  5
E7
330
17
100
AcDbEntity
  8
0
100
AcDbLine
 10
-2.0521208599540164
 20
-5.63815572471545
 30
0.0
 11
-2.0521208599540164
 21
-5.63815572471545
 31
1.0
  0
LINE
  5
E8
330
17
100
AcDbEntity
  8
0
100
AcDbLine
 10
-2.0521208599540164
 20
-5.63815572471545
 30
1.0
 11
-1.5529142706151238
 21
-5.79555495773441
 31
1.0
  0
LINE
  5
E9
330
17
100
AcDbEntity
  8
0
100
AcDbLine
 10
-1.5529142706151238
 20
5.79555495773441
 30
0.0
 11
-1.5529142706151238
 21
5.79555495773441
 31
1.0
  0
LINE
  5
EA
330
17
100
AcDbEntity
  8
0
100
AcDbLine
 10
-1.0418890660015818
 20
5.908846518073248
 30
1.0
 11
-1.5529142706151238
 21
5.79555495773441
 31
1.0
  0
LINE
  5
EB
330
17
100
AcDbEntity
  8
0
100
AcDbLine
 10
-2.5357095704441996
 20
-5.4378467222198985
 30
0.0
 11
-2.5357095704441996
 21
-5.4378467222198985
 31
1.0
  0
LINE
  5
EC
330
17
100
AcDbEntity
  8
0
100
AcDbLine
 10
-2.5357095704441996
 20
-5.4378467222198985
 30
1.0
 11
-2.0521208599540164
 21
-5.63815572471545
 31
1.0
  0
LINE
  5
ED
330
17
100
AcDbEntity
  8
0
100
AcDbLine
 10
-2.0521208599540124
 20
5.638155724715451
 30
0.0
 11
-2.0521208599540124
 21
5.638155724715451
 31
1.0
  0
LINE
  5
EE
330
17
100
AcDbEntity
  8
0
100
AcDbLine
 10
-1.5529142706151238
 20
5.79555495773441
 30
1.0
 11
-2.0521208599540124
 21
5.638155724715451
 31
1.0
  0
LINE
  5
EF
330
17
100
AcDbEntity
  8
0
100
AcDbLine
 10
-3.0000000000000027
 20
-5.19615242270663
 30
0.0
 11
-3.0000000000000027
 21
-5.19615242270663
 31
1.0
  0
LINE
  5
F0
330
17
100
AcDbEntity
  8
0
100
AcDbLine
 10
-3.0000000000000027
 20
-5.19615242270663
 30
1.0
 11
-2.5357095704441996
 21
-5.4378467222198985
 31
1.0
  0
LINE
  5
F1
330
17
100
AcDbEntity
  8
0
100
AcDbLine
 10
-2.535709570444196
 20
5.4378467222199
 30
0.0
 11
-2.535709570444196
 21
5.4378467222199
 31
1.0
  0
LINE
  5
F2
330
17
100
AcDbEntity
  8
0
100
AcDbLine
 10
-2.0521208599540124
 20
5.638155724715451
 30
1.0
 11
-2.535709570444196
 21
5.4378467222199
 31
1.0
  0
LINE
  5
F3
330
17
100
AcDbEntity
  8
0
100
AcDbLine
 10
-3.441458618106278
 20
-4.91491226573395
 30
0.0
 11
-3.441458618106278
 21
-4.91491226573395
 31
1.0
  0
LINE
  5
F4
330
17
100
AcDbEntity
  8
0
100
AcDbLine
 10
-3.441458618106278
 20
-4.91491226573395
 30
1.0
 11
-3.0000000000000027
 21
-5.19615242270663
 31
1.0
  0
LINE
  5
F5
330
17
100
AcDbEntity
  8
0
100
AcDbLine
 10
-2.9999999999999987
 20
5.196152422706632
 30
0.0
 11
-2.9999999999999987
 21
5.196152422706632
 31
1.0
  0
LINE
  5
F6
330
17
100
AcDbEntity
  8
0
100
AcDbLine
 10
-2.535709570444196
 20
5.4378467222199
 30
1.0
 11
-2.9999999999999987
 21
5.196152422706632
 31
1.0
  0
LINE
  5
F7
330
17
100
AcDbEntity
  8
0
100
AcDbLine
 10
-3.5207081433242458
 20
-4.854101966249684
 30
1.0
 11
-3.441458618106278
 21
-4.91491226573395
 31
1.0
  0
LINE
  5
F8
330
17
100
AcDbEntity
  8
0
100
AcDbLine
 10
-3.441458618106275
 20
4.914912265733952
 30
0.0
 11
-3.441458618106275
 21
4.914912265733952
 31
1.0
  0
LINE
  5
F9
330
17
100
AcDbEntity
  8
0
100
AcDbLine
 10
-2.9999999999999987
 20
5.196152422706632
 30
1.0
 11
-3.441458618106275
 21
4.914912265733952
 31
1.0
  0
LINE
  5
FA
330
17
100
AcDbEntity
  8
0
100
AcDbLine
 10
-3.8567256581192364
 20
4.596266658713868
 30
0.0
 11
-3.8567256581192364
 21
4.596266658713868
 31
1.0
  0
LINE
  5
FB
330
17
100
AcDbEntity
  8
0
100
AcDbLine
 10
-3.441458618106275
 20
4.914912265733952
 30
1.0
 11
-3.8567256581192364
 21
4.596266658713868
 31
1.0
  0
LINE
  5
FC
330
17
100
AcDbEntity
  8
0
100
AcDbLine
 10
-5.703421778858967
 20
1.845123381861676
 30
1.0
 11
-5.703421778858967
 21
1.845123381861676
 31
0.0
  0
LINE
  5
FD
330
17
100
AcDbEntity
  8
0
100
AcDbLine
 10
-5.703421778858969
 20
1.8451233818616766
 30
1.0
 11
-3.5287053826889805
 21
-4.847965468655795
 31
1.0
  0
LINE
  5
FE
330
17
100
AcDbEntity
  8
0
100
AcDbLine
 10
-3.528705382688979
 20
-4.847965468655796
 30
0.0
 11
-3.528705382688979
 21
-4.847965468655796
 31
1.0
  0
LINE
  5
FF
330
17
100
AcDbEntity
  8
0
100
AcDbLine
 10
-5.706339097770921
 20
1.8541019662496852
 30
2.0
 11
-3.5267115137548393
 21
-4.854101966249685
 31
2.0
  0
LINE
  5
100
330
17
100
AcDbEntity
  8
0
100
AcDbLine
 10
-5.706339097770921
 20
1.8541019662496852
 30
0.0
 11
-5.706339097770921
 21
1.8541019662496852
 31
2.0
  0
LINE
  5
101
330
17
100
AcDbEntity
  8
0
100
AcDbLine
 10
-4.242640687119285
 20
4.242640687119286
 30
0.0
 11
-4.242640687119285
 21
4.242640687119286
 31
1.0
  0
LINE
  5
102
330
17
100
AcDbEntity
  8
0
100
AcDbLine
 10
-3.8567256581192364
 20
4.596266658713868
 30
1.0
 11
-4.242640687119285
 21
4.242640687119286
 31
1.0
  0
LINE
  5
103
330
17
100
AcDbEntity
  8
0
100
AcDbLine
 10
-3.856725658119237
 20
-4.596266658713867
 30
1.0
 11
-3.5287053826889796
 21
-4.847965468655795
 31
1.0
  0
LINE
  5
104
330
17
100
AcDbEntity
  8
0
100
AcDbLine
 10
-3.856725658119237
 20
-4.596266658713867
 30
0.0
 11
-3.856725658119237
 21
-4.596266658713867
 31
1.0
  0
LINE
  5
105
330
17
100
AcDbEntity
  8
0
100
AcDbLine
 10
-4.596266658713867
 20
3.856725658119237
 30
0.0
 11
-4.596266658713867
 21
3.856725658119237
 31
1.0
  0
LINE
  5
106
330
17
100
AcDbEntity
  8
0
100
AcDbLine
 10
-4.242640687119285
 20
4.242640687119286
 30
1.0
 11
-4.596266658713867
 21
3.856725658119237
 31
1.0
  0
LINE
  5
107
330
17
100
AcDbEntity
  8
0
100
AcDbLine
 10
-4.242640687119286
 20
-4.242640687119285
 30
0.0
 11
-4.242640687119286
 21
-4.242640687119285
 31
1.0
  0
LINE
  5
108
330
17
100
AcDbEntity
  8
0
100
AcDbLine
 10
-4.242640687119286
 20
-4.242640687119285
 30
1.0
 11
-3.856725658119237
 21
-4.596266658713867
 31
1.0
  0
LINE
  5
109
330
17
100
AcDbEntity
  8
0
100
AcDbLine
 10
-4.91491226573395
 20
3.441458618106278
 30
0.0
 11
-4.91491226573395
 21
3.441458618106278
 31
1.0
  0
LINE
  5
10A
330
17
100
AcDbEntity
  8
0
100
AcDbLine
 10
-4.596266658713867
 20
3.856725658119237
 30
1.0
 11
-4.91491226573395
 21
3.441458618106278
 31
1.0
  0
LINE
  5
10B
330
17
100
AcDbEntity
  8
0
100
AcDbLine
 10
-4.596266658713868
 20
-3.8567256581192355
 30
0.0
 11
-4.596266658713868
 21
-3.8567256581192355
 31
1.0
  0
LINE
  5
10C
330
17
100
AcDbEntity
  8
0
100
AcDbLine
 10
-4.596266658713868
 20
-3.8567256581192355
 30
1.0
 11
-4.242640687119286
 21
-4.242640687119285
 31
1.0
  0
LINE
  5
10D
330
17
100
AcDbEntity
  8
0
100
AcDbLine
 10
-5.196152422706632
 20
2.9999999999999996
 30
0.0
 11
-5.196152422706632
 21
2.9999999999999996
 31
1.0
  0
LINE
  5
10E
330
17
100
AcDbEntity
  8
0
100
AcDbLine
 10
-4.91491226573395
 20
3.441458618106278
 30
1.0
 11
-5.196152422706632
 21
2.9999999999999996
 31
1.0
  0
LINE
  5
10F
330
17
100
AcDbEntity
  8
0
100
AcDbLine
 10
-4.914912265733952
 20
-3.441458618106275
 30
0.0
 11
-4.914912265733952
 21
-3.441458618106275
 31
1.0
  0
LINE
  5
110
330
17
100
AcDbEntity
  8
0
100
AcDbLine
 10
-4.914912265733952
 20
-3.441458618106275
 30
1.0
 11
-4.596266658713868
 21
-3.8567256581192355
 31
1.0
  0
LINE
  5
111
330
17
100
AcDbEntity
  8
0
100
AcDbLine
 10
-5.437846722219899
 20
2.535709570444197
 30
0.0
 11
-5.437846722219899
 21
2.535709570444197
 31
1.0
  0
LINE
  5
112
330
17
100
AcDbEntity
  8
0
100
AcDbLine
 10
-5.196152422706632
 20
2.9999999999999996
 30
1.0
 11
-5.437846722219899
 21
2.535709570444197
 31
1.0
  0
LINE
  5
113
330
17
100
AcDbEntity
  8
0
100
AcDbLine
 10
-5.196152422706633
 20
-2.9999999999999982
 30
0.0
 11
-5.196152422706633
 21
-2.9999999999999982
 31
1.0
  0
LINE
  5
114
330
17
100
AcDbEntity
  8
0
100
AcDbLine
 10
-5.196152422706633
 20
-2.9999999999999982
 30
1.0
 11
-4.914912265733952
 21
-3.441458618106275
 31
1.0
  0
LINE
  5
115
330
17
100
AcDbEntity
  8
0
100
AcDbLine
 10
-5.63815572471545
 20
2.0521208599540133
 30
0.0
 11
-5.63815572471545
 21
2.0521208599540133
 31
1.0
  0
LINE
  5
116
330
17
100
AcDbEntity
  8
0
100
AcDbLine
 10
-5.437846722219899
 20
2.535709570444197
 30
1.0
 11
-5.63815572471545
 21
2.0521208599540133
 31
1.0
  0
LINE
  5
117
330
17
100
AcDbEntity
  8
0
100
AcDbLine
 10
-5.4378467222199
 20
-2.5357095704441956
 30
0.0
 11
-5.4378467222199
 21
-2.5357095704441956
 31
1.0
  0
LINE
  5
118
330
17
100
AcDbEntity
  8
0
100
AcDbLine
 10
-5.4378467222199
 20
-2.5357095704441956
 30
1.0
 11
-5.196152422706633
 21
-2.9999999999999982
 31
1.0
  0
LINE
  5
119
330
17
100
AcDbEntity
  8
0
100
AcDbLine
 10
-5.698882759075347
 20
1.8595193134152312
 30
0.0
 11
-5.698882759075347
 21
1.8595193134152312
 31
1.0
  0
LINE
  5
11A
330
17
100
AcDbEntity
  8
0
100
AcDbLine
 10
-5.63815572471545
 20
2.0521208599540133
 30
1.0
 11
-5.698882759075347
 21
1.8595193134152315
 31
1.0
  0
LINE
  5
11B
330
17
100
AcDbEntity
  8
0
100
AcDbLine
 10
-5.638155724715451
 20
-2.052120859954012
 30
0.0
 11
-5.638155724715451
 21
-2.052120859954012
 31
1.0
  0
LINE
  5
11C
330
17
100
AcDbEntity
  8
0
100
AcDbLine
 10
-5.638155724715451
 20
-2.052120859954012
 30
1.0
 11
-5.4378467222199
 21
-2.5357095704441956
 31
1.0
  0
LINE
  5
11D
330
17
100
AcDbEntity
  8
0
100
AcDbLine
 10
-4.440892098500626e-16
 20
6.0
 30
1.0
 11
-5.698882759075348
 21
1.8595193134152317
 31
1.0
  0
LINE
  5
11E
330
17
100
AcDbEntity
  8
0
100
AcDbLine
 10
3.6739403974420594e-16
 20
6.0
 30
2.0
 11
-5.706339097770921
 21
1.8541019662496847
 31
2.0
  0
LINE
  5
11F
330
17
100
AcDbEntity
  8
0
100
AcDbLine
 10
-5.79555495773441
 20
-1.5529142706151249
 30
0.0
 11
-5.79555495773441
 21
-1.5529142706151249
 31
1.0
  0
LINE
  5
120
330
17
100
AcDbEntity
  8
0
100
AcDbLine
 10
-5.79555495773441
 20
-1.5529142706151249
 30
1.0
 11
-5.638155724715451
 21
-2.052120859954012
 31
1.0
  0
LINE
  5
121
330
17
100
AcDbEntity
  8
0
100
AcDbLine
 10
-5.908846518073249
 20
-1.04188906600158
 30
0.0
 11
-5.908846518073249
 21
-1.04188906600158
 31
1.0
  0
LINE
  5
122
330
17
100
AcDbEntity
  8
0
100
AcDbLine
 10
-5.908846518073249
 20
-1.04188906600158
 30
1.0
 11
-5.79555495773441
 21
-1.5529142706151249
 31
1.0
  0
LINE
  5
123
330
17
100
AcDbEntity
  8
0
100
AcDbLine
 10
-5.795554957734409
 20
1.5529142706151262
 30
0.0
 11
-5.795554957734409
 21
1.5529142706151262
 31
1.0
  0
LINE
  5
124
330
17
100
AcDbEntity
  8
0
100
AcDbLine
 10
-5.703421778858967
 20
1.845123381861677
 30
1.0
 11
-5.795554957734409
 21
1.5529142706151262
 31
1.0
  0
LINE
  5
125
330
17
100
AcDbEntity
  8
0
100
AcDbLine
 10
-5.977168188550474
 20
-0.5229344564859477
 30
0.0
 11
-5.977168188550474
 21
-0.5229344564859477
 31
1.0
  0
LINE
  5
126
330
17
100
AcDbEntity
  8
0
100
AcDbLine
 10
-5.977168188550474
 20
-0.5229344564859477
 30
1.0
 11
-5.908846518073249
 21
-1.04188906600158
 31
1.0
  0
LINE
  5
127
330
17
100
AcDbEntity
  8
0
100
AcDbLine
 10
-5.908846518073248
 20
1.041889066001584
 30
0.0
 11
-5.908846518073248
 21
1.041889066001584
 31
1.0
  0
LINE
  5
128
330
17
100
AcDbEntity
  8
0
100
AcDbLine
 10
-5.795554957734409
 20
1.5529142706151262
 30
1.0
 11
-5.908846518073248
 21
1.041889066001584
 31
1.0
  0
LINE
  5
129
330
17
100
AcDbEntity
  8
0
100
AcDbLine
 10
-6.0
 20
7.347880794884119e-16
 30
0.0
 11
-6.0
 21
7.347880794884119e-16
 31
1.0
  0
LINE
  5
12A
330
17
100
AcDbEntity
  8
0
100
AcDbLine
 10
-6.0
 20
7.347880794884119e-16
 30
1.0
 11
-5.977168188550474
 21
-0.5229344564859477
 31
1.0
  0
LINE
  5
12B
330
17
100
AcDbEntity
  8
0
100
AcDbLine
 10
-5.977168188550474
 20
0.5229344564859492
 30
0.0
 11
-5.977168188550474
 21
0.5229344564859492
 31
1.0
  0
LINE
  5
12C
330
17
100
AcDbEntity
  8
0
100
AcDbLine
 10
-5.908846518073248
 20
1.041889066001584
 30
1.0
 11
-5.977168188550474
 21
0.5229344564859492
 31
1.0
  0
LINE
  5
12D
330
17
100
AcDbEntity
  8
0
100
AcDbLine
 10
-5.977168188550474
 20
0.5229344564859492
 30
1.0
 11
-6.0
 21
7.771561172376096e-16
 31
1.0
  0
LINE
  5
12E
330
17
100
AcDbEntity
  8
0
100
AcDbLine
 10
0.012691830708770252
 20
-1.454339748587719
 30
2.0
 11
0.0007039731665163529
 21
-1.413869419766986
 31
2.0
  0
LINE
  5
12F
330
17
100
AcDbEntity
  8
0
100
AcDbLine
 10
0.08596769670770574
 20
-1.6403613716088963
 30
2.0
 11
0.01269183070877039
 21
-1.4543397485877194
 31
2.0
  0
LINE
  5
130
330
17
100
AcDbEntity
  8
0
100
AcDbLine
 10
0.1751775786354618
 20
-1.8192887136663993
 30
2.0
 11
0.08596769670770554
 21
-1.640361371608896
 31
2.0
  0
LINE
  5
131
330
17
100
AcDbEntity
  8
0
100
AcDbLine
 10
0.2796425354241689
 20
-1.989760029647887
 30
2.0
 11
0.1751775786354618
 21
-1.819288713666399
 31
2.0
  0
LINE
  5
132
330
17
100
AcDbEntity
  8
0
100
AcDbLine
 10
0.39856752567499987
 20
-2.1504779299053465
 30
2.0
 11
0.27964253542416884
 21
-1.9897600296478868
 31
2.0
  0
LINE
  5
133
330
17
100
AcDbEntity
  8
0
100
AcDbLine
 10
0.5310474584032729
 20
-2.3002192541736957
 30
2.0
 11
0.3985675256749999
 21
-2.1504779299053465
 31
2.0
  0
LINE
  5
134
330
17
100
AcDbEntity
  8
0
100
AcDbLine
 10
0.6760740813273558
 20
-2.4378443805589702
 30
2.0
 11
0.5310474584032732
 21
-2.3002192541736957
 31
2.0
  0
LINE
  5
135
330
17
100
AcDbEntity
  8
0
100
AcDbLine
 10
0.8325436542773267
 20
-2.562305898749054
 30
2.0
 11
0.6760740813273555
 21
-2.4378443805589702
 31
2.0
  0
LINE
  5
136
330
17
100
AcDbEntity
  8
0
100
AcDbLine
 10
0.999265349324125
 20
-2.6726565814386007
 30
1.9999999999999998
 11
0.8325436542773268
 21
-2.562305898749054
 31
1.9999999999999998
  0
LINE
  5
137
330
17
100
AcDbEntity
  8
0
100
AcDbLine
 10
1.1749703136991332
 20
-2.768056593300781
 30
2.0
 11
0.9992653493241248
 21
-2.6726565814386016
 31
2.0
  0
LINE
  5
138
330
17
100
AcDbEntity
  8
0
100
AcDbLine
 10
1.358321326529899
 20
-2.847779882641219
 30
2.0
 11
1.1749703136991332
 21
-2.7680565933007806
 31
2.0
  0
LINE
  5
139
330
17
100
AcDbEntity
  8
0
100
AcDbLine
 10
1.5479229758984119
 20
-2.9112197070897965
 30
2.0
 11
1.3583213265298988
 21
-2.847779882641219
 31
2.0
  0
LINE
  5
13A
330
17
100
AcDbEntity
  8
0
100
AcDbLine
 10
1.7423322787683717
 20
-2.9578932512764466
 30
2.0
 11
1.5479229758984119
 21
-2.9112197070897965
 31
2.0
  0
LINE
  5
13B
330
17
100
AcDbEntity
  8
0
100
AcDbLine
 10
1.9400696629573901
 20
-2.987445301347652
 30
2.0
 11
1.7423322787683713
 21
-2.957893251276446
 31
2.0
  0
LINE
  5
13C
330
17
100
AcDbEntity
  8
0
100
AcDbLine
 10
2.139630227574693
 20
-2.999650948358357
 30
2.0
 11
1.9400696629573901
 21
-2.9874453013476523
 31
2.0
  0
LINE
  5
13D
330
17
100
AcDbEntity
  8
0
100
AcDbLine
 10
2.177871306105546
 20
-2.998649570475227
 30
2.0
 11
2.139630227574693
 21
-2.9996509483583567
 31
2.0
  0
LINE
  5
13E
330
17
100
AcDbEntity
  8
0
100
AcDbLine
 10
2.2030157745904257
 20
-2.9235006756183024
 30
2.0
 11
2.1778713061055455
 21
-2.998649570475227
 31
2.0
  0
LINE
  5
13F
330
17
100
AcDbEntity
  8
0
100
AcDbLine
 10
2.2496893187770763
 20
-2.7290913727483432
 30
2.0
 11
2.203015774590426
 21
-2.9235006756183024
 31
2.0
  0
LINE
  5
140
330
17
100
AcDbEntity
  8
0
100
AcDbLine
 10
2.279241368848283
 20
-2.531353988559325
 30
2.0
 11
2.249689318777077
 21
-2.7290913727483437
 31
2.0
  0
LINE
  5
141
330
17
100
AcDbEntity
  8
0
100
AcDbLine
 10
2.2914470158589872
 20
-2.3317934239420213
 30
2.0
 11
2.2792413688482824
 21
-2.5313539885593244
 31
2.0
  0
LINE
  5
142
330
17
100
AcDbEntity
  8
0
100
AcDbLine
 10
2.286213367465467
 20
-2.131928455291134
 30
2.0
 11
2.2914470158589872
 21
-2.3317934239420213
 31
2.0
  0
LINE
  5
143
330
17
100
AcDbEntity
  8
0
100
AcDbLine
 10
2.2635802548921613
 20
-1.9332801756998657
 30
2.0
 11
2.286213367465468
 21
-2.1319284552911344
 31
2.0
  0
LINE
  5
144
330
17
100
AcDbEntity
  8
0
100
AcDbLine
 10
2.223719929791997
 20
-1.7373604185230151
 30
2.0
 11
2.2635802548921604
 21
-1.933280175699866
 31
2.0
  0
LINE
  5
145
330
17
100
AcDbEntity
  8
0
100
AcDbLine
 10
2.1669357533073126
 20
-1.5456602514122824
 30
2.0
 11
2.223719929791997
 21
-1.737360418523015
 31
2.0
  0
LINE
  5
146
330
17
100
AcDbEntity
  8
0
100
AcDbLine
 10
2.0936598873083776
 20
-1.3596386283911057
 30
2.0
 11
2.166935753307312
 21
-1.5456602514122826
 31
2.0
  0
LINE
  5
147
330
17
100
AcDbEntity
  8
0
100
AcDbLine
 10
2.004450005380622
 20
-1.1807112863336027
 30
2.0
 11
2.093659887308378
 21
-1.3596386283911057
 31
2.0
  0
LINE
  5
148
330
17
100
AcDbEntity
  8
0
100
AcDbLine
 10
1.8999850485919145
 20
-1.0102399703521148
 30
2.0
 11
2.0044500053806216
 21
-1.180711286333603
 31
2.0
  0
LINE
  5
149
330
17
100
AcDbEntity
  8
0
100
AcDbLine
 10
1.7810600583410827
 20
-0.849522070094654
 30
2.0
 11
1.8999850485919145
 21
-1.0102399703521148
 31
2.0
  0
LINE
  5
14A
330
17
100
AcDbEntity
  8
0
100
AcDbLine
 10
1.6485801256128099
 20
-0.6997807458263048
 30
2.0
 11
1.781060058341083
 21
-0.8495220700946542
 31
2.0
  0
LINE
  5
14B
330
17
100
AcDbEntity
  8
0
100
AcDbLine
 10
1.503553502688727
 20
-0.5621556194410302
 30
2.0
 11
1.6485801256128094
 21
-0.6997807458263048
 31
2.0
  0
LINE
  5
14C
330
17
100
AcDbEntity
  8
0
100
AcDbLine
 10
1.3470839297387565
 20
-0.4376941012509467
 30
2.0
 11
1.5035535026887272
 21
-0.5621556194410304
 31
2.0
  0
LINE
  5
14D
330
17
100
AcDbEntity
  8
0
100
AcDbLine
 10
1.3448872645318777
 20
-0.4362401602677326
 30
2.0
 11
1.3470839297387567
 21
-0.43769410125094677
 31
2.0
  0
LINE
  5
14E
330
17
100
AcDbEntity
  8
0
100
AcDbLine
 10
1.3870812861801456
 20
-0.4373450496093027
 30
2.0
 11
1.3448872645318777
 21
-0.43624016026773255
 31
2.0
  0
LINE
  5
14F
330
17
100
AcDbEntity
  8
0
100
AcDbLine
 10
1.5866418507974487
 20
-0.42513940259859834
 30
2.0
 11
1.3870812861801456
 21
-0.43734504960930265
 31
2.0
  0
LINE
  5
150
330
17
100
AcDbEntity
  8
0
100
AcDbLine
 10
1.7843792349864676
 20
-0.3955873525273922
 30
2.0
 11
1.5866418507974482
 21
-0.4251394025985983
 31
2.0
  0
LINE
  5
151
330
17
100
AcDbEntity
  8
0
100
AcDbLine
 10
1.9787885378564272
 20
-0.34891380834074215
 30
2.0
 11
1.784379234986468
 21
-0.3955873525273923
 31
2.0
  0
LINE
  5
152
330
17
100
AcDbEntity
  8
0
100
AcDbLine
 10
2.16839018722494
 20
-0.28547398389216444
 30
2.0
 11
1.978788537856427
 21
-0.3489138083407421
 31
2.0
  0
LINE
  5
153
330
17
100
AcDbEntity
  8
0
100
AcDbLine
 10
2.351741200055706
 20
-0.20575069455172623
 30
2.0
 11
2.16839018722494
 21
-0.2854739838921645
 31
2.0
  0
LINE
  5
154
330
17
100
AcDbEntity
  8
0
100
AcDbLine
 10
2.527446164430714
 20
-0.11035068268954751
 30
2.0
 11
2.351741200055706
 21
-0.2057506945517264
 31
2.0
  0
LINE
  5
155
330
17
100
AcDbEntity
  8
0
100
AcDbLine
 10
2.694167859477513
 20
-1.1102230246251565e-16
 30
2.0
 11
2.527446164430714
 21
-0.11035068268954751
 31
2.0
  0
LINE
  5
156
330
17
100
AcDbEntity
  8
0
100
AcDbLine
 10
2.850637432427483
 20
0.12446151819008333
 30
2.0
 11
2.6941678594775125
 21
-3.3306690738754696e-16
 31
2.0
  0
LINE
  5
157
330
17
100
AcDbEntity
  8
0
100
AcDbLine
 10
2.9956640553515657
 20
0.262086644575358
 30
2.0
 11
2.850637432427483
 21
0.12446151819008333
 31
2.0
  0
LINE
  5
158
330
17
100
AcDbEntity
  8
0
100
AcDbLine
 10
3.1281439880798394
 20
0.4118279688437073
 30
2.0
 11
2.995664055351566
 21
0.2620866445753578
 31
2.0
  0
LINE
  5
159
330
17
100
AcDbEntity
  8
0
100
AcDbLine
 10
3.2470689783306703
 20
0.5725458691011668
 30
2.0
 11
3.128143988079839
 21
0.4118279688437071
 31
2.0
  0
LINE
  5
15A
330
17
100
AcDbEntity
  8
0
100
AcDbLine
 10
3.3515339351193774
 20
0.7430171850826547
 30
2.0
 11
3.2470689783306703
 21
0.5725458691011667
 31
2.0
  0
LINE
  5
15B
330
17
100
AcDbEntity
  8
0
100
AcDbLine
 10
3.4407438170471334
 20
0.9219445271401573
 30
2.0
 11
3.3515339351193774
 21
0.7430171850826546
 31
2.0
  0
LINE
  5
15C
330
17
100
AcDbEntity
  8
0
100
AcDbLine
 10
3.514019683046069
 20
1.1079661501613336
 30
2.0
 11
3.440743817047133
 21
0.9219445271401573
 31
2.0
  0
LINE
  5
15D
330
17
100
AcDbEntity
  8
0
100
AcDbLine
 10
3.5248844592343045
 20
1.1446450198719347
 30
2.0
 11
3.514019683046069
 21
1.1079661501613336
 31
2.0
  0
LINE
  5
15E
330
17
100
AcDbEntity
  8
0
100
AcDbLine
 10
3.4611836811646004
 20
1.1917811160925438
 30
2.0
 11
3.5248844592343045
 21
1.144645019871935
 31
2.0
  0
LINE
  5
15F
330
17
100
AcDbEntity
  8
0
100
AcDbLine
 10
3.2907123651831127
 20
1.2962460728812508
 30
2.0
 11
3.461183681164601
 21
1.1917811160925436
 31
2.0
  0
LINE
  5
160
330
17
100
AcDbEntity
  8
0
100
AcDbLine
 10
3.1117850231256097
 20
1.3854559548090069
 30
2.0
 11
3.2907123651831123
 21
1.2962460728812508
 31
2.0
  0
LINE
  5
161
330
17
100
AcDbEntity
  8
0
100
AcDbLine
 10
2.925763400104434
 20
1.4587318208079427
 30
2.0
 11
3.1117850231256106
 21
1.3854559548090069
 31
2.0
  0
LINE
  5
162
330
17
100
AcDbEntity
  8
0
100
AcDbLine
 10
2.7340632329937
 20
1.5155159972926278
 30
2.0
 11
2.925763400104434
 21
1.4587318208079427
 31
2.0
  0
LINE
  5
163
330
17
100
AcDbEntity
  8
0
100
AcDbLine
 10
2.538143475816849
 20
1.5553763223927914
 30
2.0
 11
2.7340632329937
 21
1.515515997292628
 31
2.0
  0
LINE
  5
164
330
17
100
AcDbEntity
  8
0
100
AcDbLine
 10
2.33949519622558
 20
1.5780094349660976
 30
2.0
 11
2.538143475816849
 21
1.5553763223927912
 31
2.0
  0
LINE
  5
165
330
17
100
AcDbEntity
  8
0
100
AcDbLine
 10
2.1396302275746946
 20
1.583243083359618
 30
2.0
 11
2.33949519622558
 21
1.5780094349660978
 31
2.0
  0
LINE
  5
166
330
17
100
AcDbEntity
  8
0
100
AcDbLine
 10
1.9400696629573915
 20
1.5710374363489137
 30
2.0
 11
2.1396302275746946
 21
1.5832430833596176
 31
2.0
  0
LINE
  5
167
330
17
100
AcDbEntity
  8
0
100
AcDbLine
 10
1.7423322787683722
 20
1.5414853862777078
 30
2.0
 11
1.9400696629573912
 21
1.571037436348914
 31
2.0
  0
LINE
  5
168
330
17
100
AcDbEntity
  8
0
100
AcDbLine
 10
1.5479229758984134
 20
1.4948118420910577
 30
2.0
 11
1.7423322787683726
 21
1.5414853862777078
 31
2.0
  0
LINE
  5
169
330
17
100
AcDbEntity
  8
0
100
AcDbLine
 10
1.3583213265298988
 20
1.4313720176424796
 30
2.0
 11
1.5479229758984132
 21
1.4948118420910577
 31
2.0
  0
LINE
  5
16A
330
17
100
AcDbEntity
  8
0
100
AcDbLine
 10
1.1749703136991334
 20
1.3516487283020415
 30
2.0
 11
1.3583213265298988
 21
1.4313720176424796
 31
2.0
  0
LINE
  5
16B
330
17
100
AcDbEntity
  8
0
100
AcDbLine
 10
0.9992653493241253
 20
1.2562487164398624
 30
2.0
 11
1.1749703136991334
 21
1.3516487283020413
 31
2.0
  0
LINE
  5
16C
330
17
100
AcDbEntity
  8
0
100
AcDbLine
 10
0.8325436542773268
 20
1.1458980337503155
 30
2.0
 11
0.9992653493241253
 21
1.2562487164398624
 31
2.0
  0
LINE
  5
16D
330
17
100
AcDbEntity
  8
0
100
AcDbLine
 10
0.8304820673510549
 20
1.1442581734638257
 30
2.0
 11
0.832543654277327
 21
1.1458980337503155
 31
2.0
  0
LINE
  5
16E
330
17
100
AcDbEntity
  8
0
100
AcDbLine
 10
0.8445715493094794
 20
1.1840456431176611
 30
2.0
 11
0.8304820673510548
 21
1.1442581734638257
 31
2.0
  0
LINE
  5
16F
330
17
100
AcDbEntity
  8
0
100
AcDbLine
 10
0.8946308950581574
 20
1.3776107708461367
 30
2.0
 11
0.8445715493094798
 21
1.1840456431176611
 31
2.0
  0
LINE
  5
170
330
17
100
AcDbEntity
  8
0
100
AcDbLine
 10
0.927629437405711
 20
1.5748022842848841
 30
2.0
 11
0.8946308950581573
 21
1.377610770846137
 31
2.0
  0
LINE
  5
171
330
17
100
AcDbEntity
  8
0
100
AcDbLine
 10
0.9433160375198115
 20
1.7741194369491415
 30
2.0
 11
0.9276294374057112
 21
1.574802284284884
 31
2.0
  0
LINE
  5
172
330
17
100
AcDbEntity
  8
0
100
AcDbLine
 10
0.9415713109017615
 20
1.9740453049561486
 30
2.0
 11
0.9433160375198113
 21
1.7741194369491415
 31
2.0
  0
LINE
  5
173
330
17
100
AcDbEntity
  8
0
100
AcDbLine
 10
0.9224085359746196
 20
2.1730583317318315
 30
2.0
 11
0.9415713109017616
 21
1.9740453049561486
 31
2.0
  0
LINE
  5
174
330
17
100
AcDbEntity
  8
0
100
AcDbLine
 10
0.8859735530263818
 20
2.3696439079750755
 30
2.0
 11
0.9224085359746198
 21
2.1730583317318315
 31
2.0
  0
LINE
  5
175
330
17
100
AcDbEntity
  8
0
100
AcDbLine
 10
0.8325436542773273
 20
2.562305898749054
 30
2.0
 11
0.8859735530263817
 21
2.3696439079750755
 31
2.0
  0
LINE
  5
176
330
17
100
AcDbEntity
  8
0
100
AcDbLine
 10
0.7625254735187921
 20
2.7495780299714854
 30
2.0
 11
0.8325436542773272
 21
2.562305898749054
 31
2.0
  0
LINE
  5
177
330
17
100
AcDbEntity
  8
0
100
AcDbLine
 10
0.6764518913844814
 20
2.9300350476457644
 30
2.0
 11
0.7625254735187919
 21
2.7495780299714854
 31
2.0
  0
LINE
  5
178
330
17
100
AcDbEntity
  8
0
100
AcDbLine
 10
0.5749779798070882
 20
3.102303564904462
 30
1.9999999999999998
 11
0.6764518913844813
 21
2.9300350476457644
 31
1.9999999999999998
  0
LINE
  5
179
330
17
100
AcDbEntity
  8
0
100
AcDbLine
 10
0.4588760165253385
 20
3.2650725143126653
 30
2.0
 11
0.5749779798070884
 21
3.102303564904462
 31
2.0
  0
LINE
  5
17A
330
17
100
AcDbEntity
  8
0
100
AcDbLine
 10
0.3290296075840895
 20
3.4171031258827984
 30
2.0
 11
0.4588760165253387
 21
3.2650725143126653
 31
2.0
  0
LINE
  5
17B
330
17
100
AcDbEntity
  8
0
100
AcDbLine
 10
0.18642696255878888
 20
3.5572383548622195
 30
2.0
 11
0.3290296075840896
 21
3.4171031258827984
 31
2.0
  0
LINE
  5
17C
330
17
100
AcDbEntity
  8
0
100
AcDbLine
 10
0.03215337368391058
 20
3.684411687542431
 30
2.0
 11
0.18642696255878854
 21
3.557238354862219
 31
2.0
  0
LINE
  5
17D
330
17
100
AcDbEntity
  8
0
100
AcDbLine
 10
0.000627096117547965
 20
3.7060790978093814
 30
2.0
 11
0.03215337368391091
 21
3.684411687542431
 31
2.0
  0
LINE
  5
17E
330
17
100
AcDbEntity
  8
0
100
AcDbLine
 10
-0.06388661832422293
 20
3.660061912513778
 30
2.0
 11
0.0006270961175481871
 21
3.7060790978093805
 31
2.0
  0
LINE
  5
17F
330
17
100
AcDbEntity
  8
0
100
AcDbLine
 10
-0.21591722989435613
 20
3.5302155035725296
 30
2.0
 11
-0.06388661832422315
 21
3.660061912513779
 31
2.0
  0
LINE
  5
180
330
17
100
AcDbEntity
  8
0
100
AcDbLine
 10
-0.3560524588737771
 20
3.3876128585472287
 30
2.0
 11
-0.2159172298943559
 21
3.530215503572529
 31
2.0
  0
LINE
  5
181
330
17
100
AcDbEntity
  8
0
100
AcDbLine
 10
-0.48322579155398926
 20
3.233339269672351
 30
2.0
 11
-0.35605245887377723
 21
3.3876128585472296
 31
2.0
  0
LINE
  5
182
330
17
100
AcDbEntity
  8
0
100
AcDbLine
 10
-0.5964693620839371
 20
3.068568852112172
 30
2.0
 11
-0.48322579155398915
 21
3.233339269672351
 31
2.0
  0
LINE
  5
183
330
17
100
AcDbEntity
  8
0
100
AcDbLine
 10
-0.694921318513551
 20
2.894555608235425
 30
2.0
 11
-0.5964693620839373
 21
3.0685688521121723
 31
2.0
  0
LINE
  5
184
330
17
100
AcDbEntity
  8
0
100
AcDbLine
 10
-0.7778323820074833
 20
2.7126238839000805
 30
2.0
 11
-0.6949213185135505
 21
2.894555608235425
 31
2.0
  0
LINE
  5
185
330
17
100
AcDbEntity
  8
0
100
AcDbLine
 10
-0.8445715493094783
 20
2.5241582893817096
 30
2.0
 11
-0.7778323820074833
 21
2.71262388390008
 31
2.0
  0
LINE
  5
186
330
17
100
AcDbEntity
  8
0
100
AcDbLine
 10
-0.8946308950581563
 20
2.330593161653234
 30
2.0
 11
-0.8445715493094782
 21
2.524158289381709
 31
2.0
  0
LINE
  5
187
330
17
100
AcDbEntity
  8
0
100
AcDbLine
 10
-0.9276294374057102
 20
2.1334016482144875
 30
2.0
 11
-0.8946308950581563
 21
2.3305931616532343
 31
2.0
  0
LINE
  5
188
330
17
100
AcDbEntity
  8
0
100
AcDbLine
 10
-0.9433160375198103
 20
1.9340844955502288
 30
2.0
 11
-0.9276294374057101
 21
2.1334016482144866
 31
2.0
  0
LINE
  5
189
330
17
100
AcDbEntity
  8
0
100
AcDbLine
 10
-0.9415713109017606
 20
1.7341586275432206
 30
2.0
 11
-0.9433160375198103
 21
1.934084495550229
 31
2.0
  0
LINE
  5
18A
330
17
100
AcDbEntity
  8
0
100
AcDbLine
 10
-0.9224085359746186
 20
1.5351456007675384
 30
2.0
 11
-0.9415713109017605
 21
1.7341586275432208
 31
2.0
  0
LINE
  5
18B
330
17
100
AcDbEntity
  8
0
100
AcDbLine
 10
-0.8859735530263807
 20
1.3385600245242943
 30
2.0
 11
-0.9224085359746187
 21
1.5351456007675384
 31
2.0
  0
LINE
  5
18C
330
17
100
AcDbEntity
  8
0
100
AcDbLine
 10
-0.8325436542773265
 20
1.1458980337503162
 30
2.0
 11
-0.8859735530263807
 21
1.3385600245242943
 31
2.0
  0
LINE
  5
18D
330
17
100
AcDbEntity
  8
0
100
AcDbLine
 10
-0.8316211198616459
 20
1.1434306033732495
 30
2.0
 11
-0.8325436542773264
 21
1.145898033750316
 31
2.0
  0
LINE
  5
18E
330
17
100
AcDbEntity
  8
0
100
AcDbLine
 10
-0.8651073627757295
 20
1.1691255012872452
 30
2.0
 11
-0.8316211198616459
 21
1.1434306033732495
 31
2.0
  0
LINE
  5
18F
330
17
100
AcDbEntity
  8
0
100
AcDbLine
 10
-1.0337295502657673
 20
1.2765496822494535
 30
2.0
 11
-0.8651073627757294
 21
1.1691255012872452
 31
2.0
  0
LINE
  5
190
330
17
100
AcDbEntity
  8
0
100
AcDbLine
 10
-1.2110727137047956
 20
1.3688686897764248
 30
2.0
 11
-1.0337295502657673
 21
1.2765496822494535
 31
2.0
  0
LINE
  5
191
330
17
100
AcDbEntity
  8
0
100
AcDbLine
 10
-1.3957871645363131
 20
1.4453799204771378
 30
2.0
 11
-1.2110727137047959
 21
1.368868689776425
 31
2.0
  0
LINE
  5
192
330
17
100
AcDbEntity
  8
0
100
AcDbLine
 10
-1.5864671142558575
 20
1.5055010776872155
 30
2.0
 11
-1.395787164536313
 21
1.4453799204771376
 31
2.0
  0
LINE
  5
193
330
17
100
AcDbEntity
  8
0
100
AcDbLine
 10
-1.781661373310361
 20
1.548774603098142
 30
2.0
 11
-1.5864671142558577
 21
1.5055010776872155
 31
2.0
  0
LINE
  5
194
330
17
100
AcDbEntity
  8
0
100
AcDbLine
 10
-1.979884395526903
 20
1.5748711590522717
 30
2.0
 11
-1.781661373310361
 21
1.548774603098142
 31
2.0
  0
LINE
  5
195
330
17
100
AcDbEntity
  8
0
100
AcDbLine
 10
-2.1796275840160835
 20
1.5835921350012623
 30
2.0
 11
-1.9798843955269032
 21
1.574871159052272
 31
2.0
  0
LINE
  5
196
330
17
100
AcDbEntity
  8
0
100
AcDbLine
 10
-2.379370772505262
 20
1.574871159052272
 30
2.0
 11
-2.1796275840160835
 21
1.5835921350012623
 31
2.0
  0
LINE
  5
197
330
17
100
AcDbEntity
  8
0
100
AcDbLine
 10
-2.577593794721805
 20
1.548774603098142
 30
2.0
 11
-2.379370772505262
 21
1.5748711590522717
 31
2.0
  0
LINE
  5
198
330
17
100
AcDbEntity
  8
0
100
AcDbLine
 10
-2.7727880537763085
 20
1.5055010776872157
 30
2.0
 11
-2.577593794721805
 21
1.5487746030981422
 31
2.0
  0
LINE
  5
199
330
17
100
AcDbEntity
  8
0
100
AcDbLine
 10
-2.9634680034958527
 20
1.4453799204771374
 30
2.0
 11
-2.772788053776308
 21
1.5055010776872153
 31
2.0
  0
LINE
  5
19A
330
17
100
AcDbEntity
  8
0
100
AcDbLine
 10
-3.14818245432737
 20
1.3688686897764248
 30
2.0
 11
-2.963468003495853
 21
1.4453799204771376
 31
2.0
  0
LINE
  5
19B
330
17
100
AcDbEntity
  8
0
100
AcDbLine
 10
-3.325525617766398
 20
1.2765496822494535
 30
2.0
 11
-3.14818245432737
 21
1.3688686897764246
 31
2.0
  0
LINE
  5
19C
330
17
100
AcDbEntity
  8
0
100
AcDbLine
 10
-3.4941478052564356
 20
1.1691255012872457
 30
2.0
 11
-3.325525617766398
 21
1.2765496822494535
 31
2.0
  0
LINE
  5
19D
330
17
100
AcDbEntity
  8
0
100
AcDbLine
 10
-3.5244968925194473
 20
1.1458378275698085
 30
2.0
 11
-3.494147805256436
 21
1.1691255012872457
 31
2.0
  0
LINE
  5
19E
330
17
100
AcDbEntity
  8
0
100
AcDbLine
 10
-3.5006677827152624
 20
1.070261546769915
 30
2.0
 11
-3.524496892519447
 21
1.1458378275698085
 31
2.0
  0
LINE
  5
19F
330
17
100
AcDbEntity
  8
0
100
AcDbLine
 10
-3.42415655201455
 20
0.8855470959383979
 30
2.0
 11
-3.500667782715263
 21
1.070261546769915
 31
2.0
  0
LINE
  5
1A0
330
17
100
AcDbEntity
  8
0
100
AcDbLine
 10
-3.3318375444875783
 20
0.7082039324993699
 30
2.0
 11
-3.424156552014549
 21
0.8855470959383976
 31
2.0
  0
LINE
  5
1A1
330
17
100
AcDbEntity
  8
0
100
AcDbLine
 10
-3.2244133635253713
 20
0.5395817450093319
 30
2.0
 11
-3.331837544487579
 21
0.7082039324993697
 31
2.0
  0
LINE
  5
1A2
330
17
100
AcDbEntity
  8
0
100
AcDbLine
 10
-3.102701572009541
 20
0.38096385013194356
 30
2.0
 11
-3.2244133635253713
 21
0.539581745009332
 31
2.0
  0
LINE
  5
1A3
330
17
100
AcDbEntity
  8
0
100
AcDbLine
 10
-2.967628470165115
 20
0.23355742582332595
 30
2.0
 11
-3.1027015720095408
 21
0.38096385013194345
 31
2.0
  0
LINE
  5
1A4
330
17
100
AcDbEntity
  8
0
100
AcDbLine
 10
-2.8202220458564975
 20
0.09848432397890039
 30
2.0
 11
-2.967628470165115
 21
0.23355742582332595
 31
2.0
  0
LINE
  5
1A5
330
17
100
AcDbEntity
  8
0
100
AcDbLine
 10
-2.66160415097911
 20
-0.023227467536928836
 30
2.0
 11
-2.8202220458564975
 21
0.09848432397890039
 31
2.0
  0
LINE
  5
1A6
330
17
100
AcDbEntity
  8
0
100
AcDbLine
 10
-2.492981963489073
 20
-0.1306516484991373
 30
2.0
 11
-2.6616041509791097
 21
-0.023227467536928836
 31
2.0
  0
LINE
  5
1A7
330
17
100
AcDbEntity
  8
0
100
AcDbLine
 10
-2.3156388000500447
 20
-0.22297065602610872
 30
2.0
 11
-2.492981963489073
 21
-0.1306516484991374
 31
2.0
  0
LINE
  5
1A8
330
17
100
AcDbEntity
  8
0
100
AcDbLine
 10
-2.1309243492185272
 20
-0.29948188672682136
 30
2.0
 11
-2.3156388000500447
 21
-0.2229706560261086
 31
2.0
  0
LINE
  5
1A9
330
17
100
AcDbEntity
  8
0
100
AcDbLine
 10
-1.9402443994989813
 20
-0.3596030439368998
 30
2.0
 11
-2.1309243492185272
 21
-0.2994818867268214
 31
2.0
  0
LINE
  5
1AA
330
17
100
AcDbEntity
  8
0
100
AcDbLine
 10
-1.745050140444478
 20
-0.40287656934782634
 30
2.0
 11
-1.9402443994989815
 21
-0.3596030439368999
 31
2.0
  0
LINE
  5
1AB
330
17
100
AcDbEntity
  8
0
100
AcDbLine
 10
-1.5468271182279358
 20
-0.42897312530195597
 30
2.0
 11
-1.7450501404444778
 21
-0.40287656934782623
 31
2.0
  0
LINE
  5
1AC
330
17
100
AcDbEntity
  8
0
100
AcDbLine
 10
-1.3470839297387565
 20
-0.4376941012509463
 30
2.0
 11
-1.5468271182279358
 21
-0.42897312530195597
 31
2.0
  0
LINE
  5
1AD
330
17
100
AcDbEntity
  8
0
100
AcDbLine
 10
-1.3444521851878024
 20
-0.4375791968023573
 30
2.0
 11
-1.3470839297387565
 21
-0.4376941012509463
 31
2.0
  0
LINE
  5
1AE
330
17
100
AcDbEntity
  8
0
100
AcDbLine
 10
-1.379237303422666
 20
-0.4614863462078846
 30
2.0
 11
-1.3444521851878024
 21
-0.4375791968023573
 31
2.0
  0
LINE
  5
1AF
330
17
100
AcDbEntity
  8
0
100
AcDbLine
 10
-1.533510892297544
 20
-0.5886596788880962
 30
2.0
 11
-1.3792373034226657
 21
-0.46148634620788465
 31
2.0
  0
LINE
  5
1B0
330
17
100
AcDbEntity
  8
0
100
AcDbLine
 10
-1.6761135373228453
 20
-0.7287949078675178
 30
2.0
 11
-1.533510892297544
 21
-0.5886596788880962
 31
2.0
  0
LINE
  5
1B1
330
17
100
AcDbEntity
  8
0
100
AcDbLine
 10
-1.8059599462640943
 20
-0.8808255194376505
 30
2.0
 11
-1.6761135373228453
 21
-0.7287949078675177
 31
2.0
  0
LINE
  5
1B2
330
17
100
AcDbEntity
  8
0
100
AcDbLine
 10
-1.9220619095458438
 20
-1.0435944688458534
 30
2.0
 11
-1.805959946264094
 21
-0.8808255194376502
 31
2.0
  0
LINE
  5
1B3
330
17
100
AcDbEntity
  8
0
100
AcDbLine
 10
-2.0235358211232373
 20
-1.215862986104551
 30
2.0
 11
-1.9220619095458442
 21
-1.0435944688458536
 31
2.0
  0
LINE
  5
1B4
330
17
100
AcDbEntity
  8
0
100
AcDbLine
 10
-2.109609403257547
 20
-1.3963200037788295
 30
2.0
 11
-2.023535821123237
 21
-1.215862986104551
 31
2.0
  0
LINE
  5
1B5
330
17
100
AcDbEntity
  8
0
100
AcDbLine
 10
-2.179627584016083
 20
-1.583592135001262
 30
2.0
 11
-2.109609403257547
 21
-1.3963200037788295
 31
2.0
  0
LINE
  5
1B6
330
17
100
AcDbEntity
  8
0
100
AcDbLine
 10
-2.2330574827651373
 20
-1.7762541257752404
 30
2.0
 11
-2.179627584016083
 21
-1.583592135001262
 31
2.0
  0
LINE
  5
1B7
330
17
100
AcDbEntity
  8
0
100
AcDbLine
 10
-2.269492465713375
 20
-1.972839702018485
 30
2.0
 11
-2.233057482765137
 21
-1.7762541257752402
 31
2.0
  0
LINE
  5
1B8
330
17
100
AcDbEntity
  8
0
100
AcDbLine
 10
-2.2886552406405176
 20
-2.171852728794167
 30
2.0
 11
-2.2694924657133755
 21
-1.972839702018485
 31
2.0
  0
LINE
  5
1B9
330
17
100
AcDbEntity
  8
0
100
AcDbLine
 10
-2.2903999672585673
 20
-2.3717785968011738
 30
2.0
 11
-2.2886552406405176
 21
-2.1718527287941667
 31
2.0
  0
LINE
  5
1BA
330
17
100
AcDbEntity
  8
0
100
AcDbLine
 10
-2.2747133671444675
 20
-2.5710957494654316
 30
2.0
 11
-2.2903999672585673
 21
-2.3717785968011738
 31
2.0
  0
LINE
  5
1BB
330
17
100
AcDbEntity
  8
0
100
AcDbLine
 10
-2.241714824796913
 20
-2.7682872629041784
 30
2.0
 11
-2.274713367144467
 21
-2.5710957494654316
 31
2.0
  0
LINE
  5
1BC
330
17
100
AcDbEntity
  8
0
100
AcDbLine
 10
-2.1916554790482357
 20
-2.961852390632654
 30
2.0
 11
-2.241714824796913
 21
-2.7682872629041784
 31
2.0
  0
LINE
  5
1BD
330
17
100
AcDbEntity
  8
0
100
AcDbLine
 10
-2.1788859689379505
 20
-2.997912374775898
 30
2.0
 11
-2.1916554790482357
 21
-2.9618523906326537
 31
2.0
  0
LINE
  5
1BE
330
17
100
AcDbEntity
  8
0
100
AcDbLine
 10
-2.0996450547155394
 20
-2.9986038997579354
 30
2.0
 11
-2.1788859689379505
 21
-2.997912374775898
 31
2.0
  0
LINE
  5
1BF
330
17
100
AcDbEntity
  8
0
100
AcDbLine
 10
-1.9003279020512822
 20
-2.9829172996438356
 30
2.0
 11
-2.09964505471554
 21
-2.998603899757936
 31
2.0
  0
LINE
  5
1C0
330
17
100
AcDbEntity
  8
0
100
AcDbLine
 10
-1.7031363886125357
 20
-2.949918757296282
 30
2.0
 11
-1.9003279020512822
 21
-2.982917299643835
 31
2.0
  0
LINE
  5
1C1
330
17
100
AcDbEntity
  8
0
100
AcDbLine
 10
-1.50957126088406
 20
-2.8998594115476046
 30
2.0
 11
-1.7031363886125357
 21
-2.949918757296282
 31
2.0
  0
LINE
  5
1C2
330
17
100
AcDbEntity
  8
0
100
AcDbLine
 10
-1.3211056663656877
 20
-2.833120244245609
 30
2.0
 11
-1.5095712608840595
 21
-2.8998594115476046
 31
2.0
  0
LINE
  5
1C3
330
17
100
AcDbEntity
  8
0
100
AcDbLine
 10
-1.1391739420303437
 20
-2.7502091807516766
 30
2.0
 11
-1.3211056663656882
 21
-2.8331202442456096
 31
2.0
  0
LINE
  5
1C4
330
17
100
AcDbEntity
  8
0
100
AcDbLine
 10
-0.9651606981535962
 20
-2.651757224322063
 30
2.0
 11
-1.1391739420303433
 21
-2.7502091807516766
 31
2.0
  0
LINE
  5
1C5
330
17
100
AcDbEntity
  8
0
100
AcDbLine
 10
-0.8003902805934182
 20
-2.5385136537921156
 30
2.0
 11
-0.9651606981535963
 21
-2.6517572243220626
 31
2.0
  0
LINE
  5
1C6
330
17
100
AcDbEntity
  8
0
100
AcDbLine
 10
-0.6461166917185399
 20
-2.411340321111905
 30
2.0
 11
-0.8003902805934182
 21
-2.538513653792116
 31
2.0
  0
LINE
  5
1C7
330
17
100
AcDbEntity
  8
0
100
AcDbLine
 10
-0.5035140466932388
 20
-2.271205092132483
 30
2.0
 11
-0.6461166917185398
 21
-2.4113403211119047
 31
2.0
  0
LINE
  5
1C8
330
17
100
AcDbEntity
  8
0
100
AcDbLine
 10
-0.3736676377519896
 20
-2.119174480562351
 30
2.0
 11
-0.5035140466932388
 21
-2.271205092132484
 31
2.0
  0
LINE
  5
1C9
330
17
100
AcDbEntity
  8
0
100
AcDbLine
 10
-0.25756567447023904
 20
-1.9564055311541462
 30
2.0
 11
-0.37366763775198963
 21
-2.1191744805623505
 31
2.0
  0
LINE
  5
1CA
330
17
100
AcDbEntity
  8
0
100
AcDbLine
 10
-0.15609176289284604
 20
-1.7841370138954489
 30
2.0
 11
-0.2575656744702391
 21
-1.9564055311541462
 31
2.0
  0
LINE
  5
1CB
330
17
100
AcDbEntity
  8
0
100
AcDbLine
 10
-0.07001818075853558
 20
-1.6036799962211703
 30
2.0
 11
-0.15609176289284607
 21
-1.7841370138954489
 31
2.0
  0
LINE
  5
1CC
330
17
100
AcDbEntity
  8
0
100
AcDbLine
 10
-2.498001805406602e-16
 20
-1.4164078649987384
 30
2.0
 11
-0.07001818075853564
 21
-1.6036799962211705
 31
2.0
  0
LINE
  5
1CD
330
17
100
AcDbEntity
  8
0
100
AcDbLine
 10
0.0007039731665163529
 20
-1.413869419766986
 30
2.0
 11
-2.220446049250313e-16
 21
-1.4164078649987384
 31
2.0
  0
LINE
  5
1CE
330
17
100
AcDbEntity
  8
0
100
AcDbLine
 10
0.012691830708770335
 20
-1.4543397485877192
 30
2.0
 11
0.012691830708770335
 21
-1.4543397485877192
 31
3.0
  0
LINE
  5
1CF
330
17
100
AcDbEntity
  8
0
100
AcDbLine
 10
0.000703973166516339
 20
-1.413869419766986
 30
3.0
 11
0.012691830708770245
 21
-1.4543397485877192
 31
3.0
  0
LINE
  5
1D0
330
17
100
AcDbEntity
  8
0
100
AcDbLine
 10
0.0007039731665163856
 20
-1.413869419766986
 30
3.0
 11
0.0007039731665163856
 21
-1.413869419766986
 31
2.0
  0
LINE
  5
1D1
330
17
100
AcDbEntity
  8
0
100
AcDbLine
 10
0.08596769670770554
 20
-1.640361371608896
 30
2.0
 11
0.08596769670770554
 21
-1.640361371608896
 31
3.0
  0
LINE
  5
1D2
330
17
100
AcDbEntity
  8
0
100
AcDbLine
 10
0.012691830708770335
 20
-1.4543397485877192
 30
3.0
 11
0.08596769670770564
 21
-1.640361371608896
 31
3.0
  0
LINE
  5
1D3
330
17
100
AcDbEntity
  8
0
100
AcDbLine
 10
0.1751775786354618
 20
-1.819288713666399
 30
2.0
 11
0.1751775786354618
 21
-1.819288713666399
 31
3.0
  0
LINE
  5
1D4
330
17
100
AcDbEntity
  8
0
100
AcDbLine
 10
0.08596769670770554
 20
-1.640361371608896
 30
3.0
 11
0.17517757863546174
 21
-1.819288713666399
 31
3.0
  0
LINE
  5
1D5
330
17
100
AcDbEntity
  8
0
100
AcDbLine
 10
0.27964253542416884
 20
-1.9897600296478868
 30
2.0
 11
0.27964253542416884
 21
-1.9897600296478868
 31
3.0
  0
LINE
  5
1D6
330
17
100
AcDbEntity
  8
0
100
AcDbLine
 10
0.1751775786354618
 20
-1.819288713666399
 30
3.0
 11
0.27964253542416884
 21
-1.989760029647887
 31
3.0
  0
LINE
  5
1D7
330
17
100
AcDbEntity
  8
0
100
AcDbLine
 10
0.39856752567499987
 20
-2.1504779299053465
 30
2.0
 11
0.39856752567499987
 21
-2.1504779299053465
 31
3.0
  0
LINE
  5
1D8
330
17
100
AcDbEntity
  8
0
100
AcDbLine
 10
0.27964253542416884
 20
-1.9897600296478868
 30
3.0
 11
0.3985675256749998
 21
-2.1504779299053465
 31
3.0
  0
LINE
  5
1D9
330
17
100
AcDbEntity
  8
0
100
AcDbLine
 10
0.531047458403273
 20
-2.3002192541736957
 30
2.0
 11
0.531047458403273
 21
-2.3002192541736957
 31
3.0
  0
LINE
  5
1DA
330
17
100
AcDbEntity
  8
0
100
AcDbLine
 10
0.39856752567499987
 20
-2.1504779299053465
 30
3.0
 11
0.5310474584032729
 21
-2.3002192541736957
 31
3.0
  0
LINE
  5
1DB
330
17
100
AcDbEntity
  8
0
100
AcDbLine
 10
0.6760740813273555
 20
-2.4378443805589702
 30
2.0
 11
0.6760740813273555
 21
-2.4378443805589702
 31
3.0
  0
LINE
  5
1DC
330
17
100
AcDbEntity
  8
0
100
AcDbLine
 10
0.531047458403273
 20
-2.3002192541736957
 30
3.0
 11
0.6760740813273555
 21
-2.43784438055897
 31
3.0
  0
LINE
  5
1DD
330
17
100
AcDbEntity
  8
0
100
AcDbLine
 10
0.8325436542773267
 20
-2.562305898749054
 30
2.0
 11
0.8325436542773267
 21
-2.562305898749054
 31
3.0
  0
LINE
  5
1DE
330
17
100
AcDbEntity
  8
0
100
AcDbLine
 10
0.6760740813273555
 20
-2.4378443805589702
 30
3.0
 11
0.8325436542773266
 21
-2.562305898749054
 31
3.0
  0
LINE
  5
1DF
330
17
100
AcDbEntity
  8
0
100
AcDbLine
 10
0.9992653493241247
 20
-2.672656581438601
 30
2.0
 11
0.9992653493241247
 21
-2.672656581438601
 31
3.0
  0
LINE
  5
1E0
330
17
100
AcDbEntity
  8
0
100
AcDbLine
 10
0.8325436542773267
 20
-2.562305898749054
 30
3.0
 11
0.9992653493241248
 21
-2.6726565814386007
 31
3.0
  0
LINE
  5
1E1
330
17
100
AcDbEntity
  8
0
100
AcDbLine
 10
1.174970313699133
 20
-2.7680565933007806
 30
2.0
 11
1.174970313699133
 21
-2.7680565933007806
 31
3.0
  0
LINE
  5
1E2
330
17
100
AcDbEntity
  8
0
100
AcDbLine
 10
0.9992653493241247
 20
-2.672656581438601
 30
3.0
 11
1.174970313699133
 21
-2.7680565933007806
 31
3.0
  0
LINE
  5
1E3
330
17
100
AcDbEntity
  8
0
100
AcDbLine
 10
1.3583213265298988
 20
-2.847779882641219
 30
2.0
 11
1.3583213265298988
 21
-2.847779882641219
 31
3.0
  0
LINE
  5
1E4
330
17
100
AcDbEntity
  8
0
100
AcDbLine
 10
1.174970313699133
 20
-2.7680565933007806
 30
3.0
 11
1.3583213265298983
 21
-2.847779882641219
 31
3.0
  0
LINE
  5
1E5
330
17
100
AcDbEntity
  8
0
100
AcDbLine
 10
1.5479229758984117
 20
-2.911219707089796
 30
2.0
 11
1.5479229758984117
 21
-2.911219707089796
 31
3.0
  0
LINE
  5
1E6
330
17
100
AcDbEntity
  8
0
100
AcDbLine
 10
1.3583213265298988
 20
-2.847779882641219
 30
3.0
 11
1.5479229758984119
 21
-2.9112197070897965
 31
3.0
  0
LINE
  5
1E7
330
17
100
AcDbEntity
  8
0
100
AcDbLine
 10
1.7423322787683713
 20
-2.957893251276446
 30
2.0
 11
1.7423322787683713
 21
-2.957893251276446
 31
3.0
  0
LINE
  5
1E8
330
17
100
AcDbEntity
  8
0
100
AcDbLine
 10
1.5479229758984117
 20
-2.911219707089796
 30
3.0
 11
1.742332278768371
 21
-2.957893251276446
 31
3.0
  0
LINE
  5
1E9
330
17
100
AcDbEntity
  8
0
100
AcDbLine
 10
1.94006966295739
 20
-2.9874453013476523
 30
2.0
 11
1.94006966295739
 21
-2.9874453013476523
 31
3.0
  0
LINE
  5
1EA
330
17
100
AcDbEntity
  8
0
100
AcDbLine
 10
1.7423322787683713
 20
-2.957893251276446
 30
3.0
 11
1.9400696629573901
 21
-2.987445301347652
 31
3.0
  0
LINE
  5
1EB
330
17
100
AcDbEntity
  8
0
100
AcDbLine
 10
2.139630227574693
 20
-2.999650948358357
 30
2.0
 11
2.139630227574693
 21
-2.999650948358357
 31
3.0
  0
LINE
  5
1EC
330
17
100
AcDbEntity
  8
0
100
AcDbLine
 10
1.94006966295739
 20
-2.9874453013476523
 30
3.0
 11
2.139630227574693
 21
-2.999650948358357
 31
3.0
  0
LINE
  5
1ED
330
17
100
AcDbEntity
  8
0
100
AcDbLine
 10
2.177871306105546
 20
-2.998649570475227
 30
3.0
 11
2.177871306105546
 21
-2.998649570475227
 31
2.0
  0
LINE
  5
1EE
330
17
100
AcDbEntity
  8
0
100
AcDbLine
 10
2.139630227574693
 20
-2.999650948358357
 30
3.0
 11
2.177871306105546
 21
-2.998649570475227
 31
3.0
  0
LINE
  5
1EF
330
17
100
AcDbEntity
  8
0
100
AcDbLine
 10
2.203015774590426
 20
-2.9235006756183024
 30
2.0
 11
2.203015774590426
 21
-2.9235006756183024
 31
3.0
  0
LINE
  5
1F0
330
17
100
AcDbEntity
  8
0
100
AcDbLine
 10
2.1778713061055455
 20
-2.9986495704752265
 30
3.0
 11
2.2030157745904257
 21
-2.9235006756183024
 31
3.0
  0
LINE
  5
1F1
330
17
100
AcDbEntity
  8
0
100
AcDbLine
 10
2.2496893187770763
 20
-2.7290913727483432
 30
2.0
 11
2.2496893187770763
 21
-2.7290913727483432
 31
3.0
  0
LINE
  5
1F2
330
17
100
AcDbEntity
  8
0
100
AcDbLine
 10
2.203015774590426
 20
-2.9235006756183024
 30
3.0
 11
2.2496893187770763
 21
-2.7290913727483432
 31
3.0
  0
LINE
  5
1F3
330
17
100
AcDbEntity
  8
0
100
AcDbLine
 10
2.2792413688482824
 20
-2.5313539885593244
 30
2.0
 11
2.2792413688482824
 21
-2.5313539885593244
 31
3.0
  0
LINE
  5
1F4
330
17
100
AcDbEntity
  8
0
100
AcDbLine
 10
2.2496893187770763
 20
-2.7290913727483432
 30
3.0
 11
2.2792413688482824
 21
-2.5313539885593244
 31
3.0
  0
LINE
  5
1F5
330
17
100
AcDbEntity
  8
0
100
AcDbLine
 10
2.2914470158589872
 20
-2.3317934239420213
 30
2.0
 11
2.2914470158589872
 21
-2.3317934239420213
 31
3.0
  0
LINE
  5
1F6
330
17
100
AcDbEntity
  8
0
100
AcDbLine
 10
2.2792413688482824
 20
-2.5313539885593244
 30
3.0
 11
2.2914470158589872
 21
-2.3317934239420213
 31
3.0
  0
LINE
  5
1F7
330
17
100
AcDbEntity
  8
0
100
AcDbLine
 10
2.286213367465467
 20
-2.131928455291134
 30
2.0
 11
2.286213367465467
 21
-2.131928455291134
 31
3.0
  0
LINE
  5
1F8
330
17
100
AcDbEntity
  8
0
100
AcDbLine
 10
2.2914470158589872
 20
-2.3317934239420213
 30
3.0
 11
2.286213367465467
 21
-2.131928455291134
 31
3.0
  0
LINE
  5
1F9
330
17
100
AcDbEntity
  8
0
100
AcDbLine
 10
2.2635802548921604
 20
-1.9332801756998657
 30
2.0
 11
2.2635802548921604
 21
-1.9332801756998657
 31
3.0
  0
LINE
  5
1FA
330
17
100
AcDbEntity
  8
0
100
AcDbLine
 10
2.286213367465467
 20
-2.131928455291134
 30
3.0
 11
2.263580254892161
 21
-1.9332801756998654
 31
3.0
  0
LINE
  5
1FB
330
17
100
AcDbEntity
  8
0
100
AcDbLine
 10
2.223719929791997
 20
-1.737360418523015
 30
2.0
 11
2.223719929791997
 21
-1.737360418523015
 31
3.0
  0
LINE
  5
1FC
330
17
100
AcDbEntity
  8
0
100
AcDbLine
 10
2.2635802548921604
 20
-1.9332801756998657
 30
3.0
 11
2.2237199297919967
 21
-1.7373604185230151
 31
3.0
  0
LINE
  5
1FD
330
17
100
AcDbEntity
  8
0
100
AcDbLine
 10
2.166935753307312
 20
-1.5456602514122826
 30
2.0
 11
2.166935753307312
 21
-1.5456602514122826
 31
3.0
  0
LINE
  5
1FE
330
17
100
AcDbEntity
  8
0
100
AcDbLine
 10
2.223719929791997
 20
-1.737360418523015
 30
3.0
 11
2.1669357533073126
 21
-1.5456602514122824
 31
3.0
  0
LINE
  5
1FF
330
17
100
AcDbEntity
  8
0
100
AcDbLine
 10
2.0936598873083776
 20
-1.3596386283911057
 30
2.0
 11
2.0936598873083776
 21
-1.3596386283911057
 31
3.0
  0
LINE
  5
200
330
17
100
AcDbEntity
  8
0
100
AcDbLine
 10
2.166935753307312
 20
-1.5456602514122826
 30
3.0
 11
2.093659887308377
 21
-1.359638628391106
 31
3.0
  0
LINE
  5
201
330
17
100
AcDbEntity
  8
0
100
AcDbLine
 10
2.0044500053806216
 20
-1.1807112863336027
 30
2.0
 11
2.0044500053806216
 21
-1.1807112863336027
 31
3.0
  0
LINE
  5
202
330
17
100
AcDbEntity
  8
0
100
AcDbLine
 10
2.0936598873083776
 20
-1.3596386283911057
 30
3.0
 11
2.0044500053806216
 21
-1.1807112863336027
 31
3.0
  0
LINE
  5
203
330
17
100
AcDbEntity
  8
0
100
AcDbLine
 10
1.8999850485919143
 20
-1.0102399703521148
 30
2.0
 11
1.8999850485919143
 21
-1.0102399703521148
 31
3.0
  0
LINE
  5
204
330
17
100
AcDbEntity
  8
0
100
AcDbLine
 10
2.0044500053806216
 20
-1.1807112863336027
 30
3.0
 11
1.8999850485919143
 21
-1.0102399703521148
 31
3.0
  0
LINE
  5
205
330
17
100
AcDbEntity
  8
0
100
AcDbLine
 10
1.7810600583410827
 20
-0.8495220700946542
 30
2.0
 11
1.7810600583410827
 21
-0.8495220700946542
 31
3.0
  0
LINE
  5
206
330
17
100
AcDbEntity
  8
0
100
AcDbLine
 10
1.8999850485919143
 20
-1.0102399703521148
 30
3.0
 11
1.7810600583410825
 21
-0.8495220700946541
 31
3.0
  0
LINE
  5
207
330
17
100
AcDbEntity
  8
0
100
AcDbLine
 10
1.6485801256128096
 20
-0.6997807458263048
 30
2.0
 11
1.6485801256128096
 21
-0.6997807458263048
 31
3.0
  0
LINE
  5
208
330
17
100
AcDbEntity
  8
0
100
AcDbLine
 10
1.7810600583410827
 20
-0.8495220700946542
 30
3.0
 11
1.6485801256128096
 21
-0.6997807458263049
 31
3.0
  0
LINE
  5
209
330
17
100
AcDbEntity
  8
0
100
AcDbLine
 10
1.503553502688727
 20
-0.5621556194410304
 30
2.0
 11
1.503553502688727
 21
-0.5621556194410304
 31
3.0
  0
LINE
  5
20A
330
17
100
AcDbEntity
  8
0
100
AcDbLine
 10
1.6485801256128096
 20
-0.6997807458263048
 30
3.0
 11
1.5035535026887272
 21
-0.5621556194410304
 31
3.0
  0
LINE
  5
20B
330
17
100
AcDbEntity
  8
0
100
AcDbLine
 10
1.3470839297387567
 20
-0.4376941012509467
 30
2.0
 11
1.3470839297387567
 21
-0.4376941012509467
 31
3.0
  0
LINE
  5
20C
330
17
100
AcDbEntity
  8
0
100
AcDbLine
 10
1.503553502688727
 20
-0.5621556194410304
 30
3.0
 11
1.3470839297387565
 21
-0.4376941012509467
 31
3.0
  0
LINE
  5
20D
330
17
100
AcDbEntity
  8
0
100
AcDbLine
 10
1.3448872645318777
 20
-0.43624016026773255
 30
3.0
 11
1.3448872645318777
 21
-0.43624016026773255
 31
2.0
  0
LINE
  5
20E
330
17
100
AcDbEntity
  8
0
100
AcDbLine
 10
1.3470839297387567
 20
-0.4376941012509467
 30
3.0
 11
1.3448872645318777
 21
-0.43624016026773255
 31
3.0
  0
LINE
  5
20F
330
17
100
AcDbEntity
  8
0
100
AcDbLine
 10
1.3870812861801456
 20
-0.43734504960930265
 30
2.0
 11
1.3870812861801456
 21
-0.43734504960930265
 31
3.0
  0
LINE
  5
210
330
17
100
AcDbEntity
  8
0
100
AcDbLine
 10
1.3448872645318777
 20
-0.43624016026773255
 30
3.0
 11
1.3870812861801454
 21
-0.4373450496093027
 31
3.0
  0
LINE
  5
211
330
17
100
AcDbEntity
  8
0
100
AcDbLine
 10
1.5866418507974485
 20
-0.4251394025985984
 30
2.0
 11
1.5866418507974485
 21
-0.4251394025985984
 31
3.0
  0
LINE
  5
212
330
17
100
AcDbEntity
  8
0
100
AcDbLine
 10
1.3870812861801456
 20
-0.43734504960930265
 30
3.0
 11
1.5866418507974487
 21
-0.42513940259859834
 31
3.0
  0
LINE
  5
213
330
17
100
AcDbEntity
  8
0
100
AcDbLine
 10
1.7843792349864678
 20
-0.3955873525273923
 30
2.0
 11
1.7843792349864678
 21
-0.3955873525273923
 31
3.0
  0
LINE
  5
214
330
17
100
AcDbEntity
  8
0
100
AcDbLine
 10
1.5866418507974485
 20
-0.4251394025985984
 30
3.0
 11
1.7843792349864678
 21
-0.3955873525273923
 31
3.0
  0
LINE
  5
215
330
17
100
AcDbEntity
  8
0
100
AcDbLine
 10
1.978788537856427
 20
-0.34891380834074215
 30
2.0
 11
1.978788537856427
 21
-0.34891380834074215
 31
3.0
  0
LINE
  5
216
330
17
100
AcDbEntity
  8
0
100
AcDbLine
 10
1.7843792349864678
 20
-0.3955873525273923
 30
3.0
 11
1.978788537856427
 21
-0.34891380834074215
 31
3.0
  0
LINE
  5
217
330
17
100
AcDbEntity
  8
0
100
AcDbLine
 10
2.16839018722494
 20
-0.2854739838921645
 30
2.0
 11
2.16839018722494
 21
-0.2854739838921645
 31
3.0
  0
LINE
  5
218
330
17
100
AcDbEntity
  8
0
100
AcDbLine
 10
1.978788537856427
 20
-0.34891380834074215
 30
3.0
 11
2.16839018722494
 21
-0.2854739838921645
 31
3.0
  0
LINE
  5
219
330
17
100
AcDbEntity
  8
0
100
AcDbLine
 10
2.351741200055706
 20
-0.20575069455172645
 30
2.0
 11
2.351741200055706
 21
-0.20575069455172645
 31
3.0
  0
LINE
  5
21A
330
17
100
AcDbEntity
  8
0
100
AcDbLine
 10
2.16839018722494
 20
-0.2854739838921645
 30
3.0
 11
2.3517412000557054
 21
-0.20575069455172645
 31
3.0
  0
LINE
  5
21B
330
17
100
AcDbEntity
  8
0
100
AcDbLine
 10
2.527446164430714
 20
-0.11035068268954751
 30
2.0
 11
2.527446164430714
 21
-0.11035068268954751
 31
3.0
  0
LINE
  5
21C
330
17
100
AcDbEntity
  8
0
100
AcDbLine
 10
2.351741200055706
 20
-0.20575069455172645
 30
3.0
 11
2.527446164430714
 21
-0.11035068268954752
 31
3.0
  0
LINE
  5
21D
330
17
100
AcDbEntity
  8
0
100
AcDbLine
 10
2.6941678594775125
 20
-2.220446049250313e-16
 30
2.0
 11
2.6941678594775125
 21
-2.220446049250313e-16
 31
3.0
  0
LINE
  5
21E
330
17
100
AcDbEntity
  8
0
100
AcDbLine
 10
2.527446164430714
 20
-0.11035068268954751
 30
3.0
 11
2.694167859477513
 21
-2.0816681711721685e-16
 31
3.0
  0
LINE
  5
21F
330
17
100
AcDbEntity
  8
0
100
AcDbLine
 10
2.850637432427483
 20
0.12446151819008322
 30
2.0
 11
2.850637432427483
 21
0.12446151819008322
 31
3.0
  0
LINE
  5
220
330
17
100
AcDbEntity
  8
0
100
AcDbLine
 10
2.6941678594775125
 20
-2.220446049250313e-16
 30
3.0
 11
2.850637432427483
 21
0.12446151819008333
 31
3.0
  0
LINE
  5
221
330
17
100
AcDbEntity
  8
0
100
AcDbLine
 10
2.9956640553515657
 20
0.2620866445753578
 30
2.0
 11
2.9956640553515657
 21
0.2620866445753578
 31
3.0
  0
LINE
  5
222
330
17
100
AcDbEntity
  8
0
100
AcDbLine
 10
2.850637432427483
 20
0.12446151819008322
 30
3.0
 11
2.9956640553515657
 21
0.2620866445753578
 31
3.0
  0
LINE
  5
223
330
17
100
AcDbEntity
  8
0
100
AcDbLine
 10
3.128143988079839
 20
0.4118279688437072
 30
2.0
 11
3.128143988079839
 21
0.4118279688437072
 31
3.0
  0
LINE
  5
224
330
17
100
AcDbEntity
  8
0
100
AcDbLine
 10
2.9956640553515657
 20
0.2620866445753578
 30
3.0
 11
3.128143988079839
 21
0.4118279688437071
 31
3.0
  0
LINE
  5
225
330
17
100
AcDbEntity
  8
0
100
AcDbLine
 10
3.24706897833067
 20
0.5725458691011667
 30
2.0
 11
3.24706897833067
 21
0.5725458691011667
 31
3.0
  0
LINE
  5
226
330
17
100
AcDbEntity
  8
0
100
AcDbLine
 10
3.128143988079839
 20
0.4118279688437072
 30
3.0
 11
3.24706897833067
 21
0.5725458691011668
 31
3.0
  0
LINE
  5
227
330
17
100
AcDbEntity
  8
0
100
AcDbLine
 10
3.3515339351193774
 20
0.7430171850826546
 30
2.0
 11
3.3515339351193774
 21
0.7430171850826546
 31
3.0
  0
LINE
  5
228
330
17
100
AcDbEntity
  8
0
100
AcDbLine
 10
3.24706897833067
 20
0.5725458691011667
 30
3.0
 11
3.351533935119377
 21
0.7430171850826546
 31
3.0
  0
LINE
  5
229
330
17
100
AcDbEntity
  8
0
100
AcDbLine
 10
3.440743817047133
 20
0.9219445271401572
 30
2.0
 11
3.440743817047133
 21
0.9219445271401572
 31
3.0
  0
LINE
  5
22A
330
17
100
AcDbEntity
  8
0
100
AcDbLine
 10
3.3515339351193774
 20
0.7430171850826546
 30
3.0
 11
3.440743817047133
 21
0.9219445271401572
 31
3.0
  0
LINE
  5
22B
330
17
100
AcDbEntity
  8
0
100
AcDbLine
 10
3.5140196830460684
 20
1.1079661501613334
 30
2.0
 11
3.5140196830460684
 21
1.1079661501613334
 31
3.0
  0
LINE
  5
22C
330
17
100
AcDbEntity
  8
0
100
AcDbLine
 10
3.440743817047133
 20
0.9219445271401572
 30
3.0
 11
3.5140196830460684
 21
1.1079661501613336
 31
3.0
  0
LINE
  5
22D
330
17
100
AcDbEntity
  8
0
100
AcDbLine
 10
3.524884459234304
 20
1.1446450198719345
 30
3.0
 11
3.524884459234304
 21
1.1446450198719345
 31
2.0
  0
LINE
  5
22E
330
17
100
AcDbEntity
  8
0
100
AcDbLine
 10
3.5140196830460684
 20
1.1079661501613334
 30
3.0
 11
3.524884459234304
 21
1.1446450198719342
 31
3.0
  0
LINE
  5
22F
330
17
100
AcDbEntity
  8
0
100
AcDbLine
 10
3.4611836811646004
 20
1.1917811160925436
 30
2.0
 11
3.4611836811646004
 21
1.1917811160925436
 31
3.0
  0
LINE
  5
230
330
17
100
AcDbEntity
  8
0
100
AcDbLine
 10
3.524884459234304
 20
1.1446450198719345
 30
3.0
 11
3.4611836811646
 21
1.1917811160925438
 31
3.0
  0
LINE
  5
231
330
17
100
AcDbEntity
  8
0
100
AcDbLine
 10
3.2907123651831123
 20
1.2962460728812508
 30
2.0
 11
3.2907123651831123
 21
1.2962460728812508
 31
3.0
  0
LINE
  5
232
330
17
100
AcDbEntity
  8
0
100
AcDbLine
 10
3.4611836811646004
 20
1.1917811160925436
 30
3.0
 11
3.2907123651831127
 21
1.2962460728812506
 31
3.0
  0
LINE
  5
233
330
17
100
AcDbEntity
  8
0
100
AcDbLine
 10
3.11178502312561
 20
1.3854559548090069
 30
2.0
 11
3.11178502312561
 21
1.3854559548090069
 31
3.0
  0
LINE
  5
234
330
17
100
AcDbEntity
  8
0
100
AcDbLine
 10
3.2907123651831123
 20
1.2962460728812508
 30
3.0
 11
3.1117850231256097
 21
1.3854559548090069
 31
3.0
  0
LINE
  5
235
330
17
100
AcDbEntity
  8
0
100
AcDbLine
 10
2.9257634001044335
 20
1.4587318208079427
 30
2.0
 11
2.9257634001044335
 21
1.4587318208079427
 31
3.0
  0
LINE
  5
236
330
17
100
AcDbEntity
  8
0
100
AcDbLine
 10
3.11178502312561
 20
1.3854559548090069
 30
3.0
 11
2.9257634001044335
 21
1.4587318208079427
 31
3.0
  0
LINE
  5
237
330
17
100
AcDbEntity
  8
0
100
AcDbLine
 10
2.7340632329937
 20
1.5155159972926278
 30
2.0
 11
2.7340632329937
 21
1.5155159972926278
 31
3.0
  0
LINE
  5
238
330
17
100
AcDbEntity
  8
0
100
AcDbLine
 10
2.9257634001044335
 20
1.4587318208079427
 30
3.0
 11
2.7340632329937
 21
1.5155159972926278
 31
3.0
  0
LINE
  5
239
330
17
100
AcDbEntity
  8
0
100
AcDbLine
 10
2.538143475816849
 20
1.5553763223927912
 30
2.0
 11
2.538143475816849
 21
1.5553763223927912
 31
3.0
  0
LINE
  5
23A
330
17
100
AcDbEntity
  8
0
100
AcDbLine
 10
2.7340632329937
 20
1.5155159972926278
 30
3.0
 11
2.5381434758168493
 21
1.555376322392791
 31
3.0
  0
LINE
  5
23B
330
17
100
AcDbEntity
  8
0
100
AcDbLine
 10
2.33949519622558
 20
1.5780094349660974
 30
2.0
 11
2.33949519622558
 21
1.5780094349660974
 31
3.0
  0
LINE
  5
23C
330
17
100
AcDbEntity
  8
0
100
AcDbLine
 10
2.538143475816849
 20
1.5553763223927912
 30
3.0
 11
2.33949519622558
 21
1.5780094349660974
 31
3.0
  0
LINE
  5
23D
330
17
100
AcDbEntity
  8
0
100
AcDbLine
 10
2.1396302275746946
 20
1.5832430833596174
 30
2.0
 11
2.1396302275746946
 21
1.5832430833596174
 31
3.0
  0
LINE
  5
23E
330
17
100
AcDbEntity
  8
0
100
AcDbLine
 10
2.33949519622558
 20
1.5780094349660974
 30
3.0
 11
2.139630227574694
 21
1.5832430833596176
 31
3.0
  0
LINE
  5
23F
330
17
100
AcDbEntity
  8
0
100
AcDbLine
 10
1.9400696629573915
 20
1.5710374363489137
 30
2.0
 11
1.9400696629573915
 21
1.5710374363489137
 31
3.0
  0
LINE
  5
240
330
17
100
AcDbEntity
  8
0
100
AcDbLine
 10
2.1396302275746946
 20
1.5832430833596174
 30
3.0
 11
1.9400696629573917
 21
1.5710374363489135
 31
3.0
  0
LINE
  5
241
330
17
100
AcDbEntity
  8
0
100
AcDbLine
 10
1.7423322787683726
 20
1.5414853862777078
 30
2.0
 11
1.7423322787683726
 21
1.5414853862777078
 31
3.0
  0
LINE
  5
242
330
17
100
AcDbEntity
  8
0
100
AcDbLine
 10
1.9400696629573915
 20
1.5710374363489137
 30
3.0
 11
1.7423322787683724
 21
1.5414853862777078
 31
3.0
  0
LINE
  5
243
330
17
100
AcDbEntity
  8
0
100
AcDbLine
 10
1.5479229758984132
 20
1.4948118420910574
 30
2.0
 11
1.5479229758984132
 21
1.4948118420910574
 31
3.0
  0
LINE
  5
244
330
17
100
AcDbEntity
  8
0
100
AcDbLine
 10
1.7423322787683726
 20
1.5414853862777078
 30
3.0
 11
1.5479229758984132
 21
1.4948118420910574
 31
3.0
  0
LINE
  5
245
330
17
100
AcDbEntity
  8
0
100
AcDbLine
 10
1.3583213265298988
 20
1.4313720176424793
 30
2.0
 11
1.3583213265298988
 21
1.4313720176424793
 31
3.0
  0
LINE
  5
246
330
17
100
AcDbEntity
  8
0
100
AcDbLine
 10
1.5479229758984132
 20
1.4948118420910574
 30
3.0
 11
1.3583213265298988
 21
1.4313720176424793
 31
3.0
  0
LINE
  5
247
330
17
100
AcDbEntity
  8
0
100
AcDbLine
 10
1.1749703136991334
 20
1.3516487283020413
 30
2.0
 11
1.1749703136991334
 21
1.3516487283020413
 31
3.0
  0
LINE
  5
248
330
17
100
AcDbEntity
  8
0
100
AcDbLine
 10
1.3583213265298988
 20
1.4313720176424793
 30
3.0
 11
1.1749703136991334
 21
1.3516487283020413
 31
3.0
  0
LINE
  5
249
330
17
100
AcDbEntity
  8
0
100
AcDbLine
 10
0.9992653493241253
 20
1.2562487164398624
 30
2.0
 11
0.9992653493241253
 21
1.2562487164398624
 31
3.0
  0
LINE
  5
24A
330
17
100
AcDbEntity
  8
0
100
AcDbLine
 10
1.1749703136991334
 20
1.3516487283020413
 30
3.0
 11
0.9992653493241255
 21
1.2562487164398624
 31
3.0
  0
LINE
  5
24B
330
17
100
AcDbEntity
  8
0
100
AcDbLine
 10
0.832543654277327
 20
1.1458980337503155
 30
2.0
 11
0.832543654277327
 21
1.1458980337503155
 31
3.0
  0
LINE
  5
24C
330
17
100
AcDbEntity
  8
0
100
AcDbLine
 10
0.9992653493241253
 20
1.2562487164398624
 30
3.0
 11
0.8325436542773268
 21
1.1458980337503155
 31
3.0
  0
LINE
  5
24D
330
17
100
AcDbEntity
  8
0
100
AcDbLine
 10
0.8304820673510549
 20
1.1442581734638257
 30
3.0
 11
0.8304820673510549
 21
1.1442581734638257
 31
2.0
  0
LINE
  5
24E
330
17
100
AcDbEntity
  8
0
100
AcDbLine
 10
0.832543654277327
 20
1.1458980337503155
 30
3.0
 11
0.8304820673510549
 21
1.1442581734638257
 31
3.0
  0
LINE
  5
24F
330
17
100
AcDbEntity
  8
0
100
AcDbLine
 10
0.8445715493094796
 20
1.1840456431176611
 30
2.0
 11
0.8445715493094796
 21
1.1840456431176611
 31
3.0
  0
LINE
  5
250
330
17
100
AcDbEntity
  8
0
100
AcDbLine
 10
0.8304820673510549
 20
1.1442581734638257
 30
3.0
 11
0.8445715493094795
 21
1.184045643117661
 31
3.0
  0
LINE
  5
251
330
17
100
AcDbEntity
  8
0
100
AcDbLine
 10
0.8946308950581572
 20
1.3776107708461367
 30
2.0
 11
0.8946308950581572
 21
1.3776107708461367
 31
3.0
  0
LINE
  5
252
330
17
100
AcDbEntity
  8
0
100
AcDbLine
 10
0.8445715493094796
 20
1.1840456431176611
 30
3.0
 11
0.8946308950581573
 21
1.3776107708461367
 31
3.0
  0
LINE
  5
253
330
17
100
AcDbEntity
  8
0
100
AcDbLine
 10
0.9276294374057111
 20
1.5748022842848837
 30
2.0
 11
0.9276294374057111
 21
1.5748022842848837
 31
3.0
  0
LINE
  5
254
330
17
100
AcDbEntity
  8
0
100
AcDbLine
 10
0.8946308950581572
 20
1.3776107708461367
 30
3.0
 11
0.927629437405711
 21
1.574802284284884
 31
3.0
  0
LINE
  5
255
330
17
100
AcDbEntity
  8
0
100
AcDbLine
 10
0.9433160375198113
 20
1.7741194369491415
 30
2.0
 11
0.9433160375198113
 21
1.7741194369491415
 31
3.0
  0
LINE
  5
256
330
17
100
AcDbEntity
  8
0
100
AcDbLine
 10
0.9276294374057111
 20
1.5748022842848837
 30
3.0
 11
0.9433160375198114
 21
1.7741194369491413
 31
3.0
  0
LINE
  5
257
330
17
100
AcDbEntity
  8
0
100
AcDbLine
 10
0.9415713109017615
 20
1.9740453049561486
 30
2.0
 11
0.9415713109017615
 21
1.9740453049561486
 31
3.0
  0
LINE
  5
258
330
17
100
AcDbEntity
  8
0
100
AcDbLine
 10
0.9433160375198113
 20
1.7741194369491415
 30
3.0
 11
0.9415713109017615
 21
1.9740453049561486
 31
3.0
  0
LINE
  5
259
330
17
100
AcDbEntity
  8
0
100
AcDbLine
 10
0.9224085359746197
 20
2.173058331731831
 30
2.0
 11
0.9224085359746197
 21
2.173058331731831
 31
3.0
  0
LINE
  5
25A
330
17
100
AcDbEntity
  8
0
100
AcDbLine
 10
0.9415713109017615
 20
1.9740453049561486
 30
3.0
 11
0.9224085359746195
 21
2.173058331731831
 31
3.0
  0
LINE
  5
25B
330
17
100
AcDbEntity
  8
0
100
AcDbLine
 10
0.8859735530263816
 20
2.369643907975075
 30
2.0
 11
0.8859735530263816
 21
2.369643907975075
 31
3.0
  0
LINE
  5
25C
330
17
100
AcDbEntity
  8
0
100
AcDbLine
 10
0.9224085359746197
 20
2.173058331731831
 30
3.0
 11
0.8859735530263817
 21
2.369643907975075
 31
3.0
  0
LINE
  5
25D
330
17
100
AcDbEntity
  8
0
100
AcDbLine
 10
0.8325436542773271
 20
2.5623058987490537
 30
2.0
 11
0.8325436542773271
 21
2.5623058987490537
 31
3.0
  0
LINE
  5
25E
330
17
100
AcDbEntity
  8
0
100
AcDbLine
 10
0.8859735530263816
 20
2.369643907975075
 30
3.0
 11
0.8325436542773272
 21
2.562305898749054
 31
3.0
  0
LINE
  5
25F
330
17
100
AcDbEntity
  8
0
100
AcDbLine
 10
0.7625254735187919
 20
2.7495780299714854
 30
2.0
 11
0.7625254735187919
 21
2.7495780299714854
 31
3.0
  0
LINE
  5
260
330
17
100
AcDbEntity
  8
0
100
AcDbLine
 10
0.8325436542773271
 20
2.5623058987490537
 30
3.0
 11
0.7625254735187919
 21
2.7495780299714854
 31
3.0
  0
LINE
  5
261
330
17
100
AcDbEntity
  8
0
100
AcDbLine
 10
0.6764518913844815
 20
2.9300350476457644
 30
2.0
 11
0.6764518913844815
 21
2.9300350476457644
 31
3.0
  0
LINE
  5
262
330
17
100
AcDbEntity
  8
0
100
AcDbLine
 10
0.7625254735187919
 20
2.7495780299714854
 30
3.0
 11
0.6764518913844814
 21
2.9300350476457644
 31
3.0
  0
LINE
  5
263
330
17
100
AcDbEntity
  8
0
100
AcDbLine
 10
0.5749779798070883
 20
3.102303564904462
 30
2.0
 11
0.5749779798070883
 21
3.102303564904462
 31
3.0
  0
LINE
  5
264
330
17
100
AcDbEntity
  8
0
100
AcDbLine
 10
0.6764518913844815
 20
2.9300350476457644
 30
3.0
 11
0.5749779798070885
 21
3.102303564904462
 31
3.0
  0
LINE
  5
265
330
17
100
AcDbEntity
  8
0
100
AcDbLine
 10
0.4588760165253387
 20
3.2650725143126653
 30
2.0
 11
0.4588760165253387
 21
3.2650725143126653
 31
3.0
  0
LINE
  5
266
330
17
100
AcDbEntity
  8
0
100
AcDbLine
 10
0.5749779798070883
 20
3.102303564904462
 30
3.0
 11
0.4588760165253386
 21
3.2650725143126653
 31
3.0
  0
LINE
  5
267
330
17
100
AcDbEntity
  8
0
100
AcDbLine
 10
0.3290296075840895
 20
3.4171031258827984
 30
2.0
 11
0.3290296075840895
 21
3.4171031258827984
 31
3.0
  0
LINE
  5
268
330
17
100
AcDbEntity
  8
0
100
AcDbLine
 10
0.4588760165253387
 20
3.2650725143126653
 30
3.0
 11
0.3290296075840895
 21
3.4171031258827984
 31
3.0
  0
LINE
  5
269
330
17
100
AcDbEntity
  8
0
100
AcDbLine
 10
0.18642696255878866
 20
3.557238354862219
 30
2.0
 11
0.18642696255878866
 21
3.557238354862219
 31
3.0
  0
LINE
  5
26A
330
17
100
AcDbEntity
  8
0
100
AcDbLine
 10
0.3290296075840895
 20
3.4171031258827984
 30
3.0
 11
0.18642696255878874
 21
3.5572383548622195
 31
3.0
  0
LINE
  5
26B
330
17
100
AcDbEntity
  8
0
100
AcDbLine
 10
0.032153373683911024
 20
3.684411687542431
 30
2.0
 11
0.032153373683911024
 21
3.684411687542431
 31
3.0
  0
LINE
  5
26C
330
17
100
AcDbEntity
  8
0
100
AcDbLine
 10
0.18642696255878866
 20
3.557238354862219
 30
3.0
 11
0.0321533736839108
 21
3.684411687542431
 31
3.0
  0
LINE
  5
26D
330
17
100
AcDbEntity
  8
0
100
AcDbLine
 10
0.000627096117548076
 20
3.706079097809381
 30
3.0
 11
0.000627096117548076
 21
3.706079097809381
 31
2.0
  0
LINE
  5
26E
330
17
100
AcDbEntity
  8
0
100
AcDbLine
 10
0.032153373683911024
 20
3.684411687542431
 30
3.0
 11
0.0006270961175483189
 21
3.706079097809381
 31
3.0
  0
LINE
  5
26F
330
17
100
AcDbEntity
  8
0
100
AcDbLine
 10
-0.06388661832422327
 20
3.6600619125137785
 30
2.0
 11
-0.06388661832422327
 21
3.6600619125137785
 31
3.0
  0
LINE
  5
270
330
17
100
AcDbEntity
  8
0
100
AcDbLine
 10
0.000627096117548076
 20
3.706079097809381
 30
3.0
 11
-0.06388661832422315
 21
3.6600619125137785
 31
3.0
  0
LINE
  5
271
330
17
100
AcDbEntity
  8
0
100
AcDbLine
 10
-0.21591722989435602
 20
3.530215503572529
 30
2.0
 11
-0.21591722989435602
 21
3.530215503572529
 31
3.0
  0
LINE
  5
272
330
17
100
AcDbEntity
  8
0
100
AcDbLine
 10
-0.06388661832422327
 20
3.6600619125137785
 30
3.0
 11
-0.21591722989435613
 21
3.5302155035725296
 31
3.0
  0
LINE
  5
273
330
17
100
AcDbEntity
  8
0
100
AcDbLine
 10
-0.3560524588737771
 20
3.387612858547229
 30
2.0
 11
-0.3560524588737771
 21
3.387612858547229
 31
3.0
  0
LINE
  5
274
330
17
100
AcDbEntity
  8
0
100
AcDbLine
 10
-0.21591722989435602
 20
3.530215503572529
 30
3.0
 11
-0.3560524588737773
 21
3.3876128585472287
 31
3.0
  0
LINE
  5
275
330
17
100
AcDbEntity
  8
0
100
AcDbLine
 10
-0.48322579155398915
 20
3.233339269672351
 30
2.0
 11
-0.48322579155398915
 21
3.233339269672351
 31
3.0
  0
LINE
  5
276
330
17
100
AcDbEntity
  8
0
100
AcDbLine
 10
-0.3560524588737771
 20
3.387612858547229
 30
3.0
 11
-0.48322579155398904
 21
3.233339269672351
 31
3.0
  0
LINE
  5
277
330
17
100
AcDbEntity
  8
0
100
AcDbLine
 10
-0.5964693620839371
 20
3.068568852112172
 30
2.0
 11
-0.5964693620839371
 21
3.068568852112172
 31
3.0
  0
LINE
  5
278
330
17
100
AcDbEntity
  8
0
100
AcDbLine
 10
-0.48322579155398915
 20
3.233339269672351
 30
3.0
 11
-0.5964693620839371
 21
3.068568852112172
 31
3.0
  0
LINE
  5
279
330
17
100
AcDbEntity
  8
0
100
AcDbLine
 10
-0.6949213185135505
 20
2.8945556082354247
 30
2.0
 11
-0.6949213185135505
 21
2.8945556082354247
 31
3.0
  0
LINE
  5
27A
330
17
100
AcDbEntity
  8
0
100
AcDbLine
 10
-0.5964693620839371
 20
3.068568852112172
 30
3.0
 11
-0.6949213185135505
 21
2.8945556082354247
 31
3.0
  0
LINE
  5
27B
330
17
100
AcDbEntity
  8
0
100
AcDbLine
 10
-0.7778323820074832
 20
2.71262388390008
 30
2.0
 11
-0.7778323820074832
 21
2.71262388390008
 31
3.0
  0
LINE
  5
27C
330
17
100
AcDbEntity
  8
0
100
AcDbLine
 10
-0.6949213185135505
 20
2.8945556082354247
 30
3.0
 11
-0.7778323820074832
 21
2.71262388390008
 31
3.0
  0
LINE
  5
27D
330
17
100
AcDbEntity
  8
0
100
AcDbLine
 10
-0.8445715493094782
 20
2.524158289381709
 30
2.0
 11
-0.8445715493094782
 21
2.524158289381709
 31
3.0
  0
LINE
  5
27E
330
17
100
AcDbEntity
  8
0
100
AcDbLine
 10
-0.7778323820074832
 20
2.71262388390008
 30
3.0
 11
-0.8445715493094782
 21
2.5241582893817096
 31
3.0
  0
LINE
  5
27F
330
17
100
AcDbEntity
  8
0
100
AcDbLine
 10
-0.8946308950581563
 20
2.3305931616532343
 30
2.0
 11
-0.8946308950581563
 21
2.3305931616532343
 31
3.0
  0
LINE
  5
280
330
17
100
AcDbEntity
  8
0
100
AcDbLine
 10
-0.8445715493094782
 20
2.524158289381709
 30
3.0
 11
-0.8946308950581563
 21
2.330593161653234
 31
3.0
  0
LINE
  5
281
330
17
100
AcDbEntity
  8
0
100
AcDbLine
 10
-0.9276294374057101
 20
2.133401648214487
 30
2.0
 11
-0.9276294374057101
 21
2.133401648214487
 31
3.0
  0
LINE
  5
282
330
17
100
AcDbEntity
  8
0
100
AcDbLine
 10
-0.8946308950581563
 20
2.3305931616532343
 30
3.0
 11
-0.9276294374057102
 21
2.1334016482144875
 31
3.0
  0
LINE
  5
283
330
17
100
AcDbEntity
  8
0
100
AcDbLine
 10
-0.9433160375198103
 20
1.934084495550229
 30
2.0
 11
-0.9433160375198103
 21
1.934084495550229
 31
3.0
  0
LINE
  5
284
330
17
100
AcDbEntity
  8
0
100
AcDbLine
 10
-0.9276294374057101
 20
2.133401648214487
 30
3.0
 11
-0.9433160375198103
 21
1.9340844955502292
 31
3.0
  0
LINE
  5
285
330
17
100
AcDbEntity
  8
0
100
AcDbLine
 10
-0.9415713109017605
 20
1.7341586275432206
 30
2.0
 11
-0.9415713109017605
 21
1.7341586275432206
 31
3.0
  0
LINE
  5
286
330
17
100
AcDbEntity
  8
0
100
AcDbLine
 10
-0.9433160375198103
 20
1.934084495550229
 30
3.0
 11
-0.9415713109017605
 21
1.7341586275432204
 31
3.0
  0
LINE
  5
287
330
17
100
AcDbEntity
  8
0
100
AcDbLine
 10
-0.9224085359746186
 20
1.5351456007675384
 30
2.0
 11
-0.9224085359746186
 21
1.5351456007675384
 31
3.0
  0
LINE
  5
288
330
17
100
AcDbEntity
  8
0
100
AcDbLine
 10
-0.9415713109017605
 20
1.7341586275432206
 30
3.0
 11
-0.9224085359746185
 21
1.5351456007675384
 31
3.0
  0
LINE
  5
289
330
17
100
AcDbEntity
  8
0
100
AcDbLine
 10
-0.8859735530263806
 20
1.3385600245242943
 30
2.0
 11
-0.8859735530263806
 21
1.3385600245242943
 31
3.0
  0
LINE
  5
28A
330
17
100
AcDbEntity
  8
0
100
AcDbLine
 10
-0.9224085359746186
 20
1.5351456007675384
 30
3.0
 11
-0.8859735530263806
 21
1.3385600245242943
 31
3.0
  0
LINE
  5
28B
330
17
100
AcDbEntity
  8
0
100
AcDbLine
 10
-0.8325436542773264
 20
1.145898033750316
 30
2.0
 11
-0.8325436542773264
 21
1.145898033750316
 31
3.0
  0
LINE
  5
28C
330
17
100
AcDbEntity
  8
0
100
AcDbLine
 10
-0.8859735530263806
 20
1.3385600245242943
 30
3.0
 11
-0.8325436542773264
 21
1.145898033750316
 31
3.0
  0
LINE
  5
28D
330
17
100
AcDbEntity
  8
0
100
AcDbLine
 10
-0.8316211198616458
 20
1.1434306033732495
 30
2.0
 11
-0.8316211198616458
 21
1.1434306033732495
 31
3.0
  0
LINE
  5
28E
330
17
100
AcDbEntity
  8
0
100
AcDbLine
 10
-0.8325436542773264
 20
1.145898033750316
 30
3.0
 11
-0.8316211198616458
 21
1.1434306033732495
 31
3.0
  0
LINE
  5
28F
330
17
100
AcDbEntity
  8
0
100
AcDbLine
 10
-0.8651073627757295
 20
1.1691255012872452
 30
2.0
 11
-0.8651073627757295
 21
1.1691255012872452
 31
3.0
  0
LINE
  5
290
330
17
100
AcDbEntity
  8
0
100
AcDbLine
 10
-0.8316211198616458
 20
1.1434306033732495
 30
3.0
 11
-0.8651073627757295
 21
1.1691255012872452
 31
3.0
  0
LINE
  5
291
330
17
100
AcDbEntity
  8
0
100
AcDbLine
 10
-1.0337295502657673
 20
1.2765496822494535
 30
2.0
 11
-1.0337295502657673
 21
1.2765496822494535
 31
3.0
  0
LINE
  5
292
330
17
100
AcDbEntity
  8
0
100
AcDbLine
 10
-0.8651073627757295
 20
1.1691255012872452
 30
3.0
 11
-1.0337295502657673
 21
1.2765496822494535
 31
3.0
  0
LINE
  5
293
330
17
100
AcDbEntity
  8
0
100
AcDbLine
 10
-1.2110727137047956
 20
1.3688686897764248
 30
2.0
 11
-1.2110727137047956
 21
1.3688686897764248
 31
3.0
  0
LINE
  5
294
330
17
100
AcDbEntity
  8
0
100
AcDbLine
 10
-1.0337295502657673
 20
1.2765496822494535
 30
3.0
 11
-1.2110727137047956
 21
1.3688686897764248
 31
3.0
  0
LINE
  5
295
330
17
100
AcDbEntity
  8
0
100
AcDbLine
 10
-1.395787164536313
 20
1.4453799204771376
 30
2.0
 11
-1.395787164536313
 21
1.4453799204771376
 31
3.0
  0
LINE
  5
296
330
17
100
AcDbEntity
  8
0
100
AcDbLine
 10
-1.2110727137047956
 20
1.3688686897764248
 30
3.0
 11
-1.395787164536313
 21
1.4453799204771376
 31
3.0
  0
LINE
  5
297
330
17
100
AcDbEntity
  8
0
100
AcDbLine
 10
-1.5864671142558575
 20
1.5055010776872155
 30
2.0
 11
-1.5864671142558575
 21
1.5055010776872155
 31
3.0
  0
LINE
  5
298
330
17
100
AcDbEntity
  8
0
100
AcDbLine
 10
-1.395787164536313
 20
1.4453799204771376
 30
3.0
 11
-1.5864671142558575
 21
1.5055010776872155
 31
3.0
  0
LINE
  5
299
330
17
100
AcDbEntity
  8
0
100
AcDbLine
 10
-1.781661373310361
 20
1.548774603098142
 30
2.0
 11
-1.781661373310361
 21
1.548774603098142
 31
3.0
  0
LINE
  5
29A
330
17
100
AcDbEntity
  8
0
100
AcDbLine
 10
-1.5864671142558575
 20
1.5055010776872155
 30
3.0
 11
-1.781661373310361
 21
1.548774603098142
 31
3.0
  0
LINE
  5
29B
330
17
100
AcDbEntity
  8
0
100
AcDbLine
 10
-1.979884395526903
 20
1.5748711590522717
 30
2.0
 11
-1.979884395526903
 21
1.5748711590522717
 31
3.0
  0
LINE
  5
29C
330
17
100
AcDbEntity
  8
0
100
AcDbLine
 10
-1.781661373310361
 20
1.548774603098142
 30
3.0
 11
-1.979884395526903
 21
1.5748711590522717
 31
3.0
  0
LINE
  5
29D
330
17
100
AcDbEntity
  8
0
100
AcDbLine
 10
-2.179627584016083
 20
1.583592135001262
 30
2.0
 11
-2.179627584016083
 21
1.583592135001262
 31
3.0
  0
LINE
  5
29E
330
17
100
AcDbEntity
  8
0
100
AcDbLine
 10
-1.979884395526903
 20
1.5748711590522717
 30
3.0
 11
-2.179627584016083
 21
1.583592135001262
 31
3.0
  0
LINE
  5
29F
330
17
100
AcDbEntity
  8
0
100
AcDbLine
 10
-2.379370772505262
 20
1.5748711590522717
 30
2.0
 11
-2.379370772505262
 21
1.5748711590522717
 31
3.0
  0
LINE
  5
2A0
330
17
100
AcDbEntity
  8
0
100
AcDbLine
 10
-2.179627584016083
 20
1.583592135001262
 30
3.0
 11
-2.379370772505262
 21
1.5748711590522717
 31
3.0
  0
LINE
  5
2A1
330
17
100
AcDbEntity
  8
0
100
AcDbLine
 10
-2.5775937947218046
 20
1.548774603098142
 30
2.0
 11
-2.5775937947218046
 21
1.548774603098142
 31
3.0
  0
LINE
  5
2A2
330
17
100
AcDbEntity
  8
0
100
AcDbLine
 10
-2.379370772505262
 20
1.5748711590522717
 30
3.0
 11
-2.5775937947218046
 21
1.548774603098142
 31
3.0
  0
LINE
  5
2A3
330
17
100
AcDbEntity
  8
0
100
AcDbLine
 10
-2.772788053776308
 20
1.5055010776872155
 30
2.0
 11
-2.772788053776308
 21
1.5055010776872155
 31
3.0
  0
LINE
  5
2A4
330
17
100
AcDbEntity
  8
0
100
AcDbLine
 10
-2.5775937947218046
 20
1.548774603098142
 30
3.0
 11
-2.772788053776308
 21
1.5055010776872155
 31
3.0
  0
LINE
  5
2A5
330
17
100
AcDbEntity
  8
0
100
AcDbLine
 10
-2.9634680034958527
 20
1.4453799204771376
 30
2.0
 11
-2.9634680034958527
 21
1.4453799204771376
 31
3.0
  0
LINE
  5
2A6
330
17
100
AcDbEntity
  8
0
100
AcDbLine
 10
-2.772788053776308
 20
1.5055010776872155
 30
3.0
 11
-2.9634680034958527
 21
1.4453799204771376
 31
3.0
  0
LINE
  5
2A7
330
17
100
AcDbEntity
  8
0
100
AcDbLine
 10
-3.14818245432737
 20
1.3688686897764248
 30
2.0
 11
-3.14818245432737
 21
1.3688686897764248
 31
3.0
  0
LINE
  5
2A8
330
17
100
AcDbEntity
  8
0
100
AcDbLine
 10
-2.9634680034958527
 20
1.4453799204771376
 30
3.0
 11
-3.14818245432737
 21
1.3688686897764248
 31
3.0
  0
LINE
  5
2A9
330
17
100
AcDbEntity
  8
0
100
AcDbLine
 10
-3.325525617766398
 20
1.2765496822494535
 30
2.0
 11
-3.325525617766398
 21
1.2765496822494535
 31
3.0
  0
LINE
  5
2AA
330
17
100
AcDbEntity
  8
0
100
AcDbLine
 10
-3.14818245432737
 20
1.3688686897764248
 30
3.0
 11
-3.325525617766398
 21
1.2765496822494535
 31
3.0
  0
LINE
  5
2AB
330
17
100
AcDbEntity
  8
0
100
AcDbLine
 10
-3.4941478052564356
 20
1.1691255012872457
 30
2.0
 11
-3.4941478052564356
 21
1.1691255012872457
 31
3.0
  0
LINE
  5
2AC
330
17
100
AcDbEntity
  8
0
100
AcDbLine
 10
-3.325525617766398
 20
1.2765496822494535
 30
3.0
 11
-3.4941478052564356
 21
1.1691255012872457
 31
3.0
  0
LINE
  5
2AD
330
17
100
AcDbEntity
  8
0
100
AcDbLine
 10
-3.524496892519447
 20
1.1458378275698085
 30
3.0
 11
-3.524496892519447
 21
1.1458378275698085
 31
2.0
  0
LINE
  5
2AE
330
17
100
AcDbEntity
  8
0
100
AcDbLine
 10
-3.4941478052564356
 20
1.1691255012872457
 30
3.0
 11
-3.524496892519447
 21
1.1458378275698085
 31
3.0
  0
LINE
  5
2AF
330
17
100
AcDbEntity
  8
0
100
AcDbLine
 10
-3.5006677827152624
 20
1.070261546769915
 30
2.0
 11
-3.5006677827152624
 21
1.070261546769915
 31
3.0
  0
LINE
  5
2B0
330
17
100
AcDbEntity
  8
0
100
AcDbLine
 10
-3.524496892519447
 20
1.1458378275698085
 30
3.0
 11
-3.5006677827152624
 21
1.070261546769915
 31
3.0
  0
LINE
  5
2B1
330
17
100
AcDbEntity
  8
0
100
AcDbLine
 10
-3.4241565520145496
 20
0.8855470959383978
 30
2.0
 11
-3.4241565520145496
 21
0.8855470959383978
 31
3.0
  0
LINE
  5
2B2
330
17
100
AcDbEntity
  8
0
100
AcDbLine
 10
-3.5006677827152624
 20
1.070261546769915
 30
3.0
 11
-3.4241565520145496
 21
0.8855470959383978
 31
3.0
  0
LINE
  5
2B3
330
17
100
AcDbEntity
  8
0
100
AcDbLine
 10
-3.3318375444875787
 20
0.7082039324993699
 30
2.0
 11
-3.3318375444875787
 21
0.7082039324993699
 31
3.0
  0
LINE
  5
2B4
330
17
100
AcDbEntity
  8
0
100
AcDbLine
 10
-3.4241565520145496
 20
0.8855470959383978
 30
3.0
 11
-3.3318375444875787
 21
0.7082039324993699
 31
3.0
  0
LINE
  5
2B5
330
17
100
AcDbEntity
  8
0
100
AcDbLine
 10
-3.224413363525371
 20
0.5395817450093319
 30
2.0
 11
-3.224413363525371
 21
0.5395817450093319
 31
3.0
  0
LINE
  5
2B6
330
17
100
AcDbEntity
  8
0
100
AcDbLine
 10
-3.3318375444875787
 20
0.7082039324993699
 30
3.0
 11
-3.224413363525371
 21
0.5395817450093319
 31
3.0
  0
LINE
  5
2B7
330
17
100
AcDbEntity
  8
0
100
AcDbLine
 10
-3.1027015720095408
 20
0.38096385013194345
 30
2.0
 11
-3.1027015720095408
 21
0.38096385013194345
 31
3.0
  0
LINE
  5
2B8
330
17
100
AcDbEntity
  8
0
100
AcDbLine
 10
-3.224413363525371
 20
0.5395817450093319
 30
3.0
 11
-3.1027015720095408
 21
0.38096385013194345
 31
3.0
  0
LINE
  5
2B9
330
17
100
AcDbEntity
  8
0
100
AcDbLine
 10
-2.967628470165115
 20
0.23355742582332595
 30
2.0
 11
-2.967628470165115
 21
0.23355742582332595
 31
3.0
  0
LINE
  5
2BA
330
17
100
AcDbEntity
  8
0
100
AcDbLine
 10
-3.1027015720095408
 20
0.38096385013194345
 30
3.0
 11
-2.967628470165115
 21
0.23355742582332595
 31
3.0
  0
LINE
  5
2BB
330
17
100
AcDbEntity
  8
0
100
AcDbLine
 10
-2.8202220458564975
 20
0.09848432397890039
 30
2.0
 11
-2.8202220458564975
 21
0.09848432397890039
 31
3.0
  0
LINE
  5
2BC
330
17
100
AcDbEntity
  8
0
100
AcDbLine
 10
-2.967628470165115
 20
0.23355742582332595
 30
3.0
 11
-2.8202220458564975
 21
0.09848432397890039
 31
3.0
  0
LINE
  5
2BD
330
17
100
AcDbEntity
  8
0
100
AcDbLine
 10
-2.66160415097911
 20
-0.023227467536928836
 30
2.0
 11
-2.66160415097911
 21
-0.023227467536928836
 31
3.0
  0
LINE
  5
2BE
330
17
100
AcDbEntity
  8
0
100
AcDbLine
 10
-2.8202220458564975
 20
0.09848432397890039
 30
3.0
 11
-2.66160415097911
 21
-0.023227467536928822
 31
3.0
  0
LINE
  5
2BF
330
17
100
AcDbEntity
  8
0
100
AcDbLine
 10
-2.492981963489073
 20
-0.13065164849913735
 30
2.0
 11
-2.492981963489073
 21
-0.13065164849913735
 31
3.0
  0
LINE
  5
2C0
330
17
100
AcDbEntity
  8
0
100
AcDbLine
 10
-2.66160415097911
 20
-0.023227467536928836
 30
3.0
 11
-2.492981963489073
 21
-0.13065164849913735
 31
3.0
  0
LINE
  5
2C1
330
17
100
AcDbEntity
  8
0
100
AcDbLine
 10
-2.3156388000500447
 20
-0.22297065602610866
 30
2.0
 11
-2.3156388000500447
 21
-0.22297065602610866
 31
3.0
  0
LINE
  5
2C2
330
17
100
AcDbEntity
  8
0
100
AcDbLine
 10
-2.492981963489073
 20
-0.13065164849913735
 30
3.0
 11
-2.3156388000500447
 21
-0.22297065602610866
 31
3.0
  0
LINE
  5
2C3
330
17
100
AcDbEntity
  8
0
100
AcDbLine
 10
-2.1309243492185272
 20
-0.2994818867268214
 30
2.0
 11
-2.1309243492185272
 21
-0.2994818867268214
 31
3.0
  0
LINE
  5
2C4
330
17
100
AcDbEntity
  8
0
100
AcDbLine
 10
-2.3156388000500447
 20
-0.22297065602610866
 30
3.0
 11
-2.1309243492185272
 21
-0.2994818867268214
 31
3.0
  0
LINE
  5
2C5
330
17
100
AcDbEntity
  8
0
100
AcDbLine
 10
-1.9402443994989813
 20
-0.3596030439368998
 30
2.0
 11
-1.9402443994989813
 21
-0.3596030439368998
 31
3.0
  0
LINE
  5
2C6
330
17
100
AcDbEntity
  8
0
100
AcDbLine
 10
-2.1309243492185272
 20
-0.2994818867268214
 30
3.0
 11
-1.9402443994989813
 21
-0.3596030439368998
 31
3.0
  0
LINE
  5
2C7
330
17
100
AcDbEntity
  8
0
100
AcDbLine
 10
-1.7450501404444778
 20
-0.40287656934782623
 30
2.0
 11
-1.7450501404444778
 21
-0.40287656934782623
 31
3.0
  0
LINE
  5
2C8
330
17
100
AcDbEntity
  8
0
100
AcDbLine
 10
-1.9402443994989813
 20
-0.3596030439368998
 30
3.0
 11
-1.7450501404444778
 21
-0.40287656934782623
 31
3.0
  0
LINE
  5
2C9
330
17
100
AcDbEntity
  8
0
100
AcDbLine
 10
-1.5468271182279358
 20
-0.42897312530195597
 30
2.0
 11
-1.5468271182279358
 21
-0.42897312530195597
 31
3.0
  0
LINE
  5
2CA
330
17
100
AcDbEntity
  8
0
100
AcDbLine
 10
-1.7450501404444778
 20
-0.40287656934782623
 30
3.0
 11
-1.5468271182279358
 21
-0.42897312530195597
 31
3.0
  0
LINE
  5
2CB
330
17
100
AcDbEntity
  8
0
100
AcDbLine
 10
-1.3470839297387565
 20
-0.4376941012509463
 30
2.0
 11
-1.3470839297387565
 21
-0.4376941012509463
 31
3.0
  0
LINE
  5
2CC
330
17
100
AcDbEntity
  8
0
100
AcDbLine
 10
-1.5468271182279358
 20
-0.42897312530195597
 30
3.0
 11
-1.3470839297387565
 21
-0.4376941012509463
 31
3.0
  0
LINE
  5
2CD
330
17
100
AcDbEntity
  8
0
100
AcDbLine
 10
-1.3444521851878024
 20
-0.4375791968023573
 30
3.0
 11
-1.3444521851878024
 21
-0.4375791968023573
 31
2.0
  0
LINE
  5
2CE
330
17
100
AcDbEntity
  8
0
100
AcDbLine
 10
-1.3470839297387565
 20
-0.4376941012509463
 30
3.0
 11
-1.3444521851878024
 21
-0.43757919680235735
 31
3.0
  0
LINE
  5
2CF
330
17
100
AcDbEntity
  8
0
100
AcDbLine
 10
-1.3792373034226657
 20
-0.4614863462078846
 30
2.0
 11
-1.3792373034226657
 21
-0.4614863462078846
 31
3.0
  0
LINE
  5
2D0
330
17
100
AcDbEntity
  8
0
100
AcDbLine
 10
-1.3444521851878024
 20
-0.43757919680235735
 30
3.0
 11
-1.3792373034226657
 21
-0.46148634620788465
 31
3.0
  0
LINE
  5
2D1
330
17
100
AcDbEntity
  8
0
100
AcDbLine
 10
-1.533510892297544
 20
-0.5886596788880961
 30
2.0
 11
-1.533510892297544
 21
-0.5886596788880961
 31
3.0
  0
LINE
  5
2D2
330
17
100
AcDbEntity
  8
0
100
AcDbLine
 10
-1.3792373034226657
 20
-0.4614863462078846
 30
3.0
 11
-1.533510892297544
 21
-0.588659678888096
 31
3.0
  0
LINE
  5
2D3
330
17
100
AcDbEntity
  8
0
100
AcDbLine
 10
-1.676113537322845
 20
-0.7287949078675175
 30
2.0
 11
-1.676113537322845
 21
-0.7287949078675175
 31
3.0
  0
LINE
  5
2D4
330
17
100
AcDbEntity
  8
0
100
AcDbLine
 10
-1.533510892297544
 20
-0.5886596788880961
 30
3.0
 11
-1.676113537322845
 21
-0.7287949078675177
 31
3.0
  0
LINE
  5
2D5
330
17
100
AcDbEntity
  8
0
100
AcDbLine
 10
-1.805959946264094
 20
-0.8808255194376504
 30
2.0
 11
-1.805959946264094
 21
-0.8808255194376504
 31
3.0
  0
LINE
  5
2D6
330
17
100
AcDbEntity
  8
0
100
AcDbLine
 10
-1.676113537322845
 20
-0.7287949078675175
 30
3.0
 11
-1.8059599462640943
 21
-0.8808255194376504
 31
3.0
  0
LINE
  5
2D7
330
17
100
AcDbEntity
  8
0
100
AcDbLine
 10
-1.922061909545844
 20
-1.0435944688458536
 30
2.0
 11
-1.922061909545844
 21
-1.0435944688458536
 31
3.0
  0
LINE
  5
2D8
330
17
100
AcDbEntity
  8
0
100
AcDbLine
 10
-1.805959946264094
 20
-0.8808255194376504
 30
3.0
 11
-1.9220619095458438
 21
-1.0435944688458536
 31
3.0
  0
LINE
  5
2D9
330
17
100
AcDbEntity
  8
0
100
AcDbLine
 10
-2.023535821123237
 20
-1.215862986104551
 30
2.0
 11
-2.023535821123237
 21
-1.215862986104551
 31
3.0
  0
LINE
  5
2DA
330
17
100
AcDbEntity
  8
0
100
AcDbLine
 10
-1.922061909545844
 20
-1.0435944688458536
 30
3.0
 11
-2.023535821123237
 21
-1.2158629861045511
 31
3.0
  0
LINE
  5
2DB
330
17
100
AcDbEntity
  8
0
100
AcDbLine
 10
-2.109609403257547
 20
-1.3963200037788295
 30
2.0
 11
-2.109609403257547
 21
-1.3963200037788295
 31
3.0
  0
LINE
  5
2DC
330
17
100
AcDbEntity
  8
0
100
AcDbLine
 10
-2.023535821123237
 20
-1.215862986104551
 30
3.0
 11
-2.109609403257547
 21
-1.3963200037788293
 31
3.0
  0
LINE
  5
2DD
330
17
100
AcDbEntity
  8
0
100
AcDbLine
 10
-2.179627584016083
 20
-1.583592135001262
 30
2.0
 11
-2.179627584016083
 21
-1.583592135001262
 31
3.0
  0
LINE
  5
2DE
330
17
100
AcDbEntity
  8
0
100
AcDbLine
 10
-2.109609403257547
 20
-1.3963200037788295
 30
3.0
 11
-2.1796275840160826
 21
-1.583592135001262
 31
3.0
  0
LINE
  5
2DF
330
17
100
AcDbEntity
  8
0
100
AcDbLine
 10
-2.233057482765137
 20
-1.7762541257752402
 30
2.0
 11
-2.233057482765137
 21
-1.7762541257752402
 31
3.0
  0
LINE
  5
2E0
330
17
100
AcDbEntity
  8
0
100
AcDbLine
 10
-2.179627584016083
 20
-1.583592135001262
 30
3.0
 11
-2.2330574827651373
 21
-1.7762541257752402
 31
3.0
  0
LINE
  5
2E1
330
17
100
AcDbEntity
  8
0
100
AcDbLine
 10
-2.2694924657133755
 20
-1.9728397020184847
 30
2.0
 11
-2.2694924657133755
 21
-1.9728397020184847
 31
3.0
  0
LINE
  5
2E2
330
17
100
AcDbEntity
  8
0
100
AcDbLine
 10
-2.233057482765137
 20
-1.7762541257752402
 30
3.0
 11
-2.269492465713375
 21
-1.9728397020184847
 31
3.0
  0
LINE
  5
2E3
330
17
100
AcDbEntity
  8
0
100
AcDbLine
 10
-2.2886552406405176
 20
-2.1718527287941667
 30
2.0
 11
-2.2886552406405176
 21
-2.1718527287941667
 31
3.0
  0
LINE
  5
2E4
330
17
100
AcDbEntity
  8
0
100
AcDbLine
 10
-2.2694924657133755
 20
-1.9728397020184847
 30
3.0
 11
-2.2886552406405176
 21
-2.171852728794167
 31
3.0
  0
LINE
  5
2E5
330
17
100
AcDbEntity
  8
0
100
AcDbLine
 10
-2.2903999672585673
 20
-2.3717785968011738
 30
2.0
 11
-2.2903999672585673
 21
-2.3717785968011738
 31
3.0
  0
LINE
  5
2E6
330
17
100
AcDbEntity
  8
0
100
AcDbLine
 10
-2.2886552406405176
 20
-2.1718527287941667
 30
3.0
 11
-2.2903999672585673
 21
-2.3717785968011738
 31
3.0
  0
LINE
  5
2E7
330
17
100
AcDbEntity
  8
0
100
AcDbLine
 10
-2.274713367144467
 20
-2.5710957494654316
 30
2.0
 11
-2.274713367144467
 21
-2.5710957494654316
 31
3.0
  0
LINE
  5
2E8
330
17
100
AcDbEntity
  8
0
100
AcDbLine
 10
-2.2903999672585673
 20
-2.3717785968011738
 30
3.0
 11
-2.274713367144467
 21
-2.5710957494654316
 31
3.0
  0
LINE
  5
2E9
330
17
100
AcDbEntity
  8
0
100
AcDbLine
 10
-2.241714824796913
 20
-2.7682872629041784
 30
2.0
 11
-2.241714824796913
 21
-2.7682872629041784
 31
3.0
  0
LINE
  5
2EA
330
17
100
AcDbEntity
  8
0
100
AcDbLine
 10
-2.274713367144467
 20
-2.5710957494654316
 30
3.0
 11
-2.241714824796913
 21
-2.7682872629041784
 31
3.0
  0
LINE
  5
2EB
330
17
100
AcDbEntity
  8
0
100
AcDbLine
 10
-2.1916554790482357
 20
-2.9618523906326537
 30
2.0
 11
-2.1916554790482357
 21
-2.9618523906326537
 31
3.0
  0
LINE
  5
2EC
330
17
100
AcDbEntity
  8
0
100
AcDbLine
 10
-2.241714824796913
 20
-2.7682872629041784
 30
3.0
 11
-2.1916554790482357
 21
-2.9618523906326537
 31
3.0
  0
LINE
  5
2ED
330
17
100
AcDbEntity
  8
0
100
AcDbLine
 10
-2.1788859689379505
 20
-2.997912374775898
 30
3.0
 11
-2.1788859689379505
 21
-2.997912374775898
 31
2.0
  0
LINE
  5
2EE
330
17
100
AcDbEntity
  8
0
100
AcDbLine
 10
-2.1916554790482357
 20
-2.9618523906326537
 30
3.0
 11
-2.1788859689379505
 21
-2.997912374775898
 31
3.0
  0
LINE
  5
2EF
330
17
100
AcDbEntity
  8
0
100
AcDbLine
 10
-2.09964505471554
 20
-2.9986038997579354
 30
2.0
 11
-2.09964505471554
 21
-2.9986038997579354
 31
3.0
  0
LINE
  5
2F0
330
17
100
AcDbEntity
  8
0
100
AcDbLine
 10
-2.1788859689379505
 20
-2.997912374775898
 30
3.0
 11
-2.0996450547155394
 21
-2.9986038997579354
 31
3.0
  0
LINE
  5
2F1
330
17
100
AcDbEntity
  8
0
100
AcDbLine
 10
-1.9003279020512822
 20
-2.982917299643835
 30
2.0
 11
-1.9003279020512822
 21
-2.982917299643835
 31
3.0
  0
LINE
  5
2F2
330
17
100
AcDbEntity
  8
0
100
AcDbLine
 10
-2.09964505471554
 20
-2.9986038997579354
 30
3.0
 11
-1.9003279020512822
 21
-2.982917299643835
 31
3.0
  0
LINE
  5
2F3
330
17
100
AcDbEntity
  8
0
100
AcDbLine
 10
-1.7031363886125357
 20
-2.949918757296282
 30
2.0
 11
-1.7031363886125357
 21
-2.949918757296282
 31
3.0
  0
LINE
  5
2F4
330
17
100
AcDbEntity
  8
0
100
AcDbLine
 10
-1.9003279020512822
 20
-2.982917299643835
 30
3.0
 11
-1.7031363886125357
 21
-2.9499187572962815
 31
3.0
  0
LINE
  5
2F5
330
17
100
AcDbEntity
  8
0
100
AcDbLine
 10
-1.50957126088406
 20
-2.8998594115476046
 30
2.0
 11
-1.50957126088406
 21
-2.8998594115476046
 31
3.0
  0
LINE
  5
2F6
330
17
100
AcDbEntity
  8
0
100
AcDbLine
 10
-1.7031363886125357
 20
-2.949918757296282
 30
3.0
 11
-1.50957126088406
 21
-2.8998594115476046
 31
3.0
  0
LINE
  5
2F7
330
17
100
AcDbEntity
  8
0
100
AcDbLine
 10
-1.321105666365688
 20
-2.833120244245609
 30
2.0
 11
-1.321105666365688
 21
-2.833120244245609
 31
3.0
  0
LINE
  5
2F8
330
17
100
AcDbEntity
  8
0
100
AcDbLine
 10
-1.50957126088406
 20
-2.8998594115476046
 30
3.0
 11
-1.321105666365688
 21
-2.833120244245609
 31
3.0
  0
LINE
  5
2F9
330
17
100
AcDbEntity
  8
0
100
AcDbLine
 10
-1.1391739420303435
 20
-2.7502091807516766
 30
2.0
 11
-1.1391739420303435
 21
-2.7502091807516766
 31
3.0
  0
LINE
  5
2FA
330
17
100
AcDbEntity
  8
0
100
AcDbLine
 10
-1.321105666365688
 20
-2.833120244245609
 30
3.0
 11
-1.1391739420303433
 21
-2.7502091807516766
 31
3.0
  0
LINE
  5
2FB
330
17
100
AcDbEntity
  8
0
100
AcDbLine
 10
-0.9651606981535964
 20
-2.6517572243220626
 30
2.0
 11
-0.9651606981535964
 21
-2.6517572243220626
 31
3.0
  0
LINE
  5
2FC
330
17
100
AcDbEntity
  8
0
100
AcDbLine
 10
-1.1391739420303435
 20
-2.7502091807516766
 30
3.0
 11
-0.9651606981535964
 21
-2.651757224322063
 31
3.0
  0
LINE
  5
2FD
330
17
100
AcDbEntity
  8
0
100
AcDbLine
 10
-0.8003902805934182
 20
-2.538513653792116
 30
2.0
 11
-0.8003902805934182
 21
-2.538513653792116
 31
3.0
  0
LINE
  5
2FE
330
17
100
AcDbEntity
  8
0
100
AcDbLine
 10
-0.9651606981535964
 20
-2.6517572243220626
 30
3.0
 11
-0.8003902805934182
 21
-2.5385136537921156
 31
3.0
  0
LINE
  5
2FF
330
17
100
AcDbEntity
  8
0
100
AcDbLine
 10
-0.6461166917185398
 20
-2.4113403211119047
 30
2.0
 11
-0.6461166917185398
 21
-2.4113403211119047
 31
3.0
  0
LINE
  5
300
330
17
100
AcDbEntity
  8
0
100
AcDbLine
 10
-0.8003902805934182
 20
-2.538513653792116
 30
3.0
 11
-0.6461166917185398
 21
-2.411340321111905
 31
3.0
  0
LINE
  5
301
330
17
100
AcDbEntity
  8
0
100
AcDbLine
 10
-0.5035140466932388
 20
-2.2712050921324836
 30
2.0
 11
-0.5035140466932388
 21
-2.2712050921324836
 31
3.0
  0
LINE
  5
302
330
17
100
AcDbEntity
  8
0
100
AcDbLine
 10
-0.6461166917185398
 20
-2.4113403211119047
 30
3.0
 11
-0.5035140466932388
 21
-2.271205092132483
 31
3.0
  0
LINE
  5
303
330
17
100
AcDbEntity
  8
0
100
AcDbLine
 10
-0.3736676377519897
 20
-2.1191744805623505
 30
2.0
 11
-0.3736676377519897
 21
-2.1191744805623505
 31
3.0
  0
LINE
  5
304
330
17
100
AcDbEntity
  8
0
100
AcDbLine
 10
-0.5035140466932388
 20
-2.2712050921324836
 30
3.0
 11
-0.37366763775198963
 21
-2.1191744805623505
 31
3.0
  0
LINE
  5
305
330
17
100
AcDbEntity
  8
0
100
AcDbLine
 10
-0.25756567447023904
 20
-1.9564055311541462
 30
2.0
 11
-0.25756567447023904
 21
-1.9564055311541462
 31
3.0
  0
LINE
  5
306
330
17
100
AcDbEntity
  8
0
100
AcDbLine
 10
-0.3736676377519897
 20
-2.1191744805623505
 30
3.0
 11
-0.25756567447023915
 21
-1.9564055311541462
 31
3.0
  0
LINE
  5
307
330
17
100
AcDbEntity
  8
0
100
AcDbLine
 10
-0.15609176289284604
 20
-1.7841370138954489
 30
2.0
 11
-0.15609176289284604
 21
-1.7841370138954489
 31
3.0
  0
LINE
  5
308
330
17
100
AcDbEntity
  8
0
100
AcDbLine
 10
-0.25756567447023904
 20
-1.9564055311541462
 30
3.0
 11
-0.156091762892846
 21
-1.7841370138954487
 31
3.0
  0
LINE
  5
309
330
17
100
AcDbEntity
  8
0
100
AcDbLine
 10
-0.07001818075853561
 20
-1.6036799962211703
 30
2.0
 11
-0.07001818075853561
 21
-1.6036799962211703
 31
3.0
  0
LINE
  5
30A
330
17
100
AcDbEntity
  8
0
100
AcDbLine
 10
-0.15609176289284604
 20
-1.7841370138954489
 30
3.0
 11
-0.07001818075853562
 21
-1.6036799962211705
 31
3.0
  0
LINE
  5
30B
330
17
100
AcDbEntity
  8
0
100
AcDbLine
 10
-1.6653345369377348e-16
 20
-1.4164078649987384
 30
2.0
 11
-1.6653345369377348e-16
 21
-1.4164078649987384
 31
3.0
  0
LINE
  5
30C
330
17
100
AcDbEntity
  8
0
100
AcDbLine
 10
-0.07001818075853561
 20
-1.6036799962211703
 30
3.0
 11
-2.0816681711721685e-16
 21
-1.4164078649987384
 31
3.0
  0
LINE
  5
30D
330
17
100
AcDbEntity
  8
0
100
AcDbLine
 10
-1.6653345369377348e-16
 20
-1.4164078649987384
 30
3.0
 11
0.0007039731665164035
 21
-1.413869419766986
 31
3.0
  0
LINE
  5
30E
330
17
100
AcDbEntity
  8
0
100
AcDbLine
 10
-0.0007416150781322933
 20
-0.002087625224102063
 30
3.0
 11
-0.004965688907753743
 21
-0.0020507622902525553
 31
3.0
  0
LINE
  5
30F
330
17
100
AcDbEntity
  8
0
100
AcDbLine
 10
-0.004965688907753757
 20
-0.002050762290252528
 30
3.0
 11
-0.0022146212353919836
 21
6.020618050711635e-05
 31
3.0
  0
LINE
  5
310
330
17
100
AcDbEntity
  8
0
100
AcDbLine
 10
-0.0022146212353919836
 20
6.020618050711635e-05
 30
3.0
 11
-0.003484873100792159
 21
0.004088930394502477
 31
3.0
  0
LINE
  5
311
330
17
100
AcDbEntity
  8
0
100
AcDbLine
 10
-0.003484873100792159
 20
0.004088930394502477
 30
3.0
 11
-0.0006270961175472295
 21
0.0021248346899882704
 31
3.0
  0
LINE
  5
312
330
17
100
AcDbEntity
  8
0
100
AcDbLine
 10
-0.0006270961175472295
 20
0.002124834689988267
 30
3.0
 11
0.002811918884983944
 21
0.004577860251687563
 31
3.0
  0
LINE
  5
313
330
17
100
AcDbEntity
  8
0
100
AcDbLine
 10
0.0028119188849839785
 20
0.004577860251687535
 30
3.0
 11
0.001827054520534695
 21
0.0012530138783804837
 31
3.0
  0
LINE
  5
314
330
17
100
AcDbEntity
  8
0
100
AcDbLine
 10
0.0018270545205347072
 20
0.0012530138783804767
 30
3.0
 11
0.005222734545319935
 21
-0.0012596571632123577
 31
3.0
  0
LINE
  5
315
330
17
100
AcDbEntity
  8
0
100
AcDbLine
 10
0.005222734545319935
 20
-0.001259657163212394
 30
3.0
 11
0.0017562779105368131
 21
-0.0013504295247738086
 31
3.0
  0
LINE
  5
316
330
17
100
AcDbEntity
  8
0
100
AcDbLine
 10
0.0017562779105368062
 20
-0.001350429524773794
 30
3.0
 11
0.0004159085782419747
 21
-0.005356371192725098
 31
3.0
  0
LINE
  5
317
330
17
100
AcDbEntity
  8
0
100
AcDbLine
 10
0.00041590857824195734
 20
-0.0053563711927250846
 30
3.0
 11
-0.0007416150781322985
 21
-0.002087625224102059
 31
3.0
  0
LINE
  5
318
330
17
100
AcDbEntity
  8
0
100
AcDbLine
 10
-0.0049656889077538124
 20
-0.002050762290252555
 30
2.0
 11
-0.0007416150781323003
 21
-0.0020876252241020634
 31
2.0
  0
LINE
  5
319
330
17
100
AcDbEntity
  8
0
100
AcDbLine
 10
-0.004965688907753816
 20
-0.0020507622902525497
 30
2.0
 11
-0.004965688907753816
 21
-0.0020507622902525497
 31
3.0
  0
LINE
  5
31A
330
17
100
AcDbEntity
  8
0
100
AcDbLine
 10
-0.000741615078132315
 20
-0.002087625224102063
 30
2.0
 11
-0.000741615078132315
 21
-0.002087625224102063
 31
3.0
  0
LINE
  5
31B
330
17
100
AcDbEntity
  8
0
100
AcDbLine
 10
-0.0022146212353919732
 20
6.020618050712502e-05
 30
2.0
 11
-0.004965688907753802
 21
-0.0020507622902525627
 31
2.0
  0
LINE
  5
31C
330
17
100
AcDbEntity
  8
0
100
AcDbLine
 10
-0.002214621235391987
 20
6.020618050713196e-05
 30
2.0
 11
-0.002214621235391987
 21
6.020618050713196e-05
 31
3.0
  0
LINE
  5
31D
330
17
100
AcDbEntity
  8
0
100
AcDbLine
 10
-0.003484873100792176
 20
0.0040889303945025254
 30
2.0
 11
-0.0022146212353919836
 21
6.020618050710941e-05
 31
2.0
  0
LINE
  5
31E
330
17
100
AcDbEntity
  8
0
100
AcDbLine
 10
-0.003484873100792164
 20
0.004088930394502513
 30
3.0
 11
-0.003484873100792164
 21
0.004088930394502513
 31
2.0
  0
LINE
  5
31F
330
17
100
AcDbEntity
  8
0
100
AcDbLine
 10
-0.0006270961175472191
 20
0.0021248346899882635
 30
2.0
 11
-0.003484873100792176
 21
0.004088930394502489
 31
2.0
  0
LINE
  5
320
330
17
100
AcDbEntity
  8
0
100
AcDbLine
 10
-0.0006270961175472142
 20
0.002124834689988282
 30
2.0
 11
-0.0006270961175472142
 21
0.002124834689988282
 31
3.0
  0
LINE
  5
321
330
17
100
AcDbEntity
  8
0
100
AcDbLine
 10
0.00281191888498402
 20
0.004577860251687625
 30
2.0
 11
-0.0006270961175472364
 21
0.002124834689988281
 31
2.0
  0
LINE
  5
322
330
17
100
AcDbEntity
  8
0
100
AcDbLine
 10
0.0028119188849840323
 20
0.004577860251687625
 30
2.0
 11
0.0028119188849840323
 21
0.004577860251687625
 31
3.0
  0
LINE
  5
323
330
17
100
AcDbEntity
  8
0
100
AcDbLine
 10
0.0018270545205346907
 20
0.0012530138783804663
 30
2.0
 11
0.0028119188849840054
 21
0.004577860251687627
 31
2.0
  0
LINE
  5
324
330
17
100
AcDbEntity
  8
0
100
AcDbLine
 10
0.0018270545205347091
 20
0.001253013878380472
 30
2.0
 11
0.0018270545205347091
 21
0.001253013878380472
 31
3.0
  0
LINE
  5
325
330
17
100
AcDbEntity
  8
0
100
AcDbLine
 10
0.00522273454531999
 20
-0.0012596571632123993
 30
2.0
 11
0.0018270545205347072
 21
0.0012530138783804767
 31
2.0
  0
LINE
  5
326
330
17
100
AcDbEntity
  8
0
100
AcDbLine
 10
0.005222734545319987
 20
-0.0012596571632123958
 30
2.0
 11
0.005222734545319987
 21
-0.0012596571632123958
 31
3.0
  0
LINE
  5
327
330
17
100
AcDbEntity
  8
0
100
AcDbLine
 10
0.0017562779105368027
 20
-0.001350429524773809
 30
2.0
 11
0.00522273454531999
 21
-0.0012596571632123926
 31
2.0
  0
LINE
  5
328
330
17
100
AcDbEntity
  8
0
100
AcDbLine
 10
0.0017562779105368077
 20
-0.0013504295247738234
 30
2.0
 11
0.0017562779105368077
 21
-0.0013504295247738234
 31
3.0
  0
LINE
  5
329
330
17
100
AcDbEntity
  8
0
100
AcDbLine
 10
0.00041590857824195734
 20
-0.005356371192725161
 30
2.0
 11
0.0017562779105368097
 21
-0.001350429524773794
 31
2.0
  0
LINE
  5
32A
330
17
100
AcDbEntity
  8
0
100
AcDbLine
 10
0.0004159085782419565
 20
-0.005356371192725157
 30
2.0
 11
0.0004159085782419565
 21
-0.005356371192725157
 31
3.0
  0
LINE
  5
32B
330
17
100
AcDbEntity
  8
0
100
AcDbLine
 10
-0.0007416150781322994
 20
-0.0020876252241020556
 30
2.0
 11
0.00041590857824197903
 21
-0.005356371192725145
 31
2.0
  0
ENDSEC
  0
SECTION
  2
OBJECTS
  0
DICTIONARY
  5
A
330
0
100
AcDbDictionary
281
1
  3
ACAD_COLOR
350
B
  3
ACAD_GROUP
350
C
  3
ACAD_LAYOUT
350
D
  3
ACAD_MATERIAL
350
E
  3
ACAD_MLEADERSTYLE
350
F
  3
ACAD_MLINESTYLE
350
10
  3
ACAD_PLOTSETTINGS
350
11
  3
ACAD_PLOTSTYLENAME
350
12
  3
ACAD_SCALELIST
350
14
  3
ACAD_TABLESTYLE
350
15
  3
ACAD_VISUALSTYLE
350
16
  3
EZDXF_META
350
2D
  0
DICTIONARY
  5
B
330
A
100
AcDbDictionary
281
1
  0
DICTIONARY
  5
C
330
A
100
AcDbDictionary
281
1
  0
DICTIONARY
  5
D
330
A
100
AcDbDictionary
281
1
  3
Model
350
1A
  3
Layout1
350
1E
  0
DICTIONARY
  5
E
330
A
100
AcDbDictionary
281
1
  3
ByBlock
350
1F
  3
ByLayer
350
20
  3
Global
350
21
  0
DICTIONARY
  5
F
330
A
100
AcDbDictionary
281
1
  3
Standard
350
2C
  0
DICTIONARY
  5
10
330
A
100
AcDbDictionary
281
1
  3
Standard
350
22
  0
DICTIONARY
  5
11
330
A
100
AcDbDictionary
281
1
  0
ACDBDICTIONARYWDFLT
  5
12
330
A
100
AcDbDictionary
281
1
  3
Normal
350
13
100
AcDbDictionaryWithDefault
340
13
  0
ACDBPLACEHOLDER
  5
13
330
12
  0
DICTIONARY
  5
14
330
A
100
AcDbDictionary
281
1
  0
DICTIONARY
  5
15
330
A
100
AcDbDictionary
281
1
  0
DICTIONARY
  5
16
330
A
100
AcDbDictionary
281
1
  0
LAYOUT
  5
1A
330
D
100
AcDbPlotSettings
  1

  2
Adobe PDF
  4
A3
  6

 40
7.5
 41
20.0
 42
7.5
 43
20.0
 44
420.0
 45
297.0
 46
0.0
 47
0.0
 48
0.0
 49
0.0
140
0.0
141
0.0
142
1.0
143
1.0
 70
1024
 72
1
 73
1
 74
5
  7

 75
16
 76
0
 77
2
 78
300
147
1.0
148
0.0
149
0.0
100
AcDbLayout
  1
Model
 70
1
 71
0
 10
0.0
 20
0.0
 11
420.0
 21
297.0
 12
0.0
 22
0.0
 32
0.0
 14
1e+20
 24
1e+20
 34
1e+20
 15
-1e+20
 25
-1e+20
 35
-1e+20
146
0.0
 13
0.0
 23
0.0
 33
0.0
 16
1.0
 26
0.0
 36
0.0
 17
0.0
 27
1.0
 37
0.0
 76
1
330
17
  0
LAYOUT
  5
1E
330
D
100
AcDbPlotSettings
  1

  2
Adobe PDF
  4
A3
  6

 40
7.5
 41
20.0
 42
7.5
 43
20.0
 44
420.0
 45
297.0
 46
0.0
 47
0.0
 48
0.0
 49
0.0
140
0.0
141
0.0
142
1.0
143
1.0
 70
0
 72
1
 73
1
 74
5
  7

 75
16
 76
0
 77
2
 78
300
147
1.0
148
0.0
149
0.0
100
AcDbLayout
  1
Layout1
 70
1
 71
1
 10
0.0
 20
0.0
 11
420.0
 21
297.0
 12
0.0
 22
0.0
 32
0.0
 14
1e+20
 24
1e+20
 34
1e+20
 15
-1e+20
 25
-1e+20
 35
-1e+20
146
0.0
 13
0.0
 23
0.0
 33
0.0
 16
1.0
 26
0.0
 36
0.0
 17
0.0
 27
1.0
 37
0.0
 76
1
330
1B
  0
MATERIAL
  5
1F
102
{ACAD_REACTORS
330
E
102
}
330
E
100
AcDbMaterial
  1
ByBlock
  2

 70
0
 40
1.0
 71
1
 41
1.0
 91
-1023410177
 42
1.0
 72
1
  3

 73
1
 74
1
 75
1
 44
0.5
 73
0
 45
1.0
 46
1.0
 77
1
  4

 78
1
 79
1
170
1
 48
1.0
171
1
  6

172
1
173
1
174
1
140
1.0
141
1.0
175
1
  7

176
1
177
1
178
1
143
1.0
179
1
  8

270
1
271
1
272
1
145
1.0
146
1.0
273
1
  9

274
1
275
1
276
1
 42
1.0
 72
1
  3

 73
1
 74
1
 75
1
 94
63
  0
MATERIAL
  5
20
102
{ACAD_REACTORS
330
E
102
}
330
E
100
AcDbMaterial
  1
ByLayer
  2

 70
0
 40
1.0
 71
1
 41
1.0
 91
-1023410177
 42
1.0
 72
1
  3

 73
1
 74
1
 75
1
 44
0.5
 73
0
 45
1.0
 46
1.0
 77
1
  4

 78
1
 79
1
170
1
 48
1.0
171
1
  6

172
1
173
1
174
1
140
1.0
141
1.0
175
1
  7

176
1
177
1
178
1
143
1.0
179
1
  8

270
1
271
1
272
1
145
1.0
146
1.0
273
1
  9

274
1
275
1
276
1
 42
1.0
 72
1
  3

 73
1
 74
1
 75
1
 94
63
  0
MATERIAL
  5
21
102
{ACAD_REACTORS
330
E
102
}
330
E
100
AcDbMaterial
  1
Global
  2

 70
0
 40
1.0
 71
1
 41
1.0
 91
-1023410177
 42
1.0
 72
1
  3

 73
1
 74
1
 75
1
 44
0.5
 73
0
 45
1.0
 46
1.0
 77
1
  4

 78
1
 79
1
170
1
 48
1.0
171
1
  6

172
1
173
1
174
1
140
1.0
141
1.0
175
1
  7

176
1
177
1
178
1
143
1.0
179
1
  8

270
1
271
1
272
1
145
1.0
146
1.0
273
1
  9

274
1
275
1
276
1
 42
1.0
 72
1
  3

 73
1
 74
1
 75
1
 94
63
  0
MLINESTYLE
  5
22
102
{ACAD_REACTORS
330
10
102
}
330
10
100
AcDbMlineStyle
  2
Standard
 70
0
  3

 62
256
 51
90.0
 52
90.0
 71
2
 49
0.5
 62
256
  6
BYLAYER
 49
-0.5
 62
256
  6
BYLAYER
  0
MLEADERSTYLE
  5
2C
102
{ACAD_REACTORS
330
F
102
}
330
F
100
AcDbMLeaderStyle
179
2
170
2
171
1
172
0
 90
2
 40
0.0
 41
0.0
173
1
 91
-1056964608
 92
-2
290
1
 42
2.0
291
1
 43
8.0
  3
Standard
 44
4.0
300

342
29
174
1
175
1
176
0
178
1
 93
-1056964608
 45
4.0
292
0
297
0
 46
4.0
 94
-1056964608
 47
1.0
 49
1.0
140
1.0
294
1
141
0.0
177
0
142
1.0
295
0
296
0
143
3.75
271
0
272
9
273
9
  0
DICTIONARY
  5
2D
330
A
100
AcDbDictionary
280
1
281
1
  3
CREATED_BY_EZDXF
350
2E
  3
WRITTEN_BY_EZDXF
350
32E
  0
DICTIONARYVAR
  5
2E
330
2D
100
DictionaryVariables
280
0
  1
0.17 @ 2021-12-21T20:03:14.740502+00:00
  0
DICTIONARYVAR
  5
32E
330
2D
100
DictionaryVariables
280
0
  1
0.17 @ 2021-12-21T20:03:15.013798+00:00
  0
ENDSEC
  0
EOF
